G04 #@! TF.GenerationSoftware,KiCad,Pcbnew,(6.0.1-0)*
G04 #@! TF.CreationDate,2022-01-18T02:04:34+01:00*
G04 #@! TF.ProjectId,KBD8X-MK2,4b424438-582d-44d4-9b32-2e6b69636164,rev?*
G04 #@! TF.SameCoordinates,Original*
G04 #@! TF.FileFunction,Legend,Top*
G04 #@! TF.FilePolarity,Positive*
%FSLAX46Y46*%
G04 Gerber Fmt 4.6, Leading zero omitted, Abs format (unit mm)*
G04 Created by KiCad (PCBNEW (6.0.1-0)) date 2022-01-18 02:04:34*
%MOMM*%
%LPD*%
G01*
G04 APERTURE LIST*
G04 Aperture macros list*
%AMRoundRect*
0 Rectangle with rounded corners*
0 $1 Rounding radius*
0 $2 $3 $4 $5 $6 $7 $8 $9 X,Y pos of 4 corners*
0 Add a 4 corners polygon primitive as box body*
4,1,4,$2,$3,$4,$5,$6,$7,$8,$9,$2,$3,0*
0 Add four circle primitives for the rounded corners*
1,1,$1+$1,$2,$3*
1,1,$1+$1,$4,$5*
1,1,$1+$1,$6,$7*
1,1,$1+$1,$8,$9*
0 Add four rect primitives between the rounded corners*
20,1,$1+$1,$2,$3,$4,$5,0*
20,1,$1+$1,$4,$5,$6,$7,0*
20,1,$1+$1,$6,$7,$8,$9,0*
20,1,$1+$1,$8,$9,$2,$3,0*%
G04 Aperture macros list end*
%ADD10C,0.010000*%
%ADD11C,2.150000*%
%ADD12C,4.387800*%
%ADD13C,2.650000*%
%ADD14C,3.448000*%
%ADD15C,2.305000*%
%ADD16RoundRect,0.200000X-0.952500X-0.952500X0.952500X-0.952500X0.952500X0.952500X-0.952500X0.952500X0*%
%ADD17C,1.050000*%
%ADD18O,1.400000X2.000000*%
%ADD19O,1.400000X2.500000*%
G04 APERTURE END LIST*
D10*
X240818518Y-251725206D02*
X240826073Y-251728409D01*
X240826073Y-251728409D02*
X240833914Y-251732966D01*
X240833914Y-251732966D02*
X240842974Y-251740106D01*
X240842974Y-251740106D02*
X240854185Y-251751058D01*
X240854185Y-251751058D02*
X240868482Y-251767051D01*
X240868482Y-251767051D02*
X240886796Y-251789314D01*
X240886796Y-251789314D02*
X240910062Y-251819078D01*
X240910062Y-251819078D02*
X240939212Y-251857570D01*
X240939212Y-251857570D02*
X240975179Y-251906020D01*
X240975179Y-251906020D02*
X241018896Y-251965658D01*
X241018896Y-251965658D02*
X241071297Y-252037712D01*
X241071297Y-252037712D02*
X241133315Y-252123412D01*
X241133315Y-252123412D02*
X241205882Y-252223987D01*
X241205882Y-252223987D02*
X241289932Y-252340666D01*
X241289932Y-252340666D02*
X241367515Y-252448444D01*
X241367515Y-252448444D02*
X241443044Y-252553310D01*
X241443044Y-252553310D02*
X241514934Y-252652982D01*
X241514934Y-252652982D02*
X241582062Y-252745914D01*
X241582062Y-252745914D02*
X241643306Y-252830557D01*
X241643306Y-252830557D02*
X241697543Y-252905364D01*
X241697543Y-252905364D02*
X241743649Y-252968787D01*
X241743649Y-252968787D02*
X241780504Y-253019279D01*
X241780504Y-253019279D02*
X241806983Y-253055292D01*
X241806983Y-253055292D02*
X241821963Y-253075278D01*
X241821963Y-253075278D02*
X241824772Y-253078757D01*
X241824772Y-253078757D02*
X241829551Y-253078979D01*
X241829551Y-253078979D02*
X241838397Y-253072601D01*
X241838397Y-253072601D02*
X241852140Y-253058526D01*
X241852140Y-253058526D02*
X241871611Y-253035653D01*
X241871611Y-253035653D02*
X241897640Y-253002883D01*
X241897640Y-253002883D02*
X241931059Y-252959117D01*
X241931059Y-252959117D02*
X241972698Y-252903255D01*
X241972698Y-252903255D02*
X242023386Y-252834197D01*
X242023386Y-252834197D02*
X242083956Y-252750844D01*
X242083956Y-252750844D02*
X242155237Y-252652096D01*
X242155237Y-252652096D02*
X242238060Y-252536855D01*
X242238060Y-252536855D02*
X242310864Y-252435291D01*
X242310864Y-252435291D02*
X242389023Y-252326279D01*
X242389023Y-252326279D02*
X242463827Y-252222172D01*
X242463827Y-252222172D02*
X242534165Y-252124502D01*
X242534165Y-252124502D02*
X242598927Y-252034800D01*
X242598927Y-252034800D02*
X242657001Y-251954598D01*
X242657001Y-251954598D02*
X242707278Y-251885427D01*
X242707278Y-251885427D02*
X242748645Y-251828820D01*
X242748645Y-251828820D02*
X242779994Y-251786308D01*
X242779994Y-251786308D02*
X242800213Y-251759423D01*
X242800213Y-251759423D02*
X242807600Y-251750226D01*
X242807600Y-251750226D02*
X242842927Y-251727687D01*
X242842927Y-251727687D02*
X242884235Y-251722926D01*
X242884235Y-251722926D02*
X242923834Y-251735751D01*
X242923834Y-251735751D02*
X242945234Y-251753678D01*
X242945234Y-251753678D02*
X242971022Y-251783659D01*
X242971022Y-251783659D02*
X242971022Y-254376837D01*
X242971022Y-254376837D02*
X242936289Y-254406063D01*
X242936289Y-254406063D02*
X242910110Y-254424811D01*
X242910110Y-254424811D02*
X242888583Y-254434789D01*
X242888583Y-254434789D02*
X242884929Y-254435288D01*
X242884929Y-254435288D02*
X242856289Y-254428187D01*
X242856289Y-254428187D02*
X242824430Y-254411028D01*
X242824430Y-254411028D02*
X242799912Y-254390033D01*
X242799912Y-254390033D02*
X242794590Y-254382084D01*
X242794590Y-254382084D02*
X242793154Y-254368172D01*
X242793154Y-254368172D02*
X242791669Y-254333237D01*
X242791669Y-254333237D02*
X242790156Y-254278832D01*
X242790156Y-254278832D02*
X242788636Y-254206510D01*
X242788636Y-254206510D02*
X242787131Y-254117825D01*
X242787131Y-254117825D02*
X242785661Y-254014331D01*
X242785661Y-254014331D02*
X242784248Y-253897582D01*
X242784248Y-253897582D02*
X242782912Y-253769131D01*
X242782912Y-253769131D02*
X242781675Y-253630532D01*
X242781675Y-253630532D02*
X242780558Y-253483339D01*
X242780558Y-253483339D02*
X242779582Y-253329106D01*
X242779582Y-253329106D02*
X242779111Y-253241535D01*
X242779111Y-253241535D02*
X242773467Y-252121159D01*
X242773467Y-252121159D02*
X242335437Y-252729729D01*
X242335437Y-252729729D02*
X242260336Y-252833814D01*
X242260336Y-252833814D02*
X242188792Y-252932476D01*
X242188792Y-252932476D02*
X242121936Y-253024183D01*
X242121936Y-253024183D02*
X242060905Y-253107405D01*
X242060905Y-253107405D02*
X242006831Y-253180607D01*
X242006831Y-253180607D02*
X241960848Y-253242259D01*
X241960848Y-253242259D02*
X241924090Y-253290829D01*
X241924090Y-253290829D02*
X241897691Y-253324784D01*
X241897691Y-253324784D02*
X241882785Y-253342592D01*
X241882785Y-253342592D02*
X241880136Y-253344927D01*
X241880136Y-253344927D02*
X241832909Y-253351972D01*
X241832909Y-253351972D02*
X241788237Y-253338525D01*
X241788237Y-253338525D02*
X241764741Y-253320511D01*
X241764741Y-253320511D02*
X241752909Y-253306070D01*
X241752909Y-253306070D02*
X241729115Y-253274937D01*
X241729115Y-253274937D02*
X241694567Y-253228756D01*
X241694567Y-253228756D02*
X241650473Y-253169172D01*
X241650473Y-253169172D02*
X241598041Y-253097830D01*
X241598041Y-253097830D02*
X241538481Y-253016376D01*
X241538481Y-253016376D02*
X241472999Y-252926455D01*
X241472999Y-252926455D02*
X241402805Y-252829711D01*
X241402805Y-252829711D02*
X241329106Y-252727790D01*
X241329106Y-252727790D02*
X241311232Y-252703020D01*
X241311232Y-252703020D02*
X240888222Y-252116573D01*
X240888222Y-252116573D02*
X240882578Y-253247397D01*
X240882578Y-253247397D02*
X240881648Y-253432086D01*
X240881648Y-253432086D02*
X240880790Y-253595526D01*
X240880790Y-253595526D02*
X240879973Y-253739044D01*
X240879973Y-253739044D02*
X240879162Y-253863968D01*
X240879162Y-253863968D02*
X240878327Y-253971627D01*
X240878327Y-253971627D02*
X240877435Y-254063349D01*
X240877435Y-254063349D02*
X240876452Y-254140461D01*
X240876452Y-254140461D02*
X240875347Y-254204292D01*
X240875347Y-254204292D02*
X240874087Y-254256170D01*
X240874087Y-254256170D02*
X240872639Y-254297422D01*
X240872639Y-254297422D02*
X240870971Y-254329377D01*
X240870971Y-254329377D02*
X240869051Y-254353363D01*
X240869051Y-254353363D02*
X240866845Y-254370708D01*
X240866845Y-254370708D02*
X240864322Y-254382739D01*
X240864322Y-254382739D02*
X240861449Y-254390785D01*
X240861449Y-254390785D02*
X240858193Y-254396174D01*
X240858193Y-254396174D02*
X240854523Y-254400234D01*
X240854523Y-254400234D02*
X240854355Y-254400399D01*
X240854355Y-254400399D02*
X240821669Y-254421657D01*
X240821669Y-254421657D02*
X240784254Y-254430822D01*
X240784254Y-254430822D02*
X240758400Y-254427551D01*
X240758400Y-254427551D02*
X240737940Y-254415496D01*
X240737940Y-254415496D02*
X240716067Y-254398017D01*
X240716067Y-254398017D02*
X240690667Y-254374908D01*
X240690667Y-254374908D02*
X240690667Y-253083556D01*
X240690667Y-253083556D02*
X240690749Y-252861656D01*
X240690749Y-252861656D02*
X240690998Y-252661836D01*
X240690998Y-252661836D02*
X240691419Y-252483603D01*
X240691419Y-252483603D02*
X240692017Y-252326459D01*
X240692017Y-252326459D02*
X240692795Y-252189909D01*
X240692795Y-252189909D02*
X240693759Y-252073457D01*
X240693759Y-252073457D02*
X240694914Y-251976608D01*
X240694914Y-251976608D02*
X240696263Y-251898865D01*
X240696263Y-251898865D02*
X240697812Y-251839733D01*
X240697812Y-251839733D02*
X240699564Y-251798716D01*
X240699564Y-251798716D02*
X240701526Y-251775318D01*
X240701526Y-251775318D02*
X240702864Y-251769413D01*
X240702864Y-251769413D02*
X240726843Y-251744518D01*
X240726843Y-251744518D02*
X240762654Y-251727342D01*
X240762654Y-251727342D02*
X240800204Y-251721741D01*
X240800204Y-251721741D02*
X240818518Y-251725206D01*
X240818518Y-251725206D02*
X240818518Y-251725206D01*
G36*
X240818518Y-251725206D02*
G01*
X240826073Y-251728409D01*
X240833914Y-251732966D01*
X240842974Y-251740106D01*
X240854185Y-251751058D01*
X240868482Y-251767051D01*
X240886796Y-251789314D01*
X240910062Y-251819078D01*
X240939212Y-251857570D01*
X240975179Y-251906020D01*
X241018896Y-251965658D01*
X241071297Y-252037712D01*
X241133315Y-252123412D01*
X241205882Y-252223987D01*
X241289932Y-252340666D01*
X241367515Y-252448444D01*
X241443044Y-252553310D01*
X241514934Y-252652982D01*
X241582062Y-252745914D01*
X241643306Y-252830557D01*
X241697543Y-252905364D01*
X241743649Y-252968787D01*
X241780504Y-253019279D01*
X241806983Y-253055292D01*
X241821963Y-253075278D01*
X241824772Y-253078757D01*
X241829551Y-253078979D01*
X241838397Y-253072601D01*
X241852140Y-253058526D01*
X241871611Y-253035653D01*
X241897640Y-253002883D01*
X241931059Y-252959117D01*
X241972698Y-252903255D01*
X242023386Y-252834197D01*
X242083956Y-252750844D01*
X242155237Y-252652096D01*
X242238060Y-252536855D01*
X242310864Y-252435291D01*
X242389023Y-252326279D01*
X242463827Y-252222172D01*
X242534165Y-252124502D01*
X242598927Y-252034800D01*
X242657001Y-251954598D01*
X242707278Y-251885427D01*
X242748645Y-251828820D01*
X242779994Y-251786308D01*
X242800213Y-251759423D01*
X242807600Y-251750226D01*
X242842927Y-251727687D01*
X242884235Y-251722926D01*
X242923834Y-251735751D01*
X242945234Y-251753678D01*
X242971022Y-251783659D01*
X242971022Y-254376837D01*
X242936289Y-254406063D01*
X242910110Y-254424811D01*
X242888583Y-254434789D01*
X242884929Y-254435288D01*
X242856289Y-254428187D01*
X242824430Y-254411028D01*
X242799912Y-254390033D01*
X242794590Y-254382084D01*
X242793154Y-254368172D01*
X242791669Y-254333237D01*
X242790156Y-254278832D01*
X242788636Y-254206510D01*
X242787131Y-254117825D01*
X242785661Y-254014331D01*
X242784248Y-253897582D01*
X242782912Y-253769131D01*
X242781675Y-253630532D01*
X242780558Y-253483339D01*
X242779582Y-253329106D01*
X242779111Y-253241535D01*
X242773467Y-252121159D01*
X242335437Y-252729729D01*
X242260336Y-252833814D01*
X242188792Y-252932476D01*
X242121936Y-253024183D01*
X242060905Y-253107405D01*
X242006831Y-253180607D01*
X241960848Y-253242259D01*
X241924090Y-253290829D01*
X241897691Y-253324784D01*
X241882785Y-253342592D01*
X241880136Y-253344927D01*
X241832909Y-253351972D01*
X241788237Y-253338525D01*
X241764741Y-253320511D01*
X241752909Y-253306070D01*
X241729115Y-253274937D01*
X241694567Y-253228756D01*
X241650473Y-253169172D01*
X241598041Y-253097830D01*
X241538481Y-253016376D01*
X241472999Y-252926455D01*
X241402805Y-252829711D01*
X241329106Y-252727790D01*
X241311232Y-252703020D01*
X240888222Y-252116573D01*
X240882578Y-253247397D01*
X240881648Y-253432086D01*
X240880790Y-253595526D01*
X240879973Y-253739044D01*
X240879162Y-253863968D01*
X240878327Y-253971627D01*
X240877435Y-254063349D01*
X240876452Y-254140461D01*
X240875347Y-254204292D01*
X240874087Y-254256170D01*
X240872639Y-254297422D01*
X240870971Y-254329377D01*
X240869051Y-254353363D01*
X240866845Y-254370708D01*
X240864322Y-254382739D01*
X240861449Y-254390785D01*
X240858193Y-254396174D01*
X240854523Y-254400234D01*
X240854355Y-254400399D01*
X240821669Y-254421657D01*
X240784254Y-254430822D01*
X240758400Y-254427551D01*
X240737940Y-254415496D01*
X240716067Y-254398017D01*
X240690667Y-254374908D01*
X240690667Y-253083556D01*
X240690749Y-252861656D01*
X240690998Y-252661836D01*
X240691419Y-252483603D01*
X240692017Y-252326459D01*
X240692795Y-252189909D01*
X240693759Y-252073457D01*
X240694914Y-251976608D01*
X240696263Y-251898865D01*
X240697812Y-251839733D01*
X240699564Y-251798716D01*
X240701526Y-251775318D01*
X240702864Y-251769413D01*
X240726843Y-251744518D01*
X240762654Y-251727342D01*
X240800204Y-251721741D01*
X240818518Y-251725206D01*
G37*
X240818518Y-251725206D02*
X240826073Y-251728409D01*
X240833914Y-251732966D01*
X240842974Y-251740106D01*
X240854185Y-251751058D01*
X240868482Y-251767051D01*
X240886796Y-251789314D01*
X240910062Y-251819078D01*
X240939212Y-251857570D01*
X240975179Y-251906020D01*
X241018896Y-251965658D01*
X241071297Y-252037712D01*
X241133315Y-252123412D01*
X241205882Y-252223987D01*
X241289932Y-252340666D01*
X241367515Y-252448444D01*
X241443044Y-252553310D01*
X241514934Y-252652982D01*
X241582062Y-252745914D01*
X241643306Y-252830557D01*
X241697543Y-252905364D01*
X241743649Y-252968787D01*
X241780504Y-253019279D01*
X241806983Y-253055292D01*
X241821963Y-253075278D01*
X241824772Y-253078757D01*
X241829551Y-253078979D01*
X241838397Y-253072601D01*
X241852140Y-253058526D01*
X241871611Y-253035653D01*
X241897640Y-253002883D01*
X241931059Y-252959117D01*
X241972698Y-252903255D01*
X242023386Y-252834197D01*
X242083956Y-252750844D01*
X242155237Y-252652096D01*
X242238060Y-252536855D01*
X242310864Y-252435291D01*
X242389023Y-252326279D01*
X242463827Y-252222172D01*
X242534165Y-252124502D01*
X242598927Y-252034800D01*
X242657001Y-251954598D01*
X242707278Y-251885427D01*
X242748645Y-251828820D01*
X242779994Y-251786308D01*
X242800213Y-251759423D01*
X242807600Y-251750226D01*
X242842927Y-251727687D01*
X242884235Y-251722926D01*
X242923834Y-251735751D01*
X242945234Y-251753678D01*
X242971022Y-251783659D01*
X242971022Y-254376837D01*
X242936289Y-254406063D01*
X242910110Y-254424811D01*
X242888583Y-254434789D01*
X242884929Y-254435288D01*
X242856289Y-254428187D01*
X242824430Y-254411028D01*
X242799912Y-254390033D01*
X242794590Y-254382084D01*
X242793154Y-254368172D01*
X242791669Y-254333237D01*
X242790156Y-254278832D01*
X242788636Y-254206510D01*
X242787131Y-254117825D01*
X242785661Y-254014331D01*
X242784248Y-253897582D01*
X242782912Y-253769131D01*
X242781675Y-253630532D01*
X242780558Y-253483339D01*
X242779582Y-253329106D01*
X242779111Y-253241535D01*
X242773467Y-252121159D01*
X242335437Y-252729729D01*
X242260336Y-252833814D01*
X242188792Y-252932476D01*
X242121936Y-253024183D01*
X242060905Y-253107405D01*
X242006831Y-253180607D01*
X241960848Y-253242259D01*
X241924090Y-253290829D01*
X241897691Y-253324784D01*
X241882785Y-253342592D01*
X241880136Y-253344927D01*
X241832909Y-253351972D01*
X241788237Y-253338525D01*
X241764741Y-253320511D01*
X241752909Y-253306070D01*
X241729115Y-253274937D01*
X241694567Y-253228756D01*
X241650473Y-253169172D01*
X241598041Y-253097830D01*
X241538481Y-253016376D01*
X241472999Y-252926455D01*
X241402805Y-252829711D01*
X241329106Y-252727790D01*
X241311232Y-252703020D01*
X240888222Y-252116573D01*
X240882578Y-253247397D01*
X240881648Y-253432086D01*
X240880790Y-253595526D01*
X240879973Y-253739044D01*
X240879162Y-253863968D01*
X240878327Y-253971627D01*
X240877435Y-254063349D01*
X240876452Y-254140461D01*
X240875347Y-254204292D01*
X240874087Y-254256170D01*
X240872639Y-254297422D01*
X240870971Y-254329377D01*
X240869051Y-254353363D01*
X240866845Y-254370708D01*
X240864322Y-254382739D01*
X240861449Y-254390785D01*
X240858193Y-254396174D01*
X240854523Y-254400234D01*
X240854355Y-254400399D01*
X240821669Y-254421657D01*
X240784254Y-254430822D01*
X240758400Y-254427551D01*
X240737940Y-254415496D01*
X240716067Y-254398017D01*
X240690667Y-254374908D01*
X240690667Y-253083556D01*
X240690749Y-252861656D01*
X240690998Y-252661836D01*
X240691419Y-252483603D01*
X240692017Y-252326459D01*
X240692795Y-252189909D01*
X240693759Y-252073457D01*
X240694914Y-251976608D01*
X240696263Y-251898865D01*
X240697812Y-251839733D01*
X240699564Y-251798716D01*
X240701526Y-251775318D01*
X240702864Y-251769413D01*
X240726843Y-251744518D01*
X240762654Y-251727342D01*
X240800204Y-251721741D01*
X240818518Y-251725206D01*
X244109130Y-251734945D02*
X244123357Y-251747664D01*
X244123357Y-251747664D02*
X244156355Y-251780663D01*
X244156355Y-251780663D02*
X244156948Y-252585864D01*
X244156948Y-252585864D02*
X244157540Y-253391066D01*
X244157540Y-253391066D02*
X244983859Y-252559238D01*
X244983859Y-252559238D02*
X245129850Y-252412434D01*
X245129850Y-252412434D02*
X245260609Y-252281295D01*
X245260609Y-252281295D02*
X245376656Y-252165313D01*
X245376656Y-252165313D02*
X245478512Y-252063978D01*
X245478512Y-252063978D02*
X245566699Y-251976781D01*
X245566699Y-251976781D02*
X245641735Y-251903214D01*
X245641735Y-251903214D02*
X245704143Y-251842768D01*
X245704143Y-251842768D02*
X245754442Y-251794933D01*
X245754442Y-251794933D02*
X245793154Y-251759202D01*
X245793154Y-251759202D02*
X245820799Y-251735065D01*
X245820799Y-251735065D02*
X245837898Y-251722012D01*
X245837898Y-251722012D02*
X245843262Y-251719302D01*
X245843262Y-251719302D02*
X245884241Y-251719568D01*
X245884241Y-251719568D02*
X245920634Y-251737497D01*
X245920634Y-251737497D02*
X245947528Y-251768175D01*
X245947528Y-251768175D02*
X245960007Y-251806690D01*
X245960007Y-251806690D02*
X245957969Y-251833982D01*
X245957969Y-251833982D02*
X245950271Y-251847256D01*
X245950271Y-251847256D02*
X245930659Y-251871706D01*
X245930659Y-251871706D02*
X245898590Y-251907905D01*
X245898590Y-251907905D02*
X245853516Y-251956423D01*
X245853516Y-251956423D02*
X245794893Y-252017833D01*
X245794893Y-252017833D02*
X245722175Y-252092708D01*
X245722175Y-252092708D02*
X245634817Y-252181618D01*
X245634817Y-252181618D02*
X245532272Y-252285137D01*
X245532272Y-252285137D02*
X245425655Y-252392159D01*
X245425655Y-252392159D02*
X245335741Y-252482348D01*
X245335741Y-252482348D02*
X245250699Y-252567895D01*
X245250699Y-252567895D02*
X245171850Y-252647456D01*
X245171850Y-252647456D02*
X245100513Y-252719688D01*
X245100513Y-252719688D02*
X245038011Y-252783245D01*
X245038011Y-252783245D02*
X244985664Y-252836783D01*
X244985664Y-252836783D02*
X244944792Y-252878959D01*
X244944792Y-252878959D02*
X244916717Y-252908427D01*
X244916717Y-252908427D02*
X244902758Y-252923843D01*
X244902758Y-252923843D02*
X244901422Y-252925791D01*
X244901422Y-252925791D02*
X244908232Y-252935831D01*
X244908232Y-252935831D02*
X244927937Y-252962195D01*
X244927937Y-252962195D02*
X244959448Y-253003482D01*
X244959448Y-253003482D02*
X245001677Y-253058290D01*
X245001677Y-253058290D02*
X245053536Y-253125217D01*
X245053536Y-253125217D02*
X245113935Y-253202861D01*
X245113935Y-253202861D02*
X245181786Y-253289820D01*
X245181786Y-253289820D02*
X245256001Y-253384694D01*
X245256001Y-253384694D02*
X245335492Y-253486079D01*
X245335492Y-253486079D02*
X245418463Y-253591676D01*
X245418463Y-253591676D02*
X245502661Y-253698769D01*
X245502661Y-253698769D02*
X245583110Y-253801184D01*
X245583110Y-253801184D02*
X245658670Y-253897464D01*
X245658670Y-253897464D02*
X245728198Y-253986150D01*
X245728198Y-253986150D02*
X245790555Y-254065783D01*
X245790555Y-254065783D02*
X245844598Y-254134906D01*
X245844598Y-254134906D02*
X245889186Y-254192059D01*
X245889186Y-254192059D02*
X245923179Y-254235785D01*
X245923179Y-254235785D02*
X245945435Y-254264625D01*
X245945435Y-254264625D02*
X245954685Y-254276934D01*
X245954685Y-254276934D02*
X245972472Y-254319631D01*
X245972472Y-254319631D02*
X245967971Y-254361925D01*
X245967971Y-254361925D02*
X245941409Y-254401746D01*
X245941409Y-254401746D02*
X245940868Y-254402290D01*
X245940868Y-254402290D02*
X245903532Y-254428828D01*
X245903532Y-254428828D02*
X245866503Y-254432839D01*
X245866503Y-254432839D02*
X245828830Y-254414336D01*
X245828830Y-254414336D02*
X245817096Y-254404244D01*
X245817096Y-254404244D02*
X245804812Y-254390387D01*
X245804812Y-254390387D02*
X245779814Y-254360232D01*
X245779814Y-254360232D02*
X245743291Y-254315270D01*
X245743291Y-254315270D02*
X245696432Y-254256995D01*
X245696432Y-254256995D02*
X245640426Y-254186896D01*
X245640426Y-254186896D02*
X245576464Y-254106465D01*
X245576464Y-254106465D02*
X245505733Y-254017194D01*
X245505733Y-254017194D02*
X245429424Y-253920575D01*
X245429424Y-253920575D02*
X245348725Y-253818099D01*
X245348725Y-253818099D02*
X245279316Y-253729733D01*
X245279316Y-253729733D02*
X245196521Y-253624227D01*
X245196521Y-253624227D02*
X245117678Y-253523809D01*
X245117678Y-253523809D02*
X245043913Y-253429910D01*
X245043913Y-253429910D02*
X244976351Y-253343960D01*
X244976351Y-253343960D02*
X244916117Y-253267386D01*
X244916117Y-253267386D02*
X244864335Y-253201619D01*
X244864335Y-253201619D02*
X244822131Y-253148089D01*
X244822131Y-253148089D02*
X244790628Y-253108225D01*
X244790628Y-253108225D02*
X244770954Y-253083456D01*
X244770954Y-253083456D02*
X244764333Y-253075299D01*
X244764333Y-253075299D02*
X244753780Y-253080183D01*
X244753780Y-253080183D02*
X244728528Y-253100544D01*
X244728528Y-253100544D02*
X244689481Y-253135541D01*
X244689481Y-253135541D02*
X244637541Y-253184331D01*
X244637541Y-253184331D02*
X244573614Y-253246074D01*
X244573614Y-253246074D02*
X244498603Y-253319927D01*
X244498603Y-253319927D02*
X244455269Y-253363086D01*
X244455269Y-253363086D02*
X244156355Y-253661840D01*
X244156355Y-253661840D02*
X244156355Y-254014068D01*
X244156355Y-254014068D02*
X244156320Y-254112459D01*
X244156320Y-254112459D02*
X244156103Y-254190798D01*
X244156103Y-254190798D02*
X244155536Y-254251606D01*
X244155536Y-254251606D02*
X244154449Y-254297410D01*
X244154449Y-254297410D02*
X244152676Y-254330733D01*
X244152676Y-254330733D02*
X244150046Y-254354100D01*
X244150046Y-254354100D02*
X244146392Y-254370035D01*
X244146392Y-254370035D02*
X244141545Y-254381062D01*
X244141545Y-254381062D02*
X244135337Y-254389705D01*
X244135337Y-254389705D02*
X244130955Y-254394723D01*
X244130955Y-254394723D02*
X244094142Y-254422115D01*
X244094142Y-254422115D02*
X244052705Y-254430443D01*
X244052705Y-254430443D02*
X244024919Y-254424338D01*
X244024919Y-254424338D02*
X244015755Y-254420942D01*
X244015755Y-254420942D02*
X244007564Y-254417942D01*
X244007564Y-254417942D02*
X244000291Y-254414119D01*
X244000291Y-254414119D02*
X243993883Y-254408257D01*
X243993883Y-254408257D02*
X243988284Y-254399137D01*
X243988284Y-254399137D02*
X243983440Y-254385542D01*
X243983440Y-254385542D02*
X243979297Y-254366255D01*
X243979297Y-254366255D02*
X243975801Y-254340058D01*
X243975801Y-254340058D02*
X243972896Y-254305733D01*
X243972896Y-254305733D02*
X243970529Y-254262064D01*
X243970529Y-254262064D02*
X243968645Y-254207832D01*
X243968645Y-254207832D02*
X243967189Y-254141821D01*
X243967189Y-254141821D02*
X243966108Y-254062812D01*
X243966108Y-254062812D02*
X243965346Y-253969588D01*
X243965346Y-253969588D02*
X243964850Y-253860932D01*
X243964850Y-253860932D02*
X243964565Y-253735625D01*
X243964565Y-253735625D02*
X243964436Y-253592452D01*
X243964436Y-253592452D02*
X243964409Y-253430193D01*
X243964409Y-253430193D02*
X243964430Y-253247632D01*
X243964430Y-253247632D02*
X243964444Y-253071597D01*
X243964444Y-253071597D02*
X243964444Y-251780663D01*
X243964444Y-251780663D02*
X243997443Y-251747664D01*
X243997443Y-251747664D02*
X244034953Y-251720886D01*
X244034953Y-251720886D02*
X244071918Y-251716647D01*
X244071918Y-251716647D02*
X244109130Y-251734945D01*
X244109130Y-251734945D02*
X244109130Y-251734945D01*
G36*
X244109130Y-251734945D02*
G01*
X244123357Y-251747664D01*
X244156355Y-251780663D01*
X244156948Y-252585864D01*
X244157540Y-253391066D01*
X244983859Y-252559238D01*
X245129850Y-252412434D01*
X245260609Y-252281295D01*
X245376656Y-252165313D01*
X245478512Y-252063978D01*
X245566699Y-251976781D01*
X245641735Y-251903214D01*
X245704143Y-251842768D01*
X245754442Y-251794933D01*
X245793154Y-251759202D01*
X245820799Y-251735065D01*
X245837898Y-251722012D01*
X245843262Y-251719302D01*
X245884241Y-251719568D01*
X245920634Y-251737497D01*
X245947528Y-251768175D01*
X245960007Y-251806690D01*
X245957969Y-251833982D01*
X245950271Y-251847256D01*
X245930659Y-251871706D01*
X245898590Y-251907905D01*
X245853516Y-251956423D01*
X245794893Y-252017833D01*
X245722175Y-252092708D01*
X245634817Y-252181618D01*
X245532272Y-252285137D01*
X245425655Y-252392159D01*
X245335741Y-252482348D01*
X245250699Y-252567895D01*
X245171850Y-252647456D01*
X245100513Y-252719688D01*
X245038011Y-252783245D01*
X244985664Y-252836783D01*
X244944792Y-252878959D01*
X244916717Y-252908427D01*
X244902758Y-252923843D01*
X244901422Y-252925791D01*
X244908232Y-252935831D01*
X244927937Y-252962195D01*
X244959448Y-253003482D01*
X245001677Y-253058290D01*
X245053536Y-253125217D01*
X245113935Y-253202861D01*
X245181786Y-253289820D01*
X245256001Y-253384694D01*
X245335492Y-253486079D01*
X245418463Y-253591676D01*
X245502661Y-253698769D01*
X245583110Y-253801184D01*
X245658670Y-253897464D01*
X245728198Y-253986150D01*
X245790555Y-254065783D01*
X245844598Y-254134906D01*
X245889186Y-254192059D01*
X245923179Y-254235785D01*
X245945435Y-254264625D01*
X245954685Y-254276934D01*
X245972472Y-254319631D01*
X245967971Y-254361925D01*
X245941409Y-254401746D01*
X245940868Y-254402290D01*
X245903532Y-254428828D01*
X245866503Y-254432839D01*
X245828830Y-254414336D01*
X245817096Y-254404244D01*
X245804812Y-254390387D01*
X245779814Y-254360232D01*
X245743291Y-254315270D01*
X245696432Y-254256995D01*
X245640426Y-254186896D01*
X245576464Y-254106465D01*
X245505733Y-254017194D01*
X245429424Y-253920575D01*
X245348725Y-253818099D01*
X245279316Y-253729733D01*
X245196521Y-253624227D01*
X245117678Y-253523809D01*
X245043913Y-253429910D01*
X244976351Y-253343960D01*
X244916117Y-253267386D01*
X244864335Y-253201619D01*
X244822131Y-253148089D01*
X244790628Y-253108225D01*
X244770954Y-253083456D01*
X244764333Y-253075299D01*
X244753780Y-253080183D01*
X244728528Y-253100544D01*
X244689481Y-253135541D01*
X244637541Y-253184331D01*
X244573614Y-253246074D01*
X244498603Y-253319927D01*
X244455269Y-253363086D01*
X244156355Y-253661840D01*
X244156355Y-254014068D01*
X244156320Y-254112459D01*
X244156103Y-254190798D01*
X244155536Y-254251606D01*
X244154449Y-254297410D01*
X244152676Y-254330733D01*
X244150046Y-254354100D01*
X244146392Y-254370035D01*
X244141545Y-254381062D01*
X244135337Y-254389705D01*
X244130955Y-254394723D01*
X244094142Y-254422115D01*
X244052705Y-254430443D01*
X244024919Y-254424338D01*
X244015755Y-254420942D01*
X244007564Y-254417942D01*
X244000291Y-254414119D01*
X243993883Y-254408257D01*
X243988284Y-254399137D01*
X243983440Y-254385542D01*
X243979297Y-254366255D01*
X243975801Y-254340058D01*
X243972896Y-254305733D01*
X243970529Y-254262064D01*
X243968645Y-254207832D01*
X243967189Y-254141821D01*
X243966108Y-254062812D01*
X243965346Y-253969588D01*
X243964850Y-253860932D01*
X243964565Y-253735625D01*
X243964436Y-253592452D01*
X243964409Y-253430193D01*
X243964430Y-253247632D01*
X243964444Y-253071597D01*
X243964444Y-251780663D01*
X243997443Y-251747664D01*
X244034953Y-251720886D01*
X244071918Y-251716647D01*
X244109130Y-251734945D01*
G37*
X244109130Y-251734945D02*
X244123357Y-251747664D01*
X244156355Y-251780663D01*
X244156948Y-252585864D01*
X244157540Y-253391066D01*
X244983859Y-252559238D01*
X245129850Y-252412434D01*
X245260609Y-252281295D01*
X245376656Y-252165313D01*
X245478512Y-252063978D01*
X245566699Y-251976781D01*
X245641735Y-251903214D01*
X245704143Y-251842768D01*
X245754442Y-251794933D01*
X245793154Y-251759202D01*
X245820799Y-251735065D01*
X245837898Y-251722012D01*
X245843262Y-251719302D01*
X245884241Y-251719568D01*
X245920634Y-251737497D01*
X245947528Y-251768175D01*
X245960007Y-251806690D01*
X245957969Y-251833982D01*
X245950271Y-251847256D01*
X245930659Y-251871706D01*
X245898590Y-251907905D01*
X245853516Y-251956423D01*
X245794893Y-252017833D01*
X245722175Y-252092708D01*
X245634817Y-252181618D01*
X245532272Y-252285137D01*
X245425655Y-252392159D01*
X245335741Y-252482348D01*
X245250699Y-252567895D01*
X245171850Y-252647456D01*
X245100513Y-252719688D01*
X245038011Y-252783245D01*
X244985664Y-252836783D01*
X244944792Y-252878959D01*
X244916717Y-252908427D01*
X244902758Y-252923843D01*
X244901422Y-252925791D01*
X244908232Y-252935831D01*
X244927937Y-252962195D01*
X244959448Y-253003482D01*
X245001677Y-253058290D01*
X245053536Y-253125217D01*
X245113935Y-253202861D01*
X245181786Y-253289820D01*
X245256001Y-253384694D01*
X245335492Y-253486079D01*
X245418463Y-253591676D01*
X245502661Y-253698769D01*
X245583110Y-253801184D01*
X245658670Y-253897464D01*
X245728198Y-253986150D01*
X245790555Y-254065783D01*
X245844598Y-254134906D01*
X245889186Y-254192059D01*
X245923179Y-254235785D01*
X245945435Y-254264625D01*
X245954685Y-254276934D01*
X245972472Y-254319631D01*
X245967971Y-254361925D01*
X245941409Y-254401746D01*
X245940868Y-254402290D01*
X245903532Y-254428828D01*
X245866503Y-254432839D01*
X245828830Y-254414336D01*
X245817096Y-254404244D01*
X245804812Y-254390387D01*
X245779814Y-254360232D01*
X245743291Y-254315270D01*
X245696432Y-254256995D01*
X245640426Y-254186896D01*
X245576464Y-254106465D01*
X245505733Y-254017194D01*
X245429424Y-253920575D01*
X245348725Y-253818099D01*
X245279316Y-253729733D01*
X245196521Y-253624227D01*
X245117678Y-253523809D01*
X245043913Y-253429910D01*
X244976351Y-253343960D01*
X244916117Y-253267386D01*
X244864335Y-253201619D01*
X244822131Y-253148089D01*
X244790628Y-253108225D01*
X244770954Y-253083456D01*
X244764333Y-253075299D01*
X244753780Y-253080183D01*
X244728528Y-253100544D01*
X244689481Y-253135541D01*
X244637541Y-253184331D01*
X244573614Y-253246074D01*
X244498603Y-253319927D01*
X244455269Y-253363086D01*
X244156355Y-253661840D01*
X244156355Y-254014068D01*
X244156320Y-254112459D01*
X244156103Y-254190798D01*
X244155536Y-254251606D01*
X244154449Y-254297410D01*
X244152676Y-254330733D01*
X244150046Y-254354100D01*
X244146392Y-254370035D01*
X244141545Y-254381062D01*
X244135337Y-254389705D01*
X244130955Y-254394723D01*
X244094142Y-254422115D01*
X244052705Y-254430443D01*
X244024919Y-254424338D01*
X244015755Y-254420942D01*
X244007564Y-254417942D01*
X244000291Y-254414119D01*
X243993883Y-254408257D01*
X243988284Y-254399137D01*
X243983440Y-254385542D01*
X243979297Y-254366255D01*
X243975801Y-254340058D01*
X243972896Y-254305733D01*
X243970529Y-254262064D01*
X243968645Y-254207832D01*
X243967189Y-254141821D01*
X243966108Y-254062812D01*
X243965346Y-253969588D01*
X243964850Y-253860932D01*
X243964565Y-253735625D01*
X243964436Y-253592452D01*
X243964409Y-253430193D01*
X243964430Y-253247632D01*
X243964444Y-253071597D01*
X243964444Y-251780663D01*
X243997443Y-251747664D01*
X244034953Y-251720886D01*
X244071918Y-251716647D01*
X244109130Y-251734945D01*
X220807504Y-250158864D02*
X220917090Y-250159938D01*
X220917090Y-250159938D02*
X221004895Y-250161585D01*
X221004895Y-250161585D02*
X221071118Y-250163806D01*
X221071118Y-250163806D02*
X221115956Y-250166605D01*
X221115956Y-250166605D02*
X221130370Y-250168215D01*
X221130370Y-250168215D02*
X221300928Y-250203584D01*
X221300928Y-250203584D02*
X221463751Y-250259314D01*
X221463751Y-250259314D02*
X221617170Y-250334227D01*
X221617170Y-250334227D02*
X221759513Y-250427142D01*
X221759513Y-250427142D02*
X221889110Y-250536879D01*
X221889110Y-250536879D02*
X222004291Y-250662258D01*
X222004291Y-250662258D02*
X222103384Y-250802100D01*
X222103384Y-250802100D02*
X222153704Y-250891063D01*
X222153704Y-250891063D02*
X222225566Y-251053389D01*
X222225566Y-251053389D02*
X222275879Y-251219402D01*
X222275879Y-251219402D02*
X222304608Y-251387566D01*
X222304608Y-251387566D02*
X222311717Y-251556348D01*
X222311717Y-251556348D02*
X222297171Y-251724212D01*
X222297171Y-251724212D02*
X222260934Y-251889623D01*
X222260934Y-251889623D02*
X222202970Y-252051047D01*
X222202970Y-252051047D02*
X222181676Y-252097764D01*
X222181676Y-252097764D02*
X222132267Y-252193730D01*
X222132267Y-252193730D02*
X222080352Y-252278332D01*
X222080352Y-252278332D02*
X222021212Y-252358235D01*
X222021212Y-252358235D02*
X221950128Y-252440103D01*
X221950128Y-252440103D02*
X221907394Y-252485133D01*
X221907394Y-252485133D02*
X221867611Y-252527099D01*
X221867611Y-252527099D02*
X221835667Y-252562785D01*
X221835667Y-252562785D02*
X221813865Y-252589449D01*
X221813865Y-252589449D02*
X221804510Y-252604351D01*
X221804510Y-252604351D02*
X221805390Y-252606543D01*
X221805390Y-252606543D02*
X221821777Y-252611004D01*
X221821777Y-252611004D02*
X221853618Y-252623019D01*
X221853618Y-252623019D02*
X221895900Y-252640611D01*
X221895900Y-252640611D02*
X221931611Y-252656349D01*
X221931611Y-252656349D02*
X222089924Y-252739745D01*
X222089924Y-252739745D02*
X222238634Y-252841943D01*
X222238634Y-252841943D02*
X222375784Y-252960749D01*
X222375784Y-252960749D02*
X222499416Y-253093970D01*
X222499416Y-253093970D02*
X222607573Y-253239413D01*
X222607573Y-253239413D02*
X222698298Y-253394886D01*
X222698298Y-253394886D02*
X222769634Y-253558194D01*
X222769634Y-253558194D02*
X222790158Y-253618374D01*
X222790158Y-253618374D02*
X222827746Y-253766320D01*
X222827746Y-253766320D02*
X222851259Y-253924019D01*
X222851259Y-253924019D02*
X222860245Y-254084618D01*
X222860245Y-254084618D02*
X222854252Y-254241268D01*
X222854252Y-254241268D02*
X222838894Y-254356266D01*
X222838894Y-254356266D02*
X222794870Y-254537452D01*
X222794870Y-254537452D02*
X222730934Y-254710037D01*
X222730934Y-254710037D02*
X222648348Y-254872615D01*
X222648348Y-254872615D02*
X222548374Y-255023779D01*
X222548374Y-255023779D02*
X222432271Y-255162120D01*
X222432271Y-255162120D02*
X222301302Y-255286233D01*
X222301302Y-255286233D02*
X222156729Y-255394708D01*
X222156729Y-255394708D02*
X221999812Y-255486140D01*
X221999812Y-255486140D02*
X221831813Y-255559121D01*
X221831813Y-255559121D02*
X221731314Y-255592001D01*
X221731314Y-255592001D02*
X221693008Y-255602965D01*
X221693008Y-255602965D02*
X221657567Y-255612563D01*
X221657567Y-255612563D02*
X221623265Y-255620886D01*
X221623265Y-255620886D02*
X221588375Y-255628026D01*
X221588375Y-255628026D02*
X221551170Y-255634073D01*
X221551170Y-255634073D02*
X221509923Y-255639118D01*
X221509923Y-255639118D02*
X221462907Y-255643252D01*
X221462907Y-255643252D02*
X221408396Y-255646565D01*
X221408396Y-255646565D02*
X221344661Y-255649149D01*
X221344661Y-255649149D02*
X221269977Y-255651095D01*
X221269977Y-255651095D02*
X221182617Y-255652492D01*
X221182617Y-255652492D02*
X221080853Y-255653433D01*
X221080853Y-255653433D02*
X220962958Y-255654008D01*
X220962958Y-255654008D02*
X220827207Y-255654308D01*
X220827207Y-255654308D02*
X220671871Y-255654423D01*
X220671871Y-255654423D02*
X220544491Y-255654443D01*
X220544491Y-255654443D02*
X219662805Y-255654488D01*
X219662805Y-255654488D02*
X219624716Y-255628820D01*
X219624716Y-255628820D02*
X219591838Y-255601056D01*
X219591838Y-255601056D02*
X219562948Y-255567932D01*
X219562948Y-255567932D02*
X219560957Y-255565061D01*
X219560957Y-255565061D02*
X219535289Y-255526972D01*
X219535289Y-255526972D02*
X219535289Y-255270666D01*
X219535289Y-255270666D02*
X219919111Y-255270666D01*
X219919111Y-255270666D02*
X220621844Y-255270634D01*
X220621844Y-255270634D02*
X220783459Y-255270407D01*
X220783459Y-255270407D02*
X220929878Y-255269752D01*
X220929878Y-255269752D02*
X221060025Y-255268685D01*
X221060025Y-255268685D02*
X221172828Y-255267224D01*
X221172828Y-255267224D02*
X221267213Y-255265385D01*
X221267213Y-255265385D02*
X221342106Y-255263184D01*
X221342106Y-255263184D02*
X221396433Y-255260639D01*
X221396433Y-255260639D02*
X221426178Y-255258152D01*
X221426178Y-255258152D02*
X221587648Y-255227504D01*
X221587648Y-255227504D02*
X221739668Y-255176902D01*
X221739668Y-255176902D02*
X221881051Y-255107401D01*
X221881051Y-255107401D02*
X222010613Y-255020057D01*
X222010613Y-255020057D02*
X222127166Y-254915927D01*
X222127166Y-254915927D02*
X222229526Y-254796066D01*
X222229526Y-254796066D02*
X222316506Y-254661532D01*
X222316506Y-254661532D02*
X222386919Y-254513379D01*
X222386919Y-254513379D02*
X222438546Y-254356614D01*
X222438546Y-254356614D02*
X222456019Y-254267086D01*
X222456019Y-254267086D02*
X222466003Y-254164701D01*
X222466003Y-254164701D02*
X222468295Y-254057973D01*
X222468295Y-254057973D02*
X222462693Y-253955414D01*
X222462693Y-253955414D02*
X222450136Y-253870844D01*
X222450136Y-253870844D02*
X222405061Y-253707991D01*
X222405061Y-253707991D02*
X222341353Y-253556413D01*
X222341353Y-253556413D02*
X222260112Y-253417297D01*
X222260112Y-253417297D02*
X222162441Y-253291833D01*
X222162441Y-253291833D02*
X222049441Y-253181209D01*
X222049441Y-253181209D02*
X221922216Y-253086613D01*
X221922216Y-253086613D02*
X221781867Y-253009234D01*
X221781867Y-253009234D02*
X221629497Y-252950261D01*
X221629497Y-252950261D02*
X221584222Y-252937044D01*
X221584222Y-252937044D02*
X221471333Y-252906369D01*
X221471333Y-252906369D02*
X220695222Y-252902610D01*
X220695222Y-252902610D02*
X219919111Y-252898852D01*
X219919111Y-252898852D02*
X219919111Y-255270666D01*
X219919111Y-255270666D02*
X219535289Y-255270666D01*
X219535289Y-255270666D02*
X219535289Y-252504888D01*
X219535289Y-252504888D02*
X219919111Y-252504888D01*
X219919111Y-252504888D02*
X220454516Y-252504888D01*
X220454516Y-252504888D02*
X220579356Y-252504623D01*
X220579356Y-252504623D02*
X220695468Y-252503853D01*
X220695468Y-252503853D02*
X220800677Y-252502622D01*
X220800677Y-252502622D02*
X220892806Y-252500971D01*
X220892806Y-252500971D02*
X220969681Y-252498943D01*
X220969681Y-252498943D02*
X221029127Y-252496578D01*
X221029127Y-252496578D02*
X221068969Y-252493919D01*
X221068969Y-252493919D02*
X221078227Y-252492879D01*
X221078227Y-252492879D02*
X221216882Y-252462913D01*
X221216882Y-252462913D02*
X221351296Y-252412151D01*
X221351296Y-252412151D02*
X221477766Y-252342370D01*
X221477766Y-252342370D02*
X221592593Y-252255345D01*
X221592593Y-252255345D02*
X221614051Y-252235824D01*
X221614051Y-252235824D02*
X221714749Y-252126470D01*
X221714749Y-252126470D02*
X221796164Y-252006313D01*
X221796164Y-252006313D02*
X221857814Y-251877052D01*
X221857814Y-251877052D02*
X221899215Y-251740387D01*
X221899215Y-251740387D02*
X221919884Y-251598017D01*
X221919884Y-251598017D02*
X221919339Y-251451641D01*
X221919339Y-251451641D02*
X221897095Y-251302961D01*
X221897095Y-251302961D02*
X221888895Y-251268755D01*
X221888895Y-251268755D02*
X221870677Y-251212171D01*
X221870677Y-251212171D02*
X221843438Y-251144927D01*
X221843438Y-251144927D02*
X221810874Y-251075015D01*
X221810874Y-251075015D02*
X221776682Y-251010430D01*
X221776682Y-251010430D02*
X221747992Y-250964073D01*
X221747992Y-250964073D02*
X221658875Y-250854090D01*
X221658875Y-250854090D02*
X221553097Y-250757623D01*
X221553097Y-250757623D02*
X221433317Y-250676510D01*
X221433317Y-250676510D02*
X221302194Y-250612586D01*
X221302194Y-250612586D02*
X221180372Y-250572229D01*
X221180372Y-250572229D02*
X221158695Y-250566783D01*
X221158695Y-250566783D02*
X221137235Y-250562187D01*
X221137235Y-250562187D02*
X221113873Y-250558353D01*
X221113873Y-250558353D02*
X221086489Y-250555189D01*
X221086489Y-250555189D02*
X221052966Y-250552607D01*
X221052966Y-250552607D02*
X221011185Y-250550516D01*
X221011185Y-250550516D02*
X220959025Y-250548826D01*
X220959025Y-250548826D02*
X220894370Y-250547448D01*
X220894370Y-250547448D02*
X220815100Y-250546292D01*
X220815100Y-250546292D02*
X220719096Y-250545267D01*
X220719096Y-250545267D02*
X220604239Y-250544284D01*
X220604239Y-250544284D02*
X220503311Y-250543512D01*
X220503311Y-250543512D02*
X219919111Y-250539162D01*
X219919111Y-250539162D02*
X219919111Y-252504888D01*
X219919111Y-252504888D02*
X219535289Y-252504888D01*
X219535289Y-252504888D02*
X219535289Y-250284316D01*
X219535289Y-250284316D02*
X219560689Y-250246996D01*
X219560689Y-250246996D02*
X219586485Y-250215310D01*
X219586485Y-250215310D02*
X219615355Y-250188043D01*
X219615355Y-250188043D02*
X219617954Y-250186060D01*
X219617954Y-250186060D02*
X219624927Y-250181221D01*
X219624927Y-250181221D02*
X219632942Y-250177082D01*
X219632942Y-250177082D02*
X219643737Y-250173579D01*
X219643737Y-250173579D02*
X219659047Y-250170647D01*
X219659047Y-250170647D02*
X219680611Y-250168222D01*
X219680611Y-250168222D02*
X219710165Y-250166240D01*
X219710165Y-250166240D02*
X219749446Y-250164636D01*
X219749446Y-250164636D02*
X219800190Y-250163346D01*
X219800190Y-250163346D02*
X219864136Y-250162305D01*
X219864136Y-250162305D02*
X219943020Y-250161449D01*
X219943020Y-250161449D02*
X220038578Y-250160713D01*
X220038578Y-250160713D02*
X220152549Y-250160033D01*
X220152549Y-250160033D02*
X220286668Y-250159345D01*
X220286668Y-250159345D02*
X220346087Y-250159054D01*
X220346087Y-250159054D02*
X220522200Y-250158424D01*
X220522200Y-250158424D02*
X220675939Y-250158360D01*
X220675939Y-250158360D02*
X220807504Y-250158864D01*
X220807504Y-250158864D02*
X220807504Y-250158864D01*
G36*
X219560689Y-250246996D02*
G01*
X219586485Y-250215310D01*
X219615355Y-250188043D01*
X219617954Y-250186060D01*
X219624927Y-250181221D01*
X219632942Y-250177082D01*
X219643737Y-250173579D01*
X219659047Y-250170647D01*
X219680611Y-250168222D01*
X219710165Y-250166240D01*
X219749446Y-250164636D01*
X219800190Y-250163346D01*
X219864136Y-250162305D01*
X219943020Y-250161449D01*
X220038578Y-250160713D01*
X220152549Y-250160033D01*
X220286668Y-250159345D01*
X220346087Y-250159054D01*
X220522200Y-250158424D01*
X220675939Y-250158360D01*
X220807504Y-250158864D01*
X220917090Y-250159938D01*
X221004895Y-250161585D01*
X221071118Y-250163806D01*
X221115956Y-250166605D01*
X221130370Y-250168215D01*
X221300928Y-250203584D01*
X221463751Y-250259314D01*
X221617170Y-250334227D01*
X221759513Y-250427142D01*
X221889110Y-250536879D01*
X222004291Y-250662258D01*
X222103384Y-250802100D01*
X222153704Y-250891063D01*
X222225566Y-251053389D01*
X222275879Y-251219402D01*
X222304608Y-251387566D01*
X222311717Y-251556348D01*
X222297171Y-251724212D01*
X222260934Y-251889623D01*
X222202970Y-252051047D01*
X222181676Y-252097764D01*
X222132267Y-252193730D01*
X222080352Y-252278332D01*
X222021212Y-252358235D01*
X221950128Y-252440103D01*
X221907394Y-252485133D01*
X221867611Y-252527099D01*
X221835667Y-252562785D01*
X221813865Y-252589449D01*
X221804510Y-252604351D01*
X221805390Y-252606543D01*
X221821777Y-252611004D01*
X221853618Y-252623019D01*
X221895900Y-252640611D01*
X221931611Y-252656349D01*
X222089924Y-252739745D01*
X222238634Y-252841943D01*
X222375784Y-252960749D01*
X222499416Y-253093970D01*
X222607573Y-253239413D01*
X222698298Y-253394886D01*
X222769634Y-253558194D01*
X222790158Y-253618374D01*
X222827746Y-253766320D01*
X222851259Y-253924019D01*
X222860245Y-254084618D01*
X222854252Y-254241268D01*
X222838894Y-254356266D01*
X222794870Y-254537452D01*
X222730934Y-254710037D01*
X222648348Y-254872615D01*
X222548374Y-255023779D01*
X222432271Y-255162120D01*
X222301302Y-255286233D01*
X222156729Y-255394708D01*
X221999812Y-255486140D01*
X221831813Y-255559121D01*
X221731314Y-255592001D01*
X221693008Y-255602965D01*
X221657567Y-255612563D01*
X221623265Y-255620886D01*
X221588375Y-255628026D01*
X221551170Y-255634073D01*
X221509923Y-255639118D01*
X221462907Y-255643252D01*
X221408396Y-255646565D01*
X221344661Y-255649149D01*
X221269977Y-255651095D01*
X221182617Y-255652492D01*
X221080853Y-255653433D01*
X220962958Y-255654008D01*
X220827207Y-255654308D01*
X220671871Y-255654423D01*
X220544491Y-255654443D01*
X219662805Y-255654488D01*
X219624716Y-255628820D01*
X219591838Y-255601056D01*
X219562948Y-255567932D01*
X219560957Y-255565061D01*
X219535289Y-255526972D01*
X219535289Y-255270666D01*
X219919111Y-255270666D01*
X220621844Y-255270634D01*
X220783459Y-255270407D01*
X220929878Y-255269752D01*
X221060025Y-255268685D01*
X221172828Y-255267224D01*
X221267213Y-255265385D01*
X221342106Y-255263184D01*
X221396433Y-255260639D01*
X221426178Y-255258152D01*
X221587648Y-255227504D01*
X221739668Y-255176902D01*
X221881051Y-255107401D01*
X222010613Y-255020057D01*
X222127166Y-254915927D01*
X222229526Y-254796066D01*
X222316506Y-254661532D01*
X222386919Y-254513379D01*
X222438546Y-254356614D01*
X222456019Y-254267086D01*
X222466003Y-254164701D01*
X222468295Y-254057973D01*
X222462693Y-253955414D01*
X222450136Y-253870844D01*
X222405061Y-253707991D01*
X222341353Y-253556413D01*
X222260112Y-253417297D01*
X222162441Y-253291833D01*
X222049441Y-253181209D01*
X221922216Y-253086613D01*
X221781867Y-253009234D01*
X221629497Y-252950261D01*
X221584222Y-252937044D01*
X221471333Y-252906369D01*
X220695222Y-252902610D01*
X219919111Y-252898852D01*
X219919111Y-255270666D01*
X219535289Y-255270666D01*
X219535289Y-252504888D01*
X219919111Y-252504888D01*
X220454516Y-252504888D01*
X220579356Y-252504623D01*
X220695468Y-252503853D01*
X220800677Y-252502622D01*
X220892806Y-252500971D01*
X220969681Y-252498943D01*
X221029127Y-252496578D01*
X221068969Y-252493919D01*
X221078227Y-252492879D01*
X221216882Y-252462913D01*
X221351296Y-252412151D01*
X221477766Y-252342370D01*
X221592593Y-252255345D01*
X221614051Y-252235824D01*
X221714749Y-252126470D01*
X221796164Y-252006313D01*
X221857814Y-251877052D01*
X221899215Y-251740387D01*
X221919884Y-251598017D01*
X221919339Y-251451641D01*
X221897095Y-251302961D01*
X221888895Y-251268755D01*
X221870677Y-251212171D01*
X221843438Y-251144927D01*
X221810874Y-251075015D01*
X221776682Y-251010430D01*
X221747992Y-250964073D01*
X221658875Y-250854090D01*
X221553097Y-250757623D01*
X221433317Y-250676510D01*
X221302194Y-250612586D01*
X221180372Y-250572229D01*
X221158695Y-250566783D01*
X221137235Y-250562187D01*
X221113873Y-250558353D01*
X221086489Y-250555189D01*
X221052966Y-250552607D01*
X221011185Y-250550516D01*
X220959025Y-250548826D01*
X220894370Y-250547448D01*
X220815100Y-250546292D01*
X220719096Y-250545267D01*
X220604239Y-250544284D01*
X220503311Y-250543512D01*
X219919111Y-250539162D01*
X219919111Y-252504888D01*
X219535289Y-252504888D01*
X219535289Y-250284316D01*
X219560689Y-250246996D01*
G37*
X219560689Y-250246996D02*
X219586485Y-250215310D01*
X219615355Y-250188043D01*
X219617954Y-250186060D01*
X219624927Y-250181221D01*
X219632942Y-250177082D01*
X219643737Y-250173579D01*
X219659047Y-250170647D01*
X219680611Y-250168222D01*
X219710165Y-250166240D01*
X219749446Y-250164636D01*
X219800190Y-250163346D01*
X219864136Y-250162305D01*
X219943020Y-250161449D01*
X220038578Y-250160713D01*
X220152549Y-250160033D01*
X220286668Y-250159345D01*
X220346087Y-250159054D01*
X220522200Y-250158424D01*
X220675939Y-250158360D01*
X220807504Y-250158864D01*
X220917090Y-250159938D01*
X221004895Y-250161585D01*
X221071118Y-250163806D01*
X221115956Y-250166605D01*
X221130370Y-250168215D01*
X221300928Y-250203584D01*
X221463751Y-250259314D01*
X221617170Y-250334227D01*
X221759513Y-250427142D01*
X221889110Y-250536879D01*
X222004291Y-250662258D01*
X222103384Y-250802100D01*
X222153704Y-250891063D01*
X222225566Y-251053389D01*
X222275879Y-251219402D01*
X222304608Y-251387566D01*
X222311717Y-251556348D01*
X222297171Y-251724212D01*
X222260934Y-251889623D01*
X222202970Y-252051047D01*
X222181676Y-252097764D01*
X222132267Y-252193730D01*
X222080352Y-252278332D01*
X222021212Y-252358235D01*
X221950128Y-252440103D01*
X221907394Y-252485133D01*
X221867611Y-252527099D01*
X221835667Y-252562785D01*
X221813865Y-252589449D01*
X221804510Y-252604351D01*
X221805390Y-252606543D01*
X221821777Y-252611004D01*
X221853618Y-252623019D01*
X221895900Y-252640611D01*
X221931611Y-252656349D01*
X222089924Y-252739745D01*
X222238634Y-252841943D01*
X222375784Y-252960749D01*
X222499416Y-253093970D01*
X222607573Y-253239413D01*
X222698298Y-253394886D01*
X222769634Y-253558194D01*
X222790158Y-253618374D01*
X222827746Y-253766320D01*
X222851259Y-253924019D01*
X222860245Y-254084618D01*
X222854252Y-254241268D01*
X222838894Y-254356266D01*
X222794870Y-254537452D01*
X222730934Y-254710037D01*
X222648348Y-254872615D01*
X222548374Y-255023779D01*
X222432271Y-255162120D01*
X222301302Y-255286233D01*
X222156729Y-255394708D01*
X221999812Y-255486140D01*
X221831813Y-255559121D01*
X221731314Y-255592001D01*
X221693008Y-255602965D01*
X221657567Y-255612563D01*
X221623265Y-255620886D01*
X221588375Y-255628026D01*
X221551170Y-255634073D01*
X221509923Y-255639118D01*
X221462907Y-255643252D01*
X221408396Y-255646565D01*
X221344661Y-255649149D01*
X221269977Y-255651095D01*
X221182617Y-255652492D01*
X221080853Y-255653433D01*
X220962958Y-255654008D01*
X220827207Y-255654308D01*
X220671871Y-255654423D01*
X220544491Y-255654443D01*
X219662805Y-255654488D01*
X219624716Y-255628820D01*
X219591838Y-255601056D01*
X219562948Y-255567932D01*
X219560957Y-255565061D01*
X219535289Y-255526972D01*
X219535289Y-255270666D01*
X219919111Y-255270666D01*
X220621844Y-255270634D01*
X220783459Y-255270407D01*
X220929878Y-255269752D01*
X221060025Y-255268685D01*
X221172828Y-255267224D01*
X221267213Y-255265385D01*
X221342106Y-255263184D01*
X221396433Y-255260639D01*
X221426178Y-255258152D01*
X221587648Y-255227504D01*
X221739668Y-255176902D01*
X221881051Y-255107401D01*
X222010613Y-255020057D01*
X222127166Y-254915927D01*
X222229526Y-254796066D01*
X222316506Y-254661532D01*
X222386919Y-254513379D01*
X222438546Y-254356614D01*
X222456019Y-254267086D01*
X222466003Y-254164701D01*
X222468295Y-254057973D01*
X222462693Y-253955414D01*
X222450136Y-253870844D01*
X222405061Y-253707991D01*
X222341353Y-253556413D01*
X222260112Y-253417297D01*
X222162441Y-253291833D01*
X222049441Y-253181209D01*
X221922216Y-253086613D01*
X221781867Y-253009234D01*
X221629497Y-252950261D01*
X221584222Y-252937044D01*
X221471333Y-252906369D01*
X220695222Y-252902610D01*
X219919111Y-252898852D01*
X219919111Y-255270666D01*
X219535289Y-255270666D01*
X219535289Y-252504888D01*
X219919111Y-252504888D01*
X220454516Y-252504888D01*
X220579356Y-252504623D01*
X220695468Y-252503853D01*
X220800677Y-252502622D01*
X220892806Y-252500971D01*
X220969681Y-252498943D01*
X221029127Y-252496578D01*
X221068969Y-252493919D01*
X221078227Y-252492879D01*
X221216882Y-252462913D01*
X221351296Y-252412151D01*
X221477766Y-252342370D01*
X221592593Y-252255345D01*
X221614051Y-252235824D01*
X221714749Y-252126470D01*
X221796164Y-252006313D01*
X221857814Y-251877052D01*
X221899215Y-251740387D01*
X221919884Y-251598017D01*
X221919339Y-251451641D01*
X221897095Y-251302961D01*
X221888895Y-251268755D01*
X221870677Y-251212171D01*
X221843438Y-251144927D01*
X221810874Y-251075015D01*
X221776682Y-251010430D01*
X221747992Y-250964073D01*
X221658875Y-250854090D01*
X221553097Y-250757623D01*
X221433317Y-250676510D01*
X221302194Y-250612586D01*
X221180372Y-250572229D01*
X221158695Y-250566783D01*
X221137235Y-250562187D01*
X221113873Y-250558353D01*
X221086489Y-250555189D01*
X221052966Y-250552607D01*
X221011185Y-250550516D01*
X220959025Y-250548826D01*
X220894370Y-250547448D01*
X220815100Y-250546292D01*
X220719096Y-250545267D01*
X220604239Y-250544284D01*
X220503311Y-250543512D01*
X219919111Y-250539162D01*
X219919111Y-252504888D01*
X219535289Y-252504888D01*
X219535289Y-250284316D01*
X219560689Y-250246996D01*
X248090802Y-251722303D02*
X248115545Y-251742389D01*
X248115545Y-251742389D02*
X248141333Y-251772370D01*
X248141333Y-251772370D02*
X248141333Y-254366296D01*
X248141333Y-254366296D02*
X248115933Y-254394723D01*
X248115933Y-254394723D02*
X248079120Y-254422115D01*
X248079120Y-254422115D02*
X248037683Y-254430443D01*
X248037683Y-254430443D02*
X248009897Y-254424338D01*
X248009897Y-254424338D02*
X248000746Y-254420949D01*
X248000746Y-254420949D02*
X247992566Y-254417958D01*
X247992566Y-254417958D02*
X247985301Y-254414150D01*
X247985301Y-254414150D02*
X247978898Y-254408308D01*
X247978898Y-254408308D02*
X247973302Y-254399218D01*
X247973302Y-254399218D02*
X247968460Y-254385663D01*
X247968460Y-254385663D02*
X247964316Y-254366429D01*
X247964316Y-254366429D02*
X247960818Y-254340300D01*
X247960818Y-254340300D02*
X247957910Y-254306059D01*
X247957910Y-254306059D02*
X247955539Y-254262492D01*
X247955539Y-254262492D02*
X247953651Y-254208384D01*
X247953651Y-254208384D02*
X247952190Y-254142518D01*
X247952190Y-254142518D02*
X247951104Y-254063679D01*
X247951104Y-254063679D02*
X247950337Y-253970652D01*
X247950337Y-253970652D02*
X247949836Y-253862221D01*
X247949836Y-253862221D02*
X247949547Y-253737170D01*
X247949547Y-253737170D02*
X247949415Y-253594284D01*
X247949415Y-253594284D02*
X247949386Y-253432348D01*
X247949386Y-253432348D02*
X247949407Y-253250146D01*
X247949407Y-253250146D02*
X247949422Y-253067450D01*
X247949422Y-253067450D02*
X247949422Y-251772370D01*
X247949422Y-251772370D02*
X247975210Y-251742389D01*
X247975210Y-251742389D02*
X248009869Y-251717593D01*
X248009869Y-251717593D02*
X248050805Y-251710897D01*
X248050805Y-251710897D02*
X248090802Y-251722303D01*
X248090802Y-251722303D02*
X248090802Y-251722303D01*
G36*
X248090802Y-251722303D02*
G01*
X248115545Y-251742389D01*
X248141333Y-251772370D01*
X248141333Y-254366296D01*
X248115933Y-254394723D01*
X248079120Y-254422115D01*
X248037683Y-254430443D01*
X248009897Y-254424338D01*
X248000746Y-254420949D01*
X247992566Y-254417958D01*
X247985301Y-254414150D01*
X247978898Y-254408308D01*
X247973302Y-254399218D01*
X247968460Y-254385663D01*
X247964316Y-254366429D01*
X247960818Y-254340300D01*
X247957910Y-254306059D01*
X247955539Y-254262492D01*
X247953651Y-254208384D01*
X247952190Y-254142518D01*
X247951104Y-254063679D01*
X247950337Y-253970652D01*
X247949836Y-253862221D01*
X247949547Y-253737170D01*
X247949415Y-253594284D01*
X247949386Y-253432348D01*
X247949407Y-253250146D01*
X247949422Y-253067450D01*
X247949422Y-251772370D01*
X247975210Y-251742389D01*
X248009869Y-251717593D01*
X248050805Y-251710897D01*
X248090802Y-251722303D01*
G37*
X248090802Y-251722303D02*
X248115545Y-251742389D01*
X248141333Y-251772370D01*
X248141333Y-254366296D01*
X248115933Y-254394723D01*
X248079120Y-254422115D01*
X248037683Y-254430443D01*
X248009897Y-254424338D01*
X248000746Y-254420949D01*
X247992566Y-254417958D01*
X247985301Y-254414150D01*
X247978898Y-254408308D01*
X247973302Y-254399218D01*
X247968460Y-254385663D01*
X247964316Y-254366429D01*
X247960818Y-254340300D01*
X247957910Y-254306059D01*
X247955539Y-254262492D01*
X247953651Y-254208384D01*
X247952190Y-254142518D01*
X247951104Y-254063679D01*
X247950337Y-253970652D01*
X247949836Y-253862221D01*
X247949547Y-253737170D01*
X247949415Y-253594284D01*
X247949386Y-253432348D01*
X247949407Y-253250146D01*
X247949422Y-253067450D01*
X247949422Y-251772370D01*
X247975210Y-251742389D01*
X248009869Y-251717593D01*
X248050805Y-251710897D01*
X248090802Y-251722303D01*
X246912528Y-251726114D02*
X246929109Y-251738495D01*
X246929109Y-251738495D02*
X246956000Y-251763757D01*
X246956000Y-251763757D02*
X246956000Y-254376837D01*
X246956000Y-254376837D02*
X246921267Y-254406063D01*
X246921267Y-254406063D02*
X246887511Y-254428833D01*
X246887511Y-254428833D02*
X246857227Y-254433561D01*
X246857227Y-254433561D02*
X246822106Y-254421467D01*
X246822106Y-254421467D02*
X246820756Y-254420788D01*
X246820756Y-254420788D02*
X246793841Y-254399480D01*
X246793841Y-254399480D02*
X246778589Y-254378621D01*
X246778589Y-254378621D02*
X246776595Y-254363557D01*
X246776595Y-254363557D02*
X246774730Y-254327665D01*
X246774730Y-254327665D02*
X246772998Y-254272695D01*
X246772998Y-254272695D02*
X246771400Y-254200395D01*
X246771400Y-254200395D02*
X246769939Y-254112515D01*
X246769939Y-254112515D02*
X246768617Y-254010804D01*
X246768617Y-254010804D02*
X246767438Y-253897013D01*
X246767438Y-253897013D02*
X246766403Y-253772890D01*
X246766403Y-253772890D02*
X246765514Y-253640184D01*
X246765514Y-253640184D02*
X246764776Y-253500646D01*
X246764776Y-253500646D02*
X246764189Y-253356024D01*
X246764189Y-253356024D02*
X246763758Y-253208067D01*
X246763758Y-253208067D02*
X246763483Y-253058527D01*
X246763483Y-253058527D02*
X246763367Y-252909150D01*
X246763367Y-252909150D02*
X246763414Y-252761688D01*
X246763414Y-252761688D02*
X246763626Y-252617889D01*
X246763626Y-252617889D02*
X246764004Y-252479502D01*
X246764004Y-252479502D02*
X246764552Y-252348278D01*
X246764552Y-252348278D02*
X246765273Y-252225966D01*
X246765273Y-252225966D02*
X246766168Y-252114314D01*
X246766168Y-252114314D02*
X246767240Y-252015073D01*
X246767240Y-252015073D02*
X246768492Y-251929991D01*
X246768492Y-251929991D02*
X246769926Y-251860819D01*
X246769926Y-251860819D02*
X246771545Y-251809305D01*
X246771545Y-251809305D02*
X246773351Y-251777198D01*
X246773351Y-251777198D02*
X246774837Y-251766887D01*
X246774837Y-251766887D02*
X246797738Y-251734915D01*
X246797738Y-251734915D02*
X246832777Y-251716642D01*
X246832777Y-251716642D02*
X246873269Y-251713298D01*
X246873269Y-251713298D02*
X246912528Y-251726114D01*
X246912528Y-251726114D02*
X246912528Y-251726114D01*
G36*
X246912528Y-251726114D02*
G01*
X246929109Y-251738495D01*
X246956000Y-251763757D01*
X246956000Y-254376837D01*
X246921267Y-254406063D01*
X246887511Y-254428833D01*
X246857227Y-254433561D01*
X246822106Y-254421467D01*
X246820756Y-254420788D01*
X246793841Y-254399480D01*
X246778589Y-254378621D01*
X246776595Y-254363557D01*
X246774730Y-254327665D01*
X246772998Y-254272695D01*
X246771400Y-254200395D01*
X246769939Y-254112515D01*
X246768617Y-254010804D01*
X246767438Y-253897013D01*
X246766403Y-253772890D01*
X246765514Y-253640184D01*
X246764776Y-253500646D01*
X246764189Y-253356024D01*
X246763758Y-253208067D01*
X246763483Y-253058527D01*
X246763367Y-252909150D01*
X246763414Y-252761688D01*
X246763626Y-252617889D01*
X246764004Y-252479502D01*
X246764552Y-252348278D01*
X246765273Y-252225966D01*
X246766168Y-252114314D01*
X246767240Y-252015073D01*
X246768492Y-251929991D01*
X246769926Y-251860819D01*
X246771545Y-251809305D01*
X246773351Y-251777198D01*
X246774837Y-251766887D01*
X246797738Y-251734915D01*
X246832777Y-251716642D01*
X246873269Y-251713298D01*
X246912528Y-251726114D01*
G37*
X246912528Y-251726114D02*
X246929109Y-251738495D01*
X246956000Y-251763757D01*
X246956000Y-254376837D01*
X246921267Y-254406063D01*
X246887511Y-254428833D01*
X246857227Y-254433561D01*
X246822106Y-254421467D01*
X246820756Y-254420788D01*
X246793841Y-254399480D01*
X246778589Y-254378621D01*
X246776595Y-254363557D01*
X246774730Y-254327665D01*
X246772998Y-254272695D01*
X246771400Y-254200395D01*
X246769939Y-254112515D01*
X246768617Y-254010804D01*
X246767438Y-253897013D01*
X246766403Y-253772890D01*
X246765514Y-253640184D01*
X246764776Y-253500646D01*
X246764189Y-253356024D01*
X246763758Y-253208067D01*
X246763483Y-253058527D01*
X246763367Y-252909150D01*
X246763414Y-252761688D01*
X246763626Y-252617889D01*
X246764004Y-252479502D01*
X246764552Y-252348278D01*
X246765273Y-252225966D01*
X246766168Y-252114314D01*
X246767240Y-252015073D01*
X246768492Y-251929991D01*
X246769926Y-251860819D01*
X246771545Y-251809305D01*
X246773351Y-251777198D01*
X246774837Y-251766887D01*
X246797738Y-251734915D01*
X246832777Y-251716642D01*
X246873269Y-251713298D01*
X246912528Y-251726114D01*
X231331995Y-250165161D02*
X231423341Y-250172895D01*
X231423341Y-250172895D02*
X231505437Y-250187680D01*
X231505437Y-250187680D02*
X231584748Y-250210937D01*
X231584748Y-250210937D02*
X231667739Y-250244084D01*
X231667739Y-250244084D02*
X231732933Y-250274642D01*
X231732933Y-250274642D02*
X231872166Y-250355190D01*
X231872166Y-250355190D02*
X231997500Y-250452839D01*
X231997500Y-250452839D02*
X232107602Y-250565964D01*
X232107602Y-250565964D02*
X232201142Y-250692939D01*
X232201142Y-250692939D02*
X232276788Y-250832140D01*
X232276788Y-250832140D02*
X232333208Y-250981942D01*
X232333208Y-250981942D02*
X232344032Y-251020400D01*
X232344032Y-251020400D02*
X232356509Y-251071038D01*
X232356509Y-251071038D02*
X232364984Y-251115609D01*
X232364984Y-251115609D02*
X232370190Y-251160925D01*
X232370190Y-251160925D02*
X232372858Y-251213799D01*
X232372858Y-251213799D02*
X232373719Y-251281043D01*
X232373719Y-251281043D02*
X232373739Y-251296977D01*
X232373739Y-251296977D02*
X232373139Y-251368245D01*
X232373139Y-251368245D02*
X232370863Y-251423690D01*
X232370863Y-251423690D02*
X232366198Y-251470045D01*
X232366198Y-251470045D02*
X232358431Y-251514045D01*
X232358431Y-251514045D02*
X232346848Y-251562424D01*
X232346848Y-251562424D02*
X232344802Y-251570234D01*
X232344802Y-251570234D02*
X232297560Y-251715511D01*
X232297560Y-251715511D02*
X232235310Y-251847237D01*
X232235310Y-251847237D02*
X232155747Y-251969357D01*
X232155747Y-251969357D02*
X232056567Y-252085814D01*
X232056567Y-252085814D02*
X232024781Y-252118129D01*
X232024781Y-252118129D02*
X231919193Y-252222436D01*
X231919193Y-252222436D02*
X232023446Y-252274795D01*
X232023446Y-252274795D02*
X232198831Y-252375128D01*
X232198831Y-252375128D02*
X232359333Y-252492136D01*
X232359333Y-252492136D02*
X232504308Y-252624972D01*
X232504308Y-252624972D02*
X232633110Y-252772787D01*
X232633110Y-252772787D02*
X232745094Y-252934734D01*
X232745094Y-252934734D02*
X232839615Y-253109965D01*
X232839615Y-253109965D02*
X232916028Y-253297632D01*
X232916028Y-253297632D02*
X232973688Y-253496888D01*
X232973688Y-253496888D02*
X232982201Y-253534735D01*
X232982201Y-253534735D02*
X232994372Y-253609737D01*
X232994372Y-253609737D02*
X233002914Y-253700793D01*
X233002914Y-253700793D02*
X233007764Y-253801663D01*
X233007764Y-253801663D02*
X233008863Y-253906108D01*
X233008863Y-253906108D02*
X233006150Y-254007886D01*
X233006150Y-254007886D02*
X232999562Y-254100759D01*
X232999562Y-254100759D02*
X232989040Y-254178487D01*
X232989040Y-254178487D02*
X232988519Y-254181288D01*
X232988519Y-254181288D02*
X232940872Y-254380137D01*
X232940872Y-254380137D02*
X232875156Y-254565844D01*
X232875156Y-254565844D02*
X232790704Y-254739649D01*
X232790704Y-254739649D02*
X232686850Y-254902794D01*
X232686850Y-254902794D02*
X232562926Y-255056520D01*
X232562926Y-255056520D02*
X232462846Y-255160189D01*
X232462846Y-255160189D02*
X232312058Y-255290810D01*
X232312058Y-255290810D02*
X232150281Y-255401827D01*
X232150281Y-255401827D02*
X231977163Y-255493423D01*
X231977163Y-255493423D02*
X231792354Y-255565782D01*
X231792354Y-255565782D02*
X231595504Y-255619088D01*
X231595504Y-255619088D02*
X231580533Y-255622263D01*
X231580533Y-255622263D02*
X231509493Y-255633653D01*
X231509493Y-255633653D02*
X231422780Y-255642268D01*
X231422780Y-255642268D02*
X231326625Y-255647952D01*
X231326625Y-255647952D02*
X231227258Y-255650552D01*
X231227258Y-255650552D02*
X231130910Y-255649914D01*
X231130910Y-255649914D02*
X231043811Y-255645884D01*
X231043811Y-255645884D02*
X230972193Y-255638307D01*
X230972193Y-255638307D02*
X230966729Y-255637448D01*
X230966729Y-255637448D02*
X230768080Y-255594153D01*
X230768080Y-255594153D02*
X230578985Y-255531049D01*
X230578985Y-255531049D02*
X230400530Y-255449181D01*
X230400530Y-255449181D02*
X230233806Y-255349596D01*
X230233806Y-255349596D02*
X230079899Y-255233340D01*
X230079899Y-255233340D02*
X229939898Y-255101461D01*
X229939898Y-255101461D02*
X229814892Y-254955004D01*
X229814892Y-254955004D02*
X229705969Y-254795017D01*
X229705969Y-254795017D02*
X229614217Y-254622544D01*
X229614217Y-254622544D02*
X229540724Y-254438634D01*
X229540724Y-254438634D02*
X229486578Y-254244333D01*
X229486578Y-254244333D02*
X229478590Y-254206437D01*
X229478590Y-254206437D02*
X229464240Y-254112017D01*
X229464240Y-254112017D02*
X229455297Y-254003619D01*
X229455297Y-254003619D02*
X229451752Y-253887927D01*
X229451752Y-253887927D02*
X229452894Y-253815922D01*
X229452894Y-253815922D02*
X229834264Y-253815922D01*
X229834264Y-253815922D02*
X229834615Y-253927288D01*
X229834615Y-253927288D02*
X229851440Y-254106355D01*
X229851440Y-254106355D02*
X229888240Y-254275085D01*
X229888240Y-254275085D02*
X229945356Y-254434278D01*
X229945356Y-254434278D02*
X230023130Y-254584734D01*
X230023130Y-254584734D02*
X230121904Y-254727255D01*
X230121904Y-254727255D02*
X230227483Y-254847795D01*
X230227483Y-254847795D02*
X230358905Y-254968214D01*
X230358905Y-254968214D02*
X230501198Y-255068903D01*
X230501198Y-255068903D02*
X230654680Y-255150036D01*
X230654680Y-255150036D02*
X230819671Y-255211785D01*
X230819671Y-255211785D02*
X230965289Y-255248381D01*
X230965289Y-255248381D02*
X231044945Y-255260122D01*
X231044945Y-255260122D02*
X231138872Y-255267241D01*
X231138872Y-255267241D02*
X231239228Y-255269654D01*
X231239228Y-255269654D02*
X231338164Y-255267277D01*
X231338164Y-255267277D02*
X231427838Y-255260024D01*
X231427838Y-255260024D02*
X231470917Y-255253831D01*
X231470917Y-255253831D02*
X231643022Y-255212852D01*
X231643022Y-255212852D02*
X231805154Y-255152454D01*
X231805154Y-255152454D02*
X231956174Y-255073994D01*
X231956174Y-255073994D02*
X232094944Y-254978828D01*
X232094944Y-254978828D02*
X232220327Y-254868315D01*
X232220327Y-254868315D02*
X232331185Y-254743812D01*
X232331185Y-254743812D02*
X232426379Y-254606676D01*
X232426379Y-254606676D02*
X232504771Y-254458265D01*
X232504771Y-254458265D02*
X232565223Y-254299936D01*
X232565223Y-254299936D02*
X232606598Y-254133047D01*
X232606598Y-254133047D02*
X232627757Y-253958954D01*
X232627757Y-253958954D02*
X232630400Y-253870844D01*
X232630400Y-253870844D02*
X232619598Y-253691422D01*
X232619598Y-253691422D02*
X232587404Y-253518966D01*
X232587404Y-253518966D02*
X232534137Y-253354242D01*
X232534137Y-253354242D02*
X232460115Y-253198018D01*
X232460115Y-253198018D02*
X232365656Y-253051059D01*
X232365656Y-253051059D02*
X232251080Y-252914133D01*
X232251080Y-252914133D02*
X232219787Y-252882015D01*
X232219787Y-252882015D02*
X232083921Y-252761214D01*
X232083921Y-252761214D02*
X231939786Y-252661420D01*
X231939786Y-252661420D02*
X231787315Y-252582606D01*
X231787315Y-252582606D02*
X231626443Y-252524745D01*
X231626443Y-252524745D02*
X231457105Y-252487810D01*
X231457105Y-252487810D02*
X231279235Y-252471772D01*
X231279235Y-252471772D02*
X231230067Y-252471022D01*
X231230067Y-252471022D02*
X231051494Y-252481878D01*
X231051494Y-252481878D02*
X230879548Y-252514204D01*
X230879548Y-252514204D02*
X230715104Y-252567640D01*
X230715104Y-252567640D02*
X230559036Y-252641822D01*
X230559036Y-252641822D02*
X230412218Y-252736388D01*
X230412218Y-252736388D02*
X230275525Y-252850977D01*
X230275525Y-252850977D02*
X230248318Y-252877422D01*
X230248318Y-252877422D02*
X230126787Y-253013182D01*
X230126787Y-253013182D02*
X230026227Y-253157302D01*
X230026227Y-253157302D02*
X229946666Y-253309709D01*
X229946666Y-253309709D02*
X229888132Y-253470330D01*
X229888132Y-253470330D02*
X229850656Y-253639092D01*
X229850656Y-253639092D02*
X229834264Y-253815922D01*
X229834264Y-253815922D02*
X229452894Y-253815922D01*
X229452894Y-253815922D02*
X229453597Y-253771624D01*
X229453597Y-253771624D02*
X229460823Y-253661394D01*
X229460823Y-253661394D02*
X229473420Y-253563920D01*
X229473420Y-253563920D02*
X229479493Y-253532177D01*
X229479493Y-253532177D02*
X229532319Y-253335069D01*
X229532319Y-253335069D02*
X229604323Y-253147674D01*
X229604323Y-253147674D02*
X229694537Y-252971280D01*
X229694537Y-252971280D02*
X229801988Y-252807176D01*
X229801988Y-252807176D02*
X229925705Y-252656650D01*
X229925705Y-252656650D02*
X230064719Y-252520990D01*
X230064719Y-252520990D02*
X230218058Y-252401486D01*
X230218058Y-252401486D02*
X230384752Y-252299426D01*
X230384752Y-252299426D02*
X230423479Y-252279260D01*
X230423479Y-252279260D02*
X230536424Y-252222253D01*
X230536424Y-252222253D02*
X230434342Y-252118037D01*
X230434342Y-252118037D02*
X230390297Y-252071235D01*
X230390297Y-252071235D02*
X230347568Y-252022622D01*
X230347568Y-252022622D02*
X230311266Y-251978198D01*
X230311266Y-251978198D02*
X230287991Y-251946263D01*
X230287991Y-251946263D02*
X230208627Y-251805813D01*
X230208627Y-251805813D02*
X230149806Y-251659546D01*
X230149806Y-251659546D02*
X230111354Y-251509437D01*
X230111354Y-251509437D02*
X230093097Y-251357461D01*
X230093097Y-251357461D02*
X230093800Y-251296977D01*
X230093800Y-251296977D02*
X230480432Y-251296977D01*
X230480432Y-251296977D02*
X230480623Y-251360610D01*
X230480623Y-251360610D02*
X230482154Y-251407888D01*
X230482154Y-251407888D02*
X230485879Y-251445030D01*
X230485879Y-251445030D02*
X230492655Y-251478254D01*
X230492655Y-251478254D02*
X230503337Y-251513778D01*
X230503337Y-251513778D02*
X230514779Y-251546662D01*
X230514779Y-251546662D02*
X230569855Y-251668846D01*
X230569855Y-251668846D02*
X230642435Y-251777805D01*
X230642435Y-251777805D02*
X230731020Y-251872058D01*
X230731020Y-251872058D02*
X230834114Y-251950123D01*
X230834114Y-251950123D02*
X230950218Y-252010522D01*
X230950218Y-252010522D02*
X231004800Y-252031039D01*
X231004800Y-252031039D02*
X231123105Y-252059986D01*
X231123105Y-252059986D02*
X231242595Y-252067446D01*
X231242595Y-252067446D02*
X231365798Y-252053478D01*
X231365798Y-252053478D02*
X231421980Y-252040520D01*
X231421980Y-252040520D02*
X231544175Y-251996857D01*
X231544175Y-251996857D02*
X231655804Y-251934119D01*
X231655804Y-251934119D02*
X231755100Y-251854026D01*
X231755100Y-251854026D02*
X231840293Y-251758297D01*
X231840293Y-251758297D02*
X231909615Y-251648652D01*
X231909615Y-251648652D02*
X231961298Y-251526808D01*
X231961298Y-251526808D02*
X231966225Y-251511466D01*
X231966225Y-251511466D02*
X231985478Y-251423537D01*
X231985478Y-251423537D02*
X231993854Y-251324593D01*
X231993854Y-251324593D02*
X231991355Y-251223323D01*
X231991355Y-251223323D02*
X231977982Y-251128418D01*
X231977982Y-251128418D02*
X231966120Y-251082488D01*
X231966120Y-251082488D02*
X231934612Y-250994779D01*
X231934612Y-250994779D02*
X231897419Y-250920241D01*
X231897419Y-250920241D02*
X231850067Y-250851545D01*
X231850067Y-250851545D02*
X231788080Y-250781363D01*
X231788080Y-250781363D02*
X231772647Y-250765611D01*
X231772647Y-250765611D02*
X231677375Y-250681886D01*
X231677375Y-250681886D02*
X231577503Y-250618782D01*
X231577503Y-250618782D02*
X231469635Y-250574372D01*
X231469635Y-250574372D02*
X231404870Y-250557039D01*
X231404870Y-250557039D02*
X231315936Y-250544020D01*
X231315936Y-250544020D02*
X231218300Y-250541107D01*
X231218300Y-250541107D02*
X231120207Y-250547898D01*
X231120207Y-250547898D02*
X231029904Y-250563992D01*
X231029904Y-250563992D02*
X230984089Y-250577523D01*
X230984089Y-250577523D02*
X230864923Y-250630980D01*
X230864923Y-250630980D02*
X230758110Y-250702037D01*
X230758110Y-250702037D02*
X230665503Y-250788832D01*
X230665503Y-250788832D02*
X230588957Y-250889503D01*
X230588957Y-250889503D02*
X230530327Y-251002187D01*
X230530327Y-251002187D02*
X230511758Y-251051845D01*
X230511758Y-251051845D02*
X230498748Y-251093273D01*
X230498748Y-251093273D02*
X230489934Y-251129562D01*
X230489934Y-251129562D02*
X230484505Y-251167069D01*
X230484505Y-251167069D02*
X230481649Y-251212149D01*
X230481649Y-251212149D02*
X230480552Y-251271157D01*
X230480552Y-251271157D02*
X230480432Y-251296977D01*
X230480432Y-251296977D02*
X230093800Y-251296977D01*
X230093800Y-251296977D02*
X230094864Y-251205593D01*
X230094864Y-251205593D02*
X230116480Y-251055808D01*
X230116480Y-251055808D02*
X230157772Y-250910083D01*
X230157772Y-250910083D02*
X230218567Y-250770393D01*
X230218567Y-250770393D02*
X230298693Y-250638713D01*
X230298693Y-250638713D02*
X230397974Y-250517018D01*
X230397974Y-250517018D02*
X230414868Y-250499379D01*
X230414868Y-250499379D02*
X230519116Y-250404655D01*
X230519116Y-250404655D02*
X230632438Y-250325705D01*
X230632438Y-250325705D02*
X230746832Y-250264673D01*
X230746832Y-250264673D02*
X230831960Y-250227059D01*
X230831960Y-250227059D02*
X230908882Y-250199583D01*
X230908882Y-250199583D02*
X230984151Y-250180851D01*
X230984151Y-250180851D02*
X231064321Y-250169470D01*
X231064321Y-250169470D02*
X231155946Y-250164047D01*
X231155946Y-250164047D02*
X231224933Y-250163057D01*
X231224933Y-250163057D02*
X231331995Y-250165161D01*
X231331995Y-250165161D02*
X231331995Y-250165161D01*
G36*
X229460823Y-253661394D02*
G01*
X229473420Y-253563920D01*
X229479493Y-253532177D01*
X229532319Y-253335069D01*
X229604323Y-253147674D01*
X229694537Y-252971280D01*
X229801988Y-252807176D01*
X229925705Y-252656650D01*
X230064719Y-252520990D01*
X230218058Y-252401486D01*
X230384752Y-252299426D01*
X230423479Y-252279260D01*
X230536424Y-252222253D01*
X230434342Y-252118037D01*
X230390297Y-252071235D01*
X230347568Y-252022622D01*
X230311266Y-251978198D01*
X230287991Y-251946263D01*
X230208627Y-251805813D01*
X230149806Y-251659546D01*
X230111354Y-251509437D01*
X230093097Y-251357461D01*
X230093800Y-251296977D01*
X230480432Y-251296977D01*
X230480623Y-251360610D01*
X230482154Y-251407888D01*
X230485879Y-251445030D01*
X230492655Y-251478254D01*
X230503337Y-251513778D01*
X230514779Y-251546662D01*
X230569855Y-251668846D01*
X230642435Y-251777805D01*
X230731020Y-251872058D01*
X230834114Y-251950123D01*
X230950218Y-252010522D01*
X231004800Y-252031039D01*
X231123105Y-252059986D01*
X231242595Y-252067446D01*
X231365798Y-252053478D01*
X231421980Y-252040520D01*
X231544175Y-251996857D01*
X231655804Y-251934119D01*
X231755100Y-251854026D01*
X231840293Y-251758297D01*
X231909615Y-251648652D01*
X231961298Y-251526808D01*
X231966225Y-251511466D01*
X231985478Y-251423537D01*
X231993854Y-251324593D01*
X231991355Y-251223323D01*
X231977982Y-251128418D01*
X231966120Y-251082488D01*
X231934612Y-250994779D01*
X231897419Y-250920241D01*
X231850067Y-250851545D01*
X231788080Y-250781363D01*
X231772647Y-250765611D01*
X231677375Y-250681886D01*
X231577503Y-250618782D01*
X231469635Y-250574372D01*
X231404870Y-250557039D01*
X231315936Y-250544020D01*
X231218300Y-250541107D01*
X231120207Y-250547898D01*
X231029904Y-250563992D01*
X230984089Y-250577523D01*
X230864923Y-250630980D01*
X230758110Y-250702037D01*
X230665503Y-250788832D01*
X230588957Y-250889503D01*
X230530327Y-251002187D01*
X230511758Y-251051845D01*
X230498748Y-251093273D01*
X230489934Y-251129562D01*
X230484505Y-251167069D01*
X230481649Y-251212149D01*
X230480552Y-251271157D01*
X230480432Y-251296977D01*
X230093800Y-251296977D01*
X230094864Y-251205593D01*
X230116480Y-251055808D01*
X230157772Y-250910083D01*
X230218567Y-250770393D01*
X230298693Y-250638713D01*
X230397974Y-250517018D01*
X230414868Y-250499379D01*
X230519116Y-250404655D01*
X230632438Y-250325705D01*
X230746832Y-250264673D01*
X230831960Y-250227059D01*
X230908882Y-250199583D01*
X230984151Y-250180851D01*
X231064321Y-250169470D01*
X231155946Y-250164047D01*
X231224933Y-250163057D01*
X231331995Y-250165161D01*
X231423341Y-250172895D01*
X231505437Y-250187680D01*
X231584748Y-250210937D01*
X231667739Y-250244084D01*
X231732933Y-250274642D01*
X231872166Y-250355190D01*
X231997500Y-250452839D01*
X232107602Y-250565964D01*
X232201142Y-250692939D01*
X232276788Y-250832140D01*
X232333208Y-250981942D01*
X232344032Y-251020400D01*
X232356509Y-251071038D01*
X232364984Y-251115609D01*
X232370190Y-251160925D01*
X232372858Y-251213799D01*
X232373719Y-251281043D01*
X232373739Y-251296977D01*
X232373139Y-251368245D01*
X232370863Y-251423690D01*
X232366198Y-251470045D01*
X232358431Y-251514045D01*
X232346848Y-251562424D01*
X232344802Y-251570234D01*
X232297560Y-251715511D01*
X232235310Y-251847237D01*
X232155747Y-251969357D01*
X232056567Y-252085814D01*
X232024781Y-252118129D01*
X231919193Y-252222436D01*
X232023446Y-252274795D01*
X232198831Y-252375128D01*
X232359333Y-252492136D01*
X232504308Y-252624972D01*
X232633110Y-252772787D01*
X232745094Y-252934734D01*
X232839615Y-253109965D01*
X232916028Y-253297632D01*
X232973688Y-253496888D01*
X232982201Y-253534735D01*
X232994372Y-253609737D01*
X233002914Y-253700793D01*
X233007764Y-253801663D01*
X233008863Y-253906108D01*
X233006150Y-254007886D01*
X232999562Y-254100759D01*
X232989040Y-254178487D01*
X232988519Y-254181288D01*
X232940872Y-254380137D01*
X232875156Y-254565844D01*
X232790704Y-254739649D01*
X232686850Y-254902794D01*
X232562926Y-255056520D01*
X232462846Y-255160189D01*
X232312058Y-255290810D01*
X232150281Y-255401827D01*
X231977163Y-255493423D01*
X231792354Y-255565782D01*
X231595504Y-255619088D01*
X231580533Y-255622263D01*
X231509493Y-255633653D01*
X231422780Y-255642268D01*
X231326625Y-255647952D01*
X231227258Y-255650552D01*
X231130910Y-255649914D01*
X231043811Y-255645884D01*
X230972193Y-255638307D01*
X230966729Y-255637448D01*
X230768080Y-255594153D01*
X230578985Y-255531049D01*
X230400530Y-255449181D01*
X230233806Y-255349596D01*
X230079899Y-255233340D01*
X229939898Y-255101461D01*
X229814892Y-254955004D01*
X229705969Y-254795017D01*
X229614217Y-254622544D01*
X229540724Y-254438634D01*
X229486578Y-254244333D01*
X229478590Y-254206437D01*
X229464240Y-254112017D01*
X229455297Y-254003619D01*
X229451752Y-253887927D01*
X229452894Y-253815922D01*
X229834264Y-253815922D01*
X229834615Y-253927288D01*
X229851440Y-254106355D01*
X229888240Y-254275085D01*
X229945356Y-254434278D01*
X230023130Y-254584734D01*
X230121904Y-254727255D01*
X230227483Y-254847795D01*
X230358905Y-254968214D01*
X230501198Y-255068903D01*
X230654680Y-255150036D01*
X230819671Y-255211785D01*
X230965289Y-255248381D01*
X231044945Y-255260122D01*
X231138872Y-255267241D01*
X231239228Y-255269654D01*
X231338164Y-255267277D01*
X231427838Y-255260024D01*
X231470917Y-255253831D01*
X231643022Y-255212852D01*
X231805154Y-255152454D01*
X231956174Y-255073994D01*
X232094944Y-254978828D01*
X232220327Y-254868315D01*
X232331185Y-254743812D01*
X232426379Y-254606676D01*
X232504771Y-254458265D01*
X232565223Y-254299936D01*
X232606598Y-254133047D01*
X232627757Y-253958954D01*
X232630400Y-253870844D01*
X232619598Y-253691422D01*
X232587404Y-253518966D01*
X232534137Y-253354242D01*
X232460115Y-253198018D01*
X232365656Y-253051059D01*
X232251080Y-252914133D01*
X232219787Y-252882015D01*
X232083921Y-252761214D01*
X231939786Y-252661420D01*
X231787315Y-252582606D01*
X231626443Y-252524745D01*
X231457105Y-252487810D01*
X231279235Y-252471772D01*
X231230067Y-252471022D01*
X231051494Y-252481878D01*
X230879548Y-252514204D01*
X230715104Y-252567640D01*
X230559036Y-252641822D01*
X230412218Y-252736388D01*
X230275525Y-252850977D01*
X230248318Y-252877422D01*
X230126787Y-253013182D01*
X230026227Y-253157302D01*
X229946666Y-253309709D01*
X229888132Y-253470330D01*
X229850656Y-253639092D01*
X229834264Y-253815922D01*
X229452894Y-253815922D01*
X229453597Y-253771624D01*
X229460823Y-253661394D01*
G37*
X229460823Y-253661394D02*
X229473420Y-253563920D01*
X229479493Y-253532177D01*
X229532319Y-253335069D01*
X229604323Y-253147674D01*
X229694537Y-252971280D01*
X229801988Y-252807176D01*
X229925705Y-252656650D01*
X230064719Y-252520990D01*
X230218058Y-252401486D01*
X230384752Y-252299426D01*
X230423479Y-252279260D01*
X230536424Y-252222253D01*
X230434342Y-252118037D01*
X230390297Y-252071235D01*
X230347568Y-252022622D01*
X230311266Y-251978198D01*
X230287991Y-251946263D01*
X230208627Y-251805813D01*
X230149806Y-251659546D01*
X230111354Y-251509437D01*
X230093097Y-251357461D01*
X230093800Y-251296977D01*
X230480432Y-251296977D01*
X230480623Y-251360610D01*
X230482154Y-251407888D01*
X230485879Y-251445030D01*
X230492655Y-251478254D01*
X230503337Y-251513778D01*
X230514779Y-251546662D01*
X230569855Y-251668846D01*
X230642435Y-251777805D01*
X230731020Y-251872058D01*
X230834114Y-251950123D01*
X230950218Y-252010522D01*
X231004800Y-252031039D01*
X231123105Y-252059986D01*
X231242595Y-252067446D01*
X231365798Y-252053478D01*
X231421980Y-252040520D01*
X231544175Y-251996857D01*
X231655804Y-251934119D01*
X231755100Y-251854026D01*
X231840293Y-251758297D01*
X231909615Y-251648652D01*
X231961298Y-251526808D01*
X231966225Y-251511466D01*
X231985478Y-251423537D01*
X231993854Y-251324593D01*
X231991355Y-251223323D01*
X231977982Y-251128418D01*
X231966120Y-251082488D01*
X231934612Y-250994779D01*
X231897419Y-250920241D01*
X231850067Y-250851545D01*
X231788080Y-250781363D01*
X231772647Y-250765611D01*
X231677375Y-250681886D01*
X231577503Y-250618782D01*
X231469635Y-250574372D01*
X231404870Y-250557039D01*
X231315936Y-250544020D01*
X231218300Y-250541107D01*
X231120207Y-250547898D01*
X231029904Y-250563992D01*
X230984089Y-250577523D01*
X230864923Y-250630980D01*
X230758110Y-250702037D01*
X230665503Y-250788832D01*
X230588957Y-250889503D01*
X230530327Y-251002187D01*
X230511758Y-251051845D01*
X230498748Y-251093273D01*
X230489934Y-251129562D01*
X230484505Y-251167069D01*
X230481649Y-251212149D01*
X230480552Y-251271157D01*
X230480432Y-251296977D01*
X230093800Y-251296977D01*
X230094864Y-251205593D01*
X230116480Y-251055808D01*
X230157772Y-250910083D01*
X230218567Y-250770393D01*
X230298693Y-250638713D01*
X230397974Y-250517018D01*
X230414868Y-250499379D01*
X230519116Y-250404655D01*
X230632438Y-250325705D01*
X230746832Y-250264673D01*
X230831960Y-250227059D01*
X230908882Y-250199583D01*
X230984151Y-250180851D01*
X231064321Y-250169470D01*
X231155946Y-250164047D01*
X231224933Y-250163057D01*
X231331995Y-250165161D01*
X231423341Y-250172895D01*
X231505437Y-250187680D01*
X231584748Y-250210937D01*
X231667739Y-250244084D01*
X231732933Y-250274642D01*
X231872166Y-250355190D01*
X231997500Y-250452839D01*
X232107602Y-250565964D01*
X232201142Y-250692939D01*
X232276788Y-250832140D01*
X232333208Y-250981942D01*
X232344032Y-251020400D01*
X232356509Y-251071038D01*
X232364984Y-251115609D01*
X232370190Y-251160925D01*
X232372858Y-251213799D01*
X232373719Y-251281043D01*
X232373739Y-251296977D01*
X232373139Y-251368245D01*
X232370863Y-251423690D01*
X232366198Y-251470045D01*
X232358431Y-251514045D01*
X232346848Y-251562424D01*
X232344802Y-251570234D01*
X232297560Y-251715511D01*
X232235310Y-251847237D01*
X232155747Y-251969357D01*
X232056567Y-252085814D01*
X232024781Y-252118129D01*
X231919193Y-252222436D01*
X232023446Y-252274795D01*
X232198831Y-252375128D01*
X232359333Y-252492136D01*
X232504308Y-252624972D01*
X232633110Y-252772787D01*
X232745094Y-252934734D01*
X232839615Y-253109965D01*
X232916028Y-253297632D01*
X232973688Y-253496888D01*
X232982201Y-253534735D01*
X232994372Y-253609737D01*
X233002914Y-253700793D01*
X233007764Y-253801663D01*
X233008863Y-253906108D01*
X233006150Y-254007886D01*
X232999562Y-254100759D01*
X232989040Y-254178487D01*
X232988519Y-254181288D01*
X232940872Y-254380137D01*
X232875156Y-254565844D01*
X232790704Y-254739649D01*
X232686850Y-254902794D01*
X232562926Y-255056520D01*
X232462846Y-255160189D01*
X232312058Y-255290810D01*
X232150281Y-255401827D01*
X231977163Y-255493423D01*
X231792354Y-255565782D01*
X231595504Y-255619088D01*
X231580533Y-255622263D01*
X231509493Y-255633653D01*
X231422780Y-255642268D01*
X231326625Y-255647952D01*
X231227258Y-255650552D01*
X231130910Y-255649914D01*
X231043811Y-255645884D01*
X230972193Y-255638307D01*
X230966729Y-255637448D01*
X230768080Y-255594153D01*
X230578985Y-255531049D01*
X230400530Y-255449181D01*
X230233806Y-255349596D01*
X230079899Y-255233340D01*
X229939898Y-255101461D01*
X229814892Y-254955004D01*
X229705969Y-254795017D01*
X229614217Y-254622544D01*
X229540724Y-254438634D01*
X229486578Y-254244333D01*
X229478590Y-254206437D01*
X229464240Y-254112017D01*
X229455297Y-254003619D01*
X229451752Y-253887927D01*
X229452894Y-253815922D01*
X229834264Y-253815922D01*
X229834615Y-253927288D01*
X229851440Y-254106355D01*
X229888240Y-254275085D01*
X229945356Y-254434278D01*
X230023130Y-254584734D01*
X230121904Y-254727255D01*
X230227483Y-254847795D01*
X230358905Y-254968214D01*
X230501198Y-255068903D01*
X230654680Y-255150036D01*
X230819671Y-255211785D01*
X230965289Y-255248381D01*
X231044945Y-255260122D01*
X231138872Y-255267241D01*
X231239228Y-255269654D01*
X231338164Y-255267277D01*
X231427838Y-255260024D01*
X231470917Y-255253831D01*
X231643022Y-255212852D01*
X231805154Y-255152454D01*
X231956174Y-255073994D01*
X232094944Y-254978828D01*
X232220327Y-254868315D01*
X232331185Y-254743812D01*
X232426379Y-254606676D01*
X232504771Y-254458265D01*
X232565223Y-254299936D01*
X232606598Y-254133047D01*
X232627757Y-253958954D01*
X232630400Y-253870844D01*
X232619598Y-253691422D01*
X232587404Y-253518966D01*
X232534137Y-253354242D01*
X232460115Y-253198018D01*
X232365656Y-253051059D01*
X232251080Y-252914133D01*
X232219787Y-252882015D01*
X232083921Y-252761214D01*
X231939786Y-252661420D01*
X231787315Y-252582606D01*
X231626443Y-252524745D01*
X231457105Y-252487810D01*
X231279235Y-252471772D01*
X231230067Y-252471022D01*
X231051494Y-252481878D01*
X230879548Y-252514204D01*
X230715104Y-252567640D01*
X230559036Y-252641822D01*
X230412218Y-252736388D01*
X230275525Y-252850977D01*
X230248318Y-252877422D01*
X230126787Y-253013182D01*
X230026227Y-253157302D01*
X229946666Y-253309709D01*
X229888132Y-253470330D01*
X229850656Y-253639092D01*
X229834264Y-253815922D01*
X229452894Y-253815922D01*
X229453597Y-253771624D01*
X229460823Y-253661394D01*
X225010532Y-250155443D02*
X225123707Y-250156024D01*
X225123707Y-250156024D02*
X225234860Y-250157082D01*
X225234860Y-250157082D02*
X225341531Y-250158617D01*
X225341531Y-250158617D02*
X225441262Y-250160623D01*
X225441262Y-250160623D02*
X225531593Y-250163099D01*
X225531593Y-250163099D02*
X225610064Y-250166042D01*
X225610064Y-250166042D02*
X225674217Y-250169448D01*
X225674217Y-250169448D02*
X225721591Y-250173314D01*
X225721591Y-250173314D02*
X225726574Y-250173872D01*
X225726574Y-250173872D02*
X225970825Y-250213660D01*
X225970825Y-250213660D02*
X226208677Y-250275048D01*
X226208677Y-250275048D02*
X226439690Y-250357858D01*
X226439690Y-250357858D02*
X226663419Y-250461913D01*
X226663419Y-250461913D02*
X226879423Y-250587034D01*
X226879423Y-250587034D02*
X227053689Y-250707626D01*
X227053689Y-250707626D02*
X227124722Y-250764252D01*
X227124722Y-250764252D02*
X227204335Y-250833817D01*
X227204335Y-250833817D02*
X227288245Y-250912073D01*
X227288245Y-250912073D02*
X227372167Y-250994776D01*
X227372167Y-250994776D02*
X227451820Y-251077677D01*
X227451820Y-251077677D02*
X227522920Y-251156531D01*
X227522920Y-251156531D02*
X227581183Y-251227090D01*
X227581183Y-251227090D02*
X227592188Y-251241526D01*
X227592188Y-251241526D02*
X227736478Y-251452354D01*
X227736478Y-251452354D02*
X227859728Y-251671180D01*
X227859728Y-251671180D02*
X227962158Y-251898529D01*
X227962158Y-251898529D02*
X228043987Y-252134927D01*
X228043987Y-252134927D02*
X228105435Y-252380899D01*
X228105435Y-252380899D02*
X228133440Y-252538755D01*
X228133440Y-252538755D02*
X228141657Y-252610070D01*
X228141657Y-252610070D02*
X228147786Y-252697789D01*
X228147786Y-252697789D02*
X228151786Y-252796303D01*
X228151786Y-252796303D02*
X228153612Y-252899999D01*
X228153612Y-252899999D02*
X228153220Y-253003266D01*
X228153220Y-253003266D02*
X228150568Y-253100492D01*
X228150568Y-253100492D02*
X228145612Y-253186067D01*
X228145612Y-253186067D02*
X228138942Y-253249955D01*
X228138942Y-253249955D02*
X228092942Y-253503789D01*
X228092942Y-253503789D02*
X228027373Y-253746385D01*
X228027373Y-253746385D02*
X227942164Y-253977884D01*
X227942164Y-253977884D02*
X227837247Y-254198426D01*
X227837247Y-254198426D02*
X227712552Y-254408152D01*
X227712552Y-254408152D02*
X227568011Y-254607202D01*
X227568011Y-254607202D02*
X227403553Y-254795718D01*
X227403553Y-254795718D02*
X227352959Y-254847603D01*
X227352959Y-254847603D02*
X227168647Y-255016444D01*
X227168647Y-255016444D02*
X226971934Y-255166737D01*
X226971934Y-255166737D02*
X226763885Y-255297962D01*
X226763885Y-255297962D02*
X226545568Y-255409603D01*
X226545568Y-255409603D02*
X226318050Y-255501140D01*
X226318050Y-255501140D02*
X226082398Y-255572056D01*
X226082398Y-255572056D02*
X225839679Y-255621833D01*
X225839679Y-255621833D02*
X225726574Y-255637416D01*
X225726574Y-255637416D02*
X225687010Y-255641432D01*
X225687010Y-255641432D02*
X225641306Y-255644813D01*
X225641306Y-255644813D02*
X225587451Y-255647604D01*
X225587451Y-255647604D02*
X225523432Y-255649849D01*
X225523432Y-255649849D02*
X225447236Y-255651593D01*
X225447236Y-255651593D02*
X225356851Y-255652881D01*
X225356851Y-255652881D02*
X225250264Y-255653755D01*
X225250264Y-255653755D02*
X225125464Y-255654262D01*
X225125464Y-255654262D02*
X224980437Y-255654444D01*
X224980437Y-255654444D02*
X224954025Y-255654446D01*
X224954025Y-255654446D02*
X224818797Y-255654403D01*
X224818797Y-255654403D02*
X224704304Y-255654252D01*
X224704304Y-255654252D02*
X224608704Y-255653937D01*
X224608704Y-255653937D02*
X224530154Y-255653399D01*
X224530154Y-255653399D02*
X224466811Y-255652578D01*
X224466811Y-255652578D02*
X224416833Y-255651417D01*
X224416833Y-255651417D02*
X224378378Y-255649857D01*
X224378378Y-255649857D02*
X224349602Y-255647839D01*
X224349602Y-255647839D02*
X224328662Y-255645306D01*
X224328662Y-255645306D02*
X224313718Y-255642199D01*
X224313718Y-255642199D02*
X224302925Y-255638458D01*
X224302925Y-255638458D02*
X224294442Y-255634026D01*
X224294442Y-255634026D02*
X224293555Y-255633485D01*
X224293555Y-255633485D02*
X224263403Y-255611730D01*
X224263403Y-255611730D02*
X224238860Y-255589119D01*
X224238860Y-255589119D02*
X224233215Y-255583073D01*
X224233215Y-255583073D02*
X224227998Y-255577554D01*
X224227998Y-255577554D02*
X224223191Y-255571692D01*
X224223191Y-255571692D02*
X224218778Y-255564615D01*
X224218778Y-255564615D02*
X224214740Y-255555452D01*
X224214740Y-255555452D02*
X224211062Y-255543332D01*
X224211062Y-255543332D02*
X224207727Y-255527382D01*
X224207727Y-255527382D02*
X224204717Y-255506733D01*
X224204717Y-255506733D02*
X224202016Y-255480511D01*
X224202016Y-255480511D02*
X224199606Y-255447847D01*
X224199606Y-255447847D02*
X224197472Y-255407869D01*
X224197472Y-255407869D02*
X224195595Y-255359705D01*
X224195595Y-255359705D02*
X224193959Y-255302484D01*
X224193959Y-255302484D02*
X224193291Y-255270666D01*
X224193291Y-255270666D02*
X224581422Y-255270666D01*
X224581422Y-255270666D02*
X225007578Y-255270639D01*
X225007578Y-255270639D02*
X225111268Y-255270312D01*
X225111268Y-255270312D02*
X225214499Y-255269394D01*
X225214499Y-255269394D02*
X225313487Y-255267961D01*
X225313487Y-255267961D02*
X225404454Y-255266090D01*
X225404454Y-255266090D02*
X225483616Y-255263855D01*
X225483616Y-255263855D02*
X225547194Y-255261334D01*
X225547194Y-255261334D02*
X225586133Y-255259024D01*
X225586133Y-255259024D02*
X225812599Y-255230866D01*
X225812599Y-255230866D02*
X226032372Y-255181918D01*
X226032372Y-255181918D02*
X226244307Y-255113134D01*
X226244307Y-255113134D02*
X226447260Y-255025468D01*
X226447260Y-255025468D02*
X226640088Y-254919875D01*
X226640088Y-254919875D02*
X226821648Y-254797307D01*
X226821648Y-254797307D02*
X226990795Y-254658721D01*
X226990795Y-254658721D02*
X227146387Y-254505069D01*
X227146387Y-254505069D02*
X227287278Y-254337305D01*
X227287278Y-254337305D02*
X227412326Y-254156384D01*
X227412326Y-254156384D02*
X227520388Y-253963261D01*
X227520388Y-253963261D02*
X227610318Y-253758888D01*
X227610318Y-253758888D02*
X227680974Y-253544220D01*
X227680974Y-253544220D02*
X227692201Y-253502052D01*
X227692201Y-253502052D02*
X227720557Y-253381769D01*
X227720557Y-253381769D02*
X227741063Y-253270151D01*
X227741063Y-253270151D02*
X227754445Y-253160357D01*
X227754445Y-253160357D02*
X227761430Y-253045547D01*
X227761430Y-253045547D02*
X227762743Y-252918878D01*
X227762743Y-252918878D02*
X227761506Y-252849200D01*
X227761506Y-252849200D02*
X227757701Y-252740342D01*
X227757701Y-252740342D02*
X227751669Y-252647314D01*
X227751669Y-252647314D02*
X227742485Y-252563403D01*
X227742485Y-252563403D02*
X227729226Y-252481899D01*
X227729226Y-252481899D02*
X227710970Y-252396090D01*
X227710970Y-252396090D02*
X227686794Y-252299265D01*
X227686794Y-252299265D02*
X227684832Y-252291813D01*
X227684832Y-252291813D02*
X227617103Y-252078658D01*
X227617103Y-252078658D02*
X227529368Y-251874466D01*
X227529368Y-251874466D02*
X227422811Y-251680403D01*
X227422811Y-251680403D02*
X227298614Y-251497636D01*
X227298614Y-251497636D02*
X227157961Y-251327330D01*
X227157961Y-251327330D02*
X227002035Y-251170654D01*
X227002035Y-251170654D02*
X226832020Y-251028772D01*
X226832020Y-251028772D02*
X226649099Y-250902853D01*
X226649099Y-250902853D02*
X226454455Y-250794063D01*
X226454455Y-250794063D02*
X226249271Y-250703568D01*
X226249271Y-250703568D02*
X226034732Y-250632535D01*
X226034732Y-250632535D02*
X225989608Y-250620458D01*
X225989608Y-250620458D02*
X225926622Y-250604661D01*
X225926622Y-250604661D02*
X225869043Y-250591333D01*
X225869043Y-250591333D02*
X225814164Y-250580240D01*
X225814164Y-250580240D02*
X225759279Y-250571149D01*
X225759279Y-250571149D02*
X225701685Y-250563825D01*
X225701685Y-250563825D02*
X225638675Y-250558036D01*
X225638675Y-250558036D02*
X225567544Y-250553547D01*
X225567544Y-250553547D02*
X225485587Y-250550124D01*
X225485587Y-250550124D02*
X225390099Y-250547535D01*
X225390099Y-250547535D02*
X225278374Y-250545544D01*
X225278374Y-250545544D02*
X225147708Y-250543918D01*
X225147708Y-250543918D02*
X225097889Y-250543401D01*
X225097889Y-250543401D02*
X224581422Y-250538226D01*
X224581422Y-250538226D02*
X224581422Y-255270666D01*
X224581422Y-255270666D02*
X224193291Y-255270666D01*
X224193291Y-255270666D02*
X224192548Y-255235335D01*
X224192548Y-255235335D02*
X224191343Y-255157386D01*
X224191343Y-255157386D02*
X224190329Y-255067766D01*
X224190329Y-255067766D02*
X224189488Y-254965604D01*
X224189488Y-254965604D02*
X224188804Y-254850029D01*
X224188804Y-254850029D02*
X224188259Y-254720168D01*
X224188259Y-254720168D02*
X224187837Y-254575151D01*
X224187837Y-254575151D02*
X224187520Y-254414107D01*
X224187520Y-254414107D02*
X224187293Y-254236164D01*
X224187293Y-254236164D02*
X224187137Y-254040451D01*
X224187137Y-254040451D02*
X224187036Y-253826095D01*
X224187036Y-253826095D02*
X224186973Y-253592227D01*
X224186973Y-253592227D02*
X224186931Y-253337975D01*
X224186931Y-253337975D02*
X224186893Y-253062467D01*
X224186893Y-253062467D02*
X224186869Y-252911288D01*
X224186869Y-252911288D02*
X224186863Y-252583438D01*
X224186863Y-252583438D02*
X224186957Y-252278057D01*
X224186957Y-252278057D02*
X224187153Y-251995040D01*
X224187153Y-251995040D02*
X224187451Y-251734278D01*
X224187451Y-251734278D02*
X224187851Y-251495664D01*
X224187851Y-251495664D02*
X224188354Y-251279092D01*
X224188354Y-251279092D02*
X224188961Y-251084454D01*
X224188961Y-251084454D02*
X224189671Y-250911642D01*
X224189671Y-250911642D02*
X224190486Y-250760550D01*
X224190486Y-250760550D02*
X224191405Y-250631070D01*
X224191405Y-250631070D02*
X224192430Y-250523094D01*
X224192430Y-250523094D02*
X224193560Y-250436516D01*
X224193560Y-250436516D02*
X224194796Y-250371229D01*
X224194796Y-250371229D02*
X224196139Y-250327124D01*
X224196139Y-250327124D02*
X224197589Y-250304095D01*
X224197589Y-250304095D02*
X224198097Y-250301083D01*
X224198097Y-250301083D02*
X224221582Y-250249511D01*
X224221582Y-250249511D02*
X224258668Y-250204566D01*
X224258668Y-250204566D02*
X224302903Y-250173897D01*
X224302903Y-250173897D02*
X224306777Y-250172198D01*
X224306777Y-250172198D02*
X224327475Y-250168347D01*
X224327475Y-250168347D02*
X224368287Y-250165000D01*
X224368287Y-250165000D02*
X224426751Y-250162154D01*
X224426751Y-250162154D02*
X224500410Y-250159806D01*
X224500410Y-250159806D02*
X224586803Y-250157954D01*
X224586803Y-250157954D02*
X224683471Y-250156596D01*
X224683471Y-250156596D02*
X224787955Y-250155726D01*
X224787955Y-250155726D02*
X224897795Y-250155342D01*
X224897795Y-250155342D02*
X225010532Y-250155443D01*
X225010532Y-250155443D02*
X225010532Y-250155443D01*
G36*
X224191343Y-255157386D02*
G01*
X224190329Y-255067766D01*
X224189488Y-254965604D01*
X224188804Y-254850029D01*
X224188259Y-254720168D01*
X224187837Y-254575151D01*
X224187520Y-254414107D01*
X224187293Y-254236164D01*
X224187137Y-254040451D01*
X224187036Y-253826095D01*
X224186973Y-253592227D01*
X224186931Y-253337975D01*
X224186893Y-253062467D01*
X224186869Y-252911288D01*
X224186863Y-252583438D01*
X224186957Y-252278057D01*
X224187153Y-251995040D01*
X224187451Y-251734278D01*
X224187851Y-251495664D01*
X224188354Y-251279092D01*
X224188961Y-251084454D01*
X224189671Y-250911642D01*
X224190486Y-250760550D01*
X224191405Y-250631070D01*
X224192430Y-250523094D01*
X224193560Y-250436516D01*
X224194796Y-250371229D01*
X224196139Y-250327124D01*
X224197589Y-250304095D01*
X224198097Y-250301083D01*
X224221582Y-250249511D01*
X224258668Y-250204566D01*
X224302903Y-250173897D01*
X224306777Y-250172198D01*
X224327475Y-250168347D01*
X224368287Y-250165000D01*
X224426751Y-250162154D01*
X224500410Y-250159806D01*
X224586803Y-250157954D01*
X224683471Y-250156596D01*
X224787955Y-250155726D01*
X224897795Y-250155342D01*
X225010532Y-250155443D01*
X225123707Y-250156024D01*
X225234860Y-250157082D01*
X225341531Y-250158617D01*
X225441262Y-250160623D01*
X225531593Y-250163099D01*
X225610064Y-250166042D01*
X225674217Y-250169448D01*
X225721591Y-250173314D01*
X225726574Y-250173872D01*
X225970825Y-250213660D01*
X226208677Y-250275048D01*
X226439690Y-250357858D01*
X226663419Y-250461913D01*
X226879423Y-250587034D01*
X227053689Y-250707626D01*
X227124722Y-250764252D01*
X227204335Y-250833817D01*
X227288245Y-250912073D01*
X227372167Y-250994776D01*
X227451820Y-251077677D01*
X227522920Y-251156531D01*
X227581183Y-251227090D01*
X227592188Y-251241526D01*
X227736478Y-251452354D01*
X227859728Y-251671180D01*
X227962158Y-251898529D01*
X228043987Y-252134927D01*
X228105435Y-252380899D01*
X228133440Y-252538755D01*
X228141657Y-252610070D01*
X228147786Y-252697789D01*
X228151786Y-252796303D01*
X228153612Y-252899999D01*
X228153220Y-253003266D01*
X228150568Y-253100492D01*
X228145612Y-253186067D01*
X228138942Y-253249955D01*
X228092942Y-253503789D01*
X228027373Y-253746385D01*
X227942164Y-253977884D01*
X227837247Y-254198426D01*
X227712552Y-254408152D01*
X227568011Y-254607202D01*
X227403553Y-254795718D01*
X227352959Y-254847603D01*
X227168647Y-255016444D01*
X226971934Y-255166737D01*
X226763885Y-255297962D01*
X226545568Y-255409603D01*
X226318050Y-255501140D01*
X226082398Y-255572056D01*
X225839679Y-255621833D01*
X225726574Y-255637416D01*
X225687010Y-255641432D01*
X225641306Y-255644813D01*
X225587451Y-255647604D01*
X225523432Y-255649849D01*
X225447236Y-255651593D01*
X225356851Y-255652881D01*
X225250264Y-255653755D01*
X225125464Y-255654262D01*
X224980437Y-255654444D01*
X224954025Y-255654446D01*
X224818797Y-255654403D01*
X224704304Y-255654252D01*
X224608704Y-255653937D01*
X224530154Y-255653399D01*
X224466811Y-255652578D01*
X224416833Y-255651417D01*
X224378378Y-255649857D01*
X224349602Y-255647839D01*
X224328662Y-255645306D01*
X224313718Y-255642199D01*
X224302925Y-255638458D01*
X224294442Y-255634026D01*
X224293555Y-255633485D01*
X224263403Y-255611730D01*
X224238860Y-255589119D01*
X224233215Y-255583073D01*
X224227998Y-255577554D01*
X224223191Y-255571692D01*
X224218778Y-255564615D01*
X224214740Y-255555452D01*
X224211062Y-255543332D01*
X224207727Y-255527382D01*
X224204717Y-255506733D01*
X224202016Y-255480511D01*
X224199606Y-255447847D01*
X224197472Y-255407869D01*
X224195595Y-255359705D01*
X224193959Y-255302484D01*
X224193291Y-255270666D01*
X224581422Y-255270666D01*
X225007578Y-255270639D01*
X225111268Y-255270312D01*
X225214499Y-255269394D01*
X225313487Y-255267961D01*
X225404454Y-255266090D01*
X225483616Y-255263855D01*
X225547194Y-255261334D01*
X225586133Y-255259024D01*
X225812599Y-255230866D01*
X226032372Y-255181918D01*
X226244307Y-255113134D01*
X226447260Y-255025468D01*
X226640088Y-254919875D01*
X226821648Y-254797307D01*
X226990795Y-254658721D01*
X227146387Y-254505069D01*
X227287278Y-254337305D01*
X227412326Y-254156384D01*
X227520388Y-253963261D01*
X227610318Y-253758888D01*
X227680974Y-253544220D01*
X227692201Y-253502052D01*
X227720557Y-253381769D01*
X227741063Y-253270151D01*
X227754445Y-253160357D01*
X227761430Y-253045547D01*
X227762743Y-252918878D01*
X227761506Y-252849200D01*
X227757701Y-252740342D01*
X227751669Y-252647314D01*
X227742485Y-252563403D01*
X227729226Y-252481899D01*
X227710970Y-252396090D01*
X227686794Y-252299265D01*
X227684832Y-252291813D01*
X227617103Y-252078658D01*
X227529368Y-251874466D01*
X227422811Y-251680403D01*
X227298614Y-251497636D01*
X227157961Y-251327330D01*
X227002035Y-251170654D01*
X226832020Y-251028772D01*
X226649099Y-250902853D01*
X226454455Y-250794063D01*
X226249271Y-250703568D01*
X226034732Y-250632535D01*
X225989608Y-250620458D01*
X225926622Y-250604661D01*
X225869043Y-250591333D01*
X225814164Y-250580240D01*
X225759279Y-250571149D01*
X225701685Y-250563825D01*
X225638675Y-250558036D01*
X225567544Y-250553547D01*
X225485587Y-250550124D01*
X225390099Y-250547535D01*
X225278374Y-250545544D01*
X225147708Y-250543918D01*
X225097889Y-250543401D01*
X224581422Y-250538226D01*
X224581422Y-255270666D01*
X224193291Y-255270666D01*
X224192548Y-255235335D01*
X224191343Y-255157386D01*
G37*
X224191343Y-255157386D02*
X224190329Y-255067766D01*
X224189488Y-254965604D01*
X224188804Y-254850029D01*
X224188259Y-254720168D01*
X224187837Y-254575151D01*
X224187520Y-254414107D01*
X224187293Y-254236164D01*
X224187137Y-254040451D01*
X224187036Y-253826095D01*
X224186973Y-253592227D01*
X224186931Y-253337975D01*
X224186893Y-253062467D01*
X224186869Y-252911288D01*
X224186863Y-252583438D01*
X224186957Y-252278057D01*
X224187153Y-251995040D01*
X224187451Y-251734278D01*
X224187851Y-251495664D01*
X224188354Y-251279092D01*
X224188961Y-251084454D01*
X224189671Y-250911642D01*
X224190486Y-250760550D01*
X224191405Y-250631070D01*
X224192430Y-250523094D01*
X224193560Y-250436516D01*
X224194796Y-250371229D01*
X224196139Y-250327124D01*
X224197589Y-250304095D01*
X224198097Y-250301083D01*
X224221582Y-250249511D01*
X224258668Y-250204566D01*
X224302903Y-250173897D01*
X224306777Y-250172198D01*
X224327475Y-250168347D01*
X224368287Y-250165000D01*
X224426751Y-250162154D01*
X224500410Y-250159806D01*
X224586803Y-250157954D01*
X224683471Y-250156596D01*
X224787955Y-250155726D01*
X224897795Y-250155342D01*
X225010532Y-250155443D01*
X225123707Y-250156024D01*
X225234860Y-250157082D01*
X225341531Y-250158617D01*
X225441262Y-250160623D01*
X225531593Y-250163099D01*
X225610064Y-250166042D01*
X225674217Y-250169448D01*
X225721591Y-250173314D01*
X225726574Y-250173872D01*
X225970825Y-250213660D01*
X226208677Y-250275048D01*
X226439690Y-250357858D01*
X226663419Y-250461913D01*
X226879423Y-250587034D01*
X227053689Y-250707626D01*
X227124722Y-250764252D01*
X227204335Y-250833817D01*
X227288245Y-250912073D01*
X227372167Y-250994776D01*
X227451820Y-251077677D01*
X227522920Y-251156531D01*
X227581183Y-251227090D01*
X227592188Y-251241526D01*
X227736478Y-251452354D01*
X227859728Y-251671180D01*
X227962158Y-251898529D01*
X228043987Y-252134927D01*
X228105435Y-252380899D01*
X228133440Y-252538755D01*
X228141657Y-252610070D01*
X228147786Y-252697789D01*
X228151786Y-252796303D01*
X228153612Y-252899999D01*
X228153220Y-253003266D01*
X228150568Y-253100492D01*
X228145612Y-253186067D01*
X228138942Y-253249955D01*
X228092942Y-253503789D01*
X228027373Y-253746385D01*
X227942164Y-253977884D01*
X227837247Y-254198426D01*
X227712552Y-254408152D01*
X227568011Y-254607202D01*
X227403553Y-254795718D01*
X227352959Y-254847603D01*
X227168647Y-255016444D01*
X226971934Y-255166737D01*
X226763885Y-255297962D01*
X226545568Y-255409603D01*
X226318050Y-255501140D01*
X226082398Y-255572056D01*
X225839679Y-255621833D01*
X225726574Y-255637416D01*
X225687010Y-255641432D01*
X225641306Y-255644813D01*
X225587451Y-255647604D01*
X225523432Y-255649849D01*
X225447236Y-255651593D01*
X225356851Y-255652881D01*
X225250264Y-255653755D01*
X225125464Y-255654262D01*
X224980437Y-255654444D01*
X224954025Y-255654446D01*
X224818797Y-255654403D01*
X224704304Y-255654252D01*
X224608704Y-255653937D01*
X224530154Y-255653399D01*
X224466811Y-255652578D01*
X224416833Y-255651417D01*
X224378378Y-255649857D01*
X224349602Y-255647839D01*
X224328662Y-255645306D01*
X224313718Y-255642199D01*
X224302925Y-255638458D01*
X224294442Y-255634026D01*
X224293555Y-255633485D01*
X224263403Y-255611730D01*
X224238860Y-255589119D01*
X224233215Y-255583073D01*
X224227998Y-255577554D01*
X224223191Y-255571692D01*
X224218778Y-255564615D01*
X224214740Y-255555452D01*
X224211062Y-255543332D01*
X224207727Y-255527382D01*
X224204717Y-255506733D01*
X224202016Y-255480511D01*
X224199606Y-255447847D01*
X224197472Y-255407869D01*
X224195595Y-255359705D01*
X224193959Y-255302484D01*
X224193291Y-255270666D01*
X224581422Y-255270666D01*
X225007578Y-255270639D01*
X225111268Y-255270312D01*
X225214499Y-255269394D01*
X225313487Y-255267961D01*
X225404454Y-255266090D01*
X225483616Y-255263855D01*
X225547194Y-255261334D01*
X225586133Y-255259024D01*
X225812599Y-255230866D01*
X226032372Y-255181918D01*
X226244307Y-255113134D01*
X226447260Y-255025468D01*
X226640088Y-254919875D01*
X226821648Y-254797307D01*
X226990795Y-254658721D01*
X227146387Y-254505069D01*
X227287278Y-254337305D01*
X227412326Y-254156384D01*
X227520388Y-253963261D01*
X227610318Y-253758888D01*
X227680974Y-253544220D01*
X227692201Y-253502052D01*
X227720557Y-253381769D01*
X227741063Y-253270151D01*
X227754445Y-253160357D01*
X227761430Y-253045547D01*
X227762743Y-252918878D01*
X227761506Y-252849200D01*
X227757701Y-252740342D01*
X227751669Y-252647314D01*
X227742485Y-252563403D01*
X227729226Y-252481899D01*
X227710970Y-252396090D01*
X227686794Y-252299265D01*
X227684832Y-252291813D01*
X227617103Y-252078658D01*
X227529368Y-251874466D01*
X227422811Y-251680403D01*
X227298614Y-251497636D01*
X227157961Y-251327330D01*
X227002035Y-251170654D01*
X226832020Y-251028772D01*
X226649099Y-250902853D01*
X226454455Y-250794063D01*
X226249271Y-250703568D01*
X226034732Y-250632535D01*
X225989608Y-250620458D01*
X225926622Y-250604661D01*
X225869043Y-250591333D01*
X225814164Y-250580240D01*
X225759279Y-250571149D01*
X225701685Y-250563825D01*
X225638675Y-250558036D01*
X225567544Y-250553547D01*
X225485587Y-250550124D01*
X225390099Y-250547535D01*
X225278374Y-250545544D01*
X225147708Y-250543918D01*
X225097889Y-250543401D01*
X224581422Y-250538226D01*
X224581422Y-255270666D01*
X224193291Y-255270666D01*
X224192548Y-255235335D01*
X224191343Y-255157386D01*
X238510881Y-250188850D02*
X238561711Y-250212942D01*
X238561711Y-250212942D02*
X238607574Y-250247540D01*
X238607574Y-250247540D02*
X238620928Y-250261359D01*
X238620928Y-250261359D02*
X238653830Y-250314357D01*
X238653830Y-250314357D02*
X238665773Y-250372652D01*
X238665773Y-250372652D02*
X238656400Y-250431353D01*
X238656400Y-250431353D02*
X238648047Y-250445513D01*
X238648047Y-250445513D02*
X238627119Y-250476771D01*
X238627119Y-250476771D02*
X238594408Y-250524026D01*
X238594408Y-250524026D02*
X238550703Y-250586181D01*
X238550703Y-250586181D02*
X238496794Y-250662134D01*
X238496794Y-250662134D02*
X238433471Y-250750785D01*
X238433471Y-250750785D02*
X238361524Y-250851036D01*
X238361524Y-250851036D02*
X238281743Y-250961786D01*
X238281743Y-250961786D02*
X238194917Y-251081935D01*
X238194917Y-251081935D02*
X238101838Y-251210384D01*
X238101838Y-251210384D02*
X238003295Y-251346033D01*
X238003295Y-251346033D02*
X237900077Y-251487781D01*
X237900077Y-251487781D02*
X237792976Y-251634530D01*
X237792976Y-251634530D02*
X237746807Y-251697688D01*
X237746807Y-251697688D02*
X236851882Y-252921366D01*
X236851882Y-252921366D02*
X237746116Y-254143994D01*
X237746116Y-254143994D02*
X237854633Y-254292534D01*
X237854633Y-254292534D02*
X237959630Y-254436589D01*
X237959630Y-254436589D02*
X238060313Y-254575056D01*
X238060313Y-254575056D02*
X238155889Y-254706829D01*
X238155889Y-254706829D02*
X238245565Y-254830803D01*
X238245565Y-254830803D02*
X238328548Y-254945874D01*
X238328548Y-254945874D02*
X238404044Y-255050936D01*
X238404044Y-255050936D02*
X238471260Y-255144886D01*
X238471260Y-255144886D02*
X238529403Y-255226618D01*
X238529403Y-255226618D02*
X238577680Y-255295028D01*
X238577680Y-255295028D02*
X238615298Y-255349010D01*
X238615298Y-255349010D02*
X238641463Y-255387461D01*
X238641463Y-255387461D02*
X238655382Y-255409275D01*
X238655382Y-255409275D02*
X238657370Y-255413164D01*
X238657370Y-255413164D02*
X238667652Y-255449955D01*
X238667652Y-255449955D02*
X238666675Y-255481881D01*
X238666675Y-255481881D02*
X238660888Y-255504769D01*
X238660888Y-255504769D02*
X238632939Y-255563802D01*
X238632939Y-255563802D02*
X238590257Y-255610652D01*
X238590257Y-255610652D02*
X238537058Y-255641971D01*
X238537058Y-255641971D02*
X238477558Y-255654409D01*
X238477558Y-255654409D02*
X238472400Y-255654488D01*
X238472400Y-255654488D02*
X238459024Y-255654620D01*
X238459024Y-255654620D02*
X238446739Y-255654409D01*
X238446739Y-255654409D02*
X238434814Y-255652951D01*
X238434814Y-255652951D02*
X238422516Y-255649340D01*
X238422516Y-255649340D02*
X238409115Y-255642671D01*
X238409115Y-255642671D02*
X238393880Y-255632037D01*
X238393880Y-255632037D02*
X238376079Y-255616532D01*
X238376079Y-255616532D02*
X238354982Y-255595252D01*
X238354982Y-255595252D02*
X238329857Y-255567290D01*
X238329857Y-255567290D02*
X238299972Y-255531741D01*
X238299972Y-255531741D02*
X238264597Y-255487698D01*
X238264597Y-255487698D02*
X238223000Y-255434257D01*
X238223000Y-255434257D02*
X238174451Y-255370510D01*
X238174451Y-255370510D02*
X238118217Y-255295554D01*
X238118217Y-255295554D02*
X238053568Y-255208481D01*
X238053568Y-255208481D02*
X237979773Y-255108387D01*
X237979773Y-255108387D02*
X237896100Y-254994365D01*
X237896100Y-254994365D02*
X237801818Y-254865510D01*
X237801818Y-254865510D02*
X237696196Y-254720915D01*
X237696196Y-254720915D02*
X237578503Y-254559676D01*
X237578503Y-254559676D02*
X237483951Y-254430129D01*
X237483951Y-254430129D02*
X237377933Y-254284967D01*
X237377933Y-254284967D02*
X237275538Y-254144935D01*
X237275538Y-254144935D02*
X237177560Y-254011106D01*
X237177560Y-254011106D02*
X237084789Y-253884556D01*
X237084789Y-253884556D02*
X236998017Y-253766358D01*
X236998017Y-253766358D02*
X236918037Y-253657587D01*
X236918037Y-253657587D02*
X236845638Y-253559317D01*
X236845638Y-253559317D02*
X236781614Y-253472621D01*
X236781614Y-253472621D02*
X236726755Y-253398576D01*
X236726755Y-253398576D02*
X236681853Y-253338253D01*
X236681853Y-253338253D02*
X236647700Y-253292729D01*
X236647700Y-253292729D02*
X236625087Y-253263076D01*
X236625087Y-253263076D02*
X236614806Y-253250370D01*
X236614806Y-253250370D02*
X236614284Y-253249955D01*
X236614284Y-253249955D02*
X236606741Y-253258900D01*
X236606741Y-253258900D02*
X236586693Y-253285021D01*
X236586693Y-253285021D02*
X236554931Y-253327246D01*
X236554931Y-253327246D02*
X236512244Y-253384502D01*
X236512244Y-253384502D02*
X236459424Y-253455716D01*
X236459424Y-253455716D02*
X236397261Y-253539817D01*
X236397261Y-253539817D02*
X236326544Y-253635732D01*
X236326544Y-253635732D02*
X236248066Y-253742389D01*
X236248066Y-253742389D02*
X236162615Y-253858715D01*
X236162615Y-253858715D02*
X236070982Y-253983639D01*
X236070982Y-253983639D02*
X235973958Y-254116087D01*
X235973958Y-254116087D02*
X235872333Y-254254988D01*
X235872333Y-254254988D02*
X235766898Y-254399270D01*
X235766898Y-254399270D02*
X235741572Y-254433952D01*
X235741572Y-254433952D02*
X235611892Y-254611471D01*
X235611892Y-254611471D02*
X235494826Y-254771515D01*
X235494826Y-254771515D02*
X235389757Y-254914905D01*
X235389757Y-254914905D02*
X235296068Y-255042461D01*
X235296068Y-255042461D02*
X235213144Y-255155004D01*
X235213144Y-255155004D02*
X235140367Y-255253354D01*
X235140367Y-255253354D02*
X235077121Y-255338333D01*
X235077121Y-255338333D02*
X235022791Y-255410761D01*
X235022791Y-255410761D02*
X234976759Y-255471458D01*
X234976759Y-255471458D02*
X234938409Y-255521246D01*
X234938409Y-255521246D02*
X234907126Y-255560945D01*
X234907126Y-255560945D02*
X234882292Y-255591375D01*
X234882292Y-255591375D02*
X234863291Y-255613358D01*
X234863291Y-255613358D02*
X234849507Y-255627714D01*
X234849507Y-255627714D02*
X234840323Y-255635263D01*
X234840323Y-255635263D02*
X234838599Y-255636219D01*
X234838599Y-255636219D02*
X234779973Y-255652202D01*
X234779973Y-255652202D02*
X234718253Y-255648545D01*
X234718253Y-255648545D02*
X234671885Y-255631664D01*
X234671885Y-255631664D02*
X234620754Y-255593807D01*
X234620754Y-255593807D02*
X234585562Y-255544853D01*
X234585562Y-255544853D02*
X234568411Y-255489173D01*
X234568411Y-255489173D02*
X234571404Y-255431140D01*
X234571404Y-255431140D02*
X234572812Y-255425664D01*
X234572812Y-255425664D02*
X234581251Y-255410180D01*
X234581251Y-255410180D02*
X234602751Y-255377028D01*
X234602751Y-255377028D02*
X234636961Y-255326700D01*
X234636961Y-255326700D02*
X234683530Y-255259690D01*
X234683530Y-255259690D02*
X234742107Y-255176490D01*
X234742107Y-255176490D02*
X234812339Y-255077594D01*
X234812339Y-255077594D02*
X234893875Y-254963495D01*
X234893875Y-254963495D02*
X234986363Y-254834685D01*
X234986363Y-254834685D02*
X235089453Y-254691659D01*
X235089453Y-254691659D02*
X235202793Y-254534908D01*
X235202793Y-254534908D02*
X235326031Y-254364927D01*
X235326031Y-254364927D02*
X235458815Y-254182208D01*
X235458815Y-254182208D02*
X235480438Y-254152489D01*
X235480438Y-254152489D02*
X236376511Y-252921160D01*
X236376511Y-252921160D02*
X235487478Y-251699846D01*
X235487478Y-251699846D02*
X235379599Y-251551594D01*
X235379599Y-251551594D02*
X235275255Y-251408096D01*
X235275255Y-251408096D02*
X235175233Y-251270440D01*
X235175233Y-251270440D02*
X235080321Y-251139714D01*
X235080321Y-251139714D02*
X234991303Y-251017003D01*
X234991303Y-251017003D02*
X234908968Y-250903395D01*
X234908968Y-250903395D02*
X234834102Y-250799977D01*
X234834102Y-250799977D02*
X234767491Y-250707837D01*
X234767491Y-250707837D02*
X234709923Y-250628060D01*
X234709923Y-250628060D02*
X234662183Y-250561734D01*
X234662183Y-250561734D02*
X234625060Y-250509947D01*
X234625060Y-250509947D02*
X234599339Y-250473785D01*
X234599339Y-250473785D02*
X234585807Y-250454334D01*
X234585807Y-250454334D02*
X234583965Y-250451441D01*
X234583965Y-250451441D02*
X234571359Y-250408789D01*
X234571359Y-250408789D02*
X234570378Y-250357110D01*
X234570378Y-250357110D02*
X234580453Y-250306377D01*
X234580453Y-250306377D02*
X234593948Y-250276495D01*
X234593948Y-250276495D02*
X234628371Y-250238509D01*
X234628371Y-250238509D02*
X234676574Y-250207501D01*
X234676574Y-250207501D02*
X234730439Y-250187378D01*
X234730439Y-250187378D02*
X234781849Y-250182048D01*
X234781849Y-250182048D02*
X234788682Y-250182743D01*
X234788682Y-250182743D02*
X234826580Y-250192218D01*
X234826580Y-250192218D02*
X234859939Y-250207512D01*
X234859939Y-250207512D02*
X234864622Y-250210695D01*
X234864622Y-250210695D02*
X234874769Y-250222362D01*
X234874769Y-250222362D02*
X234897357Y-250251204D01*
X234897357Y-250251204D02*
X234931572Y-250296117D01*
X234931572Y-250296117D02*
X234976599Y-250356000D01*
X234976599Y-250356000D02*
X235031624Y-250429749D01*
X235031624Y-250429749D02*
X235095832Y-250516263D01*
X235095832Y-250516263D02*
X235168408Y-250614438D01*
X235168408Y-250614438D02*
X235248537Y-250723173D01*
X235248537Y-250723173D02*
X235335405Y-250841366D01*
X235335405Y-250841366D02*
X235428197Y-250967912D01*
X235428197Y-250967912D02*
X235526098Y-251101711D01*
X235526098Y-251101711D02*
X235628295Y-251241660D01*
X235628295Y-251241660D02*
X235733971Y-251386657D01*
X235733971Y-251386657D02*
X235753818Y-251413920D01*
X235753818Y-251413920D02*
X236613814Y-252595463D01*
X236613814Y-252595463D02*
X236838435Y-252287709D01*
X236838435Y-252287709D02*
X236879265Y-252231719D01*
X236879265Y-252231719D02*
X236931937Y-252159411D01*
X236931937Y-252159411D02*
X236995030Y-252072739D01*
X236995030Y-252072739D02*
X237067123Y-251973657D01*
X237067123Y-251973657D02*
X237146796Y-251864119D01*
X237146796Y-251864119D02*
X237232627Y-251746080D01*
X237232627Y-251746080D02*
X237323196Y-251621492D01*
X237323196Y-251621492D02*
X237417081Y-251492311D01*
X237417081Y-251492311D02*
X237512863Y-251360490D01*
X237512863Y-251360490D02*
X237609119Y-251227982D01*
X237609119Y-251227982D02*
X237681991Y-251127644D01*
X237681991Y-251127644D02*
X237771933Y-251003851D01*
X237771933Y-251003851D02*
X237858451Y-250884897D01*
X237858451Y-250884897D02*
X237940578Y-250772101D01*
X237940578Y-250772101D02*
X238017351Y-250666783D01*
X238017351Y-250666783D02*
X238087802Y-250570264D01*
X238087802Y-250570264D02*
X238150968Y-250483863D01*
X238150968Y-250483863D02*
X238205882Y-250408901D01*
X238205882Y-250408901D02*
X238251580Y-250346698D01*
X238251580Y-250346698D02*
X238287097Y-250298574D01*
X238287097Y-250298574D02*
X238311466Y-250265849D01*
X238311466Y-250265849D02*
X238323723Y-250249844D01*
X238323723Y-250249844D02*
X238324573Y-250248834D01*
X238324573Y-250248834D02*
X238359460Y-250219354D01*
X238359460Y-250219354D02*
X238403158Y-250195270D01*
X238403158Y-250195270D02*
X238446150Y-250181327D01*
X238446150Y-250181327D02*
X238463483Y-250179625D01*
X238463483Y-250179625D02*
X238510881Y-250188850D01*
X238510881Y-250188850D02*
X238510881Y-250188850D01*
G36*
X238510881Y-250188850D02*
G01*
X238561711Y-250212942D01*
X238607574Y-250247540D01*
X238620928Y-250261359D01*
X238653830Y-250314357D01*
X238665773Y-250372652D01*
X238656400Y-250431353D01*
X238648047Y-250445513D01*
X238627119Y-250476771D01*
X238594408Y-250524026D01*
X238550703Y-250586181D01*
X238496794Y-250662134D01*
X238433471Y-250750785D01*
X238361524Y-250851036D01*
X238281743Y-250961786D01*
X238194917Y-251081935D01*
X238101838Y-251210384D01*
X238003295Y-251346033D01*
X237900077Y-251487781D01*
X237792976Y-251634530D01*
X237746807Y-251697688D01*
X236851882Y-252921366D01*
X237746116Y-254143994D01*
X237854633Y-254292534D01*
X237959630Y-254436589D01*
X238060313Y-254575056D01*
X238155889Y-254706829D01*
X238245565Y-254830803D01*
X238328548Y-254945874D01*
X238404044Y-255050936D01*
X238471260Y-255144886D01*
X238529403Y-255226618D01*
X238577680Y-255295028D01*
X238615298Y-255349010D01*
X238641463Y-255387461D01*
X238655382Y-255409275D01*
X238657370Y-255413164D01*
X238667652Y-255449955D01*
X238666675Y-255481881D01*
X238660888Y-255504769D01*
X238632939Y-255563802D01*
X238590257Y-255610652D01*
X238537058Y-255641971D01*
X238477558Y-255654409D01*
X238472400Y-255654488D01*
X238459024Y-255654620D01*
X238446739Y-255654409D01*
X238434814Y-255652951D01*
X238422516Y-255649340D01*
X238409115Y-255642671D01*
X238393880Y-255632037D01*
X238376079Y-255616532D01*
X238354982Y-255595252D01*
X238329857Y-255567290D01*
X238299972Y-255531741D01*
X238264597Y-255487698D01*
X238223000Y-255434257D01*
X238174451Y-255370510D01*
X238118217Y-255295554D01*
X238053568Y-255208481D01*
X237979773Y-255108387D01*
X237896100Y-254994365D01*
X237801818Y-254865510D01*
X237696196Y-254720915D01*
X237578503Y-254559676D01*
X237483951Y-254430129D01*
X237377933Y-254284967D01*
X237275538Y-254144935D01*
X237177560Y-254011106D01*
X237084789Y-253884556D01*
X236998017Y-253766358D01*
X236918037Y-253657587D01*
X236845638Y-253559317D01*
X236781614Y-253472621D01*
X236726755Y-253398576D01*
X236681853Y-253338253D01*
X236647700Y-253292729D01*
X236625087Y-253263076D01*
X236614806Y-253250370D01*
X236614284Y-253249955D01*
X236606741Y-253258900D01*
X236586693Y-253285021D01*
X236554931Y-253327246D01*
X236512244Y-253384502D01*
X236459424Y-253455716D01*
X236397261Y-253539817D01*
X236326544Y-253635732D01*
X236248066Y-253742389D01*
X236162615Y-253858715D01*
X236070982Y-253983639D01*
X235973958Y-254116087D01*
X235872333Y-254254988D01*
X235766898Y-254399270D01*
X235741572Y-254433952D01*
X235611892Y-254611471D01*
X235494826Y-254771515D01*
X235389757Y-254914905D01*
X235296068Y-255042461D01*
X235213144Y-255155004D01*
X235140367Y-255253354D01*
X235077121Y-255338333D01*
X235022791Y-255410761D01*
X234976759Y-255471458D01*
X234938409Y-255521246D01*
X234907126Y-255560945D01*
X234882292Y-255591375D01*
X234863291Y-255613358D01*
X234849507Y-255627714D01*
X234840323Y-255635263D01*
X234838599Y-255636219D01*
X234779973Y-255652202D01*
X234718253Y-255648545D01*
X234671885Y-255631664D01*
X234620754Y-255593807D01*
X234585562Y-255544853D01*
X234568411Y-255489173D01*
X234571404Y-255431140D01*
X234572812Y-255425664D01*
X234581251Y-255410180D01*
X234602751Y-255377028D01*
X234636961Y-255326700D01*
X234683530Y-255259690D01*
X234742107Y-255176490D01*
X234812339Y-255077594D01*
X234893875Y-254963495D01*
X234986363Y-254834685D01*
X235089453Y-254691659D01*
X235202793Y-254534908D01*
X235326031Y-254364927D01*
X235458815Y-254182208D01*
X235480438Y-254152489D01*
X236376511Y-252921160D01*
X235487478Y-251699846D01*
X235379599Y-251551594D01*
X235275255Y-251408096D01*
X235175233Y-251270440D01*
X235080321Y-251139714D01*
X234991303Y-251017003D01*
X234908968Y-250903395D01*
X234834102Y-250799977D01*
X234767491Y-250707837D01*
X234709923Y-250628060D01*
X234662183Y-250561734D01*
X234625060Y-250509947D01*
X234599339Y-250473785D01*
X234585807Y-250454334D01*
X234583965Y-250451441D01*
X234571359Y-250408789D01*
X234570378Y-250357110D01*
X234580453Y-250306377D01*
X234593948Y-250276495D01*
X234628371Y-250238509D01*
X234676574Y-250207501D01*
X234730439Y-250187378D01*
X234781849Y-250182048D01*
X234788682Y-250182743D01*
X234826580Y-250192218D01*
X234859939Y-250207512D01*
X234864622Y-250210695D01*
X234874769Y-250222362D01*
X234897357Y-250251204D01*
X234931572Y-250296117D01*
X234976599Y-250356000D01*
X235031624Y-250429749D01*
X235095832Y-250516263D01*
X235168408Y-250614438D01*
X235248537Y-250723173D01*
X235335405Y-250841366D01*
X235428197Y-250967912D01*
X235526098Y-251101711D01*
X235628295Y-251241660D01*
X235733971Y-251386657D01*
X235753818Y-251413920D01*
X236613814Y-252595463D01*
X236838435Y-252287709D01*
X236879265Y-252231719D01*
X236931937Y-252159411D01*
X236995030Y-252072739D01*
X237067123Y-251973657D01*
X237146796Y-251864119D01*
X237232627Y-251746080D01*
X237323196Y-251621492D01*
X237417081Y-251492311D01*
X237512863Y-251360490D01*
X237609119Y-251227982D01*
X237681991Y-251127644D01*
X237771933Y-251003851D01*
X237858451Y-250884897D01*
X237940578Y-250772101D01*
X238017351Y-250666783D01*
X238087802Y-250570264D01*
X238150968Y-250483863D01*
X238205882Y-250408901D01*
X238251580Y-250346698D01*
X238287097Y-250298574D01*
X238311466Y-250265849D01*
X238323723Y-250249844D01*
X238324573Y-250248834D01*
X238359460Y-250219354D01*
X238403158Y-250195270D01*
X238446150Y-250181327D01*
X238463483Y-250179625D01*
X238510881Y-250188850D01*
G37*
X238510881Y-250188850D02*
X238561711Y-250212942D01*
X238607574Y-250247540D01*
X238620928Y-250261359D01*
X238653830Y-250314357D01*
X238665773Y-250372652D01*
X238656400Y-250431353D01*
X238648047Y-250445513D01*
X238627119Y-250476771D01*
X238594408Y-250524026D01*
X238550703Y-250586181D01*
X238496794Y-250662134D01*
X238433471Y-250750785D01*
X238361524Y-250851036D01*
X238281743Y-250961786D01*
X238194917Y-251081935D01*
X238101838Y-251210384D01*
X238003295Y-251346033D01*
X237900077Y-251487781D01*
X237792976Y-251634530D01*
X237746807Y-251697688D01*
X236851882Y-252921366D01*
X237746116Y-254143994D01*
X237854633Y-254292534D01*
X237959630Y-254436589D01*
X238060313Y-254575056D01*
X238155889Y-254706829D01*
X238245565Y-254830803D01*
X238328548Y-254945874D01*
X238404044Y-255050936D01*
X238471260Y-255144886D01*
X238529403Y-255226618D01*
X238577680Y-255295028D01*
X238615298Y-255349010D01*
X238641463Y-255387461D01*
X238655382Y-255409275D01*
X238657370Y-255413164D01*
X238667652Y-255449955D01*
X238666675Y-255481881D01*
X238660888Y-255504769D01*
X238632939Y-255563802D01*
X238590257Y-255610652D01*
X238537058Y-255641971D01*
X238477558Y-255654409D01*
X238472400Y-255654488D01*
X238459024Y-255654620D01*
X238446739Y-255654409D01*
X238434814Y-255652951D01*
X238422516Y-255649340D01*
X238409115Y-255642671D01*
X238393880Y-255632037D01*
X238376079Y-255616532D01*
X238354982Y-255595252D01*
X238329857Y-255567290D01*
X238299972Y-255531741D01*
X238264597Y-255487698D01*
X238223000Y-255434257D01*
X238174451Y-255370510D01*
X238118217Y-255295554D01*
X238053568Y-255208481D01*
X237979773Y-255108387D01*
X237896100Y-254994365D01*
X237801818Y-254865510D01*
X237696196Y-254720915D01*
X237578503Y-254559676D01*
X237483951Y-254430129D01*
X237377933Y-254284967D01*
X237275538Y-254144935D01*
X237177560Y-254011106D01*
X237084789Y-253884556D01*
X236998017Y-253766358D01*
X236918037Y-253657587D01*
X236845638Y-253559317D01*
X236781614Y-253472621D01*
X236726755Y-253398576D01*
X236681853Y-253338253D01*
X236647700Y-253292729D01*
X236625087Y-253263076D01*
X236614806Y-253250370D01*
X236614284Y-253249955D01*
X236606741Y-253258900D01*
X236586693Y-253285021D01*
X236554931Y-253327246D01*
X236512244Y-253384502D01*
X236459424Y-253455716D01*
X236397261Y-253539817D01*
X236326544Y-253635732D01*
X236248066Y-253742389D01*
X236162615Y-253858715D01*
X236070982Y-253983639D01*
X235973958Y-254116087D01*
X235872333Y-254254988D01*
X235766898Y-254399270D01*
X235741572Y-254433952D01*
X235611892Y-254611471D01*
X235494826Y-254771515D01*
X235389757Y-254914905D01*
X235296068Y-255042461D01*
X235213144Y-255155004D01*
X235140367Y-255253354D01*
X235077121Y-255338333D01*
X235022791Y-255410761D01*
X234976759Y-255471458D01*
X234938409Y-255521246D01*
X234907126Y-255560945D01*
X234882292Y-255591375D01*
X234863291Y-255613358D01*
X234849507Y-255627714D01*
X234840323Y-255635263D01*
X234838599Y-255636219D01*
X234779973Y-255652202D01*
X234718253Y-255648545D01*
X234671885Y-255631664D01*
X234620754Y-255593807D01*
X234585562Y-255544853D01*
X234568411Y-255489173D01*
X234571404Y-255431140D01*
X234572812Y-255425664D01*
X234581251Y-255410180D01*
X234602751Y-255377028D01*
X234636961Y-255326700D01*
X234683530Y-255259690D01*
X234742107Y-255176490D01*
X234812339Y-255077594D01*
X234893875Y-254963495D01*
X234986363Y-254834685D01*
X235089453Y-254691659D01*
X235202793Y-254534908D01*
X235326031Y-254364927D01*
X235458815Y-254182208D01*
X235480438Y-254152489D01*
X236376511Y-252921160D01*
X235487478Y-251699846D01*
X235379599Y-251551594D01*
X235275255Y-251408096D01*
X235175233Y-251270440D01*
X235080321Y-251139714D01*
X234991303Y-251017003D01*
X234908968Y-250903395D01*
X234834102Y-250799977D01*
X234767491Y-250707837D01*
X234709923Y-250628060D01*
X234662183Y-250561734D01*
X234625060Y-250509947D01*
X234599339Y-250473785D01*
X234585807Y-250454334D01*
X234583965Y-250451441D01*
X234571359Y-250408789D01*
X234570378Y-250357110D01*
X234580453Y-250306377D01*
X234593948Y-250276495D01*
X234628371Y-250238509D01*
X234676574Y-250207501D01*
X234730439Y-250187378D01*
X234781849Y-250182048D01*
X234788682Y-250182743D01*
X234826580Y-250192218D01*
X234859939Y-250207512D01*
X234864622Y-250210695D01*
X234874769Y-250222362D01*
X234897357Y-250251204D01*
X234931572Y-250296117D01*
X234976599Y-250356000D01*
X235031624Y-250429749D01*
X235095832Y-250516263D01*
X235168408Y-250614438D01*
X235248537Y-250723173D01*
X235335405Y-250841366D01*
X235428197Y-250967912D01*
X235526098Y-251101711D01*
X235628295Y-251241660D01*
X235733971Y-251386657D01*
X235753818Y-251413920D01*
X236613814Y-252595463D01*
X236838435Y-252287709D01*
X236879265Y-252231719D01*
X236931937Y-252159411D01*
X236995030Y-252072739D01*
X237067123Y-251973657D01*
X237146796Y-251864119D01*
X237232627Y-251746080D01*
X237323196Y-251621492D01*
X237417081Y-251492311D01*
X237512863Y-251360490D01*
X237609119Y-251227982D01*
X237681991Y-251127644D01*
X237771933Y-251003851D01*
X237858451Y-250884897D01*
X237940578Y-250772101D01*
X238017351Y-250666783D01*
X238087802Y-250570264D01*
X238150968Y-250483863D01*
X238205882Y-250408901D01*
X238251580Y-250346698D01*
X238287097Y-250298574D01*
X238311466Y-250265849D01*
X238323723Y-250249844D01*
X238324573Y-250248834D01*
X238359460Y-250219354D01*
X238403158Y-250195270D01*
X238446150Y-250181327D01*
X238463483Y-250179625D01*
X238510881Y-250188850D01*
X214516804Y-250179764D02*
X214574188Y-250207012D01*
X214574188Y-250207012D02*
X214600523Y-250227894D01*
X214600523Y-250227894D02*
X214608427Y-250234846D01*
X214608427Y-250234846D02*
X214615580Y-250241174D01*
X214615580Y-250241174D02*
X214622018Y-250247982D01*
X214622018Y-250247982D02*
X214627780Y-250256376D01*
X214627780Y-250256376D02*
X214632902Y-250267460D01*
X214632902Y-250267460D02*
X214637423Y-250282340D01*
X214637423Y-250282340D02*
X214641379Y-250302122D01*
X214641379Y-250302122D02*
X214644808Y-250327909D01*
X214644808Y-250327909D02*
X214647748Y-250360808D01*
X214647748Y-250360808D02*
X214650236Y-250401924D01*
X214650236Y-250401924D02*
X214652310Y-250452361D01*
X214652310Y-250452361D02*
X214654007Y-250513225D01*
X214654007Y-250513225D02*
X214655364Y-250585621D01*
X214655364Y-250585621D02*
X214656420Y-250670655D01*
X214656420Y-250670655D02*
X214657210Y-250769430D01*
X214657210Y-250769430D02*
X214657774Y-250883054D01*
X214657774Y-250883054D02*
X214658149Y-251012630D01*
X214658149Y-251012630D02*
X214658371Y-251159264D01*
X214658371Y-251159264D02*
X214658478Y-251324060D01*
X214658478Y-251324060D02*
X214658509Y-251508126D01*
X214658509Y-251508126D02*
X214658500Y-251712564D01*
X214658500Y-251712564D02*
X214658489Y-251937207D01*
X214658489Y-251937207D02*
X214658489Y-253549007D01*
X214658489Y-253549007D02*
X216337711Y-251870471D01*
X216337711Y-251870471D02*
X216541935Y-251666390D01*
X216541935Y-251666390D02*
X216730737Y-251477851D01*
X216730737Y-251477851D02*
X216904601Y-251304376D01*
X216904601Y-251304376D02*
X217064015Y-251145487D01*
X217064015Y-251145487D02*
X217209464Y-251000705D01*
X217209464Y-251000705D02*
X217341435Y-250869552D01*
X217341435Y-250869552D02*
X217460412Y-250751549D01*
X217460412Y-250751549D02*
X217566884Y-250646218D01*
X217566884Y-250646218D02*
X217661334Y-250553081D01*
X217661334Y-250553081D02*
X217744251Y-250471659D01*
X217744251Y-250471659D02*
X217816119Y-250401474D01*
X217816119Y-250401474D02*
X217877425Y-250342048D01*
X217877425Y-250342048D02*
X217928655Y-250292902D01*
X217928655Y-250292902D02*
X217970295Y-250253559D01*
X217970295Y-250253559D02*
X218002831Y-250223538D01*
X218002831Y-250223538D02*
X218026749Y-250202363D01*
X218026749Y-250202363D02*
X218042535Y-250189555D01*
X218042535Y-250189555D02*
X218050676Y-250184636D01*
X218050676Y-250184636D02*
X218050800Y-250184606D01*
X218050800Y-250184606D02*
X218080862Y-250177917D01*
X218080862Y-250177917D02*
X218101600Y-250173032D01*
X218101600Y-250173032D02*
X218143290Y-250173044D01*
X218143290Y-250173044D02*
X218189640Y-250189500D01*
X218189640Y-250189500D02*
X218234714Y-250218907D01*
X218234714Y-250218907D02*
X218272576Y-250257773D01*
X218272576Y-250257773D02*
X218288874Y-250283239D01*
X218288874Y-250283239D02*
X218301424Y-250324975D01*
X218301424Y-250324975D02*
X218303994Y-250376032D01*
X218303994Y-250376032D02*
X218296288Y-250425334D01*
X218296288Y-250425334D02*
X218292955Y-250435465D01*
X218292955Y-250435465D02*
X218283589Y-250447335D01*
X218283589Y-250447335D02*
X218259097Y-250474238D01*
X218259097Y-250474238D02*
X218220358Y-250515278D01*
X218220358Y-250515278D02*
X218168251Y-250569561D01*
X218168251Y-250569561D02*
X218103653Y-250636193D01*
X218103653Y-250636193D02*
X218027442Y-250714278D01*
X218027442Y-250714278D02*
X217940495Y-250802921D01*
X217940495Y-250802921D02*
X217843692Y-250901229D01*
X217843692Y-250901229D02*
X217737909Y-251008307D01*
X217737909Y-251008307D02*
X217624026Y-251123259D01*
X217624026Y-251123259D02*
X217502919Y-251245192D01*
X217502919Y-251245192D02*
X217375467Y-251373210D01*
X217375467Y-251373210D02*
X217242548Y-251506419D01*
X217242548Y-251506419D02*
X217212868Y-251536123D01*
X217212868Y-251536123D02*
X217052650Y-251696527D01*
X217052650Y-251696527D02*
X216907879Y-251841667D01*
X216907879Y-251841667D02*
X216777952Y-251972160D01*
X216777952Y-251972160D02*
X216662268Y-252088623D01*
X216662268Y-252088623D02*
X216560226Y-252191673D01*
X216560226Y-252191673D02*
X216471224Y-252281927D01*
X216471224Y-252281927D02*
X216394660Y-252360003D01*
X216394660Y-252360003D02*
X216329932Y-252426517D01*
X216329932Y-252426517D02*
X216276439Y-252482087D01*
X216276439Y-252482087D02*
X216233579Y-252527330D01*
X216233579Y-252527330D02*
X216200750Y-252562863D01*
X216200750Y-252562863D02*
X216177352Y-252589302D01*
X216177352Y-252589302D02*
X216162781Y-252607266D01*
X216162781Y-252607266D02*
X216156437Y-252617371D01*
X216156437Y-252617371D02*
X216156275Y-252619857D01*
X216156275Y-252619857D02*
X216164464Y-252630280D01*
X216164464Y-252630280D02*
X216185836Y-252657478D01*
X216185836Y-252657478D02*
X216219626Y-252700476D01*
X216219626Y-252700476D02*
X216265066Y-252758298D01*
X216265066Y-252758298D02*
X216321388Y-252829968D01*
X216321388Y-252829968D02*
X216387827Y-252914510D01*
X216387827Y-252914510D02*
X216463614Y-253010947D01*
X216463614Y-253010947D02*
X216547984Y-253118305D01*
X216547984Y-253118305D02*
X216640169Y-253235606D01*
X216640169Y-253235606D02*
X216739401Y-253361875D01*
X216739401Y-253361875D02*
X216844915Y-253496136D01*
X216844915Y-253496136D02*
X216955942Y-253637413D01*
X216955942Y-253637413D02*
X217071717Y-253784729D01*
X217071717Y-253784729D02*
X217191471Y-253937110D01*
X217191471Y-253937110D02*
X217232548Y-253989377D01*
X217232548Y-253989377D02*
X217353451Y-254143221D01*
X217353451Y-254143221D02*
X217470620Y-254292318D01*
X217470620Y-254292318D02*
X217583289Y-254435692D01*
X217583289Y-254435692D02*
X217690691Y-254572369D01*
X217690691Y-254572369D02*
X217792061Y-254701374D01*
X217792061Y-254701374D02*
X217886633Y-254821731D01*
X217886633Y-254821731D02*
X217973640Y-254932466D01*
X217973640Y-254932466D02*
X218052317Y-255032603D01*
X218052317Y-255032603D02*
X218121897Y-255121169D01*
X218121897Y-255121169D02*
X218181615Y-255197187D01*
X218181615Y-255197187D02*
X218230705Y-255259683D01*
X218230705Y-255259683D02*
X218268400Y-255307683D01*
X218268400Y-255307683D02*
X218293934Y-255340210D01*
X218293934Y-255340210D02*
X218306542Y-255356291D01*
X218306542Y-255356291D02*
X218307746Y-255357835D01*
X218307746Y-255357835D02*
X218317128Y-255377423D01*
X218317128Y-255377423D02*
X218326669Y-255407987D01*
X218326669Y-255407987D02*
X218328204Y-255414279D01*
X218328204Y-255414279D02*
X218331147Y-255473978D01*
X218331147Y-255473978D02*
X218315099Y-255533764D01*
X218315099Y-255533764D02*
X218282867Y-255587839D01*
X218282867Y-255587839D02*
X218237258Y-255630404D01*
X218237258Y-255630404D02*
X218218053Y-255641820D01*
X218218053Y-255641820D02*
X218179421Y-255652487D01*
X218179421Y-255652487D02*
X218130901Y-255653800D01*
X218130901Y-255653800D02*
X218082896Y-255646306D01*
X218082896Y-255646306D02*
X218049470Y-255632942D01*
X218049470Y-255632942D02*
X218038164Y-255621459D01*
X218038164Y-255621459D02*
X218013600Y-255592987D01*
X218013600Y-255592987D02*
X217976421Y-255548329D01*
X217976421Y-255548329D02*
X217927270Y-255488290D01*
X217927270Y-255488290D02*
X217866788Y-255413672D01*
X217866788Y-255413672D02*
X217795618Y-255325277D01*
X217795618Y-255325277D02*
X217714403Y-255223910D01*
X217714403Y-255223910D02*
X217623785Y-255110374D01*
X217623785Y-255110374D02*
X217524407Y-254985471D01*
X217524407Y-254985471D02*
X217416911Y-254850005D01*
X217416911Y-254850005D02*
X217301939Y-254704778D01*
X217301939Y-254704778D02*
X217180135Y-254550595D01*
X217180135Y-254550595D02*
X217052140Y-254388258D01*
X217052140Y-254388258D02*
X216950048Y-254258562D01*
X216950048Y-254258562D02*
X216829158Y-254104888D01*
X216829158Y-254104888D02*
X216712010Y-253955994D01*
X216712010Y-253955994D02*
X216599371Y-253812851D01*
X216599371Y-253812851D02*
X216492007Y-253676432D01*
X216492007Y-253676432D02*
X216390683Y-253547711D01*
X216390683Y-253547711D02*
X216296167Y-253427659D01*
X216296167Y-253427659D02*
X216209224Y-253317250D01*
X216209224Y-253317250D02*
X216130619Y-253217455D01*
X216130619Y-253217455D02*
X216061119Y-253129247D01*
X216061119Y-253129247D02*
X216001490Y-253053600D01*
X216001490Y-253053600D02*
X215952499Y-252991485D01*
X215952499Y-252991485D02*
X215914910Y-252943875D01*
X215914910Y-252943875D02*
X215889489Y-252911743D01*
X215889489Y-252911743D02*
X215877004Y-252896061D01*
X215877004Y-252896061D02*
X215875849Y-252894657D01*
X215875849Y-252894657D02*
X215866091Y-252900437D01*
X215866091Y-252900437D02*
X215841225Y-252921681D01*
X215841225Y-252921681D02*
X215801940Y-252957724D01*
X215801940Y-252957724D02*
X215748925Y-253007899D01*
X215748925Y-253007899D02*
X215682871Y-253071541D01*
X215682871Y-253071541D02*
X215604466Y-253147983D01*
X215604466Y-253147983D02*
X215514401Y-253236561D01*
X215514401Y-253236561D02*
X215413364Y-253336607D01*
X215413364Y-253336607D02*
X215302046Y-253447457D01*
X215302046Y-253447457D02*
X215262421Y-253487045D01*
X215262421Y-253487045D02*
X214658967Y-254090420D01*
X214658967Y-254090420D02*
X214655906Y-254813188D01*
X214655906Y-254813188D02*
X214652844Y-255535955D01*
X214652844Y-255535955D02*
X214626494Y-255572900D01*
X214626494Y-255572900D02*
X214582325Y-255616618D01*
X214582325Y-255616618D02*
X214527053Y-255643771D01*
X214527053Y-255643771D02*
X214466099Y-255653176D01*
X214466099Y-255653176D02*
X214404887Y-255643649D01*
X214404887Y-255643649D02*
X214370852Y-255628673D01*
X214370852Y-255628673D02*
X214334454Y-255600420D01*
X214334454Y-255600420D02*
X214303980Y-255564083D01*
X214303980Y-255564083D02*
X214300482Y-255558303D01*
X214300482Y-255558303D02*
X214275038Y-255513377D01*
X214275038Y-255513377D02*
X214274852Y-252919392D01*
X214274852Y-252919392D02*
X214274814Y-252630936D01*
X214274814Y-252630936D02*
X214274759Y-252364194D01*
X214274759Y-252364194D02*
X214274709Y-252118301D01*
X214274709Y-252118301D02*
X214274686Y-251892395D01*
X214274686Y-251892395D02*
X214274714Y-251685611D01*
X214274714Y-251685611D02*
X214274816Y-251497084D01*
X214274816Y-251497084D02*
X214275013Y-251325952D01*
X214275013Y-251325952D02*
X214275329Y-251171351D01*
X214275329Y-251171351D02*
X214275786Y-251032416D01*
X214275786Y-251032416D02*
X214276407Y-250908283D01*
X214276407Y-250908283D02*
X214277215Y-250798089D01*
X214277215Y-250798089D02*
X214278233Y-250700970D01*
X214278233Y-250700970D02*
X214279483Y-250616061D01*
X214279483Y-250616061D02*
X214280987Y-250542500D01*
X214280987Y-250542500D02*
X214282770Y-250479421D01*
X214282770Y-250479421D02*
X214284852Y-250425961D01*
X214284852Y-250425961D02*
X214287258Y-250381257D01*
X214287258Y-250381257D02*
X214290009Y-250344443D01*
X214290009Y-250344443D02*
X214293128Y-250314657D01*
X214293128Y-250314657D02*
X214296639Y-250291035D01*
X214296639Y-250291035D02*
X214300564Y-250272712D01*
X214300564Y-250272712D02*
X214304925Y-250258824D01*
X214304925Y-250258824D02*
X214309745Y-250248508D01*
X214309745Y-250248508D02*
X214315047Y-250240900D01*
X214315047Y-250240900D02*
X214320854Y-250235136D01*
X214320854Y-250235136D02*
X214327188Y-250230351D01*
X214327188Y-250230351D02*
X214334073Y-250225683D01*
X214334073Y-250225683D02*
X214341530Y-250220266D01*
X214341530Y-250220266D02*
X214345886Y-250216653D01*
X214345886Y-250216653D02*
X214398426Y-250184398D01*
X214398426Y-250184398D02*
X214456807Y-250172164D01*
X214456807Y-250172164D02*
X214516804Y-250179764D01*
X214516804Y-250179764D02*
X214516804Y-250179764D01*
G36*
X214516804Y-250179764D02*
G01*
X214574188Y-250207012D01*
X214600523Y-250227894D01*
X214608427Y-250234846D01*
X214615580Y-250241174D01*
X214622018Y-250247982D01*
X214627780Y-250256376D01*
X214632902Y-250267460D01*
X214637423Y-250282340D01*
X214641379Y-250302122D01*
X214644808Y-250327909D01*
X214647748Y-250360808D01*
X214650236Y-250401924D01*
X214652310Y-250452361D01*
X214654007Y-250513225D01*
X214655364Y-250585621D01*
X214656420Y-250670655D01*
X214657210Y-250769430D01*
X214657774Y-250883054D01*
X214658149Y-251012630D01*
X214658371Y-251159264D01*
X214658478Y-251324060D01*
X214658509Y-251508126D01*
X214658500Y-251712564D01*
X214658489Y-251937207D01*
X214658489Y-253549007D01*
X216337711Y-251870471D01*
X216541935Y-251666390D01*
X216730737Y-251477851D01*
X216904601Y-251304376D01*
X217064015Y-251145487D01*
X217209464Y-251000705D01*
X217341435Y-250869552D01*
X217460412Y-250751549D01*
X217566884Y-250646218D01*
X217661334Y-250553081D01*
X217744251Y-250471659D01*
X217816119Y-250401474D01*
X217877425Y-250342048D01*
X217928655Y-250292902D01*
X217970295Y-250253559D01*
X218002831Y-250223538D01*
X218026749Y-250202363D01*
X218042535Y-250189555D01*
X218050676Y-250184636D01*
X218050800Y-250184606D01*
X218080862Y-250177917D01*
X218101600Y-250173032D01*
X218143290Y-250173044D01*
X218189640Y-250189500D01*
X218234714Y-250218907D01*
X218272576Y-250257773D01*
X218288874Y-250283239D01*
X218301424Y-250324975D01*
X218303994Y-250376032D01*
X218296288Y-250425334D01*
X218292955Y-250435465D01*
X218283589Y-250447335D01*
X218259097Y-250474238D01*
X218220358Y-250515278D01*
X218168251Y-250569561D01*
X218103653Y-250636193D01*
X218027442Y-250714278D01*
X217940495Y-250802921D01*
X217843692Y-250901229D01*
X217737909Y-251008307D01*
X217624026Y-251123259D01*
X217502919Y-251245192D01*
X217375467Y-251373210D01*
X217242548Y-251506419D01*
X217212868Y-251536123D01*
X217052650Y-251696527D01*
X216907879Y-251841667D01*
X216777952Y-251972160D01*
X216662268Y-252088623D01*
X216560226Y-252191673D01*
X216471224Y-252281927D01*
X216394660Y-252360003D01*
X216329932Y-252426517D01*
X216276439Y-252482087D01*
X216233579Y-252527330D01*
X216200750Y-252562863D01*
X216177352Y-252589302D01*
X216162781Y-252607266D01*
X216156437Y-252617371D01*
X216156275Y-252619857D01*
X216164464Y-252630280D01*
X216185836Y-252657478D01*
X216219626Y-252700476D01*
X216265066Y-252758298D01*
X216321388Y-252829968D01*
X216387827Y-252914510D01*
X216463614Y-253010947D01*
X216547984Y-253118305D01*
X216640169Y-253235606D01*
X216739401Y-253361875D01*
X216844915Y-253496136D01*
X216955942Y-253637413D01*
X217071717Y-253784729D01*
X217191471Y-253937110D01*
X217232548Y-253989377D01*
X217353451Y-254143221D01*
X217470620Y-254292318D01*
X217583289Y-254435692D01*
X217690691Y-254572369D01*
X217792061Y-254701374D01*
X217886633Y-254821731D01*
X217973640Y-254932466D01*
X218052317Y-255032603D01*
X218121897Y-255121169D01*
X218181615Y-255197187D01*
X218230705Y-255259683D01*
X218268400Y-255307683D01*
X218293934Y-255340210D01*
X218306542Y-255356291D01*
X218307746Y-255357835D01*
X218317128Y-255377423D01*
X218326669Y-255407987D01*
X218328204Y-255414279D01*
X218331147Y-255473978D01*
X218315099Y-255533764D01*
X218282867Y-255587839D01*
X218237258Y-255630404D01*
X218218053Y-255641820D01*
X218179421Y-255652487D01*
X218130901Y-255653800D01*
X218082896Y-255646306D01*
X218049470Y-255632942D01*
X218038164Y-255621459D01*
X218013600Y-255592987D01*
X217976421Y-255548329D01*
X217927270Y-255488290D01*
X217866788Y-255413672D01*
X217795618Y-255325277D01*
X217714403Y-255223910D01*
X217623785Y-255110374D01*
X217524407Y-254985471D01*
X217416911Y-254850005D01*
X217301939Y-254704778D01*
X217180135Y-254550595D01*
X217052140Y-254388258D01*
X216950048Y-254258562D01*
X216829158Y-254104888D01*
X216712010Y-253955994D01*
X216599371Y-253812851D01*
X216492007Y-253676432D01*
X216390683Y-253547711D01*
X216296167Y-253427659D01*
X216209224Y-253317250D01*
X216130619Y-253217455D01*
X216061119Y-253129247D01*
X216001490Y-253053600D01*
X215952499Y-252991485D01*
X215914910Y-252943875D01*
X215889489Y-252911743D01*
X215877004Y-252896061D01*
X215875849Y-252894657D01*
X215866091Y-252900437D01*
X215841225Y-252921681D01*
X215801940Y-252957724D01*
X215748925Y-253007899D01*
X215682871Y-253071541D01*
X215604466Y-253147983D01*
X215514401Y-253236561D01*
X215413364Y-253336607D01*
X215302046Y-253447457D01*
X215262421Y-253487045D01*
X214658967Y-254090420D01*
X214655906Y-254813188D01*
X214652844Y-255535955D01*
X214626494Y-255572900D01*
X214582325Y-255616618D01*
X214527053Y-255643771D01*
X214466099Y-255653176D01*
X214404887Y-255643649D01*
X214370852Y-255628673D01*
X214334454Y-255600420D01*
X214303980Y-255564083D01*
X214300482Y-255558303D01*
X214275038Y-255513377D01*
X214274852Y-252919392D01*
X214274814Y-252630936D01*
X214274759Y-252364194D01*
X214274709Y-252118301D01*
X214274686Y-251892395D01*
X214274714Y-251685611D01*
X214274816Y-251497084D01*
X214275013Y-251325952D01*
X214275329Y-251171351D01*
X214275786Y-251032416D01*
X214276407Y-250908283D01*
X214277215Y-250798089D01*
X214278233Y-250700970D01*
X214279483Y-250616061D01*
X214280987Y-250542500D01*
X214282770Y-250479421D01*
X214284852Y-250425961D01*
X214287258Y-250381257D01*
X214290009Y-250344443D01*
X214293128Y-250314657D01*
X214296639Y-250291035D01*
X214300564Y-250272712D01*
X214304925Y-250258824D01*
X214309745Y-250248508D01*
X214315047Y-250240900D01*
X214320854Y-250235136D01*
X214327188Y-250230351D01*
X214334073Y-250225683D01*
X214341530Y-250220266D01*
X214345886Y-250216653D01*
X214398426Y-250184398D01*
X214456807Y-250172164D01*
X214516804Y-250179764D01*
G37*
X214516804Y-250179764D02*
X214574188Y-250207012D01*
X214600523Y-250227894D01*
X214608427Y-250234846D01*
X214615580Y-250241174D01*
X214622018Y-250247982D01*
X214627780Y-250256376D01*
X214632902Y-250267460D01*
X214637423Y-250282340D01*
X214641379Y-250302122D01*
X214644808Y-250327909D01*
X214647748Y-250360808D01*
X214650236Y-250401924D01*
X214652310Y-250452361D01*
X214654007Y-250513225D01*
X214655364Y-250585621D01*
X214656420Y-250670655D01*
X214657210Y-250769430D01*
X214657774Y-250883054D01*
X214658149Y-251012630D01*
X214658371Y-251159264D01*
X214658478Y-251324060D01*
X214658509Y-251508126D01*
X214658500Y-251712564D01*
X214658489Y-251937207D01*
X214658489Y-253549007D01*
X216337711Y-251870471D01*
X216541935Y-251666390D01*
X216730737Y-251477851D01*
X216904601Y-251304376D01*
X217064015Y-251145487D01*
X217209464Y-251000705D01*
X217341435Y-250869552D01*
X217460412Y-250751549D01*
X217566884Y-250646218D01*
X217661334Y-250553081D01*
X217744251Y-250471659D01*
X217816119Y-250401474D01*
X217877425Y-250342048D01*
X217928655Y-250292902D01*
X217970295Y-250253559D01*
X218002831Y-250223538D01*
X218026749Y-250202363D01*
X218042535Y-250189555D01*
X218050676Y-250184636D01*
X218050800Y-250184606D01*
X218080862Y-250177917D01*
X218101600Y-250173032D01*
X218143290Y-250173044D01*
X218189640Y-250189500D01*
X218234714Y-250218907D01*
X218272576Y-250257773D01*
X218288874Y-250283239D01*
X218301424Y-250324975D01*
X218303994Y-250376032D01*
X218296288Y-250425334D01*
X218292955Y-250435465D01*
X218283589Y-250447335D01*
X218259097Y-250474238D01*
X218220358Y-250515278D01*
X218168251Y-250569561D01*
X218103653Y-250636193D01*
X218027442Y-250714278D01*
X217940495Y-250802921D01*
X217843692Y-250901229D01*
X217737909Y-251008307D01*
X217624026Y-251123259D01*
X217502919Y-251245192D01*
X217375467Y-251373210D01*
X217242548Y-251506419D01*
X217212868Y-251536123D01*
X217052650Y-251696527D01*
X216907879Y-251841667D01*
X216777952Y-251972160D01*
X216662268Y-252088623D01*
X216560226Y-252191673D01*
X216471224Y-252281927D01*
X216394660Y-252360003D01*
X216329932Y-252426517D01*
X216276439Y-252482087D01*
X216233579Y-252527330D01*
X216200750Y-252562863D01*
X216177352Y-252589302D01*
X216162781Y-252607266D01*
X216156437Y-252617371D01*
X216156275Y-252619857D01*
X216164464Y-252630280D01*
X216185836Y-252657478D01*
X216219626Y-252700476D01*
X216265066Y-252758298D01*
X216321388Y-252829968D01*
X216387827Y-252914510D01*
X216463614Y-253010947D01*
X216547984Y-253118305D01*
X216640169Y-253235606D01*
X216739401Y-253361875D01*
X216844915Y-253496136D01*
X216955942Y-253637413D01*
X217071717Y-253784729D01*
X217191471Y-253937110D01*
X217232548Y-253989377D01*
X217353451Y-254143221D01*
X217470620Y-254292318D01*
X217583289Y-254435692D01*
X217690691Y-254572369D01*
X217792061Y-254701374D01*
X217886633Y-254821731D01*
X217973640Y-254932466D01*
X218052317Y-255032603D01*
X218121897Y-255121169D01*
X218181615Y-255197187D01*
X218230705Y-255259683D01*
X218268400Y-255307683D01*
X218293934Y-255340210D01*
X218306542Y-255356291D01*
X218307746Y-255357835D01*
X218317128Y-255377423D01*
X218326669Y-255407987D01*
X218328204Y-255414279D01*
X218331147Y-255473978D01*
X218315099Y-255533764D01*
X218282867Y-255587839D01*
X218237258Y-255630404D01*
X218218053Y-255641820D01*
X218179421Y-255652487D01*
X218130901Y-255653800D01*
X218082896Y-255646306D01*
X218049470Y-255632942D01*
X218038164Y-255621459D01*
X218013600Y-255592987D01*
X217976421Y-255548329D01*
X217927270Y-255488290D01*
X217866788Y-255413672D01*
X217795618Y-255325277D01*
X217714403Y-255223910D01*
X217623785Y-255110374D01*
X217524407Y-254985471D01*
X217416911Y-254850005D01*
X217301939Y-254704778D01*
X217180135Y-254550595D01*
X217052140Y-254388258D01*
X216950048Y-254258562D01*
X216829158Y-254104888D01*
X216712010Y-253955994D01*
X216599371Y-253812851D01*
X216492007Y-253676432D01*
X216390683Y-253547711D01*
X216296167Y-253427659D01*
X216209224Y-253317250D01*
X216130619Y-253217455D01*
X216061119Y-253129247D01*
X216001490Y-253053600D01*
X215952499Y-252991485D01*
X215914910Y-252943875D01*
X215889489Y-252911743D01*
X215877004Y-252896061D01*
X215875849Y-252894657D01*
X215866091Y-252900437D01*
X215841225Y-252921681D01*
X215801940Y-252957724D01*
X215748925Y-253007899D01*
X215682871Y-253071541D01*
X215604466Y-253147983D01*
X215514401Y-253236561D01*
X215413364Y-253336607D01*
X215302046Y-253447457D01*
X215262421Y-253487045D01*
X214658967Y-254090420D01*
X214655906Y-254813188D01*
X214652844Y-255535955D01*
X214626494Y-255572900D01*
X214582325Y-255616618D01*
X214527053Y-255643771D01*
X214466099Y-255653176D01*
X214404887Y-255643649D01*
X214370852Y-255628673D01*
X214334454Y-255600420D01*
X214303980Y-255564083D01*
X214300482Y-255558303D01*
X214275038Y-255513377D01*
X214274852Y-252919392D01*
X214274814Y-252630936D01*
X214274759Y-252364194D01*
X214274709Y-252118301D01*
X214274686Y-251892395D01*
X214274714Y-251685611D01*
X214274816Y-251497084D01*
X214275013Y-251325952D01*
X214275329Y-251171351D01*
X214275786Y-251032416D01*
X214276407Y-250908283D01*
X214277215Y-250798089D01*
X214278233Y-250700970D01*
X214279483Y-250616061D01*
X214280987Y-250542500D01*
X214282770Y-250479421D01*
X214284852Y-250425961D01*
X214287258Y-250381257D01*
X214290009Y-250344443D01*
X214293128Y-250314657D01*
X214296639Y-250291035D01*
X214300564Y-250272712D01*
X214304925Y-250258824D01*
X214309745Y-250248508D01*
X214315047Y-250240900D01*
X214320854Y-250235136D01*
X214327188Y-250230351D01*
X214334073Y-250225683D01*
X214341530Y-250220266D01*
X214345886Y-250216653D01*
X214398426Y-250184398D01*
X214456807Y-250172164D01*
X214516804Y-250179764D01*
X315750313Y-252923813D02*
X315345500Y-252923813D01*
X315345500Y-252923813D02*
X315345500Y-252542813D01*
X315345500Y-252542813D02*
X315750313Y-252542813D01*
X315750313Y-252542813D02*
X315750313Y-252923813D01*
X315750313Y-252923813D02*
X315750313Y-252923813D01*
G36*
X315750313Y-252923813D02*
G01*
X315345500Y-252923813D01*
X315345500Y-252542813D01*
X315750313Y-252542813D01*
X315750313Y-252923813D01*
G37*
X315750313Y-252923813D02*
X315345500Y-252923813D01*
X315345500Y-252542813D01*
X315750313Y-252542813D01*
X315750313Y-252923813D01*
X316536125Y-254519250D02*
X316131313Y-254519250D01*
X316131313Y-254519250D02*
X316131313Y-254114438D01*
X316131313Y-254114438D02*
X316536125Y-254114438D01*
X316536125Y-254114438D02*
X316536125Y-254519250D01*
X316536125Y-254519250D02*
X316536125Y-254519250D01*
G36*
X316536125Y-254519250D02*
G01*
X316131313Y-254519250D01*
X316131313Y-254114438D01*
X316536125Y-254114438D01*
X316536125Y-254519250D01*
G37*
X316536125Y-254519250D02*
X316131313Y-254519250D01*
X316131313Y-254114438D01*
X316536125Y-254114438D01*
X316536125Y-254519250D01*
X316131313Y-253733438D02*
X315750313Y-253733438D01*
X315750313Y-253733438D02*
X315750313Y-253328625D01*
X315750313Y-253328625D02*
X316131313Y-253328625D01*
X316131313Y-253328625D02*
X316131313Y-253733438D01*
X316131313Y-253733438D02*
X316131313Y-253733438D01*
G36*
X316131313Y-253733438D02*
G01*
X315750313Y-253733438D01*
X315750313Y-253328625D01*
X316131313Y-253328625D01*
X316131313Y-253733438D01*
G37*
X316131313Y-253733438D02*
X315750313Y-253733438D01*
X315750313Y-253328625D01*
X316131313Y-253328625D01*
X316131313Y-253733438D01*
X314940688Y-252923813D02*
X314559688Y-252923813D01*
X314559688Y-252923813D02*
X314559688Y-252542813D01*
X314559688Y-252542813D02*
X314940688Y-252542813D01*
X314940688Y-252542813D02*
X314940688Y-252923813D01*
X314940688Y-252923813D02*
X314940688Y-252923813D01*
G36*
X314940688Y-252923813D02*
G01*
X314559688Y-252923813D01*
X314559688Y-252542813D01*
X314940688Y-252542813D01*
X314940688Y-252923813D01*
G37*
X314940688Y-252923813D02*
X314559688Y-252923813D01*
X314559688Y-252542813D01*
X314940688Y-252542813D01*
X314940688Y-252923813D01*
X314559688Y-253733438D02*
X314154875Y-253733438D01*
X314154875Y-253733438D02*
X314154875Y-253328625D01*
X314154875Y-253328625D02*
X314559688Y-253328625D01*
X314559688Y-253328625D02*
X314559688Y-253733438D01*
X314559688Y-253733438D02*
X314559688Y-253733438D01*
G36*
X314559688Y-253733438D02*
G01*
X314154875Y-253733438D01*
X314154875Y-253328625D01*
X314559688Y-253328625D01*
X314559688Y-253733438D01*
G37*
X314559688Y-253733438D02*
X314154875Y-253733438D01*
X314154875Y-253328625D01*
X314559688Y-253328625D01*
X314559688Y-253733438D01*
X315158969Y-250245545D02*
X315283087Y-250246915D01*
X315283087Y-250246915D02*
X315394799Y-250251072D01*
X315394799Y-250251072D02*
X315497392Y-250258419D01*
X315497392Y-250258419D02*
X315594156Y-250269360D01*
X315594156Y-250269360D02*
X315688378Y-250284298D01*
X315688378Y-250284298D02*
X315783347Y-250303637D01*
X315783347Y-250303637D02*
X315882351Y-250327781D01*
X315882351Y-250327781D02*
X315927630Y-250339918D01*
X315927630Y-250339918D02*
X316136177Y-250405156D01*
X316136177Y-250405156D02*
X316338265Y-250484492D01*
X316338265Y-250484492D02*
X316533128Y-250577528D01*
X316533128Y-250577528D02*
X316719999Y-250683868D01*
X316719999Y-250683868D02*
X316898114Y-250803116D01*
X316898114Y-250803116D02*
X317050260Y-250921117D01*
X317050260Y-250921117D02*
X317207928Y-251061842D01*
X317207928Y-251061842D02*
X317355265Y-251213287D01*
X317355265Y-251213287D02*
X317491586Y-251374385D01*
X317491586Y-251374385D02*
X317616208Y-251544067D01*
X317616208Y-251544067D02*
X317728447Y-251721266D01*
X317728447Y-251721266D02*
X317827620Y-251904916D01*
X317827620Y-251904916D02*
X317913042Y-252093947D01*
X317913042Y-252093947D02*
X317984030Y-252287293D01*
X317984030Y-252287293D02*
X318032784Y-252455303D01*
X318032784Y-252455303D02*
X318065855Y-252595289D01*
X318065855Y-252595289D02*
X318091215Y-252727225D01*
X318091215Y-252727225D02*
X318109607Y-252856497D01*
X318109607Y-252856497D02*
X318121775Y-252988493D01*
X318121775Y-252988493D02*
X318128461Y-253128600D01*
X318128461Y-253128600D02*
X318129114Y-253154000D01*
X318129114Y-253154000D02*
X318126395Y-253372297D01*
X318126395Y-253372297D02*
X318108200Y-253587080D01*
X318108200Y-253587080D02*
X318074535Y-253798321D01*
X318074535Y-253798321D02*
X318025406Y-254005989D01*
X318025406Y-254005989D02*
X317960819Y-254210055D01*
X317960819Y-254210055D02*
X317896622Y-254373987D01*
X317896622Y-254373987D02*
X317868539Y-254439252D01*
X317868539Y-254439252D02*
X317844477Y-254493410D01*
X317844477Y-254493410D02*
X317822608Y-254540113D01*
X317822608Y-254540113D02*
X317801107Y-254583013D01*
X317801107Y-254583013D02*
X317778146Y-254625763D01*
X317778146Y-254625763D02*
X317751900Y-254672015D01*
X317751900Y-254672015D02*
X317722775Y-254721656D01*
X317722775Y-254721656D02*
X317603556Y-254907927D01*
X317603556Y-254907927D02*
X317473452Y-255082653D01*
X317473452Y-255082653D02*
X317332329Y-255245965D01*
X317332329Y-255245965D02*
X317180055Y-255397996D01*
X317180055Y-255397996D02*
X317016497Y-255538880D01*
X317016497Y-255538880D02*
X316841524Y-255668748D01*
X316841524Y-255668748D02*
X316659156Y-255785275D01*
X316659156Y-255785275D02*
X316606327Y-255816244D01*
X316606327Y-255816244D02*
X316560414Y-255842221D01*
X316560414Y-255842221D02*
X316517765Y-255865031D01*
X316517765Y-255865031D02*
X316474728Y-255886501D01*
X316474728Y-255886501D02*
X316427651Y-255908457D01*
X316427651Y-255908457D02*
X316372881Y-255932725D01*
X316372881Y-255932725D02*
X316311487Y-255959122D01*
X316311487Y-255959122D02*
X316215254Y-255998669D01*
X316215254Y-255998669D02*
X316126536Y-256031708D01*
X316126536Y-256031708D02*
X316039422Y-256060195D01*
X316039422Y-256060195D02*
X315947998Y-256086089D01*
X315947998Y-256086089D02*
X315865406Y-256106822D01*
X315865406Y-256106822D02*
X315700890Y-256142376D01*
X315700890Y-256142376D02*
X315543795Y-256168053D01*
X315543795Y-256168053D02*
X315389567Y-256184393D01*
X315389567Y-256184393D02*
X315233649Y-256191936D01*
X315233649Y-256191936D02*
X315143094Y-256192513D01*
X315143094Y-256192513D02*
X315091875Y-256191998D01*
X315091875Y-256191998D02*
X315043754Y-256191293D01*
X315043754Y-256191293D02*
X315001874Y-256190460D01*
X315001874Y-256190460D02*
X314969378Y-256189563D01*
X314969378Y-256189563D02*
X314949410Y-256188665D01*
X314949410Y-256188665D02*
X314948625Y-256188609D01*
X314948625Y-256188609D02*
X314732451Y-256164657D01*
X314732451Y-256164657D02*
X314519694Y-256125670D01*
X314519694Y-256125670D02*
X314311213Y-256071967D01*
X314311213Y-256071967D02*
X314107868Y-256003863D01*
X314107868Y-256003863D02*
X313910516Y-255921676D01*
X313910516Y-255921676D02*
X313720018Y-255825725D01*
X313720018Y-255825725D02*
X313537232Y-255716326D01*
X313537232Y-255716326D02*
X313386276Y-255611296D01*
X313386276Y-255611296D02*
X313213349Y-255472949D01*
X313213349Y-255472949D02*
X313052665Y-255324588D01*
X313052665Y-255324588D02*
X312904451Y-255166539D01*
X312904451Y-255166539D02*
X312768929Y-254999132D01*
X312768929Y-254999132D02*
X312646324Y-254822694D01*
X312646324Y-254822694D02*
X312536861Y-254637552D01*
X312536861Y-254637552D02*
X312440763Y-254444035D01*
X312440763Y-254444035D02*
X312358256Y-254242471D01*
X312358256Y-254242471D02*
X312289563Y-254033188D01*
X312289563Y-254033188D02*
X312277418Y-253990130D01*
X312277418Y-253990130D02*
X312251052Y-253888335D01*
X312251052Y-253888335D02*
X312229667Y-253792011D01*
X312229667Y-253792011D02*
X312212859Y-253697867D01*
X312212859Y-253697867D02*
X312200225Y-253602617D01*
X312200225Y-253602617D02*
X312191360Y-253502970D01*
X312191360Y-253502970D02*
X312185862Y-253395640D01*
X312185862Y-253395640D02*
X312183326Y-253277336D01*
X312183326Y-253277336D02*
X312183045Y-253221469D01*
X312183045Y-253221469D02*
X312183720Y-253166108D01*
X312183720Y-253166108D02*
X312715794Y-253166108D01*
X312715794Y-253166108D02*
X312715897Y-253246246D01*
X312715897Y-253246246D02*
X312717563Y-253325910D01*
X312717563Y-253325910D02*
X312720759Y-253401037D01*
X312720759Y-253401037D02*
X312725456Y-253467560D01*
X312725456Y-253467560D02*
X312729176Y-253503250D01*
X312729176Y-253503250D02*
X312761050Y-253700548D01*
X312761050Y-253700548D02*
X312807701Y-253892163D01*
X312807701Y-253892163D02*
X312868951Y-254077722D01*
X312868951Y-254077722D02*
X312944619Y-254256849D01*
X312944619Y-254256849D02*
X313034527Y-254429169D01*
X313034527Y-254429169D02*
X313138494Y-254594309D01*
X313138494Y-254594309D02*
X313256341Y-254751893D01*
X313256341Y-254751893D02*
X313387888Y-254901547D01*
X313387888Y-254901547D02*
X313410224Y-254924760D01*
X313410224Y-254924760D02*
X313544458Y-255051834D01*
X313544458Y-255051834D02*
X313690160Y-255169770D01*
X313690160Y-255169770D02*
X313844631Y-255276590D01*
X313844631Y-255276590D02*
X314005169Y-255370316D01*
X314005169Y-255370316D02*
X314050958Y-255394004D01*
X314050958Y-255394004D02*
X314125366Y-255430653D01*
X314125366Y-255430653D02*
X314190607Y-255460872D01*
X314190607Y-255460872D02*
X314251104Y-255486440D01*
X314251104Y-255486440D02*
X314311278Y-255509134D01*
X314311278Y-255509134D02*
X314375551Y-255530733D01*
X314375551Y-255530733D02*
X314440625Y-255550727D01*
X314440625Y-255550727D02*
X314629838Y-255600140D01*
X314629838Y-255600140D02*
X314815589Y-255634591D01*
X314815589Y-255634591D02*
X314999327Y-255654214D01*
X314999327Y-255654214D02*
X315182503Y-255659142D01*
X315182503Y-255659142D02*
X315366564Y-255649511D01*
X315366564Y-255649511D02*
X315433106Y-255642531D01*
X315433106Y-255642531D02*
X315620438Y-255613587D01*
X315620438Y-255613587D02*
X315800019Y-255571778D01*
X315800019Y-255571778D02*
X315974357Y-255516354D01*
X315974357Y-255516354D02*
X316145959Y-255446564D01*
X316145959Y-255446564D02*
X316242916Y-255400366D01*
X316242916Y-255400366D02*
X316413548Y-255306947D01*
X316413548Y-255306947D02*
X316572964Y-255203212D01*
X316572964Y-255203212D02*
X316721922Y-255088474D01*
X316721922Y-255088474D02*
X316861179Y-254962050D01*
X316861179Y-254962050D02*
X316991494Y-254823254D01*
X316991494Y-254823254D02*
X317113624Y-254671403D01*
X317113624Y-254671403D02*
X317221892Y-254515759D01*
X317221892Y-254515759D02*
X317247018Y-254474568D01*
X317247018Y-254474568D02*
X317276341Y-254422440D01*
X317276341Y-254422440D02*
X317308041Y-254362996D01*
X317308041Y-254362996D02*
X317340299Y-254299856D01*
X317340299Y-254299856D02*
X317371293Y-254236640D01*
X317371293Y-254236640D02*
X317399206Y-254176967D01*
X317399206Y-254176967D02*
X317422215Y-254124457D01*
X317422215Y-254124457D02*
X317435653Y-254090625D01*
X317435653Y-254090625D02*
X317498520Y-253899084D01*
X317498520Y-253899084D02*
X317545916Y-253706345D01*
X317545916Y-253706345D02*
X317577800Y-253512950D01*
X317577800Y-253512950D02*
X317594130Y-253319440D01*
X317594130Y-253319440D02*
X317594868Y-253126357D01*
X317594868Y-253126357D02*
X317579972Y-252934242D01*
X317579972Y-252934242D02*
X317549402Y-252743636D01*
X317549402Y-252743636D02*
X317539599Y-252697594D01*
X317539599Y-252697594D02*
X317505950Y-252561301D01*
X317505950Y-252561301D02*
X317467642Y-252435118D01*
X317467642Y-252435118D02*
X317422704Y-252313507D01*
X317422704Y-252313507D02*
X317369163Y-252190932D01*
X317369163Y-252190932D02*
X317331504Y-252113458D01*
X317331504Y-252113458D02*
X317237799Y-251944610D01*
X317237799Y-251944610D02*
X317130974Y-251784173D01*
X317130974Y-251784173D02*
X317011798Y-251632868D01*
X317011798Y-251632868D02*
X316881037Y-251491414D01*
X316881037Y-251491414D02*
X316739460Y-251360531D01*
X316739460Y-251360531D02*
X316587834Y-251240940D01*
X316587834Y-251240940D02*
X316426927Y-251133360D01*
X316426927Y-251133360D02*
X316257507Y-251038511D01*
X316257507Y-251038511D02*
X316113325Y-250970980D01*
X316113325Y-250970980D02*
X315941697Y-250904585D01*
X315941697Y-250904585D02*
X315769143Y-250852587D01*
X315769143Y-250852587D02*
X315593656Y-250814578D01*
X315593656Y-250814578D02*
X315413226Y-250790151D01*
X315413226Y-250790151D02*
X315225845Y-250778897D01*
X315225845Y-250778897D02*
X315162938Y-250778007D01*
X315162938Y-250778007D02*
X314964843Y-250784377D01*
X314964843Y-250784377D02*
X314773215Y-250805022D01*
X314773215Y-250805022D02*
X314587281Y-250840173D01*
X314587281Y-250840173D02*
X314406265Y-250890067D01*
X314406265Y-250890067D02*
X314229394Y-250954935D01*
X314229394Y-250954935D02*
X314055894Y-251035013D01*
X314055894Y-251035013D02*
X313884991Y-251130535D01*
X313884991Y-251130535D02*
X313784294Y-251194744D01*
X313784294Y-251194744D02*
X313644861Y-251296272D01*
X313644861Y-251296272D02*
X313510663Y-251410778D01*
X313510663Y-251410778D02*
X313383341Y-251536339D01*
X313383341Y-251536339D02*
X313264535Y-251671031D01*
X313264535Y-251671031D02*
X313155886Y-251812931D01*
X313155886Y-251812931D02*
X313059035Y-251960115D01*
X313059035Y-251960115D02*
X312975622Y-252110661D01*
X312975622Y-252110661D02*
X312940826Y-252183580D01*
X312940826Y-252183580D02*
X312879423Y-252328439D01*
X312879423Y-252328439D02*
X312829192Y-252467678D01*
X312829192Y-252467678D02*
X312788935Y-252605626D01*
X312788935Y-252605626D02*
X312757456Y-252746614D01*
X312757456Y-252746614D02*
X312733556Y-252894971D01*
X312733556Y-252894971D02*
X312725155Y-252963500D01*
X312725155Y-252963500D02*
X312720392Y-253020670D01*
X312720392Y-253020670D02*
X312717282Y-253089561D01*
X312717282Y-253089561D02*
X312715794Y-253166108D01*
X312715794Y-253166108D02*
X312183720Y-253166108D01*
X312183720Y-253166108D02*
X312184790Y-253078473D01*
X312184790Y-253078473D02*
X312190664Y-252947606D01*
X312190664Y-252947606D02*
X312201238Y-252825525D01*
X312201238Y-252825525D02*
X312217085Y-252708885D01*
X312217085Y-252708885D02*
X312238777Y-252594344D01*
X312238777Y-252594344D02*
X312266887Y-252478559D01*
X312266887Y-252478559D02*
X312301986Y-252358187D01*
X312301986Y-252358187D02*
X312344647Y-252229884D01*
X312344647Y-252229884D02*
X312360341Y-252185625D01*
X312360341Y-252185625D02*
X312438726Y-251990906D01*
X312438726Y-251990906D02*
X312531566Y-251802572D01*
X312531566Y-251802572D02*
X312638672Y-251620885D01*
X312638672Y-251620885D02*
X312759852Y-251446108D01*
X312759852Y-251446108D02*
X312894917Y-251278503D01*
X312894917Y-251278503D02*
X313043674Y-251118333D01*
X313043674Y-251118333D02*
X313205933Y-250965860D01*
X313205933Y-250965860D02*
X313312771Y-250875679D01*
X313312771Y-250875679D02*
X313398600Y-250810186D01*
X313398600Y-250810186D02*
X313496139Y-250742860D01*
X313496139Y-250742860D02*
X313601748Y-250675912D01*
X313601748Y-250675912D02*
X313711786Y-250611555D01*
X313711786Y-250611555D02*
X313822613Y-250552000D01*
X313822613Y-250552000D02*
X313930589Y-250499458D01*
X313930589Y-250499458D02*
X313936594Y-250496715D01*
X313936594Y-250496715D02*
X314006554Y-250466842D01*
X314006554Y-250466842D02*
X314087735Y-250435456D01*
X314087735Y-250435456D02*
X314175767Y-250404036D01*
X314175767Y-250404036D02*
X314266279Y-250374062D01*
X314266279Y-250374062D02*
X314354901Y-250347011D01*
X314354901Y-250347011D02*
X314437264Y-250324364D01*
X314437264Y-250324364D02*
X314469150Y-250316471D01*
X314469150Y-250316471D02*
X314562375Y-250295703D01*
X314562375Y-250295703D02*
X314651349Y-250279043D01*
X314651349Y-250279043D02*
X314739353Y-250266152D01*
X314739353Y-250266152D02*
X314829669Y-250256695D01*
X314829669Y-250256695D02*
X314925578Y-250250332D01*
X314925578Y-250250332D02*
X315030360Y-250246728D01*
X315030360Y-250246728D02*
X315147295Y-250245544D01*
X315147295Y-250245544D02*
X315158969Y-250245545D01*
X315158969Y-250245545D02*
X315158969Y-250245545D01*
G36*
X312190664Y-252947606D02*
G01*
X312201238Y-252825525D01*
X312217085Y-252708885D01*
X312238777Y-252594344D01*
X312266887Y-252478559D01*
X312301986Y-252358187D01*
X312344647Y-252229884D01*
X312360341Y-252185625D01*
X312438726Y-251990906D01*
X312531566Y-251802572D01*
X312638672Y-251620885D01*
X312759852Y-251446108D01*
X312894917Y-251278503D01*
X313043674Y-251118333D01*
X313205933Y-250965860D01*
X313312771Y-250875679D01*
X313398600Y-250810186D01*
X313496139Y-250742860D01*
X313601748Y-250675912D01*
X313711786Y-250611555D01*
X313822613Y-250552000D01*
X313930589Y-250499458D01*
X313936594Y-250496715D01*
X314006554Y-250466842D01*
X314087735Y-250435456D01*
X314175767Y-250404036D01*
X314266279Y-250374062D01*
X314354901Y-250347011D01*
X314437264Y-250324364D01*
X314469150Y-250316471D01*
X314562375Y-250295703D01*
X314651349Y-250279043D01*
X314739353Y-250266152D01*
X314829669Y-250256695D01*
X314925578Y-250250332D01*
X315030360Y-250246728D01*
X315147295Y-250245544D01*
X315158969Y-250245545D01*
X315283087Y-250246915D01*
X315394799Y-250251072D01*
X315497392Y-250258419D01*
X315594156Y-250269360D01*
X315688378Y-250284298D01*
X315783347Y-250303637D01*
X315882351Y-250327781D01*
X315927630Y-250339918D01*
X316136177Y-250405156D01*
X316338265Y-250484492D01*
X316533128Y-250577528D01*
X316719999Y-250683868D01*
X316898114Y-250803116D01*
X317050260Y-250921117D01*
X317207928Y-251061842D01*
X317355265Y-251213287D01*
X317491586Y-251374385D01*
X317616208Y-251544067D01*
X317728447Y-251721266D01*
X317827620Y-251904916D01*
X317913042Y-252093947D01*
X317984030Y-252287293D01*
X318032784Y-252455303D01*
X318065855Y-252595289D01*
X318091215Y-252727225D01*
X318109607Y-252856497D01*
X318121775Y-252988493D01*
X318128461Y-253128600D01*
X318129114Y-253154000D01*
X318126395Y-253372297D01*
X318108200Y-253587080D01*
X318074535Y-253798321D01*
X318025406Y-254005989D01*
X317960819Y-254210055D01*
X317896622Y-254373987D01*
X317868539Y-254439252D01*
X317844477Y-254493410D01*
X317822608Y-254540113D01*
X317801107Y-254583013D01*
X317778146Y-254625763D01*
X317751900Y-254672015D01*
X317722775Y-254721656D01*
X317603556Y-254907927D01*
X317473452Y-255082653D01*
X317332329Y-255245965D01*
X317180055Y-255397996D01*
X317016497Y-255538880D01*
X316841524Y-255668748D01*
X316659156Y-255785275D01*
X316606327Y-255816244D01*
X316560414Y-255842221D01*
X316517765Y-255865031D01*
X316474728Y-255886501D01*
X316427651Y-255908457D01*
X316372881Y-255932725D01*
X316311487Y-255959122D01*
X316215254Y-255998669D01*
X316126536Y-256031708D01*
X316039422Y-256060195D01*
X315947998Y-256086089D01*
X315865406Y-256106822D01*
X315700890Y-256142376D01*
X315543795Y-256168053D01*
X315389567Y-256184393D01*
X315233649Y-256191936D01*
X315143094Y-256192513D01*
X315091875Y-256191998D01*
X315043754Y-256191293D01*
X315001874Y-256190460D01*
X314969378Y-256189563D01*
X314949410Y-256188665D01*
X314948625Y-256188609D01*
X314732451Y-256164657D01*
X314519694Y-256125670D01*
X314311213Y-256071967D01*
X314107868Y-256003863D01*
X313910516Y-255921676D01*
X313720018Y-255825725D01*
X313537232Y-255716326D01*
X313386276Y-255611296D01*
X313213349Y-255472949D01*
X313052665Y-255324588D01*
X312904451Y-255166539D01*
X312768929Y-254999132D01*
X312646324Y-254822694D01*
X312536861Y-254637552D01*
X312440763Y-254444035D01*
X312358256Y-254242471D01*
X312289563Y-254033188D01*
X312277418Y-253990130D01*
X312251052Y-253888335D01*
X312229667Y-253792011D01*
X312212859Y-253697867D01*
X312200225Y-253602617D01*
X312191360Y-253502970D01*
X312185862Y-253395640D01*
X312183326Y-253277336D01*
X312183045Y-253221469D01*
X312183720Y-253166108D01*
X312715794Y-253166108D01*
X312715897Y-253246246D01*
X312717563Y-253325910D01*
X312720759Y-253401037D01*
X312725456Y-253467560D01*
X312729176Y-253503250D01*
X312761050Y-253700548D01*
X312807701Y-253892163D01*
X312868951Y-254077722D01*
X312944619Y-254256849D01*
X313034527Y-254429169D01*
X313138494Y-254594309D01*
X313256341Y-254751893D01*
X313387888Y-254901547D01*
X313410224Y-254924760D01*
X313544458Y-255051834D01*
X313690160Y-255169770D01*
X313844631Y-255276590D01*
X314005169Y-255370316D01*
X314050958Y-255394004D01*
X314125366Y-255430653D01*
X314190607Y-255460872D01*
X314251104Y-255486440D01*
X314311278Y-255509134D01*
X314375551Y-255530733D01*
X314440625Y-255550727D01*
X314629838Y-255600140D01*
X314815589Y-255634591D01*
X314999327Y-255654214D01*
X315182503Y-255659142D01*
X315366564Y-255649511D01*
X315433106Y-255642531D01*
X315620438Y-255613587D01*
X315800019Y-255571778D01*
X315974357Y-255516354D01*
X316145959Y-255446564D01*
X316242916Y-255400366D01*
X316413548Y-255306947D01*
X316572964Y-255203212D01*
X316721922Y-255088474D01*
X316861179Y-254962050D01*
X316991494Y-254823254D01*
X317113624Y-254671403D01*
X317221892Y-254515759D01*
X317247018Y-254474568D01*
X317276341Y-254422440D01*
X317308041Y-254362996D01*
X317340299Y-254299856D01*
X317371293Y-254236640D01*
X317399206Y-254176967D01*
X317422215Y-254124457D01*
X317435653Y-254090625D01*
X317498520Y-253899084D01*
X317545916Y-253706345D01*
X317577800Y-253512950D01*
X317594130Y-253319440D01*
X317594868Y-253126357D01*
X317579972Y-252934242D01*
X317549402Y-252743636D01*
X317539599Y-252697594D01*
X317505950Y-252561301D01*
X317467642Y-252435118D01*
X317422704Y-252313507D01*
X317369163Y-252190932D01*
X317331504Y-252113458D01*
X317237799Y-251944610D01*
X317130974Y-251784173D01*
X317011798Y-251632868D01*
X316881037Y-251491414D01*
X316739460Y-251360531D01*
X316587834Y-251240940D01*
X316426927Y-251133360D01*
X316257507Y-251038511D01*
X316113325Y-250970980D01*
X315941697Y-250904585D01*
X315769143Y-250852587D01*
X315593656Y-250814578D01*
X315413226Y-250790151D01*
X315225845Y-250778897D01*
X315162938Y-250778007D01*
X314964843Y-250784377D01*
X314773215Y-250805022D01*
X314587281Y-250840173D01*
X314406265Y-250890067D01*
X314229394Y-250954935D01*
X314055894Y-251035013D01*
X313884991Y-251130535D01*
X313784294Y-251194744D01*
X313644861Y-251296272D01*
X313510663Y-251410778D01*
X313383341Y-251536339D01*
X313264535Y-251671031D01*
X313155886Y-251812931D01*
X313059035Y-251960115D01*
X312975622Y-252110661D01*
X312940826Y-252183580D01*
X312879423Y-252328439D01*
X312829192Y-252467678D01*
X312788935Y-252605626D01*
X312757456Y-252746614D01*
X312733556Y-252894971D01*
X312725155Y-252963500D01*
X312720392Y-253020670D01*
X312717282Y-253089561D01*
X312715794Y-253166108D01*
X312183720Y-253166108D01*
X312184790Y-253078473D01*
X312190664Y-252947606D01*
G37*
X312190664Y-252947606D02*
X312201238Y-252825525D01*
X312217085Y-252708885D01*
X312238777Y-252594344D01*
X312266887Y-252478559D01*
X312301986Y-252358187D01*
X312344647Y-252229884D01*
X312360341Y-252185625D01*
X312438726Y-251990906D01*
X312531566Y-251802572D01*
X312638672Y-251620885D01*
X312759852Y-251446108D01*
X312894917Y-251278503D01*
X313043674Y-251118333D01*
X313205933Y-250965860D01*
X313312771Y-250875679D01*
X313398600Y-250810186D01*
X313496139Y-250742860D01*
X313601748Y-250675912D01*
X313711786Y-250611555D01*
X313822613Y-250552000D01*
X313930589Y-250499458D01*
X313936594Y-250496715D01*
X314006554Y-250466842D01*
X314087735Y-250435456D01*
X314175767Y-250404036D01*
X314266279Y-250374062D01*
X314354901Y-250347011D01*
X314437264Y-250324364D01*
X314469150Y-250316471D01*
X314562375Y-250295703D01*
X314651349Y-250279043D01*
X314739353Y-250266152D01*
X314829669Y-250256695D01*
X314925578Y-250250332D01*
X315030360Y-250246728D01*
X315147295Y-250245544D01*
X315158969Y-250245545D01*
X315283087Y-250246915D01*
X315394799Y-250251072D01*
X315497392Y-250258419D01*
X315594156Y-250269360D01*
X315688378Y-250284298D01*
X315783347Y-250303637D01*
X315882351Y-250327781D01*
X315927630Y-250339918D01*
X316136177Y-250405156D01*
X316338265Y-250484492D01*
X316533128Y-250577528D01*
X316719999Y-250683868D01*
X316898114Y-250803116D01*
X317050260Y-250921117D01*
X317207928Y-251061842D01*
X317355265Y-251213287D01*
X317491586Y-251374385D01*
X317616208Y-251544067D01*
X317728447Y-251721266D01*
X317827620Y-251904916D01*
X317913042Y-252093947D01*
X317984030Y-252287293D01*
X318032784Y-252455303D01*
X318065855Y-252595289D01*
X318091215Y-252727225D01*
X318109607Y-252856497D01*
X318121775Y-252988493D01*
X318128461Y-253128600D01*
X318129114Y-253154000D01*
X318126395Y-253372297D01*
X318108200Y-253587080D01*
X318074535Y-253798321D01*
X318025406Y-254005989D01*
X317960819Y-254210055D01*
X317896622Y-254373987D01*
X317868539Y-254439252D01*
X317844477Y-254493410D01*
X317822608Y-254540113D01*
X317801107Y-254583013D01*
X317778146Y-254625763D01*
X317751900Y-254672015D01*
X317722775Y-254721656D01*
X317603556Y-254907927D01*
X317473452Y-255082653D01*
X317332329Y-255245965D01*
X317180055Y-255397996D01*
X317016497Y-255538880D01*
X316841524Y-255668748D01*
X316659156Y-255785275D01*
X316606327Y-255816244D01*
X316560414Y-255842221D01*
X316517765Y-255865031D01*
X316474728Y-255886501D01*
X316427651Y-255908457D01*
X316372881Y-255932725D01*
X316311487Y-255959122D01*
X316215254Y-255998669D01*
X316126536Y-256031708D01*
X316039422Y-256060195D01*
X315947998Y-256086089D01*
X315865406Y-256106822D01*
X315700890Y-256142376D01*
X315543795Y-256168053D01*
X315389567Y-256184393D01*
X315233649Y-256191936D01*
X315143094Y-256192513D01*
X315091875Y-256191998D01*
X315043754Y-256191293D01*
X315001874Y-256190460D01*
X314969378Y-256189563D01*
X314949410Y-256188665D01*
X314948625Y-256188609D01*
X314732451Y-256164657D01*
X314519694Y-256125670D01*
X314311213Y-256071967D01*
X314107868Y-256003863D01*
X313910516Y-255921676D01*
X313720018Y-255825725D01*
X313537232Y-255716326D01*
X313386276Y-255611296D01*
X313213349Y-255472949D01*
X313052665Y-255324588D01*
X312904451Y-255166539D01*
X312768929Y-254999132D01*
X312646324Y-254822694D01*
X312536861Y-254637552D01*
X312440763Y-254444035D01*
X312358256Y-254242471D01*
X312289563Y-254033188D01*
X312277418Y-253990130D01*
X312251052Y-253888335D01*
X312229667Y-253792011D01*
X312212859Y-253697867D01*
X312200225Y-253602617D01*
X312191360Y-253502970D01*
X312185862Y-253395640D01*
X312183326Y-253277336D01*
X312183045Y-253221469D01*
X312183720Y-253166108D01*
X312715794Y-253166108D01*
X312715897Y-253246246D01*
X312717563Y-253325910D01*
X312720759Y-253401037D01*
X312725456Y-253467560D01*
X312729176Y-253503250D01*
X312761050Y-253700548D01*
X312807701Y-253892163D01*
X312868951Y-254077722D01*
X312944619Y-254256849D01*
X313034527Y-254429169D01*
X313138494Y-254594309D01*
X313256341Y-254751893D01*
X313387888Y-254901547D01*
X313410224Y-254924760D01*
X313544458Y-255051834D01*
X313690160Y-255169770D01*
X313844631Y-255276590D01*
X314005169Y-255370316D01*
X314050958Y-255394004D01*
X314125366Y-255430653D01*
X314190607Y-255460872D01*
X314251104Y-255486440D01*
X314311278Y-255509134D01*
X314375551Y-255530733D01*
X314440625Y-255550727D01*
X314629838Y-255600140D01*
X314815589Y-255634591D01*
X314999327Y-255654214D01*
X315182503Y-255659142D01*
X315366564Y-255649511D01*
X315433106Y-255642531D01*
X315620438Y-255613587D01*
X315800019Y-255571778D01*
X315974357Y-255516354D01*
X316145959Y-255446564D01*
X316242916Y-255400366D01*
X316413548Y-255306947D01*
X316572964Y-255203212D01*
X316721922Y-255088474D01*
X316861179Y-254962050D01*
X316991494Y-254823254D01*
X317113624Y-254671403D01*
X317221892Y-254515759D01*
X317247018Y-254474568D01*
X317276341Y-254422440D01*
X317308041Y-254362996D01*
X317340299Y-254299856D01*
X317371293Y-254236640D01*
X317399206Y-254176967D01*
X317422215Y-254124457D01*
X317435653Y-254090625D01*
X317498520Y-253899084D01*
X317545916Y-253706345D01*
X317577800Y-253512950D01*
X317594130Y-253319440D01*
X317594868Y-253126357D01*
X317579972Y-252934242D01*
X317549402Y-252743636D01*
X317539599Y-252697594D01*
X317505950Y-252561301D01*
X317467642Y-252435118D01*
X317422704Y-252313507D01*
X317369163Y-252190932D01*
X317331504Y-252113458D01*
X317237799Y-251944610D01*
X317130974Y-251784173D01*
X317011798Y-251632868D01*
X316881037Y-251491414D01*
X316739460Y-251360531D01*
X316587834Y-251240940D01*
X316426927Y-251133360D01*
X316257507Y-251038511D01*
X316113325Y-250970980D01*
X315941697Y-250904585D01*
X315769143Y-250852587D01*
X315593656Y-250814578D01*
X315413226Y-250790151D01*
X315225845Y-250778897D01*
X315162938Y-250778007D01*
X314964843Y-250784377D01*
X314773215Y-250805022D01*
X314587281Y-250840173D01*
X314406265Y-250890067D01*
X314229394Y-250954935D01*
X314055894Y-251035013D01*
X313884991Y-251130535D01*
X313784294Y-251194744D01*
X313644861Y-251296272D01*
X313510663Y-251410778D01*
X313383341Y-251536339D01*
X313264535Y-251671031D01*
X313155886Y-251812931D01*
X313059035Y-251960115D01*
X312975622Y-252110661D01*
X312940826Y-252183580D01*
X312879423Y-252328439D01*
X312829192Y-252467678D01*
X312788935Y-252605626D01*
X312757456Y-252746614D01*
X312733556Y-252894971D01*
X312725155Y-252963500D01*
X312720392Y-253020670D01*
X312717282Y-253089561D01*
X312715794Y-253166108D01*
X312183720Y-253166108D01*
X312184790Y-253078473D01*
X312190664Y-252947606D01*
X314154875Y-254519250D02*
X313750063Y-254519250D01*
X313750063Y-254519250D02*
X313750063Y-254114438D01*
X313750063Y-254114438D02*
X314154875Y-254114438D01*
X314154875Y-254114438D02*
X314154875Y-254519250D01*
X314154875Y-254519250D02*
X314154875Y-254519250D01*
G36*
X314154875Y-254519250D02*
G01*
X313750063Y-254519250D01*
X313750063Y-254114438D01*
X314154875Y-254114438D01*
X314154875Y-254519250D01*
G37*
X314154875Y-254519250D02*
X313750063Y-254519250D01*
X313750063Y-254114438D01*
X314154875Y-254114438D01*
X314154875Y-254519250D01*
X315345500Y-253733438D02*
X314940688Y-253733438D01*
X314940688Y-253733438D02*
X314940688Y-253328625D01*
X314940688Y-253328625D02*
X315345500Y-253328625D01*
X315345500Y-253328625D02*
X315345500Y-253733438D01*
X315345500Y-253733438D02*
X315345500Y-253733438D01*
G36*
X315345500Y-253733438D02*
G01*
X314940688Y-253733438D01*
X314940688Y-253328625D01*
X315345500Y-253328625D01*
X315345500Y-253733438D01*
G37*
X315345500Y-253733438D02*
X314940688Y-253733438D01*
X314940688Y-253328625D01*
X315345500Y-253328625D01*
X315345500Y-253733438D01*
X315345500Y-252138000D02*
X314940688Y-252138000D01*
X314940688Y-252138000D02*
X314940688Y-251733188D01*
X314940688Y-251733188D02*
X315345500Y-251733188D01*
X315345500Y-251733188D02*
X315345500Y-252138000D01*
X315345500Y-252138000D02*
X315345500Y-252138000D01*
G36*
X315345500Y-252138000D02*
G01*
X314940688Y-252138000D01*
X314940688Y-251733188D01*
X315345500Y-251733188D01*
X315345500Y-252138000D01*
G37*
X315345500Y-252138000D02*
X314940688Y-252138000D01*
X314940688Y-251733188D01*
X315345500Y-251733188D01*
X315345500Y-252138000D01*
%LPC*%
D11*
X334522500Y-235755000D03*
X324362500Y-235755000D03*
D12*
X329442500Y-235755000D03*
D13*
X325632500Y-233215000D03*
X331982500Y-230675000D03*
D11*
X315472500Y-235755000D03*
X305312500Y-235755000D03*
D12*
X310392500Y-235755000D03*
D13*
X306582500Y-233215000D03*
X312932500Y-230675000D03*
D11*
X148150000Y-178605000D03*
D12*
X153230000Y-178605000D03*
D11*
X158310000Y-178605000D03*
D13*
X149420000Y-176065000D03*
X155770000Y-173525000D03*
D11*
X177360000Y-178605000D03*
X167200000Y-178605000D03*
D12*
X172280000Y-178605000D03*
D13*
X168470000Y-176065000D03*
X174820000Y-173525000D03*
D12*
X191330000Y-178605000D03*
D11*
X196410000Y-178605000D03*
X186250000Y-178605000D03*
D13*
X187520000Y-176065000D03*
X193870000Y-173525000D03*
D11*
X205300000Y-178605000D03*
D12*
X210380000Y-178605000D03*
D11*
X215460000Y-178605000D03*
D13*
X206570000Y-176065000D03*
X212920000Y-173525000D03*
D11*
X224350000Y-178605000D03*
D12*
X229430000Y-178605000D03*
D11*
X234510000Y-178605000D03*
D13*
X225620000Y-176065000D03*
X231970000Y-173525000D03*
D12*
X248480000Y-178605000D03*
D11*
X243400000Y-178605000D03*
X253560000Y-178605000D03*
D13*
X244670000Y-176065000D03*
X251020000Y-173525000D03*
D11*
X262450000Y-178605000D03*
D12*
X267530000Y-178605000D03*
D11*
X272610000Y-178605000D03*
D13*
X263720000Y-176065000D03*
X270070000Y-173525000D03*
D11*
X310710000Y-178605000D03*
D12*
X305630000Y-178605000D03*
D11*
X300550000Y-178605000D03*
D13*
X301820000Y-176065000D03*
X308170000Y-173525000D03*
D11*
X329760000Y-178605000D03*
D12*
X324680000Y-178605000D03*
D11*
X319600000Y-178605000D03*
D13*
X320870000Y-176065000D03*
X327220000Y-173525000D03*
D11*
X363097500Y-216705000D03*
X352937500Y-216705000D03*
D12*
X358017500Y-216705000D03*
D13*
X354207500Y-214165000D03*
X360557500Y-211625000D03*
D11*
X348810000Y-178605000D03*
X338650000Y-178605000D03*
D12*
X343730000Y-178605000D03*
D13*
X339920000Y-176065000D03*
X346270000Y-173525000D03*
D11*
X343412500Y-235755000D03*
D12*
X348492500Y-235755000D03*
D11*
X353572500Y-235755000D03*
D13*
X344682500Y-233215000D03*
X351032500Y-230675000D03*
D11*
X333887500Y-216705000D03*
X344047500Y-216705000D03*
D12*
X338967500Y-216705000D03*
D13*
X335157500Y-214165000D03*
X341507500Y-211625000D03*
D12*
X362780000Y-178605000D03*
D11*
X357700000Y-178605000D03*
X367860000Y-178605000D03*
D13*
X358970000Y-176065000D03*
X365320000Y-173525000D03*
D12*
X353255000Y-197655000D03*
D11*
X348175000Y-197655000D03*
X358335000Y-197655000D03*
D13*
X349445000Y-195115000D03*
X355795000Y-192575000D03*
D12*
X396117500Y-197655000D03*
D11*
X391037500Y-197655000D03*
X401197500Y-197655000D03*
D13*
X392307500Y-195115000D03*
X398657500Y-192575000D03*
D11*
X371987500Y-216705000D03*
X382147500Y-216705000D03*
D12*
X377067500Y-216705000D03*
D13*
X373257500Y-214165000D03*
X379607500Y-211625000D03*
D11*
X367225000Y-197655000D03*
D12*
X372305000Y-197655000D03*
D11*
X377385000Y-197655000D03*
D13*
X368495000Y-195115000D03*
X374845000Y-192575000D03*
D12*
X134180000Y-178605000D03*
D11*
X129100000Y-178605000D03*
X139260000Y-178605000D03*
D13*
X130370000Y-176065000D03*
X136720000Y-173525000D03*
D12*
X167517500Y-216705000D03*
D11*
X172597500Y-216705000D03*
X162437500Y-216705000D03*
D13*
X163707500Y-214165000D03*
X170057500Y-211625000D03*
D11*
X258322500Y-235755000D03*
D12*
X253242500Y-235755000D03*
D11*
X248162500Y-235755000D03*
D13*
X249432500Y-233215000D03*
X255782500Y-230675000D03*
D12*
X391355000Y-178605000D03*
D11*
X386275000Y-178605000D03*
D14*
X379448750Y-171620000D03*
D12*
X379448750Y-186860000D03*
D14*
X403261250Y-171620000D03*
D11*
X396435000Y-178605000D03*
D12*
X403261250Y-186860000D03*
D13*
X387545000Y-176065000D03*
X393895000Y-173525000D03*
D11*
X376750000Y-178605000D03*
X386910000Y-178605000D03*
D12*
X381830000Y-178605000D03*
D13*
X378020000Y-176065000D03*
X384370000Y-173525000D03*
D11*
X395800000Y-178605000D03*
X405960000Y-178605000D03*
D12*
X400880000Y-178605000D03*
D13*
X397070000Y-176065000D03*
X403420000Y-173525000D03*
D12*
X215142500Y-235755000D03*
D11*
X220222500Y-235755000D03*
X210062500Y-235755000D03*
D13*
X211332500Y-233215000D03*
X217682500Y-230675000D03*
D12*
X141323750Y-216705000D03*
D11*
X146403750Y-216705000D03*
X136243750Y-216705000D03*
D13*
X137513750Y-214165000D03*
X143863750Y-211625000D03*
D15*
X140053750Y-221785000D03*
D16*
X142593750Y-221785000D03*
D12*
X136561250Y-216705000D03*
D11*
X141641250Y-216705000D03*
X131481250Y-216705000D03*
D13*
X132751250Y-214165000D03*
X139101250Y-211625000D03*
D15*
X137831250Y-221785000D03*
D16*
X135291250Y-221785000D03*
D11*
X210697500Y-216705000D03*
X200537500Y-216705000D03*
D12*
X205617500Y-216705000D03*
D13*
X201807500Y-214165000D03*
X208157500Y-211625000D03*
D12*
X424692500Y-197655000D03*
D11*
X429772500Y-197655000D03*
X419612500Y-197655000D03*
D13*
X420882500Y-195115000D03*
X427232500Y-192575000D03*
D11*
X438662500Y-254805000D03*
D12*
X443742500Y-254805000D03*
D11*
X448822500Y-254805000D03*
D13*
X439932500Y-252265000D03*
X446282500Y-249725000D03*
D12*
X200855000Y-197655000D03*
D11*
X195775000Y-197655000D03*
X205935000Y-197655000D03*
D13*
X197045000Y-195115000D03*
X203395000Y-192575000D03*
D11*
X129100000Y-154792500D03*
D12*
X134180000Y-154792500D03*
D11*
X139260000Y-154792500D03*
D13*
X130370000Y-152252500D03*
X136720000Y-149712500D03*
D11*
X219587500Y-216705000D03*
X229747500Y-216705000D03*
D12*
X224667500Y-216705000D03*
D13*
X220857500Y-214165000D03*
X227207500Y-211625000D03*
D12*
X172280000Y-154792500D03*
D11*
X177360000Y-154792500D03*
X167200000Y-154792500D03*
D13*
X168470000Y-152252500D03*
X174820000Y-149712500D03*
D12*
X191330000Y-154792500D03*
D11*
X196410000Y-154792500D03*
X186250000Y-154792500D03*
D13*
X187520000Y-152252500D03*
X193870000Y-149712500D03*
D11*
X215460000Y-154792500D03*
D12*
X210380000Y-154792500D03*
D11*
X205300000Y-154792500D03*
D13*
X206570000Y-152252500D03*
X212920000Y-149712500D03*
D11*
X224350000Y-154792500D03*
D12*
X229430000Y-154792500D03*
D11*
X234510000Y-154792500D03*
D13*
X225620000Y-152252500D03*
X231970000Y-149712500D03*
D12*
X258005000Y-154792500D03*
D11*
X252925000Y-154792500D03*
X263085000Y-154792500D03*
D13*
X254195000Y-152252500D03*
X260545000Y-149712500D03*
D12*
X277055000Y-154792500D03*
D11*
X282135000Y-154792500D03*
X271975000Y-154792500D03*
D13*
X273245000Y-152252500D03*
X279595000Y-149712500D03*
D11*
X291025000Y-154792500D03*
D12*
X296105000Y-154792500D03*
D11*
X301185000Y-154792500D03*
D13*
X292295000Y-152252500D03*
X298645000Y-149712500D03*
D11*
X310075000Y-154792500D03*
D12*
X315155000Y-154792500D03*
D11*
X320235000Y-154792500D03*
D13*
X311345000Y-152252500D03*
X317695000Y-149712500D03*
D12*
X343730000Y-154792500D03*
D11*
X338650000Y-154792500D03*
X348810000Y-154792500D03*
D13*
X339920000Y-152252500D03*
X346270000Y-149712500D03*
D11*
X357700000Y-154792500D03*
X367860000Y-154792500D03*
D12*
X362780000Y-154792500D03*
D13*
X358970000Y-152252500D03*
X365320000Y-149712500D03*
D12*
X381830000Y-154792500D03*
D11*
X376750000Y-154792500D03*
X386910000Y-154792500D03*
D13*
X378020000Y-152252500D03*
X384370000Y-149712500D03*
D12*
X400880000Y-154792500D03*
D11*
X405960000Y-154792500D03*
X395800000Y-154792500D03*
D13*
X397070000Y-152252500D03*
X403420000Y-149712500D03*
D11*
X238637500Y-216705000D03*
X248797500Y-216705000D03*
D12*
X243717500Y-216705000D03*
D13*
X239907500Y-214165000D03*
X246257500Y-211625000D03*
D11*
X257687500Y-216705000D03*
X267847500Y-216705000D03*
D12*
X262767500Y-216705000D03*
D13*
X258957500Y-214165000D03*
X265307500Y-211625000D03*
D12*
X443742500Y-178605000D03*
D11*
X438662500Y-178605000D03*
X448822500Y-178605000D03*
D13*
X439932500Y-176065000D03*
X446282500Y-173525000D03*
D12*
X296105000Y-197655000D03*
D11*
X301185000Y-197655000D03*
X291025000Y-197655000D03*
D13*
X292295000Y-195115000D03*
X298645000Y-192575000D03*
D11*
X429772500Y-178605000D03*
X419612500Y-178605000D03*
D12*
X424692500Y-178605000D03*
D13*
X420882500Y-176065000D03*
X427232500Y-173525000D03*
D11*
X286897500Y-216705000D03*
X276737500Y-216705000D03*
D12*
X281817500Y-216705000D03*
D13*
X278007500Y-214165000D03*
X284357500Y-211625000D03*
D11*
X295787500Y-216705000D03*
D12*
X300867500Y-216705000D03*
D11*
X305947500Y-216705000D03*
D13*
X297057500Y-214165000D03*
X303407500Y-211625000D03*
D12*
X319917500Y-216705000D03*
D11*
X314837500Y-216705000D03*
X324997500Y-216705000D03*
D13*
X316107500Y-214165000D03*
X322457500Y-211625000D03*
D11*
X189266250Y-254805000D03*
X179106250Y-254805000D03*
D12*
X184186250Y-254805000D03*
D13*
X180376250Y-252265000D03*
X186726250Y-249725000D03*
D12*
X186567500Y-254805000D03*
D11*
X191647500Y-254805000D03*
X181487500Y-254805000D03*
D13*
X182757500Y-252265000D03*
X189107500Y-249725000D03*
D11*
X141641250Y-254805000D03*
X131481250Y-254805000D03*
D12*
X136561250Y-254805000D03*
D13*
X132751250Y-252265000D03*
X139101250Y-249725000D03*
D12*
X138942500Y-254805000D03*
D11*
X133862500Y-254805000D03*
X144022500Y-254805000D03*
D13*
X135132500Y-252265000D03*
X141482500Y-249725000D03*
D12*
X424692500Y-254805000D03*
D11*
X429772500Y-254805000D03*
X419612500Y-254805000D03*
D13*
X420882500Y-252265000D03*
X427232500Y-249725000D03*
D11*
X165453750Y-254805000D03*
D12*
X160373750Y-254805000D03*
D11*
X155293750Y-254805000D03*
D13*
X156563750Y-252265000D03*
X162913750Y-249725000D03*
D12*
X162755000Y-254805000D03*
D11*
X157675000Y-254805000D03*
X167835000Y-254805000D03*
D13*
X158945000Y-252265000D03*
X165295000Y-249725000D03*
D11*
X141006250Y-235755000D03*
D12*
X134180000Y-244010000D03*
X157992500Y-244010000D03*
D14*
X134180000Y-228770000D03*
D11*
X151166250Y-235755000D03*
D14*
X157992500Y-228770000D03*
D12*
X146086250Y-235755000D03*
D13*
X142276250Y-233215000D03*
X148626250Y-230675000D03*
D11*
X131481250Y-235755000D03*
D12*
X136561250Y-235755000D03*
D11*
X141641250Y-235755000D03*
D13*
X132751250Y-233215000D03*
X139101250Y-230675000D03*
D11*
X152912500Y-235755000D03*
D12*
X157992500Y-235755000D03*
D11*
X163072500Y-235755000D03*
D13*
X154182500Y-233215000D03*
X160532500Y-230675000D03*
D11*
X296422500Y-235755000D03*
X286262500Y-235755000D03*
D12*
X291342500Y-235755000D03*
D13*
X287532500Y-233215000D03*
X293882500Y-230675000D03*
D11*
X277372500Y-235755000D03*
X267212500Y-235755000D03*
D12*
X272292500Y-235755000D03*
D13*
X268482500Y-233215000D03*
X274832500Y-230675000D03*
D11*
X320235000Y-197655000D03*
X310075000Y-197655000D03*
D12*
X315155000Y-197655000D03*
D13*
X311345000Y-195115000D03*
X317695000Y-192575000D03*
D11*
X339285000Y-197655000D03*
D12*
X334205000Y-197655000D03*
D11*
X329125000Y-197655000D03*
D13*
X330395000Y-195115000D03*
X336745000Y-192575000D03*
D11*
X467872500Y-154792500D03*
X457712500Y-154792500D03*
D12*
X462792500Y-154792500D03*
D13*
X458982500Y-152252500D03*
X465332500Y-149712500D03*
D11*
X467872500Y-197655000D03*
D12*
X462792500Y-197655000D03*
D11*
X457712500Y-197655000D03*
D13*
X458982500Y-195115000D03*
X465332500Y-192575000D03*
D12*
X462792500Y-178605000D03*
D11*
X457712500Y-178605000D03*
X467872500Y-178605000D03*
D13*
X458982500Y-176065000D03*
X465332500Y-173525000D03*
D12*
X424692500Y-154792500D03*
D11*
X429772500Y-154792500D03*
X419612500Y-154792500D03*
D13*
X420882500Y-152252500D03*
X427232500Y-149712500D03*
D12*
X162755000Y-197655000D03*
D11*
X167835000Y-197655000D03*
X157675000Y-197655000D03*
D13*
X158945000Y-195115000D03*
X165295000Y-192575000D03*
D11*
X214825000Y-197655000D03*
D12*
X219905000Y-197655000D03*
D11*
X224985000Y-197655000D03*
D13*
X216095000Y-195115000D03*
X222445000Y-192575000D03*
D11*
X321981250Y-254805000D03*
D12*
X327061250Y-254805000D03*
D11*
X332141250Y-254805000D03*
D13*
X323251250Y-252265000D03*
X329601250Y-249725000D03*
D11*
X353572500Y-254805000D03*
X343412500Y-254805000D03*
D12*
X348492500Y-254805000D03*
D13*
X344682500Y-252265000D03*
X351032500Y-249725000D03*
D12*
X398498750Y-254805000D03*
D11*
X393418750Y-254805000D03*
X403578750Y-254805000D03*
D13*
X394688750Y-252265000D03*
X401038750Y-249725000D03*
D11*
X401197500Y-254805000D03*
D12*
X396117500Y-254805000D03*
D11*
X391037500Y-254805000D03*
D13*
X392307500Y-252265000D03*
X398657500Y-249725000D03*
D11*
X383893750Y-216705000D03*
D14*
X400880000Y-209720000D03*
X377067500Y-209720000D03*
D11*
X394053750Y-216705000D03*
D12*
X377067500Y-224960000D03*
X400880000Y-224960000D03*
X388973750Y-216705000D03*
D13*
X385163750Y-214165000D03*
X391513750Y-211625000D03*
D11*
X345793750Y-254805000D03*
X355953750Y-254805000D03*
D12*
X350873750Y-254805000D03*
D13*
X347063750Y-252265000D03*
X353413750Y-249725000D03*
D11*
X367225000Y-254805000D03*
D12*
X372305000Y-254805000D03*
D11*
X377385000Y-254805000D03*
D13*
X368495000Y-252265000D03*
X374845000Y-249725000D03*
D11*
X369606250Y-254805000D03*
D12*
X374686250Y-254805000D03*
D11*
X379766250Y-254805000D03*
D13*
X370876250Y-252265000D03*
X377226250Y-249725000D03*
D11*
X379131250Y-235755000D03*
D12*
X396117500Y-244010000D03*
X372305000Y-244010000D03*
D14*
X372305000Y-228770000D03*
X396117500Y-228770000D03*
D12*
X384211250Y-235755000D03*
D11*
X389291250Y-235755000D03*
D13*
X380401250Y-233215000D03*
X386751250Y-230675000D03*
D11*
X369606250Y-235755000D03*
D12*
X374686250Y-235755000D03*
D11*
X379766250Y-235755000D03*
D13*
X370876250Y-233215000D03*
X377226250Y-230675000D03*
D11*
X405960000Y-235755000D03*
X395800000Y-235755000D03*
D12*
X400880000Y-235755000D03*
D13*
X397070000Y-233215000D03*
X403420000Y-230675000D03*
D11*
X457712500Y-254805000D03*
X467872500Y-254805000D03*
D12*
X462792500Y-254805000D03*
D13*
X458982500Y-252265000D03*
X465332500Y-249725000D03*
D12*
X186567500Y-216705000D03*
D11*
X181487500Y-216705000D03*
X191647500Y-216705000D03*
D13*
X182757500Y-214165000D03*
X189107500Y-211625000D03*
D11*
X260703750Y-254805000D03*
D14*
X305623650Y-261790000D03*
X205623850Y-261790000D03*
D12*
X305623650Y-246550000D03*
X255623750Y-254805000D03*
D11*
X250543750Y-254805000D03*
D12*
X205623850Y-246550000D03*
D13*
X251813750Y-252265000D03*
X258163750Y-249725000D03*
D14*
X210380000Y-261790000D03*
D11*
X272610000Y-254805000D03*
D12*
X267530000Y-254805000D03*
D14*
X324680000Y-261790000D03*
D11*
X262450000Y-254805000D03*
D12*
X324680000Y-246550000D03*
X210380000Y-246550000D03*
D13*
X263720000Y-252265000D03*
X270070000Y-249725000D03*
D12*
X238955000Y-197655000D03*
D11*
X233875000Y-197655000D03*
X244035000Y-197655000D03*
D13*
X235145000Y-195115000D03*
X241495000Y-192575000D03*
D11*
X282135000Y-197655000D03*
D12*
X277055000Y-197655000D03*
D11*
X271975000Y-197655000D03*
D13*
X273245000Y-195115000D03*
X279595000Y-192575000D03*
D11*
X448822500Y-235755000D03*
D12*
X443742500Y-235755000D03*
D11*
X438662500Y-235755000D03*
D13*
X439932500Y-233215000D03*
X446282500Y-230675000D03*
D12*
X234192500Y-235755000D03*
D11*
X229112500Y-235755000D03*
X239272500Y-235755000D03*
D13*
X230382500Y-233215000D03*
X236732500Y-230675000D03*
D11*
X186885000Y-197655000D03*
D12*
X181805000Y-197655000D03*
D11*
X176725000Y-197655000D03*
D13*
X177995000Y-195115000D03*
X184345000Y-192575000D03*
D12*
X196092500Y-235755000D03*
D11*
X201172500Y-235755000D03*
X191012500Y-235755000D03*
D13*
X192282500Y-233215000D03*
X198632500Y-230675000D03*
D11*
X263085000Y-197655000D03*
D12*
X258005000Y-197655000D03*
D11*
X252925000Y-197655000D03*
D13*
X254195000Y-195115000D03*
X260545000Y-192575000D03*
D12*
X177042500Y-235755000D03*
D11*
X171962500Y-235755000D03*
X182122500Y-235755000D03*
D13*
X173232500Y-233215000D03*
X179582500Y-230675000D03*
D11*
X398498750Y-202100000D03*
D14*
X405483750Y-219118000D03*
X405483750Y-195242000D03*
D11*
X398498750Y-212260000D03*
D12*
X390243750Y-195242000D03*
X398498750Y-207180000D03*
X390243750Y-219118000D03*
D13*
X401038750Y-203370000D03*
X403578750Y-209720000D03*
D12*
X286580000Y-178605000D03*
D11*
X291660000Y-178605000D03*
X281500000Y-178605000D03*
D13*
X282770000Y-176065000D03*
X289120000Y-173525000D03*
D11*
X133862500Y-197655000D03*
D12*
X138942500Y-197655000D03*
D11*
X144022500Y-197655000D03*
D13*
X135132500Y-195115000D03*
X141482500Y-192575000D03*
D12*
X443742500Y-154792500D03*
D11*
X438662500Y-154792500D03*
X448822500Y-154792500D03*
D13*
X439932500Y-152252500D03*
X446282500Y-149712500D03*
D15*
X442472500Y-159872500D03*
D16*
X445012500Y-159872500D03*
D11*
X448830000Y-197670000D03*
D12*
X443750000Y-197670000D03*
D11*
X438670000Y-197670000D03*
D13*
X439940000Y-195130000D03*
X446290000Y-192590000D03*
D17*
X415676250Y-149042125D03*
X409896250Y-149042125D03*
D18*
X408466250Y-145392125D03*
D19*
X417106250Y-149572125D03*
X408466250Y-149572125D03*
D18*
X417106250Y-145392125D03*
M02*
