M48
; DRILL file {KiCad (6.0.1-0)} date 2022 January 18, Tuesday 02:04:34
; FORMAT={-:-/ absolute / metric / decimal}
; #@! TF.CreationDate,2022-01-18T02:04:34+01:00
; #@! TF.GenerationSoftware,Kicad,Pcbnew,(6.0.1-0)
; #@! TF.FileFunction,Plated,1,2,PTH
FMAT,2
METRIC
; #@! TA.AperFunction,Plated,PTH,ViaDrill
T1C0.400
; #@! TA.AperFunction,Plated,PTH,ComponentDrill
T2C0.600
; #@! TA.AperFunction,Plated,PTH,ComponentDrill
T3C1.000
; #@! TA.AperFunction,Plated,PTH,ComponentDrill
T4C1.040
; #@! TA.AperFunction,Plated,PTH,ComponentDrill
T5C1.470
%
G90
G05
T1
X146.578Y-163.693
X146.94Y-164.381
X151.706Y-219.88
X369.003Y-180.891
X374.972Y-188.638
X375.59Y-196.23
X380.941Y-218.991
X381.813Y-219.99
X381.83Y-218.991
X383.354Y-193.591
X386.7Y-168.09
X404.436Y-158.158
X405.96Y-157.015
X405.96Y-158.031
X405.96Y-180.891
X405.96Y-181.78
X405.96Y-199.941
X405.96Y-200.83
X406.849Y-170.985
X406.849Y-171.874
X408.881Y-153.459
X411.32Y-158.49
X411.548Y-152.189
X411.548Y-153.078
X414.342Y-152.189
X414.342Y-153.078
X416.374Y-152.062
X416.374Y-153.459
X419.549Y-180.891
X419.549Y-181.78
X419.549Y-199.941
X419.549Y-200.83
X419.67Y-158.91
X419.676Y-157.015
X419.676Y-158.031
X421.073Y-219.626
X421.073Y-227.627
X422.216Y-216.578
X423.359Y-213.276
X426.28Y-213.403
X427.33Y-158.5
X427.55Y-216.578
X429.328Y-229.024
X432.63Y-257.218
X432.757Y-216.197
X433.31Y-238.135
X434.55Y-238.135
X435.81Y-257.22
X440.504Y-212.641
X450.18Y-213.53
X450.187Y-168.96
X450.41Y-216.578
X460.278Y-213.111
T3
X463.11Y-219.721
X463.11Y-222.261
X463.11Y-224.801
X465.65Y-219.721
X465.65Y-222.261
X465.65Y-224.801
T4
X135.291Y-221.785
X137.831Y-221.785
X140.054Y-221.785
X142.594Y-221.785
X442.472Y-159.873
X445.012Y-159.873
T5
X130.37Y-152.252
X130.37Y-176.065
X132.751Y-214.165
X132.751Y-233.215
X132.751Y-252.265
X135.132Y-195.115
X135.132Y-252.265
X136.72Y-149.713
X136.72Y-173.525
X137.514Y-214.165
X139.101Y-211.625
X139.101Y-230.675
X139.101Y-249.725
X141.482Y-192.575
X141.482Y-249.725
X142.276Y-233.215
X143.864Y-211.625
X148.626Y-230.675
X149.42Y-176.065
X154.183Y-233.215
X155.77Y-173.525
X156.564Y-252.265
X158.945Y-195.115
X158.945Y-252.265
X160.532Y-230.675
X162.914Y-249.725
X163.707Y-214.165
X165.295Y-192.575
X165.295Y-249.725
X168.47Y-152.252
X168.47Y-176.065
X170.058Y-211.625
X173.232Y-233.215
X174.82Y-149.713
X174.82Y-173.525
X177.995Y-195.115
X179.582Y-230.675
X180.376Y-252.265
X182.757Y-214.165
X182.757Y-252.265
X184.345Y-192.575
X186.726Y-249.725
X187.52Y-152.252
X187.52Y-176.065
X189.107Y-211.625
X189.107Y-249.725
X192.282Y-233.215
X193.87Y-149.713
X193.87Y-173.525
X197.045Y-195.115
X198.632Y-230.675
X201.808Y-214.165
X203.395Y-192.575
X206.57Y-152.252
X206.57Y-176.065
X208.157Y-211.625
X211.332Y-233.215
X212.92Y-149.713
X212.92Y-173.525
X216.095Y-195.115
X217.682Y-230.675
X220.857Y-214.165
X222.445Y-192.575
X225.62Y-152.252
X225.62Y-176.065
X227.207Y-211.625
X230.382Y-233.215
X231.97Y-149.713
X231.97Y-173.525
X235.145Y-195.115
X236.732Y-230.675
X239.907Y-214.165
X241.495Y-192.575
X244.67Y-176.065
X246.257Y-211.625
X249.432Y-233.215
X251.02Y-173.525
X251.814Y-252.265
X254.195Y-152.252
X254.195Y-195.115
X255.782Y-230.675
X258.164Y-249.725
X258.957Y-214.165
X260.545Y-149.713
X260.545Y-192.575
X263.72Y-176.065
X263.72Y-252.265
X265.308Y-211.625
X268.483Y-233.215
X270.07Y-173.525
X270.07Y-249.725
X273.245Y-152.252
X273.245Y-195.115
X274.832Y-230.675
X278.007Y-214.165
X279.595Y-149.713
X279.595Y-192.575
X282.77Y-176.065
X284.357Y-211.625
X287.532Y-233.215
X289.12Y-173.525
X292.295Y-152.252
X292.295Y-195.115
X293.882Y-230.675
X297.058Y-214.165
X298.645Y-149.713
X298.645Y-192.575
X301.82Y-176.065
X303.407Y-211.625
X306.582Y-233.215
X308.17Y-173.525
X311.345Y-152.252
X311.345Y-195.115
X312.933Y-230.675
X316.107Y-214.165
X317.695Y-149.713
X317.695Y-192.575
X320.87Y-176.065
X322.457Y-211.625
X323.251Y-252.265
X325.632Y-233.215
X327.22Y-173.525
X329.601Y-249.725
X330.395Y-195.115
X331.982Y-230.675
X335.157Y-214.165
X336.745Y-192.575
X339.92Y-152.252
X339.92Y-176.065
X341.507Y-211.625
X344.683Y-233.215
X344.683Y-252.265
X346.27Y-149.713
X346.27Y-173.525
X347.064Y-252.265
X349.445Y-195.115
X351.032Y-230.675
X351.032Y-249.725
X353.414Y-249.725
X354.207Y-214.165
X355.795Y-192.575
X358.97Y-152.252
X358.97Y-176.065
X360.558Y-211.625
X365.32Y-149.713
X365.32Y-173.525
X368.495Y-195.115
X368.495Y-252.265
X370.876Y-233.215
X370.876Y-252.265
X373.257Y-214.165
X374.845Y-192.575
X374.845Y-249.725
X377.226Y-230.675
X377.226Y-249.725
X378.02Y-152.252
X378.02Y-176.065
X379.607Y-211.625
X380.401Y-233.215
X384.37Y-149.713
X384.37Y-173.525
X385.164Y-214.165
X386.751Y-230.675
X387.545Y-176.065
X391.514Y-211.625
X392.308Y-195.115
X392.308Y-252.265
X393.895Y-173.525
X394.689Y-252.265
X397.07Y-152.252
X397.07Y-176.065
X397.07Y-233.215
X398.657Y-192.575
X398.657Y-249.725
X401.039Y-203.37
X401.039Y-249.725
X403.42Y-149.713
X403.42Y-173.525
X403.42Y-230.675
X403.579Y-209.72
X420.882Y-152.252
X420.882Y-176.065
X420.882Y-195.115
X420.882Y-252.265
X427.232Y-149.713
X427.232Y-173.525
X427.232Y-192.575
X427.232Y-249.725
X439.933Y-152.252
X439.933Y-176.065
X439.933Y-233.215
X439.933Y-252.265
X439.94Y-195.13
X446.282Y-149.713
X446.282Y-173.525
X446.282Y-230.675
X446.282Y-249.725
X446.29Y-192.59
X458.982Y-152.252
X458.982Y-176.065
X458.982Y-195.115
X458.982Y-252.265
X465.332Y-149.713
X465.332Y-173.525
X465.332Y-192.575
X465.332Y-249.725
T2
X408.466Y-145.092G85X408.466Y-145.692
G05
X408.466Y-149.022G85X408.466Y-150.122
G05
X417.106Y-145.092G85X417.106Y-145.692
G05
X417.106Y-149.022G85X417.106Y-150.122
G05
T0
M30
