%FSLAX45Y45*%
G04 Gerber Fmt 4.5, Leading zero omitted, Abs format (unit mm)*
G04 Created by KiCad (PCBNEW (6.0.1-0)) date 2022-01-18 02:05:57*
%MOMM*%
%LPD*%
G01*
G04 APERTURE LIST*
%TA.AperFunction,Profile*%
%ADD10C,0.200000*%
%TD*%
%ADD11C,0.200000*%
%ADD12C,0.065000*%
%ADD13C,0.175000*%
%ADD14C,0.304800*%
%ADD15C,0.398780*%
G04 APERTURE END LIST*
D10*
X46715812Y-26274250D02*
G75*
G03*
X47033312Y-25956750I0J317500D01*
G01*
X35722375Y-22702375D02*
G75*
G03*
X35722375Y-22543625I0J79375D01*
G01*
X41794563Y-14526750D02*
X41794563Y-14606125D01*
X40762688Y-14526750D02*
X40762688Y-14606125D01*
X37151125Y-18733625D02*
X15402375Y-18733625D01*
X37151125Y-18892375D02*
G75*
G03*
X37151125Y-18733625I0J79375D01*
G01*
X16831125Y-22702375D02*
X35722375Y-22702375D01*
X15402375Y-18892375D02*
X37151125Y-18892375D01*
X46715812Y-26274250D02*
X12981437Y-26274250D01*
X12663937Y-25956750D02*
X12663937Y-15003000D01*
X40842063Y-14447375D02*
G75*
G03*
X40762688Y-14526750I0J-79375D01*
G01*
X12663937Y-25956750D02*
G75*
G03*
X12981437Y-26274250I317500J0D01*
G01*
X12981437Y-14685500D02*
X40683313Y-14685500D01*
X47033312Y-15003000D02*
X47033312Y-25956750D01*
X35722375Y-22543625D02*
X16831125Y-22543625D01*
X47033312Y-15003000D02*
G75*
G03*
X46715812Y-14685500I-317500J0D01*
G01*
X41794563Y-14606125D02*
G75*
G03*
X41873938Y-14685500I79375J0D01*
G01*
X40683313Y-14685500D02*
G75*
G03*
X40762688Y-14606125I0J79375D01*
G01*
X12981437Y-14685500D02*
G75*
G03*
X12663937Y-15003000I0J-317500D01*
G01*
X41873938Y-14685500D02*
X46715812Y-14685500D01*
X16831125Y-22543625D02*
G75*
G03*
X16831125Y-22702375I0J-79375D01*
G01*
X15402375Y-18733625D02*
G75*
G03*
X15402375Y-18892375I0J-79375D01*
G01*
X41794563Y-14526750D02*
G75*
G03*
X41715188Y-14447375I-79375J0D01*
G01*
X40842063Y-14447375D02*
X41715188Y-14447375D01*
D11*
D12*
X40957125Y-14871712D02*
X41022125Y-14936712D01*
X41022125Y-14871712D02*
X40957125Y-14936712D01*
X41535125Y-14871712D02*
X41600125Y-14936712D01*
X41600125Y-14871712D02*
X41535125Y-14936712D01*
D13*
X12997500Y-15479250D02*
G75*
G03*
X12997500Y-15479250I-87500J0D01*
G01*
X12997500Y-17860500D02*
G75*
G03*
X12997500Y-17860500I-87500J0D01*
G01*
X13235625Y-21670500D02*
G75*
G03*
X13235625Y-21670500I-87500J0D01*
G01*
X13235625Y-23575500D02*
G75*
G03*
X13235625Y-23575500I-87500J0D01*
G01*
X13235625Y-25480500D02*
G75*
G03*
X13235625Y-25480500I-87500J0D01*
G01*
X13473750Y-19765500D02*
G75*
G03*
X13473750Y-19765500I-87500J0D01*
G01*
X13473750Y-25480500D02*
G75*
G03*
X13473750Y-25480500I-87500J0D01*
G01*
X13711875Y-21670500D02*
G75*
G03*
X13711875Y-21670500I-87500J0D01*
G01*
X14013500Y-15479250D02*
G75*
G03*
X14013500Y-15479250I-87500J0D01*
G01*
X14013500Y-17860500D02*
G75*
G03*
X14013500Y-17860500I-87500J0D01*
G01*
X14188125Y-23575500D02*
G75*
G03*
X14188125Y-23575500I-87500J0D01*
G01*
X14251625Y-21670500D02*
G75*
G03*
X14251625Y-21670500I-87500J0D01*
G01*
X14251625Y-23575500D02*
G75*
G03*
X14251625Y-23575500I-87500J0D01*
G01*
X14251625Y-25480500D02*
G75*
G03*
X14251625Y-25480500I-87500J0D01*
G01*
X14489750Y-19765500D02*
G75*
G03*
X14489750Y-19765500I-87500J0D01*
G01*
X14489750Y-25480500D02*
G75*
G03*
X14489750Y-25480500I-87500J0D01*
G01*
X14727875Y-21670500D02*
G75*
G03*
X14727875Y-21670500I-87500J0D01*
G01*
X14902500Y-17860500D02*
G75*
G03*
X14902500Y-17860500I-87500J0D01*
G01*
X15204125Y-23575500D02*
G75*
G03*
X15204125Y-23575500I-87500J0D01*
G01*
X15378750Y-23575500D02*
G75*
G03*
X15378750Y-23575500I-87500J0D01*
G01*
X15616875Y-25480500D02*
G75*
G03*
X15616875Y-25480500I-87500J0D01*
G01*
X15855000Y-19765500D02*
G75*
G03*
X15855000Y-19765500I-87500J0D01*
G01*
X15855000Y-25480500D02*
G75*
G03*
X15855000Y-25480500I-87500J0D01*
G01*
X15918500Y-17860500D02*
G75*
G03*
X15918500Y-17860500I-87500J0D01*
G01*
X16331250Y-21670500D02*
G75*
G03*
X16331250Y-21670500I-87500J0D01*
G01*
X16394750Y-23575500D02*
G75*
G03*
X16394750Y-23575500I-87500J0D01*
G01*
X16632875Y-25480500D02*
G75*
G03*
X16632875Y-25480500I-87500J0D01*
G01*
X16807500Y-15479250D02*
G75*
G03*
X16807500Y-15479250I-87500J0D01*
G01*
X16807500Y-17860500D02*
G75*
G03*
X16807500Y-17860500I-87500J0D01*
G01*
X16871000Y-19765500D02*
G75*
G03*
X16871000Y-19765500I-87500J0D01*
G01*
X16871000Y-25480500D02*
G75*
G03*
X16871000Y-25480500I-87500J0D01*
G01*
X17283750Y-23575500D02*
G75*
G03*
X17283750Y-23575500I-87500J0D01*
G01*
X17347250Y-21670500D02*
G75*
G03*
X17347250Y-21670500I-87500J0D01*
G01*
X17760000Y-19765500D02*
G75*
G03*
X17760000Y-19765500I-87500J0D01*
G01*
X17823500Y-15479250D02*
G75*
G03*
X17823500Y-15479250I-87500J0D01*
G01*
X17823500Y-17860500D02*
G75*
G03*
X17823500Y-17860500I-87500J0D01*
G01*
X17998125Y-25480500D02*
G75*
G03*
X17998125Y-25480500I-87500J0D01*
G01*
X18236250Y-21670500D02*
G75*
G03*
X18236250Y-21670500I-87500J0D01*
G01*
X18236250Y-25480500D02*
G75*
G03*
X18236250Y-25480500I-87500J0D01*
G01*
X18299750Y-23575500D02*
G75*
G03*
X18299750Y-23575500I-87500J0D01*
G01*
X18712500Y-15479250D02*
G75*
G03*
X18712500Y-15479250I-87500J0D01*
G01*
X18712500Y-17860500D02*
G75*
G03*
X18712500Y-17860500I-87500J0D01*
G01*
X18776000Y-19765500D02*
G75*
G03*
X18776000Y-19765500I-87500J0D01*
G01*
X19014125Y-25480500D02*
G75*
G03*
X19014125Y-25480500I-87500J0D01*
G01*
X19188750Y-23575500D02*
G75*
G03*
X19188750Y-23575500I-87500J0D01*
G01*
X19252250Y-21670500D02*
G75*
G03*
X19252250Y-21670500I-87500J0D01*
G01*
X19252250Y-25480500D02*
G75*
G03*
X19252250Y-25480500I-87500J0D01*
G01*
X19665000Y-19765500D02*
G75*
G03*
X19665000Y-19765500I-87500J0D01*
G01*
X19728500Y-15479250D02*
G75*
G03*
X19728500Y-15479250I-87500J0D01*
G01*
X19728500Y-17860500D02*
G75*
G03*
X19728500Y-17860500I-87500J0D01*
G01*
X20141250Y-21670500D02*
G75*
G03*
X20141250Y-21670500I-87500J0D01*
G01*
X20204750Y-23575500D02*
G75*
G03*
X20204750Y-23575500I-87500J0D01*
G01*
X20617500Y-15479250D02*
G75*
G03*
X20617500Y-15479250I-87500J0D01*
G01*
X20617500Y-17860500D02*
G75*
G03*
X20617500Y-17860500I-87500J0D01*
G01*
X20681000Y-19765500D02*
G75*
G03*
X20681000Y-19765500I-87500J0D01*
G01*
X21093750Y-23575500D02*
G75*
G03*
X21093750Y-23575500I-87500J0D01*
G01*
X21157250Y-21670500D02*
G75*
G03*
X21157250Y-21670500I-87500J0D01*
G01*
X21570000Y-19765500D02*
G75*
G03*
X21570000Y-19765500I-87500J0D01*
G01*
X21633500Y-15479250D02*
G75*
G03*
X21633500Y-15479250I-87500J0D01*
G01*
X21633500Y-17860500D02*
G75*
G03*
X21633500Y-17860500I-87500J0D01*
G01*
X22046250Y-21670500D02*
G75*
G03*
X22046250Y-21670500I-87500J0D01*
G01*
X22109750Y-23575500D02*
G75*
G03*
X22109750Y-23575500I-87500J0D01*
G01*
X22522500Y-15479250D02*
G75*
G03*
X22522500Y-15479250I-87500J0D01*
G01*
X22522500Y-17860500D02*
G75*
G03*
X22522500Y-17860500I-87500J0D01*
G01*
X22586000Y-19765500D02*
G75*
G03*
X22586000Y-19765500I-87500J0D01*
G01*
X22998750Y-23575500D02*
G75*
G03*
X22998750Y-23575500I-87500J0D01*
G01*
X23062250Y-21670500D02*
G75*
G03*
X23062250Y-21670500I-87500J0D01*
G01*
X23475000Y-19765500D02*
G75*
G03*
X23475000Y-19765500I-87500J0D01*
G01*
X23538500Y-15479250D02*
G75*
G03*
X23538500Y-15479250I-87500J0D01*
G01*
X23538500Y-17860500D02*
G75*
G03*
X23538500Y-17860500I-87500J0D01*
G01*
X23951250Y-21670500D02*
G75*
G03*
X23951250Y-21670500I-87500J0D01*
G01*
X24014750Y-23575500D02*
G75*
G03*
X24014750Y-23575500I-87500J0D01*
G01*
X24427500Y-17860500D02*
G75*
G03*
X24427500Y-17860500I-87500J0D01*
G01*
X24491000Y-19765500D02*
G75*
G03*
X24491000Y-19765500I-87500J0D01*
G01*
X24903750Y-23575500D02*
G75*
G03*
X24903750Y-23575500I-87500J0D01*
G01*
X24967250Y-21670500D02*
G75*
G03*
X24967250Y-21670500I-87500J0D01*
G01*
X25141875Y-25480500D02*
G75*
G03*
X25141875Y-25480500I-87500J0D01*
G01*
X25380000Y-15479250D02*
G75*
G03*
X25380000Y-15479250I-87500J0D01*
G01*
X25380000Y-19765500D02*
G75*
G03*
X25380000Y-19765500I-87500J0D01*
G01*
X25443500Y-17860500D02*
G75*
G03*
X25443500Y-17860500I-87500J0D01*
G01*
X25856250Y-21670500D02*
G75*
G03*
X25856250Y-21670500I-87500J0D01*
G01*
X25919750Y-23575500D02*
G75*
G03*
X25919750Y-23575500I-87500J0D01*
G01*
X26157875Y-25480500D02*
G75*
G03*
X26157875Y-25480500I-87500J0D01*
G01*
X26332500Y-17860500D02*
G75*
G03*
X26332500Y-17860500I-87500J0D01*
G01*
X26332500Y-25480500D02*
G75*
G03*
X26332500Y-25480500I-87500J0D01*
G01*
X26396000Y-15479250D02*
G75*
G03*
X26396000Y-15479250I-87500J0D01*
G01*
X26396000Y-19765500D02*
G75*
G03*
X26396000Y-19765500I-87500J0D01*
G01*
X26808750Y-23575500D02*
G75*
G03*
X26808750Y-23575500I-87500J0D01*
G01*
X26872250Y-21670500D02*
G75*
G03*
X26872250Y-21670500I-87500J0D01*
G01*
X27285000Y-15479250D02*
G75*
G03*
X27285000Y-15479250I-87500J0D01*
G01*
X27285000Y-19765500D02*
G75*
G03*
X27285000Y-19765500I-87500J0D01*
G01*
X27348500Y-17860500D02*
G75*
G03*
X27348500Y-17860500I-87500J0D01*
G01*
X27348500Y-25480500D02*
G75*
G03*
X27348500Y-25480500I-87500J0D01*
G01*
X27761250Y-21670500D02*
G75*
G03*
X27761250Y-21670500I-87500J0D01*
G01*
X27824750Y-23575500D02*
G75*
G03*
X27824750Y-23575500I-87500J0D01*
G01*
X28237500Y-17860500D02*
G75*
G03*
X28237500Y-17860500I-87500J0D01*
G01*
X28301000Y-15479250D02*
G75*
G03*
X28301000Y-15479250I-87500J0D01*
G01*
X28301000Y-19765500D02*
G75*
G03*
X28301000Y-19765500I-87500J0D01*
G01*
X28713750Y-23575500D02*
G75*
G03*
X28713750Y-23575500I-87500J0D01*
G01*
X28777250Y-21670500D02*
G75*
G03*
X28777250Y-21670500I-87500J0D01*
G01*
X29190000Y-15479250D02*
G75*
G03*
X29190000Y-15479250I-87500J0D01*
G01*
X29190000Y-19765500D02*
G75*
G03*
X29190000Y-19765500I-87500J0D01*
G01*
X29253500Y-17860500D02*
G75*
G03*
X29253500Y-17860500I-87500J0D01*
G01*
X29666250Y-21670500D02*
G75*
G03*
X29666250Y-21670500I-87500J0D01*
G01*
X29729750Y-23575500D02*
G75*
G03*
X29729750Y-23575500I-87500J0D01*
G01*
X30142500Y-17860500D02*
G75*
G03*
X30142500Y-17860500I-87500J0D01*
G01*
X30206000Y-15479250D02*
G75*
G03*
X30206000Y-15479250I-87500J0D01*
G01*
X30206000Y-19765500D02*
G75*
G03*
X30206000Y-19765500I-87500J0D01*
G01*
X30618750Y-23575500D02*
G75*
G03*
X30618750Y-23575500I-87500J0D01*
G01*
X30682250Y-21670500D02*
G75*
G03*
X30682250Y-21670500I-87500J0D01*
G01*
X31095000Y-15479250D02*
G75*
G03*
X31095000Y-15479250I-87500J0D01*
G01*
X31095000Y-19765500D02*
G75*
G03*
X31095000Y-19765500I-87500J0D01*
G01*
X31158500Y-17860500D02*
G75*
G03*
X31158500Y-17860500I-87500J0D01*
G01*
X31571250Y-21670500D02*
G75*
G03*
X31571250Y-21670500I-87500J0D01*
G01*
X31634750Y-23575500D02*
G75*
G03*
X31634750Y-23575500I-87500J0D01*
G01*
X32047500Y-17860500D02*
G75*
G03*
X32047500Y-17860500I-87500J0D01*
G01*
X32111000Y-15479250D02*
G75*
G03*
X32111000Y-15479250I-87500J0D01*
G01*
X32111000Y-19765500D02*
G75*
G03*
X32111000Y-19765500I-87500J0D01*
G01*
X32285625Y-25480500D02*
G75*
G03*
X32285625Y-25480500I-87500J0D01*
G01*
X32523750Y-23575500D02*
G75*
G03*
X32523750Y-23575500I-87500J0D01*
G01*
X32587250Y-21670500D02*
G75*
G03*
X32587250Y-21670500I-87500J0D01*
G01*
X33000000Y-19765500D02*
G75*
G03*
X33000000Y-19765500I-87500J0D01*
G01*
X33063500Y-17860500D02*
G75*
G03*
X33063500Y-17860500I-87500J0D01*
G01*
X33301625Y-25480500D02*
G75*
G03*
X33301625Y-25480500I-87500J0D01*
G01*
X33476250Y-21670500D02*
G75*
G03*
X33476250Y-21670500I-87500J0D01*
G01*
X33539750Y-23575500D02*
G75*
G03*
X33539750Y-23575500I-87500J0D01*
G01*
X33952500Y-15479250D02*
G75*
G03*
X33952500Y-15479250I-87500J0D01*
G01*
X33952500Y-17860500D02*
G75*
G03*
X33952500Y-17860500I-87500J0D01*
G01*
X34016000Y-19765500D02*
G75*
G03*
X34016000Y-19765500I-87500J0D01*
G01*
X34428750Y-23575500D02*
G75*
G03*
X34428750Y-23575500I-87500J0D01*
G01*
X34428750Y-25480500D02*
G75*
G03*
X34428750Y-25480500I-87500J0D01*
G01*
X34492250Y-21670500D02*
G75*
G03*
X34492250Y-21670500I-87500J0D01*
G01*
X34666875Y-25480500D02*
G75*
G03*
X34666875Y-25480500I-87500J0D01*
G01*
X34905000Y-19765500D02*
G75*
G03*
X34905000Y-19765500I-87500J0D01*
G01*
X34968500Y-15479250D02*
G75*
G03*
X34968500Y-15479250I-87500J0D01*
G01*
X34968500Y-17860500D02*
G75*
G03*
X34968500Y-17860500I-87500J0D01*
G01*
X35381250Y-21670500D02*
G75*
G03*
X35381250Y-21670500I-87500J0D01*
G01*
X35444750Y-23575500D02*
G75*
G03*
X35444750Y-23575500I-87500J0D01*
G01*
X35444750Y-25480500D02*
G75*
G03*
X35444750Y-25480500I-87500J0D01*
G01*
X35682875Y-25480500D02*
G75*
G03*
X35682875Y-25480500I-87500J0D01*
G01*
X35857500Y-15479250D02*
G75*
G03*
X35857500Y-15479250I-87500J0D01*
G01*
X35857500Y-17860500D02*
G75*
G03*
X35857500Y-17860500I-87500J0D01*
G01*
X35921000Y-19765500D02*
G75*
G03*
X35921000Y-19765500I-87500J0D01*
G01*
X36397250Y-21670500D02*
G75*
G03*
X36397250Y-21670500I-87500J0D01*
G01*
X36810000Y-19765500D02*
G75*
G03*
X36810000Y-19765500I-87500J0D01*
G01*
X36810000Y-25480500D02*
G75*
G03*
X36810000Y-25480500I-87500J0D01*
G01*
X36873500Y-15479250D02*
G75*
G03*
X36873500Y-15479250I-87500J0D01*
G01*
X36873500Y-17860500D02*
G75*
G03*
X36873500Y-17860500I-87500J0D01*
G01*
X37048125Y-23575500D02*
G75*
G03*
X37048125Y-23575500I-87500J0D01*
G01*
X37048125Y-25480500D02*
G75*
G03*
X37048125Y-25480500I-87500J0D01*
G01*
X37286250Y-21670500D02*
G75*
G03*
X37286250Y-21670500I-87500J0D01*
G01*
X37762500Y-15479250D02*
G75*
G03*
X37762500Y-15479250I-87500J0D01*
G01*
X37762500Y-17860500D02*
G75*
G03*
X37762500Y-17860500I-87500J0D01*
G01*
X37826000Y-19765500D02*
G75*
G03*
X37826000Y-19765500I-87500J0D01*
G01*
X37826000Y-25480500D02*
G75*
G03*
X37826000Y-25480500I-87500J0D01*
G01*
X38000625Y-23575500D02*
G75*
G03*
X38000625Y-23575500I-87500J0D01*
G01*
X38064125Y-23575500D02*
G75*
G03*
X38064125Y-23575500I-87500J0D01*
G01*
X38064125Y-25480500D02*
G75*
G03*
X38064125Y-25480500I-87500J0D01*
G01*
X38302250Y-21670500D02*
G75*
G03*
X38302250Y-21670500I-87500J0D01*
G01*
X38476875Y-21670500D02*
G75*
G03*
X38476875Y-21670500I-87500J0D01*
G01*
X38715000Y-17860500D02*
G75*
G03*
X38715000Y-17860500I-87500J0D01*
G01*
X38778500Y-15479250D02*
G75*
G03*
X38778500Y-15479250I-87500J0D01*
G01*
X38778500Y-17860500D02*
G75*
G03*
X38778500Y-17860500I-87500J0D01*
G01*
X39016625Y-23575500D02*
G75*
G03*
X39016625Y-23575500I-87500J0D01*
G01*
X39191250Y-19765500D02*
G75*
G03*
X39191250Y-19765500I-87500J0D01*
G01*
X39191250Y-25480500D02*
G75*
G03*
X39191250Y-25480500I-87500J0D01*
G01*
X39429375Y-25480500D02*
G75*
G03*
X39429375Y-25480500I-87500J0D01*
G01*
X39492875Y-21670500D02*
G75*
G03*
X39492875Y-21670500I-87500J0D01*
G01*
X39667500Y-15479250D02*
G75*
G03*
X39667500Y-15479250I-87500J0D01*
G01*
X39667500Y-17860500D02*
G75*
G03*
X39667500Y-17860500I-87500J0D01*
G01*
X39667500Y-23575500D02*
G75*
G03*
X39667500Y-23575500I-87500J0D01*
G01*
X39731000Y-17860500D02*
G75*
G03*
X39731000Y-17860500I-87500J0D01*
G01*
X39937375Y-20210000D02*
G75*
G03*
X39937375Y-20210000I-87500J0D01*
G01*
X39937375Y-21226000D02*
G75*
G03*
X39937375Y-21226000I-87500J0D01*
G01*
X40207250Y-19765500D02*
G75*
G03*
X40207250Y-19765500I-87500J0D01*
G01*
X40207250Y-25480500D02*
G75*
G03*
X40207250Y-25480500I-87500J0D01*
G01*
X40445375Y-25480500D02*
G75*
G03*
X40445375Y-25480500I-87500J0D01*
G01*
X40683500Y-15479250D02*
G75*
G03*
X40683500Y-15479250I-87500J0D01*
G01*
X40683500Y-17860500D02*
G75*
G03*
X40683500Y-17860500I-87500J0D01*
G01*
X40683500Y-23575500D02*
G75*
G03*
X40683500Y-23575500I-87500J0D01*
G01*
X42048750Y-15479250D02*
G75*
G03*
X42048750Y-15479250I-87500J0D01*
G01*
X42048750Y-17860500D02*
G75*
G03*
X42048750Y-17860500I-87500J0D01*
G01*
X42048750Y-19765500D02*
G75*
G03*
X42048750Y-19765500I-87500J0D01*
G01*
X42048750Y-25480500D02*
G75*
G03*
X42048750Y-25480500I-87500J0D01*
G01*
X43064750Y-15479250D02*
G75*
G03*
X43064750Y-15479250I-87500J0D01*
G01*
X43064750Y-17860500D02*
G75*
G03*
X43064750Y-17860500I-87500J0D01*
G01*
X43064750Y-19765500D02*
G75*
G03*
X43064750Y-19765500I-87500J0D01*
G01*
X43064750Y-25480500D02*
G75*
G03*
X43064750Y-25480500I-87500J0D01*
G01*
X43953750Y-15479250D02*
G75*
G03*
X43953750Y-15479250I-87500J0D01*
G01*
X43953750Y-17860500D02*
G75*
G03*
X43953750Y-17860500I-87500J0D01*
G01*
X43953750Y-23575500D02*
G75*
G03*
X43953750Y-23575500I-87500J0D01*
G01*
X43953750Y-25480500D02*
G75*
G03*
X43953750Y-25480500I-87500J0D01*
G01*
X43954500Y-19767000D02*
G75*
G03*
X43954500Y-19767000I-87500J0D01*
G01*
X44969750Y-15479250D02*
G75*
G03*
X44969750Y-15479250I-87500J0D01*
G01*
X44969750Y-17860500D02*
G75*
G03*
X44969750Y-17860500I-87500J0D01*
G01*
X44969750Y-23575500D02*
G75*
G03*
X44969750Y-23575500I-87500J0D01*
G01*
X44969750Y-25480500D02*
G75*
G03*
X44969750Y-25480500I-87500J0D01*
G01*
X44970500Y-19767000D02*
G75*
G03*
X44970500Y-19767000I-87500J0D01*
G01*
X45858750Y-15479250D02*
G75*
G03*
X45858750Y-15479250I-87500J0D01*
G01*
X45858750Y-17860500D02*
G75*
G03*
X45858750Y-17860500I-87500J0D01*
G01*
X45858750Y-19765500D02*
G75*
G03*
X45858750Y-19765500I-87500J0D01*
G01*
X45858750Y-25480500D02*
G75*
G03*
X45858750Y-25480500I-87500J0D01*
G01*
X46874750Y-15479250D02*
G75*
G03*
X46874750Y-15479250I-87500J0D01*
G01*
X46874750Y-17860500D02*
G75*
G03*
X46874750Y-17860500I-87500J0D01*
G01*
X46874750Y-19765500D02*
G75*
G03*
X46874750Y-19765500I-87500J0D01*
G01*
X46874750Y-25480500D02*
G75*
G03*
X46874750Y-25480500I-87500J0D01*
G01*
D14*
X13418000Y-22724600D02*
X13418000Y-23029400D01*
X13265600Y-22877000D02*
X13570400Y-22877000D01*
X15799250Y-22724600D02*
X15799250Y-23029400D01*
X15646850Y-22877000D02*
X15951650Y-22877000D01*
X20562385Y-26026600D02*
X20562385Y-26331400D01*
X20409985Y-26179000D02*
X20714785Y-26179000D01*
X21038000Y-26026600D02*
X21038000Y-26331400D01*
X20885600Y-26179000D02*
X21190400Y-26179000D01*
X30562365Y-26026600D02*
X30562365Y-26331400D01*
X30409965Y-26179000D02*
X30714765Y-26179000D01*
X32468000Y-26026600D02*
X32468000Y-26331400D01*
X32315600Y-26179000D02*
X32620400Y-26179000D01*
X37230500Y-22724600D02*
X37230500Y-23029400D01*
X37078100Y-22877000D02*
X37382900Y-22877000D01*
X37706750Y-20819600D02*
X37706750Y-21124400D01*
X37554350Y-20972000D02*
X37859150Y-20972000D01*
X37944875Y-17009600D02*
X37944875Y-17314400D01*
X37792475Y-17162000D02*
X38097275Y-17162000D01*
X39611750Y-22724600D02*
X39611750Y-23029400D01*
X39459350Y-22877000D02*
X39764150Y-22877000D01*
X40088000Y-20819600D02*
X40088000Y-21124400D01*
X39935600Y-20972000D02*
X40240400Y-20972000D01*
X40326125Y-17009600D02*
X40326125Y-17314400D01*
X40173725Y-17162000D02*
X40478525Y-17162000D01*
X40548375Y-19371800D02*
X40548375Y-19676600D01*
X40395975Y-19524200D02*
X40700775Y-19524200D01*
X40548375Y-21759400D02*
X40548375Y-22064200D01*
X40395975Y-21911800D02*
X40700775Y-21911800D01*
D15*
X13558991Y-15620241D02*
X13558991Y-15338259D01*
X13277009Y-15338259D01*
X13277009Y-15620241D01*
X13558991Y-15620241D01*
X13558991Y-18001491D02*
X13558991Y-17719509D01*
X13277009Y-17719509D01*
X13277009Y-18001491D01*
X13558991Y-18001491D01*
X13558991Y-24541991D02*
X13558991Y-24260009D01*
X13277009Y-24260009D01*
X13277009Y-24541991D01*
X13558991Y-24541991D01*
X13797116Y-21811491D02*
X13797116Y-21529509D01*
X13515134Y-21529509D01*
X13515134Y-21811491D01*
X13797116Y-21811491D01*
X13797116Y-23716491D02*
X13797116Y-23434509D01*
X13515134Y-23434509D01*
X13515134Y-23716491D01*
X13797116Y-23716491D01*
X13797116Y-25621491D02*
X13797116Y-25339509D01*
X13515134Y-25339509D01*
X13515134Y-25621491D01*
X13797116Y-25621491D01*
X14035241Y-19906491D02*
X14035241Y-19624509D01*
X13753259Y-19624509D01*
X13753259Y-19906491D01*
X14035241Y-19906491D01*
X14035241Y-25621491D02*
X14035241Y-25339509D01*
X13753259Y-25339509D01*
X13753259Y-25621491D01*
X14035241Y-25621491D01*
X14273366Y-21811491D02*
X14273366Y-21529509D01*
X13991384Y-21529509D01*
X13991384Y-21811491D01*
X14273366Y-21811491D01*
X14749616Y-23716491D02*
X14749616Y-23434509D01*
X14467634Y-23434509D01*
X14467634Y-23716491D01*
X14749616Y-23716491D01*
X15463991Y-18001491D02*
X15463991Y-17719509D01*
X15182009Y-17719509D01*
X15182009Y-18001491D01*
X15463991Y-18001491D01*
X15940241Y-23716491D02*
X15940241Y-23434509D01*
X15658259Y-23434509D01*
X15658259Y-23716491D01*
X15940241Y-23716491D01*
X15940241Y-24541991D02*
X15940241Y-24260009D01*
X15658259Y-24260009D01*
X15658259Y-24541991D01*
X15940241Y-24541991D01*
X16178366Y-25621491D02*
X16178366Y-25339509D01*
X15896384Y-25339509D01*
X15896384Y-25621491D01*
X16178366Y-25621491D01*
X16416491Y-19906491D02*
X16416491Y-19624509D01*
X16134509Y-19624509D01*
X16134509Y-19906491D01*
X16416491Y-19906491D01*
X16416491Y-25621491D02*
X16416491Y-25339509D01*
X16134509Y-25339509D01*
X16134509Y-25621491D01*
X16416491Y-25621491D01*
X16892741Y-21811491D02*
X16892741Y-21529509D01*
X16610759Y-21529509D01*
X16610759Y-21811491D01*
X16892741Y-21811491D01*
X17368991Y-15620241D02*
X17368991Y-15338259D01*
X17087009Y-15338259D01*
X17087009Y-15620241D01*
X17368991Y-15620241D01*
X17368991Y-18001491D02*
X17368991Y-17719509D01*
X17087009Y-17719509D01*
X17087009Y-18001491D01*
X17368991Y-18001491D01*
X17845241Y-23716491D02*
X17845241Y-23434509D01*
X17563259Y-23434509D01*
X17563259Y-23716491D01*
X17845241Y-23716491D01*
X18321491Y-19906491D02*
X18321491Y-19624509D01*
X18039509Y-19624509D01*
X18039509Y-19906491D01*
X18321491Y-19906491D01*
X18559616Y-25621491D02*
X18559616Y-25339509D01*
X18277634Y-25339509D01*
X18277634Y-25621491D01*
X18559616Y-25621491D01*
X18797741Y-21811491D02*
X18797741Y-21529509D01*
X18515759Y-21529509D01*
X18515759Y-21811491D01*
X18797741Y-21811491D01*
X18797741Y-25621491D02*
X18797741Y-25339509D01*
X18515759Y-25339509D01*
X18515759Y-25621491D01*
X18797741Y-25621491D01*
X19273991Y-15620241D02*
X19273991Y-15338259D01*
X18992009Y-15338259D01*
X18992009Y-15620241D01*
X19273991Y-15620241D01*
X19273991Y-18001491D02*
X19273991Y-17719509D01*
X18992009Y-17719509D01*
X18992009Y-18001491D01*
X19273991Y-18001491D01*
X19750241Y-23716491D02*
X19750241Y-23434509D01*
X19468259Y-23434509D01*
X19468259Y-23716491D01*
X19750241Y-23716491D01*
X20226491Y-19906491D02*
X20226491Y-19624509D01*
X19944509Y-19624509D01*
X19944509Y-19906491D01*
X20226491Y-19906491D01*
X20702741Y-21811491D02*
X20702741Y-21529509D01*
X20420759Y-21529509D01*
X20420759Y-21811491D01*
X20702741Y-21811491D01*
X20703376Y-24795991D02*
X20703376Y-24514009D01*
X20421394Y-24514009D01*
X20421394Y-24795991D01*
X20703376Y-24795991D01*
X21178991Y-15620241D02*
X21178991Y-15338259D01*
X20897009Y-15338259D01*
X20897009Y-15620241D01*
X21178991Y-15620241D01*
X21178991Y-18001491D02*
X21178991Y-17719509D01*
X20897009Y-17719509D01*
X20897009Y-18001491D01*
X21178991Y-18001491D01*
X21178991Y-24795991D02*
X21178991Y-24514009D01*
X20897009Y-24514009D01*
X20897009Y-24795991D01*
X21178991Y-24795991D01*
X21655241Y-23716491D02*
X21655241Y-23434509D01*
X21373259Y-23434509D01*
X21373259Y-23716491D01*
X21655241Y-23716491D01*
X22131491Y-19906491D02*
X22131491Y-19624509D01*
X21849509Y-19624509D01*
X21849509Y-19906491D01*
X22131491Y-19906491D01*
X22607741Y-21811491D02*
X22607741Y-21529509D01*
X22325759Y-21529509D01*
X22325759Y-21811491D01*
X22607741Y-21811491D01*
X23083991Y-15620241D02*
X23083991Y-15338259D01*
X22802009Y-15338259D01*
X22802009Y-15620241D01*
X23083991Y-15620241D01*
X23083991Y-18001491D02*
X23083991Y-17719509D01*
X22802009Y-17719509D01*
X22802009Y-18001491D01*
X23083991Y-18001491D01*
X23560241Y-23716491D02*
X23560241Y-23434509D01*
X23278259Y-23434509D01*
X23278259Y-23716491D01*
X23560241Y-23716491D01*
X24036491Y-19906491D02*
X24036491Y-19624509D01*
X23754509Y-19624509D01*
X23754509Y-19906491D01*
X24036491Y-19906491D01*
X24512741Y-21811491D02*
X24512741Y-21529509D01*
X24230759Y-21529509D01*
X24230759Y-21811491D01*
X24512741Y-21811491D01*
X24988991Y-18001491D02*
X24988991Y-17719509D01*
X24707009Y-17719509D01*
X24707009Y-18001491D01*
X24988991Y-18001491D01*
X25465241Y-23716491D02*
X25465241Y-23434509D01*
X25183259Y-23434509D01*
X25183259Y-23716491D01*
X25465241Y-23716491D01*
X25703366Y-25621491D02*
X25703366Y-25339509D01*
X25421384Y-25339509D01*
X25421384Y-25621491D01*
X25703366Y-25621491D01*
X25941491Y-15620241D02*
X25941491Y-15338259D01*
X25659509Y-15338259D01*
X25659509Y-15620241D01*
X25941491Y-15620241D01*
X25941491Y-19906491D02*
X25941491Y-19624509D01*
X25659509Y-19624509D01*
X25659509Y-19906491D01*
X25941491Y-19906491D01*
X26417741Y-21811491D02*
X26417741Y-21529509D01*
X26135759Y-21529509D01*
X26135759Y-21811491D01*
X26417741Y-21811491D01*
X26893991Y-18001491D02*
X26893991Y-17719509D01*
X26612009Y-17719509D01*
X26612009Y-18001491D01*
X26893991Y-18001491D01*
X26893991Y-25621491D02*
X26893991Y-25339509D01*
X26612009Y-25339509D01*
X26612009Y-25621491D01*
X26893991Y-25621491D01*
X27370241Y-23716491D02*
X27370241Y-23434509D01*
X27088259Y-23434509D01*
X27088259Y-23716491D01*
X27370241Y-23716491D01*
X27846491Y-15620241D02*
X27846491Y-15338259D01*
X27564509Y-15338259D01*
X27564509Y-15620241D01*
X27846491Y-15620241D01*
X27846491Y-19906491D02*
X27846491Y-19624509D01*
X27564509Y-19624509D01*
X27564509Y-19906491D01*
X27846491Y-19906491D01*
X28322741Y-21811491D02*
X28322741Y-21529509D01*
X28040759Y-21529509D01*
X28040759Y-21811491D01*
X28322741Y-21811491D01*
X28798991Y-18001491D02*
X28798991Y-17719509D01*
X28517009Y-17719509D01*
X28517009Y-18001491D01*
X28798991Y-18001491D01*
X29275241Y-23716491D02*
X29275241Y-23434509D01*
X28993259Y-23434509D01*
X28993259Y-23716491D01*
X29275241Y-23716491D01*
X29751491Y-15620241D02*
X29751491Y-15338259D01*
X29469509Y-15338259D01*
X29469509Y-15620241D01*
X29751491Y-15620241D01*
X29751491Y-19906491D02*
X29751491Y-19624509D01*
X29469509Y-19624509D01*
X29469509Y-19906491D01*
X29751491Y-19906491D01*
X30227741Y-21811491D02*
X30227741Y-21529509D01*
X29945759Y-21529509D01*
X29945759Y-21811491D01*
X30227741Y-21811491D01*
X30703356Y-24795991D02*
X30703356Y-24514009D01*
X30421374Y-24514009D01*
X30421374Y-24795991D01*
X30703356Y-24795991D01*
X30703991Y-18001491D02*
X30703991Y-17719509D01*
X30422009Y-17719509D01*
X30422009Y-18001491D01*
X30703991Y-18001491D01*
X31180241Y-23716491D02*
X31180241Y-23434509D01*
X30898259Y-23434509D01*
X30898259Y-23716491D01*
X31180241Y-23716491D01*
X31656491Y-15620241D02*
X31656491Y-15338259D01*
X31374509Y-15338259D01*
X31374509Y-15620241D01*
X31656491Y-15620241D01*
X31656491Y-19906491D02*
X31656491Y-19624509D01*
X31374509Y-19624509D01*
X31374509Y-19906491D01*
X31656491Y-19906491D01*
X32132741Y-21811491D02*
X32132741Y-21529509D01*
X31850759Y-21529509D01*
X31850759Y-21811491D01*
X32132741Y-21811491D01*
X32608991Y-18001491D02*
X32608991Y-17719509D01*
X32327009Y-17719509D01*
X32327009Y-18001491D01*
X32608991Y-18001491D01*
X32608991Y-24795991D02*
X32608991Y-24514009D01*
X32327009Y-24514009D01*
X32327009Y-24795991D01*
X32608991Y-24795991D01*
X32847116Y-25621491D02*
X32847116Y-25339509D01*
X32565134Y-25339509D01*
X32565134Y-25621491D01*
X32847116Y-25621491D01*
X33085241Y-23716491D02*
X33085241Y-23434509D01*
X32803259Y-23434509D01*
X32803259Y-23716491D01*
X33085241Y-23716491D01*
X33561491Y-19906491D02*
X33561491Y-19624509D01*
X33279509Y-19624509D01*
X33279509Y-19906491D01*
X33561491Y-19906491D01*
X34037741Y-21811491D02*
X34037741Y-21529509D01*
X33755759Y-21529509D01*
X33755759Y-21811491D01*
X34037741Y-21811491D01*
X34513991Y-15620241D02*
X34513991Y-15338259D01*
X34232009Y-15338259D01*
X34232009Y-15620241D01*
X34513991Y-15620241D01*
X34513991Y-18001491D02*
X34513991Y-17719509D01*
X34232009Y-17719509D01*
X34232009Y-18001491D01*
X34513991Y-18001491D01*
X34990241Y-23716491D02*
X34990241Y-23434509D01*
X34708259Y-23434509D01*
X34708259Y-23716491D01*
X34990241Y-23716491D01*
X34990241Y-25621491D02*
X34990241Y-25339509D01*
X34708259Y-25339509D01*
X34708259Y-25621491D01*
X34990241Y-25621491D01*
X35228366Y-25621491D02*
X35228366Y-25339509D01*
X34946384Y-25339509D01*
X34946384Y-25621491D01*
X35228366Y-25621491D01*
X35466491Y-19906491D02*
X35466491Y-19624509D01*
X35184509Y-19624509D01*
X35184509Y-19906491D01*
X35466491Y-19906491D01*
X35942741Y-21811491D02*
X35942741Y-21529509D01*
X35660759Y-21529509D01*
X35660759Y-21811491D01*
X35942741Y-21811491D01*
X36418991Y-15620241D02*
X36418991Y-15338259D01*
X36137009Y-15338259D01*
X36137009Y-15620241D01*
X36418991Y-15620241D01*
X36418991Y-18001491D02*
X36418991Y-17719509D01*
X36137009Y-17719509D01*
X36137009Y-18001491D01*
X36418991Y-18001491D01*
X37371491Y-19906491D02*
X37371491Y-19624509D01*
X37089509Y-19624509D01*
X37089509Y-19906491D01*
X37371491Y-19906491D01*
X37371491Y-24541991D02*
X37371491Y-24260009D01*
X37089509Y-24260009D01*
X37089509Y-24541991D01*
X37371491Y-24541991D01*
X37371491Y-25621491D02*
X37371491Y-25339509D01*
X37089509Y-25339509D01*
X37089509Y-25621491D01*
X37371491Y-25621491D01*
X37609616Y-23716491D02*
X37609616Y-23434509D01*
X37327634Y-23434509D01*
X37327634Y-23716491D01*
X37609616Y-23716491D01*
X37609616Y-25621491D02*
X37609616Y-25339509D01*
X37327634Y-25339509D01*
X37327634Y-25621491D01*
X37609616Y-25621491D01*
X37847741Y-21811491D02*
X37847741Y-21529509D01*
X37565759Y-21529509D01*
X37565759Y-21811491D01*
X37847741Y-21811491D01*
X37847741Y-22636991D02*
X37847741Y-22355009D01*
X37565759Y-22355009D01*
X37565759Y-22636991D01*
X37847741Y-22636991D01*
X38085866Y-18826991D02*
X38085866Y-18545009D01*
X37803884Y-18545009D01*
X37803884Y-18826991D01*
X38085866Y-18826991D01*
X38323991Y-15620241D02*
X38323991Y-15338259D01*
X38042009Y-15338259D01*
X38042009Y-15620241D01*
X38323991Y-15620241D01*
X38323991Y-18001491D02*
X38323991Y-17719509D01*
X38042009Y-17719509D01*
X38042009Y-18001491D01*
X38323991Y-18001491D01*
X38562116Y-23716491D02*
X38562116Y-23434509D01*
X38280134Y-23434509D01*
X38280134Y-23716491D01*
X38562116Y-23716491D01*
X39038366Y-21811491D02*
X39038366Y-21529509D01*
X38756384Y-21529509D01*
X38756384Y-21811491D01*
X39038366Y-21811491D01*
X39165366Y-19665191D02*
X39165366Y-19383209D01*
X38883384Y-19383209D01*
X38883384Y-19665191D01*
X39165366Y-19665191D01*
X39165366Y-22052791D02*
X39165366Y-21770809D01*
X38883384Y-21770809D01*
X38883384Y-22052791D01*
X39165366Y-22052791D01*
X39276491Y-18001491D02*
X39276491Y-17719509D01*
X38994509Y-17719509D01*
X38994509Y-18001491D01*
X39276491Y-18001491D01*
X39752741Y-19906491D02*
X39752741Y-19624509D01*
X39470759Y-19624509D01*
X39470759Y-19906491D01*
X39752741Y-19906491D01*
X39752741Y-24541991D02*
X39752741Y-24260009D01*
X39470759Y-24260009D01*
X39470759Y-24541991D01*
X39752741Y-24541991D01*
X39752741Y-25621491D02*
X39752741Y-25339509D01*
X39470759Y-25339509D01*
X39470759Y-25621491D01*
X39752741Y-25621491D01*
X39990866Y-20858991D02*
X39990866Y-20577009D01*
X39708884Y-20577009D01*
X39708884Y-20858991D01*
X39990866Y-20858991D01*
X39990866Y-25621491D02*
X39990866Y-25339509D01*
X39708884Y-25339509D01*
X39708884Y-25621491D01*
X39990866Y-25621491D01*
X40228991Y-15620241D02*
X40228991Y-15338259D01*
X39947009Y-15338259D01*
X39947009Y-15620241D01*
X40228991Y-15620241D01*
X40228991Y-18001491D02*
X40228991Y-17719509D01*
X39947009Y-17719509D01*
X39947009Y-18001491D01*
X40228991Y-18001491D01*
X40228991Y-22636991D02*
X40228991Y-22355009D01*
X39947009Y-22355009D01*
X39947009Y-22636991D01*
X40228991Y-22636991D01*
X40228991Y-23716491D02*
X40228991Y-23434509D01*
X39947009Y-23434509D01*
X39947009Y-23716491D01*
X40228991Y-23716491D01*
X40467116Y-18826991D02*
X40467116Y-18545009D01*
X40185134Y-18545009D01*
X40185134Y-18826991D01*
X40467116Y-18826991D01*
X42610241Y-15620241D02*
X42610241Y-15338259D01*
X42328259Y-15338259D01*
X42328259Y-15620241D01*
X42610241Y-15620241D01*
X42610241Y-18001491D02*
X42610241Y-17719509D01*
X42328259Y-17719509D01*
X42328259Y-18001491D01*
X42610241Y-18001491D01*
X42610241Y-19906491D02*
X42610241Y-19624509D01*
X42328259Y-19624509D01*
X42328259Y-19906491D01*
X42610241Y-19906491D01*
X42610241Y-25621491D02*
X42610241Y-25339509D01*
X42328259Y-25339509D01*
X42328259Y-25621491D01*
X42610241Y-25621491D01*
X44515241Y-15620241D02*
X44515241Y-15338259D01*
X44233259Y-15338259D01*
X44233259Y-15620241D01*
X44515241Y-15620241D01*
X44515241Y-18001491D02*
X44515241Y-17719509D01*
X44233259Y-17719509D01*
X44233259Y-18001491D01*
X44515241Y-18001491D01*
X44515241Y-23716491D02*
X44515241Y-23434509D01*
X44233259Y-23434509D01*
X44233259Y-23716491D01*
X44515241Y-23716491D01*
X44515241Y-25621491D02*
X44515241Y-25339509D01*
X44233259Y-25339509D01*
X44233259Y-25621491D01*
X44515241Y-25621491D01*
X44515991Y-19907991D02*
X44515991Y-19626009D01*
X44234009Y-19626009D01*
X44234009Y-19907991D01*
X44515991Y-19907991D01*
X46420241Y-15620241D02*
X46420241Y-15338259D01*
X46138259Y-15338259D01*
X46138259Y-15620241D01*
X46420241Y-15620241D01*
X46420241Y-18001491D02*
X46420241Y-17719509D01*
X46138259Y-17719509D01*
X46138259Y-18001491D01*
X46420241Y-18001491D01*
X46420241Y-19906491D02*
X46420241Y-19624509D01*
X46138259Y-19624509D01*
X46138259Y-19906491D01*
X46420241Y-19906491D01*
X46420241Y-25621491D02*
X46420241Y-25339509D01*
X46138259Y-25339509D01*
X46138259Y-25621491D01*
X46420241Y-25621491D01*
D11*
X12911556Y-26594726D02*
X12911556Y-26394726D01*
X12959175Y-26394726D01*
X12987747Y-26404250D01*
X13006795Y-26423298D01*
X13016318Y-26442345D01*
X13025842Y-26480440D01*
X13025842Y-26509012D01*
X13016318Y-26547107D01*
X13006795Y-26566155D01*
X12987747Y-26585202D01*
X12959175Y-26594726D01*
X12911556Y-26594726D01*
X13111556Y-26594726D02*
X13111556Y-26461393D01*
X13111556Y-26499488D02*
X13121080Y-26480440D01*
X13130604Y-26470917D01*
X13149652Y-26461393D01*
X13168699Y-26461393D01*
X13235366Y-26594726D02*
X13235366Y-26461393D01*
X13235366Y-26394726D02*
X13225842Y-26404250D01*
X13235366Y-26413774D01*
X13244890Y-26404250D01*
X13235366Y-26394726D01*
X13235366Y-26413774D01*
X13359175Y-26594726D02*
X13340128Y-26585202D01*
X13330604Y-26566155D01*
X13330604Y-26394726D01*
X13463937Y-26594726D02*
X13444890Y-26585202D01*
X13435366Y-26566155D01*
X13435366Y-26394726D01*
X13692509Y-26594726D02*
X13692509Y-26394726D01*
X13759175Y-26537583D01*
X13825842Y-26394726D01*
X13825842Y-26594726D01*
X14006795Y-26594726D02*
X14006795Y-26489964D01*
X13997271Y-26470917D01*
X13978223Y-26461393D01*
X13940128Y-26461393D01*
X13921080Y-26470917D01*
X14006795Y-26585202D02*
X13987747Y-26594726D01*
X13940128Y-26594726D01*
X13921080Y-26585202D01*
X13911556Y-26566155D01*
X13911556Y-26547107D01*
X13921080Y-26528059D01*
X13940128Y-26518536D01*
X13987747Y-26518536D01*
X14006795Y-26509012D01*
X14102033Y-26461393D02*
X14102033Y-26661393D01*
X14102033Y-26470917D02*
X14121080Y-26461393D01*
X14159175Y-26461393D01*
X14178223Y-26470917D01*
X14187747Y-26480440D01*
X14197271Y-26499488D01*
X14197271Y-26556631D01*
X14187747Y-26575678D01*
X14178223Y-26585202D01*
X14159175Y-26594726D01*
X14121080Y-26594726D01*
X14102033Y-26585202D01*
X14282985Y-26575678D02*
X14292509Y-26585202D01*
X14282985Y-26594726D01*
X14273461Y-26585202D01*
X14282985Y-26575678D01*
X14282985Y-26594726D01*
X14282985Y-26470917D02*
X14292509Y-26480440D01*
X14282985Y-26489964D01*
X14273461Y-26480440D01*
X14282985Y-26470917D01*
X14282985Y-26489964D01*
D12*
X12588937Y-26891750D02*
X12653937Y-26956750D01*
X12653937Y-26891750D02*
X12588937Y-26956750D01*
D11*
X12949652Y-26814726D02*
X12968699Y-26814726D01*
X12987747Y-26824250D01*
X12997271Y-26833774D01*
X13006795Y-26852821D01*
X13016318Y-26890917D01*
X13016318Y-26938536D01*
X13006795Y-26976631D01*
X12997271Y-26995678D01*
X12987747Y-27005202D01*
X12968699Y-27014726D01*
X12949652Y-27014726D01*
X12930604Y-27005202D01*
X12921080Y-26995678D01*
X12911556Y-26976631D01*
X12902033Y-26938536D01*
X12902033Y-26890917D01*
X12911556Y-26852821D01*
X12921080Y-26833774D01*
X12930604Y-26824250D01*
X12949652Y-26814726D01*
X13102033Y-26995678D02*
X13111556Y-27005202D01*
X13102033Y-27014726D01*
X13092509Y-27005202D01*
X13102033Y-26995678D01*
X13102033Y-27014726D01*
X13282985Y-26814726D02*
X13244890Y-26814726D01*
X13225842Y-26824250D01*
X13216318Y-26833774D01*
X13197271Y-26862345D01*
X13187747Y-26900440D01*
X13187747Y-26976631D01*
X13197271Y-26995678D01*
X13206795Y-27005202D01*
X13225842Y-27014726D01*
X13263937Y-27014726D01*
X13282985Y-27005202D01*
X13292509Y-26995678D01*
X13302033Y-26976631D01*
X13302033Y-26929012D01*
X13292509Y-26909964D01*
X13282985Y-26900440D01*
X13263937Y-26890917D01*
X13225842Y-26890917D01*
X13206795Y-26900440D01*
X13197271Y-26909964D01*
X13187747Y-26929012D01*
X13482985Y-26814726D02*
X13387747Y-26814726D01*
X13378223Y-26909964D01*
X13387747Y-26900440D01*
X13406795Y-26890917D01*
X13454414Y-26890917D01*
X13473461Y-26900440D01*
X13482985Y-26909964D01*
X13492509Y-26929012D01*
X13492509Y-26976631D01*
X13482985Y-26995678D01*
X13473461Y-27005202D01*
X13454414Y-27014726D01*
X13406795Y-27014726D01*
X13387747Y-27005202D01*
X13378223Y-26995678D01*
X13616318Y-26814726D02*
X13635366Y-26814726D01*
X13654414Y-26824250D01*
X13663937Y-26833774D01*
X13673461Y-26852821D01*
X13682985Y-26890917D01*
X13682985Y-26938536D01*
X13673461Y-26976631D01*
X13663937Y-26995678D01*
X13654414Y-27005202D01*
X13635366Y-27014726D01*
X13616318Y-27014726D01*
X13597271Y-27005202D01*
X13587747Y-26995678D01*
X13578223Y-26976631D01*
X13568699Y-26938536D01*
X13568699Y-26890917D01*
X13578223Y-26852821D01*
X13587747Y-26833774D01*
X13597271Y-26824250D01*
X13616318Y-26814726D01*
X13768699Y-27014726D02*
X13768699Y-26881393D01*
X13768699Y-26900440D02*
X13778223Y-26890917D01*
X13797271Y-26881393D01*
X13825842Y-26881393D01*
X13844890Y-26890917D01*
X13854414Y-26909964D01*
X13854414Y-27014726D01*
X13854414Y-26909964D02*
X13863937Y-26890917D01*
X13882985Y-26881393D01*
X13911556Y-26881393D01*
X13930604Y-26890917D01*
X13940128Y-26909964D01*
X13940128Y-27014726D01*
X14035366Y-27014726D02*
X14035366Y-26881393D01*
X14035366Y-26900440D02*
X14044890Y-26890917D01*
X14063937Y-26881393D01*
X14092509Y-26881393D01*
X14111556Y-26890917D01*
X14121080Y-26909964D01*
X14121080Y-27014726D01*
X14121080Y-26909964D02*
X14130604Y-26890917D01*
X14149652Y-26881393D01*
X14178223Y-26881393D01*
X14197271Y-26890917D01*
X14206795Y-26909964D01*
X14206795Y-27014726D01*
X14597271Y-26805202D02*
X14425842Y-27062345D01*
X14854414Y-26814726D02*
X14873461Y-26814726D01*
X14892509Y-26824250D01*
X14902033Y-26833774D01*
X14911556Y-26852821D01*
X14921080Y-26890917D01*
X14921080Y-26938536D01*
X14911556Y-26976631D01*
X14902033Y-26995678D01*
X14892509Y-27005202D01*
X14873461Y-27014726D01*
X14854414Y-27014726D01*
X14835366Y-27005202D01*
X14825842Y-26995678D01*
X14816318Y-26976631D01*
X14806795Y-26938536D01*
X14806795Y-26890917D01*
X14816318Y-26852821D01*
X14825842Y-26833774D01*
X14835366Y-26824250D01*
X14854414Y-26814726D01*
X15006795Y-26995678D02*
X15016318Y-27005202D01*
X15006795Y-27014726D01*
X14997271Y-27005202D01*
X15006795Y-26995678D01*
X15006795Y-27014726D01*
X15140128Y-26814726D02*
X15159175Y-26814726D01*
X15178223Y-26824250D01*
X15187747Y-26833774D01*
X15197271Y-26852821D01*
X15206795Y-26890917D01*
X15206795Y-26938536D01*
X15197271Y-26976631D01*
X15187747Y-26995678D01*
X15178223Y-27005202D01*
X15159175Y-27014726D01*
X15140128Y-27014726D01*
X15121080Y-27005202D01*
X15111556Y-26995678D01*
X15102033Y-26976631D01*
X15092509Y-26938536D01*
X15092509Y-26890917D01*
X15102033Y-26852821D01*
X15111556Y-26833774D01*
X15121080Y-26824250D01*
X15140128Y-26814726D01*
X15282985Y-26833774D02*
X15292509Y-26824250D01*
X15311556Y-26814726D01*
X15359175Y-26814726D01*
X15378223Y-26824250D01*
X15387747Y-26833774D01*
X15397271Y-26852821D01*
X15397271Y-26871869D01*
X15387747Y-26900440D01*
X15273461Y-27014726D01*
X15397271Y-27014726D01*
X15578223Y-26814726D02*
X15482985Y-26814726D01*
X15473461Y-26909964D01*
X15482985Y-26900440D01*
X15502033Y-26890917D01*
X15549652Y-26890917D01*
X15568699Y-26900440D01*
X15578223Y-26909964D01*
X15587747Y-26929012D01*
X15587747Y-26976631D01*
X15578223Y-26995678D01*
X15568699Y-27005202D01*
X15549652Y-27014726D01*
X15502033Y-27014726D01*
X15482985Y-27005202D01*
X15473461Y-26995678D01*
X15759175Y-26814726D02*
X15721080Y-26814726D01*
X15702033Y-26824250D01*
X15692509Y-26833774D01*
X15673461Y-26862345D01*
X15663937Y-26900440D01*
X15663937Y-26976631D01*
X15673461Y-26995678D01*
X15682985Y-27005202D01*
X15702033Y-27014726D01*
X15740128Y-27014726D01*
X15759175Y-27005202D01*
X15768699Y-26995678D01*
X15778223Y-26976631D01*
X15778223Y-26929012D01*
X15768699Y-26909964D01*
X15759175Y-26900440D01*
X15740128Y-26890917D01*
X15702033Y-26890917D01*
X15682985Y-26900440D01*
X15673461Y-26909964D01*
X15663937Y-26929012D01*
X15854414Y-26814726D02*
X15854414Y-26852821D01*
X15930604Y-26814726D02*
X15930604Y-26852821D01*
X16225842Y-27090917D02*
X16216318Y-27081393D01*
X16197271Y-27052821D01*
X16187747Y-27033774D01*
X16178223Y-27005202D01*
X16168699Y-26957583D01*
X16168699Y-26919488D01*
X16178223Y-26871869D01*
X16187747Y-26843298D01*
X16197271Y-26824250D01*
X16216318Y-26795678D01*
X16225842Y-26786155D01*
X16292509Y-26833774D02*
X16302033Y-26824250D01*
X16321080Y-26814726D01*
X16368699Y-26814726D01*
X16387747Y-26824250D01*
X16397271Y-26833774D01*
X16406795Y-26852821D01*
X16406795Y-26871869D01*
X16397271Y-26900440D01*
X16282985Y-27014726D01*
X16406795Y-27014726D01*
X16644890Y-27014726D02*
X16644890Y-26814726D01*
X16730604Y-27014726D02*
X16730604Y-26909964D01*
X16721080Y-26890917D01*
X16702033Y-26881393D01*
X16673461Y-26881393D01*
X16654414Y-26890917D01*
X16644890Y-26900440D01*
X16854414Y-27014726D02*
X16835366Y-27005202D01*
X16825842Y-26995678D01*
X16816318Y-26976631D01*
X16816318Y-26919488D01*
X16825842Y-26900440D01*
X16835366Y-26890917D01*
X16854414Y-26881393D01*
X16882985Y-26881393D01*
X16902033Y-26890917D01*
X16911557Y-26900440D01*
X16921080Y-26919488D01*
X16921080Y-26976631D01*
X16911557Y-26995678D01*
X16902033Y-27005202D01*
X16882985Y-27014726D01*
X16854414Y-27014726D01*
X17035366Y-27014726D02*
X17016318Y-27005202D01*
X17006795Y-26986155D01*
X17006795Y-26814726D01*
X17187747Y-27005202D02*
X17168699Y-27014726D01*
X17130604Y-27014726D01*
X17111557Y-27005202D01*
X17102033Y-26986155D01*
X17102033Y-26909964D01*
X17111557Y-26890917D01*
X17130604Y-26881393D01*
X17168699Y-26881393D01*
X17187747Y-26890917D01*
X17197271Y-26909964D01*
X17197271Y-26929012D01*
X17102033Y-26948059D01*
X17273461Y-27005202D02*
X17292509Y-27014726D01*
X17330604Y-27014726D01*
X17349652Y-27005202D01*
X17359176Y-26986155D01*
X17359176Y-26976631D01*
X17349652Y-26957583D01*
X17330604Y-26948059D01*
X17302033Y-26948059D01*
X17282985Y-26938536D01*
X17273461Y-26919488D01*
X17273461Y-26909964D01*
X17282985Y-26890917D01*
X17302033Y-26881393D01*
X17330604Y-26881393D01*
X17349652Y-26890917D01*
X17425842Y-27090917D02*
X17435366Y-27081393D01*
X17454414Y-27052821D01*
X17463937Y-27033774D01*
X17473461Y-27005202D01*
X17482985Y-26957583D01*
X17482985Y-26919488D01*
X17473461Y-26871869D01*
X17463937Y-26843298D01*
X17454414Y-26824250D01*
X17435366Y-26795678D01*
X17425842Y-26786155D01*
X17787747Y-27090917D02*
X17778223Y-27081393D01*
X17759176Y-27052821D01*
X17749652Y-27033774D01*
X17740128Y-27005202D01*
X17730604Y-26957583D01*
X17730604Y-26919488D01*
X17740128Y-26871869D01*
X17749652Y-26843298D01*
X17759176Y-26824250D01*
X17778223Y-26795678D01*
X17787747Y-26786155D01*
X17863937Y-26881393D02*
X17863937Y-27014726D01*
X17863937Y-26900440D02*
X17873461Y-26890917D01*
X17892509Y-26881393D01*
X17921080Y-26881393D01*
X17940128Y-26890917D01*
X17949652Y-26909964D01*
X17949652Y-27014726D01*
X18073461Y-27014726D02*
X18054414Y-27005202D01*
X18044890Y-26995678D01*
X18035366Y-26976631D01*
X18035366Y-26919488D01*
X18044890Y-26900440D01*
X18054414Y-26890917D01*
X18073461Y-26881393D01*
X18102033Y-26881393D01*
X18121080Y-26890917D01*
X18130604Y-26900440D01*
X18140128Y-26919488D01*
X18140128Y-26976631D01*
X18130604Y-26995678D01*
X18121080Y-27005202D01*
X18102033Y-27014726D01*
X18073461Y-27014726D01*
X18197271Y-26881393D02*
X18273461Y-26881393D01*
X18225842Y-26814726D02*
X18225842Y-26986155D01*
X18235366Y-27005202D01*
X18254414Y-27014726D01*
X18273461Y-27014726D01*
X18492509Y-26881393D02*
X18492509Y-27081393D01*
X18492509Y-26890917D02*
X18511557Y-26881393D01*
X18549652Y-26881393D01*
X18568699Y-26890917D01*
X18578223Y-26900440D01*
X18587747Y-26919488D01*
X18587747Y-26976631D01*
X18578223Y-26995678D01*
X18568699Y-27005202D01*
X18549652Y-27014726D01*
X18511557Y-27014726D01*
X18492509Y-27005202D01*
X18702033Y-27014726D02*
X18682985Y-27005202D01*
X18673461Y-26986155D01*
X18673461Y-26814726D01*
X18863937Y-27014726D02*
X18863937Y-26909964D01*
X18854414Y-26890917D01*
X18835366Y-26881393D01*
X18797271Y-26881393D01*
X18778223Y-26890917D01*
X18863937Y-27005202D02*
X18844890Y-27014726D01*
X18797271Y-27014726D01*
X18778223Y-27005202D01*
X18768699Y-26986155D01*
X18768699Y-26967107D01*
X18778223Y-26948059D01*
X18797271Y-26938536D01*
X18844890Y-26938536D01*
X18863937Y-26929012D01*
X18930604Y-26881393D02*
X19006795Y-26881393D01*
X18959176Y-26814726D02*
X18959176Y-26986155D01*
X18968699Y-27005202D01*
X18987747Y-27014726D01*
X19006795Y-27014726D01*
X19149652Y-27005202D02*
X19130604Y-27014726D01*
X19092509Y-27014726D01*
X19073461Y-27005202D01*
X19063937Y-26986155D01*
X19063937Y-26909964D01*
X19073461Y-26890917D01*
X19092509Y-26881393D01*
X19130604Y-26881393D01*
X19149652Y-26890917D01*
X19159176Y-26909964D01*
X19159176Y-26929012D01*
X19063937Y-26948059D01*
X19330604Y-27014726D02*
X19330604Y-26814726D01*
X19330604Y-27005202D02*
X19311557Y-27014726D01*
X19273461Y-27014726D01*
X19254414Y-27005202D01*
X19244890Y-26995678D01*
X19235366Y-26976631D01*
X19235366Y-26919488D01*
X19244890Y-26900440D01*
X19254414Y-26890917D01*
X19273461Y-26881393D01*
X19311557Y-26881393D01*
X19330604Y-26890917D01*
X19406795Y-27090917D02*
X19416318Y-27081393D01*
X19435366Y-27052821D01*
X19444890Y-27033774D01*
X19454414Y-27005202D01*
X19463937Y-26957583D01*
X19463937Y-26919488D01*
X19454414Y-26871869D01*
X19444890Y-26843298D01*
X19435366Y-26824250D01*
X19416318Y-26795678D01*
X19406795Y-26786155D01*
D13*
X12653937Y-27188250D02*
G75*
G03*
X12653937Y-27188250I-87500J0D01*
G01*
D11*
X13016318Y-27278726D02*
X12902033Y-27278726D01*
X12959175Y-27278726D02*
X12959175Y-27078726D01*
X12940128Y-27107298D01*
X12921080Y-27126345D01*
X12902033Y-27135869D01*
X13102033Y-27259678D02*
X13111556Y-27269202D01*
X13102033Y-27278726D01*
X13092509Y-27269202D01*
X13102033Y-27259678D01*
X13102033Y-27278726D01*
X13178223Y-27078726D02*
X13311556Y-27078726D01*
X13225842Y-27278726D01*
X13482985Y-27078726D02*
X13387747Y-27078726D01*
X13378223Y-27173964D01*
X13387747Y-27164440D01*
X13406795Y-27154917D01*
X13454414Y-27154917D01*
X13473461Y-27164440D01*
X13482985Y-27173964D01*
X13492509Y-27193012D01*
X13492509Y-27240631D01*
X13482985Y-27259678D01*
X13473461Y-27269202D01*
X13454414Y-27278726D01*
X13406795Y-27278726D01*
X13387747Y-27269202D01*
X13378223Y-27259678D01*
X13616318Y-27078726D02*
X13635366Y-27078726D01*
X13654414Y-27088250D01*
X13663937Y-27097774D01*
X13673461Y-27116821D01*
X13682985Y-27154917D01*
X13682985Y-27202536D01*
X13673461Y-27240631D01*
X13663937Y-27259678D01*
X13654414Y-27269202D01*
X13635366Y-27278726D01*
X13616318Y-27278726D01*
X13597271Y-27269202D01*
X13587747Y-27259678D01*
X13578223Y-27240631D01*
X13568699Y-27202536D01*
X13568699Y-27154917D01*
X13578223Y-27116821D01*
X13587747Y-27097774D01*
X13597271Y-27088250D01*
X13616318Y-27078726D01*
X13768699Y-27278726D02*
X13768699Y-27145393D01*
X13768699Y-27164440D02*
X13778223Y-27154917D01*
X13797271Y-27145393D01*
X13825842Y-27145393D01*
X13844890Y-27154917D01*
X13854414Y-27173964D01*
X13854414Y-27278726D01*
X13854414Y-27173964D02*
X13863937Y-27154917D01*
X13882985Y-27145393D01*
X13911556Y-27145393D01*
X13930604Y-27154917D01*
X13940128Y-27173964D01*
X13940128Y-27278726D01*
X14035366Y-27278726D02*
X14035366Y-27145393D01*
X14035366Y-27164440D02*
X14044890Y-27154917D01*
X14063937Y-27145393D01*
X14092509Y-27145393D01*
X14111556Y-27154917D01*
X14121080Y-27173964D01*
X14121080Y-27278726D01*
X14121080Y-27173964D02*
X14130604Y-27154917D01*
X14149652Y-27145393D01*
X14178223Y-27145393D01*
X14197271Y-27154917D01*
X14206795Y-27173964D01*
X14206795Y-27278726D01*
X14597271Y-27069202D02*
X14425842Y-27326345D01*
X14854414Y-27078726D02*
X14873461Y-27078726D01*
X14892509Y-27088250D01*
X14902033Y-27097774D01*
X14911556Y-27116821D01*
X14921080Y-27154917D01*
X14921080Y-27202536D01*
X14911556Y-27240631D01*
X14902033Y-27259678D01*
X14892509Y-27269202D01*
X14873461Y-27278726D01*
X14854414Y-27278726D01*
X14835366Y-27269202D01*
X14825842Y-27259678D01*
X14816318Y-27240631D01*
X14806795Y-27202536D01*
X14806795Y-27154917D01*
X14816318Y-27116821D01*
X14825842Y-27097774D01*
X14835366Y-27088250D01*
X14854414Y-27078726D01*
X15006795Y-27259678D02*
X15016318Y-27269202D01*
X15006795Y-27278726D01*
X14997271Y-27269202D01*
X15006795Y-27259678D01*
X15006795Y-27278726D01*
X15140128Y-27078726D02*
X15159175Y-27078726D01*
X15178223Y-27088250D01*
X15187747Y-27097774D01*
X15197271Y-27116821D01*
X15206795Y-27154917D01*
X15206795Y-27202536D01*
X15197271Y-27240631D01*
X15187747Y-27259678D01*
X15178223Y-27269202D01*
X15159175Y-27278726D01*
X15140128Y-27278726D01*
X15121080Y-27269202D01*
X15111556Y-27259678D01*
X15102033Y-27240631D01*
X15092509Y-27202536D01*
X15092509Y-27154917D01*
X15102033Y-27116821D01*
X15111556Y-27097774D01*
X15121080Y-27088250D01*
X15140128Y-27078726D01*
X15378223Y-27078726D02*
X15340128Y-27078726D01*
X15321080Y-27088250D01*
X15311556Y-27097774D01*
X15292509Y-27126345D01*
X15282985Y-27164440D01*
X15282985Y-27240631D01*
X15292509Y-27259678D01*
X15302033Y-27269202D01*
X15321080Y-27278726D01*
X15359175Y-27278726D01*
X15378223Y-27269202D01*
X15387747Y-27259678D01*
X15397271Y-27240631D01*
X15397271Y-27193012D01*
X15387747Y-27173964D01*
X15378223Y-27164440D01*
X15359175Y-27154917D01*
X15321080Y-27154917D01*
X15302033Y-27164440D01*
X15292509Y-27173964D01*
X15282985Y-27193012D01*
X15511556Y-27164440D02*
X15492509Y-27154917D01*
X15482985Y-27145393D01*
X15473461Y-27126345D01*
X15473461Y-27116821D01*
X15482985Y-27097774D01*
X15492509Y-27088250D01*
X15511556Y-27078726D01*
X15549652Y-27078726D01*
X15568699Y-27088250D01*
X15578223Y-27097774D01*
X15587747Y-27116821D01*
X15587747Y-27126345D01*
X15578223Y-27145393D01*
X15568699Y-27154917D01*
X15549652Y-27164440D01*
X15511556Y-27164440D01*
X15492509Y-27173964D01*
X15482985Y-27183488D01*
X15473461Y-27202536D01*
X15473461Y-27240631D01*
X15482985Y-27259678D01*
X15492509Y-27269202D01*
X15511556Y-27278726D01*
X15549652Y-27278726D01*
X15568699Y-27269202D01*
X15578223Y-27259678D01*
X15587747Y-27240631D01*
X15587747Y-27202536D01*
X15578223Y-27183488D01*
X15568699Y-27173964D01*
X15549652Y-27164440D01*
X15682985Y-27278726D02*
X15721080Y-27278726D01*
X15740128Y-27269202D01*
X15749652Y-27259678D01*
X15768699Y-27231107D01*
X15778223Y-27193012D01*
X15778223Y-27116821D01*
X15768699Y-27097774D01*
X15759175Y-27088250D01*
X15740128Y-27078726D01*
X15702033Y-27078726D01*
X15682985Y-27088250D01*
X15673461Y-27097774D01*
X15663937Y-27116821D01*
X15663937Y-27164440D01*
X15673461Y-27183488D01*
X15682985Y-27193012D01*
X15702033Y-27202536D01*
X15740128Y-27202536D01*
X15759175Y-27193012D01*
X15768699Y-27183488D01*
X15778223Y-27164440D01*
X15854414Y-27078726D02*
X15854414Y-27116821D01*
X15930604Y-27078726D02*
X15930604Y-27116821D01*
X16225842Y-27354917D02*
X16216318Y-27345393D01*
X16197271Y-27316821D01*
X16187747Y-27297774D01*
X16178223Y-27269202D01*
X16168699Y-27221583D01*
X16168699Y-27183488D01*
X16178223Y-27135869D01*
X16187747Y-27107298D01*
X16197271Y-27088250D01*
X16216318Y-27059678D01*
X16225842Y-27050155D01*
X16292509Y-27097774D02*
X16302033Y-27088250D01*
X16321080Y-27078726D01*
X16368699Y-27078726D01*
X16387747Y-27088250D01*
X16397271Y-27097774D01*
X16406795Y-27116821D01*
X16406795Y-27135869D01*
X16397271Y-27164440D01*
X16282985Y-27278726D01*
X16406795Y-27278726D01*
X16530604Y-27078726D02*
X16549652Y-27078726D01*
X16568699Y-27088250D01*
X16578223Y-27097774D01*
X16587747Y-27116821D01*
X16597271Y-27154917D01*
X16597271Y-27202536D01*
X16587747Y-27240631D01*
X16578223Y-27259678D01*
X16568699Y-27269202D01*
X16549652Y-27278726D01*
X16530604Y-27278726D01*
X16511556Y-27269202D01*
X16502033Y-27259678D01*
X16492509Y-27240631D01*
X16482985Y-27202536D01*
X16482985Y-27154917D01*
X16492509Y-27116821D01*
X16502033Y-27097774D01*
X16511556Y-27088250D01*
X16530604Y-27078726D01*
X16768699Y-27078726D02*
X16730604Y-27078726D01*
X16711556Y-27088250D01*
X16702033Y-27097774D01*
X16682985Y-27126345D01*
X16673461Y-27164440D01*
X16673461Y-27240631D01*
X16682985Y-27259678D01*
X16692509Y-27269202D01*
X16711556Y-27278726D01*
X16749652Y-27278726D01*
X16768699Y-27269202D01*
X16778223Y-27259678D01*
X16787747Y-27240631D01*
X16787747Y-27193012D01*
X16778223Y-27173964D01*
X16768699Y-27164440D01*
X16749652Y-27154917D01*
X16711556Y-27154917D01*
X16692509Y-27164440D01*
X16682985Y-27173964D01*
X16673461Y-27193012D01*
X17025842Y-27278726D02*
X17025842Y-27078726D01*
X17111557Y-27278726D02*
X17111557Y-27173964D01*
X17102033Y-27154917D01*
X17082985Y-27145393D01*
X17054414Y-27145393D01*
X17035366Y-27154917D01*
X17025842Y-27164440D01*
X17235366Y-27278726D02*
X17216318Y-27269202D01*
X17206795Y-27259678D01*
X17197271Y-27240631D01*
X17197271Y-27183488D01*
X17206795Y-27164440D01*
X17216318Y-27154917D01*
X17235366Y-27145393D01*
X17263937Y-27145393D01*
X17282985Y-27154917D01*
X17292509Y-27164440D01*
X17302033Y-27183488D01*
X17302033Y-27240631D01*
X17292509Y-27259678D01*
X17282985Y-27269202D01*
X17263937Y-27278726D01*
X17235366Y-27278726D01*
X17416318Y-27278726D02*
X17397271Y-27269202D01*
X17387747Y-27250155D01*
X17387747Y-27078726D01*
X17568699Y-27269202D02*
X17549652Y-27278726D01*
X17511557Y-27278726D01*
X17492509Y-27269202D01*
X17482985Y-27250155D01*
X17482985Y-27173964D01*
X17492509Y-27154917D01*
X17511557Y-27145393D01*
X17549652Y-27145393D01*
X17568699Y-27154917D01*
X17578223Y-27173964D01*
X17578223Y-27193012D01*
X17482985Y-27212059D01*
X17654414Y-27269202D02*
X17673461Y-27278726D01*
X17711557Y-27278726D01*
X17730604Y-27269202D01*
X17740128Y-27250155D01*
X17740128Y-27240631D01*
X17730604Y-27221583D01*
X17711557Y-27212059D01*
X17682985Y-27212059D01*
X17663937Y-27202536D01*
X17654414Y-27183488D01*
X17654414Y-27173964D01*
X17663937Y-27154917D01*
X17682985Y-27145393D01*
X17711557Y-27145393D01*
X17730604Y-27154917D01*
X17806795Y-27354917D02*
X17816318Y-27345393D01*
X17835366Y-27316821D01*
X17844890Y-27297774D01*
X17854414Y-27269202D01*
X17863937Y-27221583D01*
X17863937Y-27183488D01*
X17854414Y-27135869D01*
X17844890Y-27107298D01*
X17835366Y-27088250D01*
X17816318Y-27059678D01*
X17806795Y-27050155D01*
X18168699Y-27354917D02*
X18159176Y-27345393D01*
X18140128Y-27316821D01*
X18130604Y-27297774D01*
X18121080Y-27269202D01*
X18111557Y-27221583D01*
X18111557Y-27183488D01*
X18121080Y-27135869D01*
X18130604Y-27107298D01*
X18140128Y-27088250D01*
X18159176Y-27059678D01*
X18168699Y-27050155D01*
X18244890Y-27145393D02*
X18244890Y-27278726D01*
X18244890Y-27164440D02*
X18254414Y-27154917D01*
X18273461Y-27145393D01*
X18302033Y-27145393D01*
X18321080Y-27154917D01*
X18330604Y-27173964D01*
X18330604Y-27278726D01*
X18454414Y-27278726D02*
X18435366Y-27269202D01*
X18425842Y-27259678D01*
X18416318Y-27240631D01*
X18416318Y-27183488D01*
X18425842Y-27164440D01*
X18435366Y-27154917D01*
X18454414Y-27145393D01*
X18482985Y-27145393D01*
X18502033Y-27154917D01*
X18511557Y-27164440D01*
X18521080Y-27183488D01*
X18521080Y-27240631D01*
X18511557Y-27259678D01*
X18502033Y-27269202D01*
X18482985Y-27278726D01*
X18454414Y-27278726D01*
X18578223Y-27145393D02*
X18654414Y-27145393D01*
X18606795Y-27078726D02*
X18606795Y-27250155D01*
X18616318Y-27269202D01*
X18635366Y-27278726D01*
X18654414Y-27278726D01*
X18873461Y-27145393D02*
X18873461Y-27345393D01*
X18873461Y-27154917D02*
X18892509Y-27145393D01*
X18930604Y-27145393D01*
X18949652Y-27154917D01*
X18959176Y-27164440D01*
X18968699Y-27183488D01*
X18968699Y-27240631D01*
X18959176Y-27259678D01*
X18949652Y-27269202D01*
X18930604Y-27278726D01*
X18892509Y-27278726D01*
X18873461Y-27269202D01*
X19082985Y-27278726D02*
X19063937Y-27269202D01*
X19054414Y-27250155D01*
X19054414Y-27078726D01*
X19244890Y-27278726D02*
X19244890Y-27173964D01*
X19235366Y-27154917D01*
X19216318Y-27145393D01*
X19178223Y-27145393D01*
X19159176Y-27154917D01*
X19244890Y-27269202D02*
X19225842Y-27278726D01*
X19178223Y-27278726D01*
X19159176Y-27269202D01*
X19149652Y-27250155D01*
X19149652Y-27231107D01*
X19159176Y-27212059D01*
X19178223Y-27202536D01*
X19225842Y-27202536D01*
X19244890Y-27193012D01*
X19311557Y-27145393D02*
X19387747Y-27145393D01*
X19340128Y-27078726D02*
X19340128Y-27250155D01*
X19349652Y-27269202D01*
X19368699Y-27278726D01*
X19387747Y-27278726D01*
X19530604Y-27269202D02*
X19511557Y-27278726D01*
X19473461Y-27278726D01*
X19454414Y-27269202D01*
X19444890Y-27250155D01*
X19444890Y-27173964D01*
X19454414Y-27154917D01*
X19473461Y-27145393D01*
X19511557Y-27145393D01*
X19530604Y-27154917D01*
X19540128Y-27173964D01*
X19540128Y-27193012D01*
X19444890Y-27212059D01*
X19711557Y-27278726D02*
X19711557Y-27078726D01*
X19711557Y-27269202D02*
X19692509Y-27278726D01*
X19654414Y-27278726D01*
X19635366Y-27269202D01*
X19625842Y-27259678D01*
X19616318Y-27240631D01*
X19616318Y-27183488D01*
X19625842Y-27164440D01*
X19635366Y-27154917D01*
X19654414Y-27145393D01*
X19692509Y-27145393D01*
X19711557Y-27154917D01*
X19787747Y-27354917D02*
X19797271Y-27345393D01*
X19816318Y-27316821D01*
X19825842Y-27297774D01*
X19835366Y-27269202D01*
X19844890Y-27221583D01*
X19844890Y-27183488D01*
X19835366Y-27135869D01*
X19825842Y-27107298D01*
X19816318Y-27088250D01*
X19797271Y-27059678D01*
X19787747Y-27050155D01*
X12553937Y-27383250D02*
X12553937Y-27583250D01*
X12453937Y-27483250D02*
X12653937Y-27483250D01*
X12892509Y-27373726D02*
X13016318Y-27373726D01*
X12949652Y-27449917D01*
X12978223Y-27449917D01*
X12997271Y-27459440D01*
X13006795Y-27468964D01*
X13016318Y-27488012D01*
X13016318Y-27535631D01*
X13006795Y-27554678D01*
X12997271Y-27564202D01*
X12978223Y-27573726D01*
X12921080Y-27573726D01*
X12902033Y-27564202D01*
X12892509Y-27554678D01*
X13102033Y-27554678D02*
X13111556Y-27564202D01*
X13102033Y-27573726D01*
X13092509Y-27564202D01*
X13102033Y-27554678D01*
X13102033Y-27573726D01*
X13235366Y-27373726D02*
X13254414Y-27373726D01*
X13273461Y-27383250D01*
X13282985Y-27392774D01*
X13292509Y-27411821D01*
X13302033Y-27449917D01*
X13302033Y-27497536D01*
X13292509Y-27535631D01*
X13282985Y-27554678D01*
X13273461Y-27564202D01*
X13254414Y-27573726D01*
X13235366Y-27573726D01*
X13216318Y-27564202D01*
X13206795Y-27554678D01*
X13197271Y-27535631D01*
X13187747Y-27497536D01*
X13187747Y-27449917D01*
X13197271Y-27411821D01*
X13206795Y-27392774D01*
X13216318Y-27383250D01*
X13235366Y-27373726D01*
X13473461Y-27440393D02*
X13473461Y-27573726D01*
X13425842Y-27364202D02*
X13378223Y-27507059D01*
X13502033Y-27507059D01*
X13606795Y-27459440D02*
X13587747Y-27449917D01*
X13578223Y-27440393D01*
X13568699Y-27421345D01*
X13568699Y-27411821D01*
X13578223Y-27392774D01*
X13587747Y-27383250D01*
X13606795Y-27373726D01*
X13644890Y-27373726D01*
X13663937Y-27383250D01*
X13673461Y-27392774D01*
X13682985Y-27411821D01*
X13682985Y-27421345D01*
X13673461Y-27440393D01*
X13663937Y-27449917D01*
X13644890Y-27459440D01*
X13606795Y-27459440D01*
X13587747Y-27468964D01*
X13578223Y-27478488D01*
X13568699Y-27497536D01*
X13568699Y-27535631D01*
X13578223Y-27554678D01*
X13587747Y-27564202D01*
X13606795Y-27573726D01*
X13644890Y-27573726D01*
X13663937Y-27564202D01*
X13673461Y-27554678D01*
X13682985Y-27535631D01*
X13682985Y-27497536D01*
X13673461Y-27478488D01*
X13663937Y-27468964D01*
X13644890Y-27459440D01*
X13768699Y-27573726D02*
X13768699Y-27440393D01*
X13768699Y-27459440D02*
X13778223Y-27449917D01*
X13797271Y-27440393D01*
X13825842Y-27440393D01*
X13844890Y-27449917D01*
X13854414Y-27468964D01*
X13854414Y-27573726D01*
X13854414Y-27468964D02*
X13863937Y-27449917D01*
X13882985Y-27440393D01*
X13911556Y-27440393D01*
X13930604Y-27449917D01*
X13940128Y-27468964D01*
X13940128Y-27573726D01*
X14035366Y-27573726D02*
X14035366Y-27440393D01*
X14035366Y-27459440D02*
X14044890Y-27449917D01*
X14063937Y-27440393D01*
X14092509Y-27440393D01*
X14111556Y-27449917D01*
X14121080Y-27468964D01*
X14121080Y-27573726D01*
X14121080Y-27468964D02*
X14130604Y-27449917D01*
X14149652Y-27440393D01*
X14178223Y-27440393D01*
X14197271Y-27449917D01*
X14206795Y-27468964D01*
X14206795Y-27573726D01*
X14597271Y-27364202D02*
X14425842Y-27621345D01*
X14854414Y-27373726D02*
X14873461Y-27373726D01*
X14892509Y-27383250D01*
X14902033Y-27392774D01*
X14911556Y-27411821D01*
X14921080Y-27449917D01*
X14921080Y-27497536D01*
X14911556Y-27535631D01*
X14902033Y-27554678D01*
X14892509Y-27564202D01*
X14873461Y-27573726D01*
X14854414Y-27573726D01*
X14835366Y-27564202D01*
X14825842Y-27554678D01*
X14816318Y-27535631D01*
X14806795Y-27497536D01*
X14806795Y-27449917D01*
X14816318Y-27411821D01*
X14825842Y-27392774D01*
X14835366Y-27383250D01*
X14854414Y-27373726D01*
X15006795Y-27554678D02*
X15016318Y-27564202D01*
X15006795Y-27573726D01*
X14997271Y-27564202D01*
X15006795Y-27554678D01*
X15006795Y-27573726D01*
X15206795Y-27573726D02*
X15092509Y-27573726D01*
X15149652Y-27573726D02*
X15149652Y-27373726D01*
X15130604Y-27402298D01*
X15111556Y-27421345D01*
X15092509Y-27430869D01*
X15282985Y-27392774D02*
X15292509Y-27383250D01*
X15311556Y-27373726D01*
X15359175Y-27373726D01*
X15378223Y-27383250D01*
X15387747Y-27392774D01*
X15397271Y-27411821D01*
X15397271Y-27430869D01*
X15387747Y-27459440D01*
X15273461Y-27573726D01*
X15397271Y-27573726D01*
X15521080Y-27373726D02*
X15540128Y-27373726D01*
X15559175Y-27383250D01*
X15568699Y-27392774D01*
X15578223Y-27411821D01*
X15587747Y-27449917D01*
X15587747Y-27497536D01*
X15578223Y-27535631D01*
X15568699Y-27554678D01*
X15559175Y-27564202D01*
X15540128Y-27573726D01*
X15521080Y-27573726D01*
X15502033Y-27564202D01*
X15492509Y-27554678D01*
X15482985Y-27535631D01*
X15473461Y-27497536D01*
X15473461Y-27449917D01*
X15482985Y-27411821D01*
X15492509Y-27392774D01*
X15502033Y-27383250D01*
X15521080Y-27373726D01*
X15711556Y-27373726D02*
X15730604Y-27373726D01*
X15749652Y-27383250D01*
X15759175Y-27392774D01*
X15768699Y-27411821D01*
X15778223Y-27449917D01*
X15778223Y-27497536D01*
X15768699Y-27535631D01*
X15759175Y-27554678D01*
X15749652Y-27564202D01*
X15730604Y-27573726D01*
X15711556Y-27573726D01*
X15692509Y-27564202D01*
X15682985Y-27554678D01*
X15673461Y-27535631D01*
X15663937Y-27497536D01*
X15663937Y-27449917D01*
X15673461Y-27411821D01*
X15682985Y-27392774D01*
X15692509Y-27383250D01*
X15711556Y-27373726D01*
X15854414Y-27373726D02*
X15854414Y-27411821D01*
X15930604Y-27373726D02*
X15930604Y-27411821D01*
X16225842Y-27649917D02*
X16216318Y-27640393D01*
X16197271Y-27611821D01*
X16187747Y-27592774D01*
X16178223Y-27564202D01*
X16168699Y-27516583D01*
X16168699Y-27478488D01*
X16178223Y-27430869D01*
X16187747Y-27402298D01*
X16197271Y-27383250D01*
X16216318Y-27354678D01*
X16225842Y-27345155D01*
X16406795Y-27573726D02*
X16292509Y-27573726D01*
X16349652Y-27573726D02*
X16349652Y-27373726D01*
X16330604Y-27402298D01*
X16311556Y-27421345D01*
X16292509Y-27430869D01*
X16578223Y-27440393D02*
X16578223Y-27573726D01*
X16530604Y-27364202D02*
X16482985Y-27507059D01*
X16606795Y-27507059D01*
X16835366Y-27573726D02*
X16835366Y-27373726D01*
X16921080Y-27573726D02*
X16921080Y-27468964D01*
X16911557Y-27449917D01*
X16892509Y-27440393D01*
X16863937Y-27440393D01*
X16844890Y-27449917D01*
X16835366Y-27459440D01*
X17044890Y-27573726D02*
X17025842Y-27564202D01*
X17016318Y-27554678D01*
X17006795Y-27535631D01*
X17006795Y-27478488D01*
X17016318Y-27459440D01*
X17025842Y-27449917D01*
X17044890Y-27440393D01*
X17073461Y-27440393D01*
X17092509Y-27449917D01*
X17102033Y-27459440D01*
X17111557Y-27478488D01*
X17111557Y-27535631D01*
X17102033Y-27554678D01*
X17092509Y-27564202D01*
X17073461Y-27573726D01*
X17044890Y-27573726D01*
X17225842Y-27573726D02*
X17206795Y-27564202D01*
X17197271Y-27545155D01*
X17197271Y-27373726D01*
X17378223Y-27564202D02*
X17359176Y-27573726D01*
X17321080Y-27573726D01*
X17302033Y-27564202D01*
X17292509Y-27545155D01*
X17292509Y-27468964D01*
X17302033Y-27449917D01*
X17321080Y-27440393D01*
X17359176Y-27440393D01*
X17378223Y-27449917D01*
X17387747Y-27468964D01*
X17387747Y-27488012D01*
X17292509Y-27507059D01*
X17463937Y-27564202D02*
X17482985Y-27573726D01*
X17521080Y-27573726D01*
X17540128Y-27564202D01*
X17549652Y-27545155D01*
X17549652Y-27535631D01*
X17540128Y-27516583D01*
X17521080Y-27507059D01*
X17492509Y-27507059D01*
X17473461Y-27497536D01*
X17463937Y-27478488D01*
X17463937Y-27468964D01*
X17473461Y-27449917D01*
X17492509Y-27440393D01*
X17521080Y-27440393D01*
X17540128Y-27449917D01*
X17616318Y-27649917D02*
X17625842Y-27640393D01*
X17644890Y-27611821D01*
X17654414Y-27592774D01*
X17663937Y-27564202D01*
X17673461Y-27516583D01*
X17673461Y-27478488D01*
X17663937Y-27430869D01*
X17654414Y-27402298D01*
X17644890Y-27383250D01*
X17625842Y-27354678D01*
X17616318Y-27345155D01*
X17978223Y-27649917D02*
X17968699Y-27640393D01*
X17949652Y-27611821D01*
X17940128Y-27592774D01*
X17930604Y-27564202D01*
X17921080Y-27516583D01*
X17921080Y-27478488D01*
X17930604Y-27430869D01*
X17940128Y-27402298D01*
X17949652Y-27383250D01*
X17968699Y-27354678D01*
X17978223Y-27345155D01*
X18054414Y-27440393D02*
X18054414Y-27573726D01*
X18054414Y-27459440D02*
X18063937Y-27449917D01*
X18082985Y-27440393D01*
X18111557Y-27440393D01*
X18130604Y-27449917D01*
X18140128Y-27468964D01*
X18140128Y-27573726D01*
X18263937Y-27573726D02*
X18244890Y-27564202D01*
X18235366Y-27554678D01*
X18225842Y-27535631D01*
X18225842Y-27478488D01*
X18235366Y-27459440D01*
X18244890Y-27449917D01*
X18263937Y-27440393D01*
X18292509Y-27440393D01*
X18311557Y-27449917D01*
X18321080Y-27459440D01*
X18330604Y-27478488D01*
X18330604Y-27535631D01*
X18321080Y-27554678D01*
X18311557Y-27564202D01*
X18292509Y-27573726D01*
X18263937Y-27573726D01*
X18387747Y-27440393D02*
X18463937Y-27440393D01*
X18416318Y-27373726D02*
X18416318Y-27545155D01*
X18425842Y-27564202D01*
X18444890Y-27573726D01*
X18463937Y-27573726D01*
X18682985Y-27440393D02*
X18682985Y-27640393D01*
X18682985Y-27449917D02*
X18702033Y-27440393D01*
X18740128Y-27440393D01*
X18759176Y-27449917D01*
X18768699Y-27459440D01*
X18778223Y-27478488D01*
X18778223Y-27535631D01*
X18768699Y-27554678D01*
X18759176Y-27564202D01*
X18740128Y-27573726D01*
X18702033Y-27573726D01*
X18682985Y-27564202D01*
X18892509Y-27573726D02*
X18873461Y-27564202D01*
X18863937Y-27545155D01*
X18863937Y-27373726D01*
X19054414Y-27573726D02*
X19054414Y-27468964D01*
X19044890Y-27449917D01*
X19025842Y-27440393D01*
X18987747Y-27440393D01*
X18968699Y-27449917D01*
X19054414Y-27564202D02*
X19035366Y-27573726D01*
X18987747Y-27573726D01*
X18968699Y-27564202D01*
X18959176Y-27545155D01*
X18959176Y-27526107D01*
X18968699Y-27507059D01*
X18987747Y-27497536D01*
X19035366Y-27497536D01*
X19054414Y-27488012D01*
X19121080Y-27440393D02*
X19197271Y-27440393D01*
X19149652Y-27373726D02*
X19149652Y-27545155D01*
X19159176Y-27564202D01*
X19178223Y-27573726D01*
X19197271Y-27573726D01*
X19340128Y-27564202D02*
X19321080Y-27573726D01*
X19282985Y-27573726D01*
X19263937Y-27564202D01*
X19254414Y-27545155D01*
X19254414Y-27468964D01*
X19263937Y-27449917D01*
X19282985Y-27440393D01*
X19321080Y-27440393D01*
X19340128Y-27449917D01*
X19349652Y-27468964D01*
X19349652Y-27488012D01*
X19254414Y-27507059D01*
X19521080Y-27573726D02*
X19521080Y-27373726D01*
X19521080Y-27564202D02*
X19502033Y-27573726D01*
X19463937Y-27573726D01*
X19444890Y-27564202D01*
X19435366Y-27554678D01*
X19425842Y-27535631D01*
X19425842Y-27478488D01*
X19435366Y-27459440D01*
X19444890Y-27449917D01*
X19463937Y-27440393D01*
X19502033Y-27440393D01*
X19521080Y-27449917D01*
X19597271Y-27649917D02*
X19606795Y-27640393D01*
X19625842Y-27611821D01*
X19635366Y-27592774D01*
X19644890Y-27564202D01*
X19654414Y-27516583D01*
X19654414Y-27478488D01*
X19644890Y-27430869D01*
X19635366Y-27402298D01*
X19625842Y-27383250D01*
X19606795Y-27354678D01*
X19597271Y-27345155D01*
X12624649Y-27873961D02*
X12624649Y-27732539D01*
X12483226Y-27732539D01*
X12483226Y-27873961D01*
X12624649Y-27873961D01*
X12892509Y-27693726D02*
X13016318Y-27693726D01*
X12949652Y-27769917D01*
X12978223Y-27769917D01*
X12997271Y-27779440D01*
X13006795Y-27788964D01*
X13016318Y-27808012D01*
X13016318Y-27855631D01*
X13006795Y-27874678D01*
X12997271Y-27884202D01*
X12978223Y-27893726D01*
X12921080Y-27893726D01*
X12902033Y-27884202D01*
X12892509Y-27874678D01*
X13102033Y-27874678D02*
X13111556Y-27884202D01*
X13102033Y-27893726D01*
X13092509Y-27884202D01*
X13102033Y-27874678D01*
X13102033Y-27893726D01*
X13206795Y-27893726D02*
X13244890Y-27893726D01*
X13263937Y-27884202D01*
X13273461Y-27874678D01*
X13292509Y-27846107D01*
X13302033Y-27808012D01*
X13302033Y-27731821D01*
X13292509Y-27712774D01*
X13282985Y-27703250D01*
X13263937Y-27693726D01*
X13225842Y-27693726D01*
X13206795Y-27703250D01*
X13197271Y-27712774D01*
X13187747Y-27731821D01*
X13187747Y-27779440D01*
X13197271Y-27798488D01*
X13206795Y-27808012D01*
X13225842Y-27817536D01*
X13263937Y-27817536D01*
X13282985Y-27808012D01*
X13292509Y-27798488D01*
X13302033Y-27779440D01*
X13416318Y-27779440D02*
X13397271Y-27769917D01*
X13387747Y-27760393D01*
X13378223Y-27741345D01*
X13378223Y-27731821D01*
X13387747Y-27712774D01*
X13397271Y-27703250D01*
X13416318Y-27693726D01*
X13454414Y-27693726D01*
X13473461Y-27703250D01*
X13482985Y-27712774D01*
X13492509Y-27731821D01*
X13492509Y-27741345D01*
X13482985Y-27760393D01*
X13473461Y-27769917D01*
X13454414Y-27779440D01*
X13416318Y-27779440D01*
X13397271Y-27788964D01*
X13387747Y-27798488D01*
X13378223Y-27817536D01*
X13378223Y-27855631D01*
X13387747Y-27874678D01*
X13397271Y-27884202D01*
X13416318Y-27893726D01*
X13454414Y-27893726D01*
X13473461Y-27884202D01*
X13482985Y-27874678D01*
X13492509Y-27855631D01*
X13492509Y-27817536D01*
X13482985Y-27798488D01*
X13473461Y-27788964D01*
X13454414Y-27779440D01*
X13606795Y-27779440D02*
X13587747Y-27769917D01*
X13578223Y-27760393D01*
X13568699Y-27741345D01*
X13568699Y-27731821D01*
X13578223Y-27712774D01*
X13587747Y-27703250D01*
X13606795Y-27693726D01*
X13644890Y-27693726D01*
X13663937Y-27703250D01*
X13673461Y-27712774D01*
X13682985Y-27731821D01*
X13682985Y-27741345D01*
X13673461Y-27760393D01*
X13663937Y-27769917D01*
X13644890Y-27779440D01*
X13606795Y-27779440D01*
X13587747Y-27788964D01*
X13578223Y-27798488D01*
X13568699Y-27817536D01*
X13568699Y-27855631D01*
X13578223Y-27874678D01*
X13587747Y-27884202D01*
X13606795Y-27893726D01*
X13644890Y-27893726D01*
X13663937Y-27884202D01*
X13673461Y-27874678D01*
X13682985Y-27855631D01*
X13682985Y-27817536D01*
X13673461Y-27798488D01*
X13663937Y-27788964D01*
X13644890Y-27779440D01*
X13768699Y-27893726D02*
X13768699Y-27760393D01*
X13768699Y-27779440D02*
X13778223Y-27769917D01*
X13797271Y-27760393D01*
X13825842Y-27760393D01*
X13844890Y-27769917D01*
X13854414Y-27788964D01*
X13854414Y-27893726D01*
X13854414Y-27788964D02*
X13863937Y-27769917D01*
X13882985Y-27760393D01*
X13911556Y-27760393D01*
X13930604Y-27769917D01*
X13940128Y-27788964D01*
X13940128Y-27893726D01*
X14035366Y-27893726D02*
X14035366Y-27760393D01*
X14035366Y-27779440D02*
X14044890Y-27769917D01*
X14063937Y-27760393D01*
X14092509Y-27760393D01*
X14111556Y-27769917D01*
X14121080Y-27788964D01*
X14121080Y-27893726D01*
X14121080Y-27788964D02*
X14130604Y-27769917D01*
X14149652Y-27760393D01*
X14178223Y-27760393D01*
X14197271Y-27769917D01*
X14206795Y-27788964D01*
X14206795Y-27893726D01*
X14597271Y-27684202D02*
X14425842Y-27941345D01*
X14854414Y-27693726D02*
X14873461Y-27693726D01*
X14892509Y-27703250D01*
X14902033Y-27712774D01*
X14911556Y-27731821D01*
X14921080Y-27769917D01*
X14921080Y-27817536D01*
X14911556Y-27855631D01*
X14902033Y-27874678D01*
X14892509Y-27884202D01*
X14873461Y-27893726D01*
X14854414Y-27893726D01*
X14835366Y-27884202D01*
X14825842Y-27874678D01*
X14816318Y-27855631D01*
X14806795Y-27817536D01*
X14806795Y-27769917D01*
X14816318Y-27731821D01*
X14825842Y-27712774D01*
X14835366Y-27703250D01*
X14854414Y-27693726D01*
X15006795Y-27874678D02*
X15016318Y-27884202D01*
X15006795Y-27893726D01*
X14997271Y-27884202D01*
X15006795Y-27874678D01*
X15006795Y-27893726D01*
X15206795Y-27893726D02*
X15092509Y-27893726D01*
X15149652Y-27893726D02*
X15149652Y-27693726D01*
X15130604Y-27722298D01*
X15111556Y-27741345D01*
X15092509Y-27750869D01*
X15387747Y-27693726D02*
X15292509Y-27693726D01*
X15282985Y-27788964D01*
X15292509Y-27779440D01*
X15311556Y-27769917D01*
X15359175Y-27769917D01*
X15378223Y-27779440D01*
X15387747Y-27788964D01*
X15397271Y-27808012D01*
X15397271Y-27855631D01*
X15387747Y-27874678D01*
X15378223Y-27884202D01*
X15359175Y-27893726D01*
X15311556Y-27893726D01*
X15292509Y-27884202D01*
X15282985Y-27874678D01*
X15463937Y-27693726D02*
X15597271Y-27693726D01*
X15511556Y-27893726D01*
X15711556Y-27693726D02*
X15730604Y-27693726D01*
X15749652Y-27703250D01*
X15759175Y-27712774D01*
X15768699Y-27731821D01*
X15778223Y-27769917D01*
X15778223Y-27817536D01*
X15768699Y-27855631D01*
X15759175Y-27874678D01*
X15749652Y-27884202D01*
X15730604Y-27893726D01*
X15711556Y-27893726D01*
X15692509Y-27884202D01*
X15682985Y-27874678D01*
X15673461Y-27855631D01*
X15663937Y-27817536D01*
X15663937Y-27769917D01*
X15673461Y-27731821D01*
X15682985Y-27712774D01*
X15692509Y-27703250D01*
X15711556Y-27693726D01*
X15854414Y-27693726D02*
X15854414Y-27731821D01*
X15930604Y-27693726D02*
X15930604Y-27731821D01*
X16225842Y-27969917D02*
X16216318Y-27960393D01*
X16197271Y-27931821D01*
X16187747Y-27912774D01*
X16178223Y-27884202D01*
X16168699Y-27836583D01*
X16168699Y-27798488D01*
X16178223Y-27750869D01*
X16187747Y-27722298D01*
X16197271Y-27703250D01*
X16216318Y-27674678D01*
X16225842Y-27665155D01*
X16406795Y-27893726D02*
X16292509Y-27893726D01*
X16349652Y-27893726D02*
X16349652Y-27693726D01*
X16330604Y-27722298D01*
X16311556Y-27741345D01*
X16292509Y-27750869D01*
X16597271Y-27893726D02*
X16482985Y-27893726D01*
X16540128Y-27893726D02*
X16540128Y-27693726D01*
X16521080Y-27722298D01*
X16502033Y-27741345D01*
X16482985Y-27750869D01*
X16663937Y-27693726D02*
X16797271Y-27693726D01*
X16711556Y-27893726D01*
X17025842Y-27893726D02*
X17025842Y-27693726D01*
X17111557Y-27893726D02*
X17111557Y-27788964D01*
X17102033Y-27769917D01*
X17082985Y-27760393D01*
X17054414Y-27760393D01*
X17035366Y-27769917D01*
X17025842Y-27779440D01*
X17235366Y-27893726D02*
X17216318Y-27884202D01*
X17206795Y-27874678D01*
X17197271Y-27855631D01*
X17197271Y-27798488D01*
X17206795Y-27779440D01*
X17216318Y-27769917D01*
X17235366Y-27760393D01*
X17263937Y-27760393D01*
X17282985Y-27769917D01*
X17292509Y-27779440D01*
X17302033Y-27798488D01*
X17302033Y-27855631D01*
X17292509Y-27874678D01*
X17282985Y-27884202D01*
X17263937Y-27893726D01*
X17235366Y-27893726D01*
X17416318Y-27893726D02*
X17397271Y-27884202D01*
X17387747Y-27865155D01*
X17387747Y-27693726D01*
X17568699Y-27884202D02*
X17549652Y-27893726D01*
X17511557Y-27893726D01*
X17492509Y-27884202D01*
X17482985Y-27865155D01*
X17482985Y-27788964D01*
X17492509Y-27769917D01*
X17511557Y-27760393D01*
X17549652Y-27760393D01*
X17568699Y-27769917D01*
X17578223Y-27788964D01*
X17578223Y-27808012D01*
X17482985Y-27827059D01*
X17654414Y-27884202D02*
X17673461Y-27893726D01*
X17711557Y-27893726D01*
X17730604Y-27884202D01*
X17740128Y-27865155D01*
X17740128Y-27855631D01*
X17730604Y-27836583D01*
X17711557Y-27827059D01*
X17682985Y-27827059D01*
X17663937Y-27817536D01*
X17654414Y-27798488D01*
X17654414Y-27788964D01*
X17663937Y-27769917D01*
X17682985Y-27760393D01*
X17711557Y-27760393D01*
X17730604Y-27769917D01*
X17806795Y-27969917D02*
X17816318Y-27960393D01*
X17835366Y-27931821D01*
X17844890Y-27912774D01*
X17854414Y-27884202D01*
X17863937Y-27836583D01*
X17863937Y-27798488D01*
X17854414Y-27750869D01*
X17844890Y-27722298D01*
X17835366Y-27703250D01*
X17816318Y-27674678D01*
X17806795Y-27665155D01*
X18168699Y-27969917D02*
X18159176Y-27960393D01*
X18140128Y-27931821D01*
X18130604Y-27912774D01*
X18121080Y-27884202D01*
X18111557Y-27836583D01*
X18111557Y-27798488D01*
X18121080Y-27750869D01*
X18130604Y-27722298D01*
X18140128Y-27703250D01*
X18159176Y-27674678D01*
X18168699Y-27665155D01*
X18244890Y-27760393D02*
X18244890Y-27893726D01*
X18244890Y-27779440D02*
X18254414Y-27769917D01*
X18273461Y-27760393D01*
X18302033Y-27760393D01*
X18321080Y-27769917D01*
X18330604Y-27788964D01*
X18330604Y-27893726D01*
X18454414Y-27893726D02*
X18435366Y-27884202D01*
X18425842Y-27874678D01*
X18416318Y-27855631D01*
X18416318Y-27798488D01*
X18425842Y-27779440D01*
X18435366Y-27769917D01*
X18454414Y-27760393D01*
X18482985Y-27760393D01*
X18502033Y-27769917D01*
X18511557Y-27779440D01*
X18521080Y-27798488D01*
X18521080Y-27855631D01*
X18511557Y-27874678D01*
X18502033Y-27884202D01*
X18482985Y-27893726D01*
X18454414Y-27893726D01*
X18578223Y-27760393D02*
X18654414Y-27760393D01*
X18606795Y-27693726D02*
X18606795Y-27865155D01*
X18616318Y-27884202D01*
X18635366Y-27893726D01*
X18654414Y-27893726D01*
X18873461Y-27760393D02*
X18873461Y-27960393D01*
X18873461Y-27769917D02*
X18892509Y-27760393D01*
X18930604Y-27760393D01*
X18949652Y-27769917D01*
X18959176Y-27779440D01*
X18968699Y-27798488D01*
X18968699Y-27855631D01*
X18959176Y-27874678D01*
X18949652Y-27884202D01*
X18930604Y-27893726D01*
X18892509Y-27893726D01*
X18873461Y-27884202D01*
X19082985Y-27893726D02*
X19063937Y-27884202D01*
X19054414Y-27865155D01*
X19054414Y-27693726D01*
X19244890Y-27893726D02*
X19244890Y-27788964D01*
X19235366Y-27769917D01*
X19216318Y-27760393D01*
X19178223Y-27760393D01*
X19159176Y-27769917D01*
X19244890Y-27884202D02*
X19225842Y-27893726D01*
X19178223Y-27893726D01*
X19159176Y-27884202D01*
X19149652Y-27865155D01*
X19149652Y-27846107D01*
X19159176Y-27827059D01*
X19178223Y-27817536D01*
X19225842Y-27817536D01*
X19244890Y-27808012D01*
X19311557Y-27760393D02*
X19387747Y-27760393D01*
X19340128Y-27693726D02*
X19340128Y-27865155D01*
X19349652Y-27884202D01*
X19368699Y-27893726D01*
X19387747Y-27893726D01*
X19530604Y-27884202D02*
X19511557Y-27893726D01*
X19473461Y-27893726D01*
X19454414Y-27884202D01*
X19444890Y-27865155D01*
X19444890Y-27788964D01*
X19454414Y-27769917D01*
X19473461Y-27760393D01*
X19511557Y-27760393D01*
X19530604Y-27769917D01*
X19540128Y-27788964D01*
X19540128Y-27808012D01*
X19444890Y-27827059D01*
X19711557Y-27893726D02*
X19711557Y-27693726D01*
X19711557Y-27884202D02*
X19692509Y-27893726D01*
X19654414Y-27893726D01*
X19635366Y-27884202D01*
X19625842Y-27874678D01*
X19616318Y-27855631D01*
X19616318Y-27798488D01*
X19625842Y-27779440D01*
X19635366Y-27769917D01*
X19654414Y-27760393D01*
X19692509Y-27760393D01*
X19711557Y-27769917D01*
X19787747Y-27969917D02*
X19797271Y-27960393D01*
X19816318Y-27931821D01*
X19825842Y-27912774D01*
X19835366Y-27884202D01*
X19844890Y-27836583D01*
X19844890Y-27798488D01*
X19835366Y-27750869D01*
X19825842Y-27722298D01*
X19816318Y-27703250D01*
X19797271Y-27674678D01*
X19787747Y-27665155D01*
M02*
