G04 #@! TF.GenerationSoftware,KiCad,Pcbnew,(6.0.1-0)*
G04 #@! TF.CreationDate,2022-01-18T02:07:07+01:00*
G04 #@! TF.ProjectId,KBD8X-MK2,4b424438-582d-44d4-9b32-2e6b69636164,rev?*
G04 #@! TF.SameCoordinates,Original*
G04 #@! TF.FileFunction,Paste,Bot*
G04 #@! TF.FilePolarity,Positive*
%FSLAX46Y46*%
G04 Gerber Fmt 4.6, Leading zero omitted, Abs format (unit mm)*
G04 Created by KiCad (PCBNEW (6.0.1-0)) date 2022-01-18 02:07:07*
%MOMM*%
%LPD*%
G01*
G04 APERTURE LIST*
G04 Aperture macros list*
%AMRoundRect*
0 Rectangle with rounded corners*
0 $1 Rounding radius*
0 $2 $3 $4 $5 $6 $7 $8 $9 X,Y pos of 4 corners*
0 Add a 4 corners polygon primitive as box body*
4,1,4,$2,$3,$4,$5,$6,$7,$8,$9,$2,$3,0*
0 Add four circle primitives for the rounded corners*
1,1,$1+$1,$2,$3*
1,1,$1+$1,$4,$5*
1,1,$1+$1,$6,$7*
1,1,$1+$1,$8,$9*
0 Add four rect primitives between the rounded corners*
20,1,$1+$1,$2,$3,$4,$5,0*
20,1,$1+$1,$4,$5,$6,$7,0*
20,1,$1+$1,$6,$7,$8,$9,0*
20,1,$1+$1,$8,$9,$2,$3,0*%
G04 Aperture macros list end*
%ADD10R,1.000000X1.200000*%
%ADD11R,1.000000X0.900000*%
%ADD12R,0.600000X1.450000*%
%ADD13R,0.300000X1.450000*%
%ADD14R,1.100000X1.800000*%
%ADD15R,1.000000X0.750000*%
%ADD16R,0.750000X1.000000*%
%ADD17R,1.200000X1.200000*%
%ADD18RoundRect,0.250000X0.625000X-0.375000X0.625000X0.375000X-0.625000X0.375000X-0.625000X-0.375000X0*%
%ADD19R,0.900000X0.800000*%
%ADD20R,0.800000X0.900000*%
%ADD21R,1.500000X1.700000*%
%ADD22R,1.000000X1.500000*%
%ADD23R,1.500000X1.000000*%
%ADD24RoundRect,0.250000X-0.275000X0.275000X-0.275000X-0.275000X0.275000X-0.275000X0.275000X0.275000X0*%
%ADD25RoundRect,0.062500X-0.062500X0.475000X-0.062500X-0.475000X0.062500X-0.475000X0.062500X0.475000X0*%
%ADD26RoundRect,0.062500X-0.475000X0.062500X-0.475000X-0.062500X0.475000X-0.062500X0.475000X0.062500X0*%
G04 APERTURE END LIST*
D10*
X413968000Y-154836250D03*
D11*
X413968000Y-156536250D03*
X411668000Y-156536250D03*
X411668000Y-154636250D03*
D12*
X409561250Y-150487125D03*
X410336250Y-150487125D03*
D13*
X411036250Y-150487125D03*
X411536250Y-150487125D03*
X412036250Y-150487125D03*
X412536250Y-150487125D03*
X413036250Y-150487125D03*
X413536250Y-150487125D03*
X414036250Y-150487125D03*
X414536250Y-150487125D03*
D12*
X415236250Y-150487125D03*
X416011250Y-150487125D03*
D14*
X449958125Y-225361250D03*
X446258125Y-219161250D03*
X446258125Y-225361250D03*
X449958125Y-219161250D03*
D15*
X427638000Y-214546000D03*
X425938000Y-214546000D03*
X438892000Y-220769000D03*
X440592000Y-220769000D03*
D16*
X423359000Y-214585000D03*
X423359000Y-216285000D03*
X421073000Y-224745000D03*
X421073000Y-226445000D03*
D15*
X434369000Y-217340000D03*
X432669000Y-217340000D03*
D16*
X446917500Y-153942500D03*
X446917500Y-155642500D03*
X426280000Y-166755000D03*
X426280000Y-165055000D03*
X365955000Y-153942500D03*
X365955000Y-155642500D03*
X334205000Y-151561250D03*
X334205000Y-153261250D03*
X280230000Y-153942500D03*
X280230000Y-155642500D03*
X248480000Y-151561250D03*
X248480000Y-153261250D03*
X194505000Y-153942500D03*
X194505000Y-155642500D03*
X158786250Y-151561250D03*
X158786250Y-153261250D03*
X149261250Y-208030000D03*
X149261250Y-206330000D03*
X146086250Y-251573750D03*
X146086250Y-253273750D03*
X200855000Y-251573750D03*
X200855000Y-253273750D03*
X241336250Y-251573750D03*
X241336250Y-253273750D03*
X281817500Y-251573750D03*
X281817500Y-253273750D03*
X312773750Y-251573750D03*
X312773750Y-253273750D03*
D15*
X361930000Y-246867500D03*
X363630000Y-246867500D03*
D16*
X412786250Y-251573750D03*
X412786250Y-253273750D03*
X446917500Y-253955000D03*
X446917500Y-255655000D03*
X447711250Y-208030000D03*
X447711250Y-206330000D03*
D17*
X142117500Y-155798750D03*
X142117500Y-152198750D03*
X180217500Y-155798750D03*
X180217500Y-152198750D03*
X183392500Y-155798750D03*
X183392500Y-152198750D03*
X218317500Y-155798750D03*
X218317500Y-152198750D03*
X265942500Y-155798750D03*
X265942500Y-152198750D03*
X269117500Y-155798750D03*
X269117500Y-152198750D03*
X304042500Y-155798750D03*
X304042500Y-152198750D03*
X323092500Y-155798750D03*
X323092500Y-152198750D03*
X351667500Y-155798750D03*
X351667500Y-152198750D03*
X354842500Y-155798750D03*
X354842500Y-152198750D03*
X389767500Y-155798750D03*
X389767500Y-152198750D03*
X392942500Y-155798750D03*
X392942500Y-152198750D03*
X165930000Y-236761250D03*
X165930000Y-233161250D03*
X142117500Y-179611250D03*
X142117500Y-176011250D03*
X161167500Y-179611250D03*
X161167500Y-176011250D03*
X180217500Y-179611250D03*
X180217500Y-176011250D03*
X199267500Y-179611250D03*
X199267500Y-176011250D03*
X218317500Y-179611250D03*
X218317500Y-176011250D03*
X237367500Y-179611250D03*
X237367500Y-176011250D03*
X256417500Y-179611250D03*
X256417500Y-176011250D03*
X275467500Y-179611250D03*
X275467500Y-176011250D03*
X294517500Y-179611250D03*
X294517500Y-176011250D03*
X313567500Y-179611250D03*
X313567500Y-176011250D03*
X332617500Y-179611250D03*
X332617500Y-176011250D03*
X351667500Y-179611250D03*
X351667500Y-176011250D03*
X354842500Y-179611250D03*
X354842500Y-176011250D03*
X373892500Y-179611250D03*
X373892500Y-176011250D03*
X370717500Y-179611250D03*
X370717500Y-176011250D03*
X146880000Y-197867500D03*
X146880000Y-194267500D03*
X170692500Y-198661250D03*
X170692500Y-195061250D03*
X189742500Y-198661250D03*
X189742500Y-195061250D03*
X208792500Y-198661250D03*
X208792500Y-195061250D03*
X227842500Y-198661250D03*
X227842500Y-195061250D03*
X246892500Y-198661250D03*
X246892500Y-195061250D03*
X265942500Y-198661250D03*
X265942500Y-195061250D03*
X284992500Y-198661250D03*
X284992500Y-195061250D03*
X304042500Y-198661250D03*
X304042500Y-195061250D03*
X323092500Y-198661250D03*
X323092500Y-195061250D03*
X342142500Y-198661250D03*
X342142500Y-195061250D03*
X361192500Y-198661250D03*
X361192500Y-195061250D03*
X380242500Y-198661250D03*
X380242500Y-195061250D03*
X383417500Y-198661250D03*
X383417500Y-195061250D03*
X149261250Y-217711250D03*
X149261250Y-214111250D03*
X175455000Y-217711250D03*
X175455000Y-214111250D03*
X194505000Y-217711250D03*
X194505000Y-214111250D03*
X213555000Y-217711250D03*
X213555000Y-214111250D03*
X232605000Y-217711250D03*
X232605000Y-214111250D03*
X251655000Y-217711250D03*
X251655000Y-214111250D03*
X270705000Y-217711250D03*
X270705000Y-214111250D03*
X289755000Y-217711250D03*
X289755000Y-214111250D03*
X308805000Y-217711250D03*
X308805000Y-214111250D03*
X327855000Y-217711250D03*
X327855000Y-214111250D03*
X346905000Y-217711250D03*
X346905000Y-214111250D03*
X365955000Y-217711250D03*
X365955000Y-214111250D03*
X369130000Y-217711250D03*
X369130000Y-214111250D03*
X408817500Y-236761250D03*
X408817500Y-233161250D03*
X169105000Y-236761250D03*
X169105000Y-233161250D03*
X184980000Y-236761250D03*
X184980000Y-233161250D03*
X204030000Y-236761250D03*
X204030000Y-233161250D03*
X223080000Y-236761250D03*
X223080000Y-233161250D03*
X242130000Y-236761250D03*
X242130000Y-233161250D03*
X261180000Y-236761250D03*
X261180000Y-233161250D03*
X280230000Y-236761250D03*
X280230000Y-233161250D03*
X299280000Y-236761250D03*
X299280000Y-233161250D03*
X318330000Y-236761250D03*
X318330000Y-233161250D03*
X337380000Y-236761250D03*
X337380000Y-233161250D03*
X356430000Y-236761250D03*
X356430000Y-233161250D03*
X392148750Y-236761250D03*
X392148750Y-233161250D03*
X382623750Y-255811250D03*
X382623750Y-252211250D03*
X388180000Y-255811250D03*
X388180000Y-252211250D03*
X173073750Y-255811250D03*
X173073750Y-252211250D03*
X169898750Y-255811250D03*
X169898750Y-252211250D03*
X176248750Y-255811250D03*
X176248750Y-252211250D03*
X247686250Y-255811250D03*
X247686250Y-252211250D03*
X334998750Y-255811250D03*
X334998750Y-252211250D03*
X340555000Y-255811250D03*
X340555000Y-252211250D03*
X432630000Y-155798750D03*
X432630000Y-152198750D03*
X435805000Y-155798750D03*
X435805000Y-152198750D03*
X464380000Y-168498750D03*
X464380000Y-164898750D03*
X432630000Y-179611250D03*
X432630000Y-176011250D03*
X451680000Y-179611250D03*
X451680000Y-176011250D03*
X454855000Y-179611250D03*
X454855000Y-176011250D03*
X432630000Y-198661250D03*
X432630000Y-195061250D03*
X451680000Y-198661250D03*
X451680000Y-195061250D03*
X454855000Y-198661250D03*
X454855000Y-195061250D03*
X451680000Y-236761250D03*
X451680000Y-233161250D03*
X416755000Y-255811250D03*
X416755000Y-252211250D03*
X435805000Y-255811250D03*
X435805000Y-252211250D03*
X432630000Y-255811250D03*
X432630000Y-252211250D03*
D18*
X409389000Y-162479000D03*
X409389000Y-159679000D03*
D19*
X446917500Y-166011250D03*
X446917500Y-164211250D03*
X149261250Y-223161250D03*
X149261250Y-221361250D03*
X424502000Y-212017000D03*
X424502000Y-210217000D03*
X426534000Y-210217000D03*
X426534000Y-212017000D03*
D20*
X449008125Y-215911250D03*
X447208125Y-215911250D03*
X422989000Y-228897000D03*
X421189000Y-228897000D03*
D19*
X416358125Y-156486250D03*
X416358125Y-154686250D03*
D21*
X434424000Y-223162000D03*
X434424000Y-220662000D03*
X436424000Y-220662000D03*
X436424000Y-223162000D03*
D22*
X451667500Y-149961250D03*
X454867500Y-149961250D03*
X454867500Y-154861250D03*
X451667500Y-154861250D03*
D23*
X418273750Y-167505000D03*
X418273750Y-164305000D03*
X423173750Y-164305000D03*
X423173750Y-167505000D03*
D22*
X370705000Y-149961250D03*
X373905000Y-149961250D03*
X373905000Y-154861250D03*
X370705000Y-154861250D03*
X327842500Y-149961250D03*
X331042500Y-149961250D03*
X331042500Y-154861250D03*
X327842500Y-154861250D03*
X284980000Y-149961250D03*
X288180000Y-149961250D03*
X288180000Y-154861250D03*
X284980000Y-154861250D03*
X242117500Y-149961250D03*
X245317500Y-149961250D03*
X245317500Y-154861250D03*
X242117500Y-154861250D03*
X199255000Y-149961250D03*
X202455000Y-149961250D03*
X202455000Y-154861250D03*
X199255000Y-154861250D03*
X152423750Y-149961250D03*
X155623750Y-149961250D03*
X155623750Y-154861250D03*
X152423750Y-154861250D03*
D23*
X141255000Y-208780000D03*
X141255000Y-205580000D03*
X146155000Y-205580000D03*
X146155000Y-208780000D03*
D22*
X149248750Y-249973750D03*
X152448750Y-249973750D03*
X152448750Y-254873750D03*
X149248750Y-254873750D03*
X194492500Y-249973750D03*
X197692500Y-249973750D03*
X197692500Y-254873750D03*
X194492500Y-254873750D03*
X234973750Y-249973750D03*
X238173750Y-249973750D03*
X238173750Y-254873750D03*
X234973750Y-254873750D03*
X275455000Y-249973750D03*
X278655000Y-249973750D03*
X278655000Y-254873750D03*
X275455000Y-254873750D03*
X315936250Y-249973750D03*
X319136250Y-249973750D03*
X319136250Y-254873750D03*
X315936250Y-254873750D03*
X361180000Y-249973750D03*
X364380000Y-249973750D03*
X364380000Y-254873750D03*
X361180000Y-254873750D03*
X406423750Y-249973750D03*
X409623750Y-249973750D03*
X409623750Y-254873750D03*
X406423750Y-254873750D03*
X451667500Y-249973750D03*
X454867500Y-249973750D03*
X454867500Y-254873750D03*
X451667500Y-254873750D03*
D23*
X450817500Y-208780000D03*
X450817500Y-205580000D03*
X455717500Y-205580000D03*
X455717500Y-208780000D03*
D15*
X438892000Y-223055000D03*
X440592000Y-223055000D03*
D24*
X426122125Y-220200125D03*
X427422125Y-222800125D03*
X426122125Y-224100125D03*
X427422125Y-224100125D03*
X426122125Y-221500125D03*
X428722125Y-221500125D03*
X428722125Y-224100125D03*
X428722125Y-220200125D03*
X424822125Y-221500125D03*
X427422125Y-221500125D03*
X428722125Y-222800125D03*
X427422125Y-220200125D03*
X424822125Y-222800125D03*
X424822125Y-224100125D03*
X426122125Y-222800125D03*
X424822125Y-220200125D03*
D25*
X424272125Y-218812625D03*
X424772125Y-218812625D03*
X425272125Y-218812625D03*
X425772125Y-218812625D03*
X426272125Y-218812625D03*
X426772125Y-218812625D03*
X427272125Y-218812625D03*
X427772125Y-218812625D03*
X428272125Y-218812625D03*
X428772125Y-218812625D03*
X429272125Y-218812625D03*
D26*
X430109625Y-219650125D03*
X430109625Y-220150125D03*
X430109625Y-220650125D03*
X430109625Y-221150125D03*
X430109625Y-221650125D03*
X430109625Y-222150125D03*
X430109625Y-222650125D03*
X430109625Y-223150125D03*
X430109625Y-223650125D03*
X430109625Y-224150125D03*
X430109625Y-224650125D03*
D25*
X429272125Y-225487625D03*
X428772125Y-225487625D03*
X428272125Y-225487625D03*
X427772125Y-225487625D03*
X427272125Y-225487625D03*
X426772125Y-225487625D03*
X426272125Y-225487625D03*
X425772125Y-225487625D03*
X425272125Y-225487625D03*
X424772125Y-225487625D03*
X424272125Y-225487625D03*
D26*
X423434625Y-224650125D03*
X423434625Y-224150125D03*
X423434625Y-223650125D03*
X423434625Y-223150125D03*
X423434625Y-222650125D03*
X423434625Y-222150125D03*
X423434625Y-221650125D03*
X423434625Y-221150125D03*
X423434625Y-220650125D03*
X423434625Y-220150125D03*
X423434625Y-219650125D03*
D17*
X237367500Y-155798750D03*
X237367500Y-152198750D03*
D15*
X431067000Y-227881000D03*
X429367000Y-227881000D03*
D19*
X408817500Y-156486250D03*
X408817500Y-154686250D03*
M02*
