G04 #@! TF.GenerationSoftware,KiCad,Pcbnew,(6.0.1-0)*
G04 #@! TF.CreationDate,2022-01-18T02:04:34+01:00*
G04 #@! TF.ProjectId,KBD8X-MK2,4b424438-582d-44d4-9b32-2e6b69636164,rev?*
G04 #@! TF.SameCoordinates,Original*
G04 #@! TF.FileFunction,Copper,L2,Bot*
G04 #@! TF.FilePolarity,Positive*
%FSLAX46Y46*%
G04 Gerber Fmt 4.6, Leading zero omitted, Abs format (unit mm)*
G04 Created by KiCad (PCBNEW (6.0.1-0)) date 2022-01-18 02:04:34*
%MOMM*%
%LPD*%
G01*
G04 APERTURE LIST*
G04 Aperture macros list*
%AMRoundRect*
0 Rectangle with rounded corners*
0 $1 Rounding radius*
0 $2 $3 $4 $5 $6 $7 $8 $9 X,Y pos of 4 corners*
0 Add a 4 corners polygon primitive as box body*
4,1,4,$2,$3,$4,$5,$6,$7,$8,$9,$2,$3,0*
0 Add four circle primitives for the rounded corners*
1,1,$1+$1,$2,$3*
1,1,$1+$1,$4,$5*
1,1,$1+$1,$6,$7*
1,1,$1+$1,$8,$9*
0 Add four rect primitives between the rounded corners*
20,1,$1+$1,$2,$3,$4,$5,0*
20,1,$1+$1,$4,$5,$6,$7,0*
20,1,$1+$1,$6,$7,$8,$9,0*
20,1,$1+$1,$8,$9,$2,$3,0*%
G04 Aperture macros list end*
%ADD10C,0.300000*%
G04 #@! TA.AperFunction,NonConductor*
%ADD11C,0.300000*%
G04 #@! TD*
G04 #@! TA.AperFunction,EtchedComponent*
%ADD12C,0.010000*%
G04 #@! TD*
G04 #@! TA.AperFunction,ComponentPad*
%ADD13C,2.250000*%
G04 #@! TD*
G04 #@! TA.AperFunction,ComponentPad*
%ADD14C,1.905000*%
G04 #@! TD*
G04 #@! TA.AperFunction,ComponentPad*
%ADD15R,1.905000X1.905000*%
G04 #@! TD*
G04 #@! TA.AperFunction,SMDPad,CuDef*
%ADD16R,1.000000X1.200000*%
G04 #@! TD*
G04 #@! TA.AperFunction,SMDPad,CuDef*
%ADD17R,1.000000X0.900000*%
G04 #@! TD*
G04 #@! TA.AperFunction,SMDPad,CuDef*
%ADD18R,0.600000X1.450000*%
G04 #@! TD*
G04 #@! TA.AperFunction,SMDPad,CuDef*
%ADD19R,0.300000X1.450000*%
G04 #@! TD*
G04 #@! TA.AperFunction,ComponentPad*
%ADD20O,1.000000X1.600000*%
G04 #@! TD*
G04 #@! TA.AperFunction,ComponentPad*
%ADD21O,1.000000X2.100000*%
G04 #@! TD*
G04 #@! TA.AperFunction,ComponentPad*
%ADD22C,1.700000*%
G04 #@! TD*
G04 #@! TA.AperFunction,ComponentPad*
%ADD23R,1.700000X1.700000*%
G04 #@! TD*
G04 #@! TA.AperFunction,SMDPad,CuDef*
%ADD24R,1.100000X1.800000*%
G04 #@! TD*
G04 #@! TA.AperFunction,SMDPad,CuDef*
%ADD25R,1.000000X0.750000*%
G04 #@! TD*
G04 #@! TA.AperFunction,SMDPad,CuDef*
%ADD26R,0.750000X1.000000*%
G04 #@! TD*
G04 #@! TA.AperFunction,SMDPad,CuDef*
%ADD27R,1.200000X1.200000*%
G04 #@! TD*
G04 #@! TA.AperFunction,SMDPad,CuDef*
%ADD28RoundRect,0.250000X0.625000X-0.375000X0.625000X0.375000X-0.625000X0.375000X-0.625000X-0.375000X0*%
G04 #@! TD*
G04 #@! TA.AperFunction,SMDPad,CuDef*
%ADD29R,0.900000X0.800000*%
G04 #@! TD*
G04 #@! TA.AperFunction,SMDPad,CuDef*
%ADD30R,0.800000X0.900000*%
G04 #@! TD*
G04 #@! TA.AperFunction,SMDPad,CuDef*
%ADD31R,1.500000X1.700000*%
G04 #@! TD*
G04 #@! TA.AperFunction,SMDPad,CuDef*
%ADD32RoundRect,0.062500X-0.062500X0.475000X-0.062500X-0.475000X0.062500X-0.475000X0.062500X0.475000X0*%
G04 #@! TD*
G04 #@! TA.AperFunction,SMDPad,CuDef*
%ADD33RoundRect,0.062500X-0.475000X0.062500X-0.475000X-0.062500X0.475000X-0.062500X0.475000X0.062500X0*%
G04 #@! TD*
G04 #@! TA.AperFunction,SMDPad,CuDef*
%ADD34R,5.200000X5.200000*%
G04 #@! TD*
G04 #@! TA.AperFunction,ViaPad*
%ADD35C,0.600000*%
G04 #@! TD*
G04 #@! TA.AperFunction,Conductor*
%ADD36C,0.254000*%
G04 #@! TD*
G04 #@! TA.AperFunction,Conductor*
%ADD37C,0.381000*%
G04 #@! TD*
G04 #@! TA.AperFunction,Conductor*
%ADD38C,0.203200*%
G04 #@! TD*
G04 APERTURE END LIST*
D10*
D11*
X298680000Y-253102321D02*
X298680000Y-251602321D01*
X298537142Y-252530892D02*
X298108571Y-253102321D01*
X298108571Y-252102321D02*
X298680000Y-252673750D01*
X297465714Y-253102321D02*
X297465714Y-251602321D01*
X297465714Y-252173750D02*
X297322857Y-252102321D01*
X297037142Y-252102321D01*
X296894285Y-252173750D01*
X296822857Y-252245178D01*
X296751428Y-252388035D01*
X296751428Y-252816607D01*
X296822857Y-252959464D01*
X296894285Y-253030892D01*
X297037142Y-253102321D01*
X297322857Y-253102321D01*
X297465714Y-253030892D01*
X296108571Y-252959464D02*
X296037142Y-253030892D01*
X296108571Y-253102321D01*
X296180000Y-253030892D01*
X296108571Y-252959464D01*
X296108571Y-253102321D01*
X294751428Y-253102321D02*
X294751428Y-252316607D01*
X294822857Y-252173750D01*
X294965714Y-252102321D01*
X295251428Y-252102321D01*
X295394285Y-252173750D01*
X294751428Y-253030892D02*
X294894285Y-253102321D01*
X295251428Y-253102321D01*
X295394285Y-253030892D01*
X295465714Y-252888035D01*
X295465714Y-252745178D01*
X295394285Y-252602321D01*
X295251428Y-252530892D01*
X294894285Y-252530892D01*
X294751428Y-252459464D01*
X294037142Y-253102321D02*
X294037142Y-252102321D01*
X294037142Y-251602321D02*
X294108571Y-251673750D01*
X294037142Y-251745178D01*
X293965714Y-251673750D01*
X294037142Y-251602321D01*
X294037142Y-251745178D01*
X293037142Y-251602321D02*
X292894285Y-251602321D01*
X292751428Y-251673750D01*
X292680000Y-251745178D01*
X292608571Y-251888035D01*
X292537142Y-252173750D01*
X292537142Y-252530892D01*
X292608571Y-252816607D01*
X292680000Y-252959464D01*
X292751428Y-253030892D01*
X292894285Y-253102321D01*
X293037142Y-253102321D01*
X293180000Y-253030892D01*
X293251428Y-252959464D01*
X293322857Y-252816607D01*
X293394285Y-252530892D01*
X293394285Y-252173750D01*
X293322857Y-251888035D01*
X293251428Y-251745178D01*
X293180000Y-251673750D01*
X293037142Y-251602321D01*
X292037142Y-251602321D02*
X291108571Y-251602321D01*
X291608571Y-252173750D01*
X291394285Y-252173750D01*
X291251428Y-252245178D01*
X291180000Y-252316607D01*
X291108571Y-252459464D01*
X291108571Y-252816607D01*
X291180000Y-252959464D01*
X291251428Y-253030892D01*
X291394285Y-253102321D01*
X291822857Y-253102321D01*
X291965714Y-253030892D01*
X292037142Y-252959464D01*
X290465714Y-252959464D02*
X290394285Y-253030892D01*
X290465714Y-253102321D01*
X290537142Y-253030892D01*
X290465714Y-252959464D01*
X290465714Y-253102321D01*
X289751428Y-253102321D02*
X289751428Y-252102321D01*
X289751428Y-252245178D02*
X289680000Y-252173750D01*
X289537142Y-252102321D01*
X289322857Y-252102321D01*
X289180000Y-252173750D01*
X289108571Y-252316607D01*
X289108571Y-253102321D01*
X289108571Y-252316607D02*
X289037142Y-252173750D01*
X288894285Y-252102321D01*
X288680000Y-252102321D01*
X288537142Y-252173750D01*
X288465714Y-252316607D01*
X288465714Y-253102321D01*
X287180000Y-253030892D02*
X287322857Y-253102321D01*
X287608571Y-253102321D01*
X287751428Y-253030892D01*
X287822857Y-252888035D01*
X287822857Y-252316607D01*
X287751428Y-252173750D01*
X287608571Y-252102321D01*
X287322857Y-252102321D01*
X287180000Y-252173750D01*
X287108571Y-252316607D01*
X287108571Y-252459464D01*
X287822857Y-252602321D01*
D12*
X301867625Y-253725500D02*
X302272437Y-253725500D01*
X302272437Y-253725500D02*
X302272437Y-253320688D01*
X302272437Y-253320688D02*
X301867625Y-253320688D01*
X301867625Y-253320688D02*
X301867625Y-253725500D01*
X301867625Y-253725500D02*
X301867625Y-253725500D01*
G36*
X302272437Y-253725500D02*
G01*
X301867625Y-253725500D01*
X301867625Y-253320688D01*
X302272437Y-253320688D01*
X302272437Y-253725500D01*
G37*
X302272437Y-253725500D02*
X301867625Y-253725500D01*
X301867625Y-253320688D01*
X302272437Y-253320688D01*
X302272437Y-253725500D01*
X303058250Y-252939688D02*
X303463062Y-252939688D01*
X303463062Y-252939688D02*
X303463062Y-252534875D01*
X303463062Y-252534875D02*
X303058250Y-252534875D01*
X303058250Y-252534875D02*
X303058250Y-252939688D01*
X303058250Y-252939688D02*
X303058250Y-252939688D01*
G36*
X303463062Y-252939688D02*
G01*
X303058250Y-252939688D01*
X303058250Y-252534875D01*
X303463062Y-252534875D01*
X303463062Y-252939688D01*
G37*
X303463062Y-252939688D02*
X303058250Y-252939688D01*
X303058250Y-252534875D01*
X303463062Y-252534875D01*
X303463062Y-252939688D01*
X303244781Y-249451795D02*
X303120663Y-249453165D01*
X303120663Y-249453165D02*
X303008951Y-249457322D01*
X303008951Y-249457322D02*
X302906358Y-249464669D01*
X302906358Y-249464669D02*
X302809594Y-249475610D01*
X302809594Y-249475610D02*
X302715372Y-249490548D01*
X302715372Y-249490548D02*
X302620403Y-249509887D01*
X302620403Y-249509887D02*
X302521399Y-249534031D01*
X302521399Y-249534031D02*
X302476120Y-249546168D01*
X302476120Y-249546168D02*
X302267573Y-249611406D01*
X302267573Y-249611406D02*
X302065485Y-249690742D01*
X302065485Y-249690742D02*
X301870622Y-249783778D01*
X301870622Y-249783778D02*
X301683751Y-249890118D01*
X301683751Y-249890118D02*
X301505636Y-250009366D01*
X301505636Y-250009366D02*
X301353490Y-250127367D01*
X301353490Y-250127367D02*
X301195822Y-250268092D01*
X301195822Y-250268092D02*
X301048485Y-250419537D01*
X301048485Y-250419537D02*
X300912164Y-250580635D01*
X300912164Y-250580635D02*
X300787542Y-250750317D01*
X300787542Y-250750317D02*
X300675303Y-250927516D01*
X300675303Y-250927516D02*
X300576130Y-251111166D01*
X300576130Y-251111166D02*
X300490708Y-251300197D01*
X300490708Y-251300197D02*
X300419720Y-251493543D01*
X300419720Y-251493543D02*
X300370966Y-251661553D01*
X300370966Y-251661553D02*
X300337895Y-251801539D01*
X300337895Y-251801539D02*
X300312535Y-251933475D01*
X300312535Y-251933475D02*
X300294143Y-252062747D01*
X300294143Y-252062747D02*
X300281975Y-252194743D01*
X300281975Y-252194743D02*
X300275289Y-252334850D01*
X300275289Y-252334850D02*
X300274636Y-252360250D01*
X300274636Y-252360250D02*
X300277355Y-252578547D01*
X300277355Y-252578547D02*
X300295550Y-252793330D01*
X300295550Y-252793330D02*
X300329215Y-253004571D01*
X300329215Y-253004571D02*
X300378344Y-253212239D01*
X300378344Y-253212239D02*
X300442931Y-253416305D01*
X300442931Y-253416305D02*
X300507128Y-253580237D01*
X300507128Y-253580237D02*
X300535211Y-253645502D01*
X300535211Y-253645502D02*
X300559273Y-253699660D01*
X300559273Y-253699660D02*
X300581142Y-253746363D01*
X300581142Y-253746363D02*
X300602643Y-253789263D01*
X300602643Y-253789263D02*
X300625604Y-253832013D01*
X300625604Y-253832013D02*
X300651850Y-253878265D01*
X300651850Y-253878265D02*
X300680975Y-253927906D01*
X300680975Y-253927906D02*
X300800194Y-254114177D01*
X300800194Y-254114177D02*
X300930298Y-254288903D01*
X300930298Y-254288903D02*
X301071421Y-254452215D01*
X301071421Y-254452215D02*
X301223695Y-254604246D01*
X301223695Y-254604246D02*
X301387253Y-254745130D01*
X301387253Y-254745130D02*
X301562226Y-254874998D01*
X301562226Y-254874998D02*
X301744594Y-254991525D01*
X301744594Y-254991525D02*
X301797423Y-255022494D01*
X301797423Y-255022494D02*
X301843336Y-255048471D01*
X301843336Y-255048471D02*
X301885985Y-255071281D01*
X301885985Y-255071281D02*
X301929022Y-255092751D01*
X301929022Y-255092751D02*
X301976099Y-255114707D01*
X301976099Y-255114707D02*
X302030869Y-255138975D01*
X302030869Y-255138975D02*
X302092263Y-255165372D01*
X302092263Y-255165372D02*
X302188496Y-255204919D01*
X302188496Y-255204919D02*
X302277214Y-255237958D01*
X302277214Y-255237958D02*
X302364328Y-255266445D01*
X302364328Y-255266445D02*
X302455752Y-255292339D01*
X302455752Y-255292339D02*
X302538344Y-255313072D01*
X302538344Y-255313072D02*
X302702860Y-255348626D01*
X302702860Y-255348626D02*
X302859955Y-255374303D01*
X302859955Y-255374303D02*
X303014183Y-255390643D01*
X303014183Y-255390643D02*
X303170101Y-255398186D01*
X303170101Y-255398186D02*
X303260656Y-255398763D01*
X303260656Y-255398763D02*
X303311875Y-255398248D01*
X303311875Y-255398248D02*
X303359996Y-255397543D01*
X303359996Y-255397543D02*
X303401876Y-255396710D01*
X303401876Y-255396710D02*
X303434372Y-255395813D01*
X303434372Y-255395813D02*
X303454340Y-255394915D01*
X303454340Y-255394915D02*
X303455125Y-255394859D01*
X303455125Y-255394859D02*
X303671299Y-255370907D01*
X303671299Y-255370907D02*
X303884056Y-255331920D01*
X303884056Y-255331920D02*
X304092537Y-255278217D01*
X304092537Y-255278217D02*
X304295882Y-255210113D01*
X304295882Y-255210113D02*
X304493234Y-255127926D01*
X304493234Y-255127926D02*
X304683732Y-255031975D01*
X304683732Y-255031975D02*
X304866518Y-254922576D01*
X304866518Y-254922576D02*
X305017474Y-254817546D01*
X305017474Y-254817546D02*
X305190401Y-254679199D01*
X305190401Y-254679199D02*
X305351085Y-254530838D01*
X305351085Y-254530838D02*
X305499299Y-254372789D01*
X305499299Y-254372789D02*
X305634821Y-254205382D01*
X305634821Y-254205382D02*
X305757426Y-254028944D01*
X305757426Y-254028944D02*
X305866889Y-253843802D01*
X305866889Y-253843802D02*
X305962987Y-253650285D01*
X305962987Y-253650285D02*
X306045494Y-253448721D01*
X306045494Y-253448721D02*
X306114187Y-253239438D01*
X306114187Y-253239438D02*
X306126332Y-253196380D01*
X306126332Y-253196380D02*
X306152698Y-253094585D01*
X306152698Y-253094585D02*
X306174083Y-252998261D01*
X306174083Y-252998261D02*
X306190891Y-252904117D01*
X306190891Y-252904117D02*
X306203525Y-252808867D01*
X306203525Y-252808867D02*
X306212390Y-252709220D01*
X306212390Y-252709220D02*
X306217888Y-252601890D01*
X306217888Y-252601890D02*
X306220424Y-252483586D01*
X306220424Y-252483586D02*
X306220705Y-252427719D01*
X306220705Y-252427719D02*
X306220030Y-252372358D01*
X306220030Y-252372358D02*
X305687956Y-252372358D01*
X305687956Y-252372358D02*
X305687853Y-252452496D01*
X305687853Y-252452496D02*
X305686187Y-252532160D01*
X305686187Y-252532160D02*
X305682991Y-252607287D01*
X305682991Y-252607287D02*
X305678294Y-252673810D01*
X305678294Y-252673810D02*
X305674574Y-252709500D01*
X305674574Y-252709500D02*
X305642700Y-252906798D01*
X305642700Y-252906798D02*
X305596049Y-253098413D01*
X305596049Y-253098413D02*
X305534799Y-253283972D01*
X305534799Y-253283972D02*
X305459131Y-253463099D01*
X305459131Y-253463099D02*
X305369223Y-253635419D01*
X305369223Y-253635419D02*
X305265256Y-253800559D01*
X305265256Y-253800559D02*
X305147409Y-253958143D01*
X305147409Y-253958143D02*
X305015862Y-254107797D01*
X305015862Y-254107797D02*
X304993526Y-254131010D01*
X304993526Y-254131010D02*
X304859292Y-254258084D01*
X304859292Y-254258084D02*
X304713590Y-254376020D01*
X304713590Y-254376020D02*
X304559119Y-254482840D01*
X304559119Y-254482840D02*
X304398581Y-254576566D01*
X304398581Y-254576566D02*
X304352792Y-254600254D01*
X304352792Y-254600254D02*
X304278384Y-254636903D01*
X304278384Y-254636903D02*
X304213143Y-254667122D01*
X304213143Y-254667122D02*
X304152646Y-254692690D01*
X304152646Y-254692690D02*
X304092472Y-254715384D01*
X304092472Y-254715384D02*
X304028199Y-254736983D01*
X304028199Y-254736983D02*
X303963125Y-254756977D01*
X303963125Y-254756977D02*
X303773912Y-254806390D01*
X303773912Y-254806390D02*
X303588161Y-254840841D01*
X303588161Y-254840841D02*
X303404423Y-254860464D01*
X303404423Y-254860464D02*
X303221247Y-254865392D01*
X303221247Y-254865392D02*
X303037186Y-254855761D01*
X303037186Y-254855761D02*
X302970644Y-254848781D01*
X302970644Y-254848781D02*
X302783312Y-254819837D01*
X302783312Y-254819837D02*
X302603731Y-254778028D01*
X302603731Y-254778028D02*
X302429393Y-254722604D01*
X302429393Y-254722604D02*
X302257791Y-254652814D01*
X302257791Y-254652814D02*
X302160834Y-254606616D01*
X302160834Y-254606616D02*
X301990202Y-254513197D01*
X301990202Y-254513197D02*
X301830786Y-254409462D01*
X301830786Y-254409462D02*
X301681828Y-254294724D01*
X301681828Y-254294724D02*
X301542571Y-254168300D01*
X301542571Y-254168300D02*
X301412256Y-254029504D01*
X301412256Y-254029504D02*
X301290126Y-253877653D01*
X301290126Y-253877653D02*
X301181858Y-253722009D01*
X301181858Y-253722009D02*
X301156732Y-253680818D01*
X301156732Y-253680818D02*
X301127409Y-253628690D01*
X301127409Y-253628690D02*
X301095709Y-253569246D01*
X301095709Y-253569246D02*
X301063451Y-253506106D01*
X301063451Y-253506106D02*
X301032457Y-253442890D01*
X301032457Y-253442890D02*
X301004544Y-253383217D01*
X301004544Y-253383217D02*
X300981535Y-253330707D01*
X300981535Y-253330707D02*
X300968097Y-253296875D01*
X300968097Y-253296875D02*
X300905230Y-253105334D01*
X300905230Y-253105334D02*
X300857834Y-252912595D01*
X300857834Y-252912595D02*
X300825950Y-252719200D01*
X300825950Y-252719200D02*
X300809620Y-252525690D01*
X300809620Y-252525690D02*
X300808882Y-252332607D01*
X300808882Y-252332607D02*
X300823778Y-252140492D01*
X300823778Y-252140492D02*
X300854348Y-251949886D01*
X300854348Y-251949886D02*
X300864151Y-251903844D01*
X300864151Y-251903844D02*
X300897800Y-251767551D01*
X300897800Y-251767551D02*
X300936108Y-251641368D01*
X300936108Y-251641368D02*
X300981046Y-251519757D01*
X300981046Y-251519757D02*
X301034587Y-251397182D01*
X301034587Y-251397182D02*
X301072246Y-251319708D01*
X301072246Y-251319708D02*
X301165951Y-251150860D01*
X301165951Y-251150860D02*
X301272776Y-250990423D01*
X301272776Y-250990423D02*
X301391952Y-250839118D01*
X301391952Y-250839118D02*
X301522713Y-250697664D01*
X301522713Y-250697664D02*
X301664290Y-250566781D01*
X301664290Y-250566781D02*
X301815916Y-250447190D01*
X301815916Y-250447190D02*
X301976823Y-250339610D01*
X301976823Y-250339610D02*
X302146243Y-250244761D01*
X302146243Y-250244761D02*
X302290425Y-250177230D01*
X302290425Y-250177230D02*
X302462053Y-250110835D01*
X302462053Y-250110835D02*
X302634607Y-250058837D01*
X302634607Y-250058837D02*
X302810094Y-250020828D01*
X302810094Y-250020828D02*
X302990524Y-249996401D01*
X302990524Y-249996401D02*
X303177905Y-249985147D01*
X303177905Y-249985147D02*
X303240812Y-249984257D01*
X303240812Y-249984257D02*
X303438907Y-249990627D01*
X303438907Y-249990627D02*
X303630535Y-250011272D01*
X303630535Y-250011272D02*
X303816469Y-250046423D01*
X303816469Y-250046423D02*
X303997485Y-250096317D01*
X303997485Y-250096317D02*
X304174356Y-250161185D01*
X304174356Y-250161185D02*
X304347856Y-250241263D01*
X304347856Y-250241263D02*
X304518759Y-250336785D01*
X304518759Y-250336785D02*
X304619456Y-250400994D01*
X304619456Y-250400994D02*
X304758889Y-250502522D01*
X304758889Y-250502522D02*
X304893087Y-250617028D01*
X304893087Y-250617028D02*
X305020409Y-250742589D01*
X305020409Y-250742589D02*
X305139215Y-250877281D01*
X305139215Y-250877281D02*
X305247864Y-251019181D01*
X305247864Y-251019181D02*
X305344715Y-251166365D01*
X305344715Y-251166365D02*
X305428128Y-251316911D01*
X305428128Y-251316911D02*
X305462924Y-251389830D01*
X305462924Y-251389830D02*
X305524327Y-251534689D01*
X305524327Y-251534689D02*
X305574558Y-251673928D01*
X305574558Y-251673928D02*
X305614815Y-251811876D01*
X305614815Y-251811876D02*
X305646294Y-251952864D01*
X305646294Y-251952864D02*
X305670194Y-252101221D01*
X305670194Y-252101221D02*
X305678595Y-252169750D01*
X305678595Y-252169750D02*
X305683358Y-252226920D01*
X305683358Y-252226920D02*
X305686468Y-252295811D01*
X305686468Y-252295811D02*
X305687956Y-252372358D01*
X305687956Y-252372358D02*
X306220030Y-252372358D01*
X306220030Y-252372358D02*
X306218960Y-252284723D01*
X306218960Y-252284723D02*
X306213086Y-252153856D01*
X306213086Y-252153856D02*
X306202512Y-252031775D01*
X306202512Y-252031775D02*
X306186665Y-251915135D01*
X306186665Y-251915135D02*
X306164973Y-251800594D01*
X306164973Y-251800594D02*
X306136863Y-251684809D01*
X306136863Y-251684809D02*
X306101764Y-251564437D01*
X306101764Y-251564437D02*
X306059103Y-251436134D01*
X306059103Y-251436134D02*
X306043409Y-251391875D01*
X306043409Y-251391875D02*
X305965024Y-251197156D01*
X305965024Y-251197156D02*
X305872184Y-251008822D01*
X305872184Y-251008822D02*
X305765078Y-250827135D01*
X305765078Y-250827135D02*
X305643898Y-250652358D01*
X305643898Y-250652358D02*
X305508833Y-250484753D01*
X305508833Y-250484753D02*
X305360076Y-250324583D01*
X305360076Y-250324583D02*
X305197817Y-250172110D01*
X305197817Y-250172110D02*
X305090979Y-250081929D01*
X305090979Y-250081929D02*
X305005150Y-250016436D01*
X305005150Y-250016436D02*
X304907611Y-249949110D01*
X304907611Y-249949110D02*
X304802002Y-249882162D01*
X304802002Y-249882162D02*
X304691964Y-249817805D01*
X304691964Y-249817805D02*
X304581137Y-249758250D01*
X304581137Y-249758250D02*
X304473161Y-249705708D01*
X304473161Y-249705708D02*
X304467156Y-249702965D01*
X304467156Y-249702965D02*
X304397196Y-249673092D01*
X304397196Y-249673092D02*
X304316015Y-249641706D01*
X304316015Y-249641706D02*
X304227983Y-249610286D01*
X304227983Y-249610286D02*
X304137471Y-249580312D01*
X304137471Y-249580312D02*
X304048849Y-249553261D01*
X304048849Y-249553261D02*
X303966486Y-249530614D01*
X303966486Y-249530614D02*
X303934600Y-249522721D01*
X303934600Y-249522721D02*
X303841375Y-249501953D01*
X303841375Y-249501953D02*
X303752401Y-249485293D01*
X303752401Y-249485293D02*
X303664397Y-249472402D01*
X303664397Y-249472402D02*
X303574081Y-249462945D01*
X303574081Y-249462945D02*
X303478172Y-249456582D01*
X303478172Y-249456582D02*
X303373390Y-249452978D01*
X303373390Y-249452978D02*
X303256455Y-249451794D01*
X303256455Y-249451794D02*
X303244781Y-249451795D01*
X303244781Y-249451795D02*
X303244781Y-249451795D01*
G36*
X306220424Y-252483586D02*
G01*
X306217888Y-252601890D01*
X306212390Y-252709220D01*
X306203525Y-252808867D01*
X306190891Y-252904117D01*
X306174083Y-252998261D01*
X306152698Y-253094585D01*
X306126332Y-253196380D01*
X306114187Y-253239438D01*
X306045494Y-253448721D01*
X305962987Y-253650285D01*
X305866889Y-253843802D01*
X305757426Y-254028944D01*
X305634821Y-254205382D01*
X305499299Y-254372789D01*
X305351085Y-254530838D01*
X305190401Y-254679199D01*
X305017474Y-254817546D01*
X304866518Y-254922576D01*
X304683732Y-255031975D01*
X304493234Y-255127926D01*
X304295882Y-255210113D01*
X304092537Y-255278217D01*
X303884056Y-255331920D01*
X303671299Y-255370907D01*
X303455125Y-255394859D01*
X303454340Y-255394915D01*
X303434372Y-255395813D01*
X303401876Y-255396710D01*
X303359996Y-255397543D01*
X303311875Y-255398248D01*
X303260656Y-255398763D01*
X303170101Y-255398186D01*
X303014183Y-255390643D01*
X302859955Y-255374303D01*
X302702860Y-255348626D01*
X302538344Y-255313072D01*
X302455752Y-255292339D01*
X302364328Y-255266445D01*
X302277214Y-255237958D01*
X302188496Y-255204919D01*
X302092263Y-255165372D01*
X302030869Y-255138975D01*
X301976099Y-255114707D01*
X301929022Y-255092751D01*
X301885985Y-255071281D01*
X301843336Y-255048471D01*
X301797423Y-255022494D01*
X301744594Y-254991525D01*
X301562226Y-254874998D01*
X301387253Y-254745130D01*
X301223695Y-254604246D01*
X301071421Y-254452215D01*
X300930298Y-254288903D01*
X300800194Y-254114177D01*
X300680975Y-253927906D01*
X300651850Y-253878265D01*
X300625604Y-253832013D01*
X300602643Y-253789263D01*
X300581142Y-253746363D01*
X300559273Y-253699660D01*
X300535211Y-253645502D01*
X300507128Y-253580237D01*
X300442931Y-253416305D01*
X300378344Y-253212239D01*
X300329215Y-253004571D01*
X300295550Y-252793330D01*
X300277355Y-252578547D01*
X300274636Y-252360250D01*
X300275289Y-252334850D01*
X300275396Y-252332607D01*
X300808882Y-252332607D01*
X300809620Y-252525690D01*
X300825950Y-252719200D01*
X300857834Y-252912595D01*
X300905230Y-253105334D01*
X300968097Y-253296875D01*
X300981535Y-253330707D01*
X301004544Y-253383217D01*
X301032457Y-253442890D01*
X301063451Y-253506106D01*
X301095709Y-253569246D01*
X301127409Y-253628690D01*
X301156732Y-253680818D01*
X301181858Y-253722009D01*
X301290126Y-253877653D01*
X301412256Y-254029504D01*
X301542571Y-254168300D01*
X301681828Y-254294724D01*
X301830786Y-254409462D01*
X301990202Y-254513197D01*
X302160834Y-254606616D01*
X302257791Y-254652814D01*
X302429393Y-254722604D01*
X302603731Y-254778028D01*
X302783312Y-254819837D01*
X302970644Y-254848781D01*
X303037186Y-254855761D01*
X303221247Y-254865392D01*
X303404423Y-254860464D01*
X303588161Y-254840841D01*
X303773912Y-254806390D01*
X303963125Y-254756977D01*
X304028199Y-254736983D01*
X304092472Y-254715384D01*
X304152646Y-254692690D01*
X304213143Y-254667122D01*
X304278384Y-254636903D01*
X304352792Y-254600254D01*
X304398581Y-254576566D01*
X304559119Y-254482840D01*
X304713590Y-254376020D01*
X304859292Y-254258084D01*
X304993526Y-254131010D01*
X305015862Y-254107797D01*
X305147409Y-253958143D01*
X305265256Y-253800559D01*
X305369223Y-253635419D01*
X305459131Y-253463099D01*
X305534799Y-253283972D01*
X305596049Y-253098413D01*
X305642700Y-252906798D01*
X305674574Y-252709500D01*
X305678294Y-252673810D01*
X305682991Y-252607287D01*
X305686187Y-252532160D01*
X305687853Y-252452496D01*
X305687956Y-252372358D01*
X305686468Y-252295811D01*
X305683358Y-252226920D01*
X305678595Y-252169750D01*
X305670194Y-252101221D01*
X305646294Y-251952864D01*
X305614815Y-251811876D01*
X305574558Y-251673928D01*
X305524327Y-251534689D01*
X305462924Y-251389830D01*
X305428128Y-251316911D01*
X305344715Y-251166365D01*
X305247864Y-251019181D01*
X305139215Y-250877281D01*
X305020409Y-250742589D01*
X304893087Y-250617028D01*
X304758889Y-250502522D01*
X304619456Y-250400994D01*
X304518759Y-250336785D01*
X304347856Y-250241263D01*
X304174356Y-250161185D01*
X303997485Y-250096317D01*
X303816469Y-250046423D01*
X303630535Y-250011272D01*
X303438907Y-249990627D01*
X303240812Y-249984257D01*
X303177905Y-249985147D01*
X302990524Y-249996401D01*
X302810094Y-250020828D01*
X302634607Y-250058837D01*
X302462053Y-250110835D01*
X302290425Y-250177230D01*
X302146243Y-250244761D01*
X301976823Y-250339610D01*
X301815916Y-250447190D01*
X301664290Y-250566781D01*
X301522713Y-250697664D01*
X301391952Y-250839118D01*
X301272776Y-250990423D01*
X301165951Y-251150860D01*
X301072246Y-251319708D01*
X301034587Y-251397182D01*
X300981046Y-251519757D01*
X300936108Y-251641368D01*
X300897800Y-251767551D01*
X300864151Y-251903844D01*
X300854348Y-251949886D01*
X300823778Y-252140492D01*
X300808882Y-252332607D01*
X300275396Y-252332607D01*
X300281975Y-252194743D01*
X300294143Y-252062747D01*
X300312535Y-251933475D01*
X300337895Y-251801539D01*
X300370966Y-251661553D01*
X300419720Y-251493543D01*
X300490708Y-251300197D01*
X300576130Y-251111166D01*
X300675303Y-250927516D01*
X300787542Y-250750317D01*
X300912164Y-250580635D01*
X301048485Y-250419537D01*
X301195822Y-250268092D01*
X301353490Y-250127367D01*
X301505636Y-250009366D01*
X301683751Y-249890118D01*
X301870622Y-249783778D01*
X302065485Y-249690742D01*
X302267573Y-249611406D01*
X302476120Y-249546168D01*
X302521399Y-249534031D01*
X302620403Y-249509887D01*
X302715372Y-249490548D01*
X302809594Y-249475610D01*
X302906358Y-249464669D01*
X303008951Y-249457322D01*
X303120663Y-249453165D01*
X303244781Y-249451795D01*
X303256455Y-249451794D01*
X303373390Y-249452978D01*
X303478172Y-249456582D01*
X303574081Y-249462945D01*
X303664397Y-249472402D01*
X303752401Y-249485293D01*
X303841375Y-249501953D01*
X303934600Y-249522721D01*
X303966486Y-249530614D01*
X304048849Y-249553261D01*
X304137471Y-249580312D01*
X304227983Y-249610286D01*
X304316015Y-249641706D01*
X304397196Y-249673092D01*
X304467156Y-249702965D01*
X304473161Y-249705708D01*
X304581137Y-249758250D01*
X304691964Y-249817805D01*
X304802002Y-249882162D01*
X304907611Y-249949110D01*
X305005150Y-250016436D01*
X305090979Y-250081929D01*
X305197817Y-250172110D01*
X305360076Y-250324583D01*
X305508833Y-250484753D01*
X305643898Y-250652358D01*
X305765078Y-250827135D01*
X305872184Y-251008822D01*
X305965024Y-251197156D01*
X306043409Y-251391875D01*
X306059103Y-251436134D01*
X306101764Y-251564437D01*
X306136863Y-251684809D01*
X306164973Y-251800594D01*
X306186665Y-251915135D01*
X306202512Y-252031775D01*
X306213086Y-252153856D01*
X306218960Y-252284723D01*
X306220030Y-252372358D01*
X306220705Y-252427719D01*
X306220424Y-252483586D01*
G37*
X306220424Y-252483586D02*
X306217888Y-252601890D01*
X306212390Y-252709220D01*
X306203525Y-252808867D01*
X306190891Y-252904117D01*
X306174083Y-252998261D01*
X306152698Y-253094585D01*
X306126332Y-253196380D01*
X306114187Y-253239438D01*
X306045494Y-253448721D01*
X305962987Y-253650285D01*
X305866889Y-253843802D01*
X305757426Y-254028944D01*
X305634821Y-254205382D01*
X305499299Y-254372789D01*
X305351085Y-254530838D01*
X305190401Y-254679199D01*
X305017474Y-254817546D01*
X304866518Y-254922576D01*
X304683732Y-255031975D01*
X304493234Y-255127926D01*
X304295882Y-255210113D01*
X304092537Y-255278217D01*
X303884056Y-255331920D01*
X303671299Y-255370907D01*
X303455125Y-255394859D01*
X303454340Y-255394915D01*
X303434372Y-255395813D01*
X303401876Y-255396710D01*
X303359996Y-255397543D01*
X303311875Y-255398248D01*
X303260656Y-255398763D01*
X303170101Y-255398186D01*
X303014183Y-255390643D01*
X302859955Y-255374303D01*
X302702860Y-255348626D01*
X302538344Y-255313072D01*
X302455752Y-255292339D01*
X302364328Y-255266445D01*
X302277214Y-255237958D01*
X302188496Y-255204919D01*
X302092263Y-255165372D01*
X302030869Y-255138975D01*
X301976099Y-255114707D01*
X301929022Y-255092751D01*
X301885985Y-255071281D01*
X301843336Y-255048471D01*
X301797423Y-255022494D01*
X301744594Y-254991525D01*
X301562226Y-254874998D01*
X301387253Y-254745130D01*
X301223695Y-254604246D01*
X301071421Y-254452215D01*
X300930298Y-254288903D01*
X300800194Y-254114177D01*
X300680975Y-253927906D01*
X300651850Y-253878265D01*
X300625604Y-253832013D01*
X300602643Y-253789263D01*
X300581142Y-253746363D01*
X300559273Y-253699660D01*
X300535211Y-253645502D01*
X300507128Y-253580237D01*
X300442931Y-253416305D01*
X300378344Y-253212239D01*
X300329215Y-253004571D01*
X300295550Y-252793330D01*
X300277355Y-252578547D01*
X300274636Y-252360250D01*
X300275289Y-252334850D01*
X300275396Y-252332607D01*
X300808882Y-252332607D01*
X300809620Y-252525690D01*
X300825950Y-252719200D01*
X300857834Y-252912595D01*
X300905230Y-253105334D01*
X300968097Y-253296875D01*
X300981535Y-253330707D01*
X301004544Y-253383217D01*
X301032457Y-253442890D01*
X301063451Y-253506106D01*
X301095709Y-253569246D01*
X301127409Y-253628690D01*
X301156732Y-253680818D01*
X301181858Y-253722009D01*
X301290126Y-253877653D01*
X301412256Y-254029504D01*
X301542571Y-254168300D01*
X301681828Y-254294724D01*
X301830786Y-254409462D01*
X301990202Y-254513197D01*
X302160834Y-254606616D01*
X302257791Y-254652814D01*
X302429393Y-254722604D01*
X302603731Y-254778028D01*
X302783312Y-254819837D01*
X302970644Y-254848781D01*
X303037186Y-254855761D01*
X303221247Y-254865392D01*
X303404423Y-254860464D01*
X303588161Y-254840841D01*
X303773912Y-254806390D01*
X303963125Y-254756977D01*
X304028199Y-254736983D01*
X304092472Y-254715384D01*
X304152646Y-254692690D01*
X304213143Y-254667122D01*
X304278384Y-254636903D01*
X304352792Y-254600254D01*
X304398581Y-254576566D01*
X304559119Y-254482840D01*
X304713590Y-254376020D01*
X304859292Y-254258084D01*
X304993526Y-254131010D01*
X305015862Y-254107797D01*
X305147409Y-253958143D01*
X305265256Y-253800559D01*
X305369223Y-253635419D01*
X305459131Y-253463099D01*
X305534799Y-253283972D01*
X305596049Y-253098413D01*
X305642700Y-252906798D01*
X305674574Y-252709500D01*
X305678294Y-252673810D01*
X305682991Y-252607287D01*
X305686187Y-252532160D01*
X305687853Y-252452496D01*
X305687956Y-252372358D01*
X305686468Y-252295811D01*
X305683358Y-252226920D01*
X305678595Y-252169750D01*
X305670194Y-252101221D01*
X305646294Y-251952864D01*
X305614815Y-251811876D01*
X305574558Y-251673928D01*
X305524327Y-251534689D01*
X305462924Y-251389830D01*
X305428128Y-251316911D01*
X305344715Y-251166365D01*
X305247864Y-251019181D01*
X305139215Y-250877281D01*
X305020409Y-250742589D01*
X304893087Y-250617028D01*
X304758889Y-250502522D01*
X304619456Y-250400994D01*
X304518759Y-250336785D01*
X304347856Y-250241263D01*
X304174356Y-250161185D01*
X303997485Y-250096317D01*
X303816469Y-250046423D01*
X303630535Y-250011272D01*
X303438907Y-249990627D01*
X303240812Y-249984257D01*
X303177905Y-249985147D01*
X302990524Y-249996401D01*
X302810094Y-250020828D01*
X302634607Y-250058837D01*
X302462053Y-250110835D01*
X302290425Y-250177230D01*
X302146243Y-250244761D01*
X301976823Y-250339610D01*
X301815916Y-250447190D01*
X301664290Y-250566781D01*
X301522713Y-250697664D01*
X301391952Y-250839118D01*
X301272776Y-250990423D01*
X301165951Y-251150860D01*
X301072246Y-251319708D01*
X301034587Y-251397182D01*
X300981046Y-251519757D01*
X300936108Y-251641368D01*
X300897800Y-251767551D01*
X300864151Y-251903844D01*
X300854348Y-251949886D01*
X300823778Y-252140492D01*
X300808882Y-252332607D01*
X300275396Y-252332607D01*
X300281975Y-252194743D01*
X300294143Y-252062747D01*
X300312535Y-251933475D01*
X300337895Y-251801539D01*
X300370966Y-251661553D01*
X300419720Y-251493543D01*
X300490708Y-251300197D01*
X300576130Y-251111166D01*
X300675303Y-250927516D01*
X300787542Y-250750317D01*
X300912164Y-250580635D01*
X301048485Y-250419537D01*
X301195822Y-250268092D01*
X301353490Y-250127367D01*
X301505636Y-250009366D01*
X301683751Y-249890118D01*
X301870622Y-249783778D01*
X302065485Y-249690742D01*
X302267573Y-249611406D01*
X302476120Y-249546168D01*
X302521399Y-249534031D01*
X302620403Y-249509887D01*
X302715372Y-249490548D01*
X302809594Y-249475610D01*
X302906358Y-249464669D01*
X303008951Y-249457322D01*
X303120663Y-249453165D01*
X303244781Y-249451795D01*
X303256455Y-249451794D01*
X303373390Y-249452978D01*
X303478172Y-249456582D01*
X303574081Y-249462945D01*
X303664397Y-249472402D01*
X303752401Y-249485293D01*
X303841375Y-249501953D01*
X303934600Y-249522721D01*
X303966486Y-249530614D01*
X304048849Y-249553261D01*
X304137471Y-249580312D01*
X304227983Y-249610286D01*
X304316015Y-249641706D01*
X304397196Y-249673092D01*
X304467156Y-249702965D01*
X304473161Y-249705708D01*
X304581137Y-249758250D01*
X304691964Y-249817805D01*
X304802002Y-249882162D01*
X304907611Y-249949110D01*
X305005150Y-250016436D01*
X305090979Y-250081929D01*
X305197817Y-250172110D01*
X305360076Y-250324583D01*
X305508833Y-250484753D01*
X305643898Y-250652358D01*
X305765078Y-250827135D01*
X305872184Y-251008822D01*
X305965024Y-251197156D01*
X306043409Y-251391875D01*
X306059103Y-251436134D01*
X306101764Y-251564437D01*
X306136863Y-251684809D01*
X306164973Y-251800594D01*
X306186665Y-251915135D01*
X306202512Y-252031775D01*
X306213086Y-252153856D01*
X306218960Y-252284723D01*
X306220030Y-252372358D01*
X306220705Y-252427719D01*
X306220424Y-252483586D01*
X303844062Y-252939688D02*
X304248875Y-252939688D01*
X304248875Y-252939688D02*
X304248875Y-252534875D01*
X304248875Y-252534875D02*
X303844062Y-252534875D01*
X303844062Y-252534875D02*
X303844062Y-252939688D01*
X303844062Y-252939688D02*
X303844062Y-252939688D01*
G36*
X304248875Y-252939688D02*
G01*
X303844062Y-252939688D01*
X303844062Y-252534875D01*
X304248875Y-252534875D01*
X304248875Y-252939688D01*
G37*
X304248875Y-252939688D02*
X303844062Y-252939688D01*
X303844062Y-252534875D01*
X304248875Y-252534875D01*
X304248875Y-252939688D01*
X303463062Y-252130063D02*
X303844062Y-252130063D01*
X303844062Y-252130063D02*
X303844062Y-251749063D01*
X303844062Y-251749063D02*
X303463062Y-251749063D01*
X303463062Y-251749063D02*
X303463062Y-252130063D01*
X303463062Y-252130063D02*
X303463062Y-252130063D01*
G36*
X303844062Y-252130063D02*
G01*
X303463062Y-252130063D01*
X303463062Y-251749063D01*
X303844062Y-251749063D01*
X303844062Y-252130063D01*
G37*
X303844062Y-252130063D02*
X303463062Y-252130063D01*
X303463062Y-251749063D01*
X303844062Y-251749063D01*
X303844062Y-252130063D01*
X302653437Y-252130063D02*
X303058250Y-252130063D01*
X303058250Y-252130063D02*
X303058250Y-251749063D01*
X303058250Y-251749063D02*
X302653437Y-251749063D01*
X302653437Y-251749063D02*
X302653437Y-252130063D01*
X302653437Y-252130063D02*
X302653437Y-252130063D01*
G36*
X303058250Y-252130063D02*
G01*
X302653437Y-252130063D01*
X302653437Y-251749063D01*
X303058250Y-251749063D01*
X303058250Y-252130063D01*
G37*
X303058250Y-252130063D02*
X302653437Y-252130063D01*
X302653437Y-251749063D01*
X303058250Y-251749063D01*
X303058250Y-252130063D01*
X303058250Y-251344250D02*
X303463062Y-251344250D01*
X303463062Y-251344250D02*
X303463062Y-250939438D01*
X303463062Y-250939438D02*
X303058250Y-250939438D01*
X303058250Y-250939438D02*
X303058250Y-251344250D01*
X303058250Y-251344250D02*
X303058250Y-251344250D01*
G36*
X303463062Y-251344250D02*
G01*
X303058250Y-251344250D01*
X303058250Y-250939438D01*
X303463062Y-250939438D01*
X303463062Y-251344250D01*
G37*
X303463062Y-251344250D02*
X303058250Y-251344250D01*
X303058250Y-250939438D01*
X303463062Y-250939438D01*
X303463062Y-251344250D01*
X302272437Y-252939688D02*
X302653437Y-252939688D01*
X302653437Y-252939688D02*
X302653437Y-252534875D01*
X302653437Y-252534875D02*
X302272437Y-252534875D01*
X302272437Y-252534875D02*
X302272437Y-252939688D01*
X302272437Y-252939688D02*
X302272437Y-252939688D01*
G36*
X302653437Y-252939688D02*
G01*
X302272437Y-252939688D01*
X302272437Y-252534875D01*
X302653437Y-252534875D01*
X302653437Y-252939688D01*
G37*
X302653437Y-252939688D02*
X302272437Y-252939688D01*
X302272437Y-252534875D01*
X302653437Y-252534875D01*
X302653437Y-252939688D01*
X304248875Y-253725500D02*
X304653687Y-253725500D01*
X304653687Y-253725500D02*
X304653687Y-253320688D01*
X304653687Y-253320688D02*
X304248875Y-253320688D01*
X304248875Y-253320688D02*
X304248875Y-253725500D01*
X304248875Y-253725500D02*
X304248875Y-253725500D01*
G36*
X304653687Y-253725500D02*
G01*
X304248875Y-253725500D01*
X304248875Y-253320688D01*
X304653687Y-253320688D01*
X304653687Y-253725500D01*
G37*
X304653687Y-253725500D02*
X304248875Y-253725500D01*
X304248875Y-253320688D01*
X304653687Y-253320688D01*
X304653687Y-253725500D01*
D13*
X325632500Y-233215000D03*
X331982500Y-230675000D03*
X306582500Y-233215000D03*
X312932500Y-230675000D03*
X149420000Y-176065000D03*
X155770000Y-173525000D03*
X168470000Y-176065000D03*
X174820000Y-173525000D03*
X187520000Y-176065000D03*
X193870000Y-173525000D03*
X206570000Y-176065000D03*
X212920000Y-173525000D03*
X225620000Y-176065000D03*
X231970000Y-173525000D03*
X244670000Y-176065000D03*
X251020000Y-173525000D03*
X263720000Y-176065000D03*
X270070000Y-173525000D03*
X301820000Y-176065000D03*
X308170000Y-173525000D03*
X320870000Y-176065000D03*
X327220000Y-173525000D03*
X354207500Y-214165000D03*
X360557500Y-211625000D03*
X339920000Y-176065000D03*
X346270000Y-173525000D03*
X344682500Y-233215000D03*
X351032500Y-230675000D03*
X335157500Y-214165000D03*
X341507500Y-211625000D03*
X358970000Y-176065000D03*
X365320000Y-173525000D03*
X349445000Y-195115000D03*
X355795000Y-192575000D03*
X392307500Y-195115000D03*
X398657500Y-192575000D03*
X373257500Y-214165000D03*
X379607500Y-211625000D03*
X368495000Y-195115000D03*
X374845000Y-192575000D03*
X130370000Y-176065000D03*
X136720000Y-173525000D03*
X163707500Y-214165000D03*
X170057500Y-211625000D03*
X249432500Y-233215000D03*
X255782500Y-230675000D03*
X387545000Y-176065000D03*
X393895000Y-173525000D03*
X378020000Y-176065000D03*
X384370000Y-173525000D03*
X397070000Y-176065000D03*
X403420000Y-173525000D03*
X211332500Y-233215000D03*
X217682500Y-230675000D03*
X137513750Y-214165000D03*
X143863750Y-211625000D03*
D14*
X140053750Y-221785000D03*
D15*
X142593750Y-221785000D03*
D13*
X132751250Y-214165000D03*
X139101250Y-211625000D03*
D14*
X137831250Y-221785000D03*
D15*
X135291250Y-221785000D03*
D13*
X201807500Y-214165000D03*
X208157500Y-211625000D03*
X420882500Y-195115000D03*
X427232500Y-192575000D03*
X439932500Y-252265000D03*
X446282500Y-249725000D03*
X197045000Y-195115000D03*
X203395000Y-192575000D03*
X130370000Y-152252500D03*
X136720000Y-149712500D03*
X220857500Y-214165000D03*
X227207500Y-211625000D03*
X168470000Y-152252500D03*
X174820000Y-149712500D03*
X187520000Y-152252500D03*
X193870000Y-149712500D03*
X206570000Y-152252500D03*
X212920000Y-149712500D03*
X225620000Y-152252500D03*
X231970000Y-149712500D03*
X254195000Y-152252500D03*
X260545000Y-149712500D03*
X273245000Y-152252500D03*
X279595000Y-149712500D03*
X292295000Y-152252500D03*
X298645000Y-149712500D03*
X311345000Y-152252500D03*
X317695000Y-149712500D03*
X339920000Y-152252500D03*
X346270000Y-149712500D03*
X358970000Y-152252500D03*
X365320000Y-149712500D03*
X378020000Y-152252500D03*
X384370000Y-149712500D03*
X397070000Y-152252500D03*
X403420000Y-149712500D03*
X239907500Y-214165000D03*
X246257500Y-211625000D03*
X258957500Y-214165000D03*
X265307500Y-211625000D03*
X439932500Y-176065000D03*
X446282500Y-173525000D03*
X292295000Y-195115000D03*
X298645000Y-192575000D03*
X420882500Y-176065000D03*
X427232500Y-173525000D03*
X278007500Y-214165000D03*
X284357500Y-211625000D03*
X297057500Y-214165000D03*
X303407500Y-211625000D03*
X316107500Y-214165000D03*
X322457500Y-211625000D03*
X180376250Y-252265000D03*
X186726250Y-249725000D03*
X182757500Y-252265000D03*
X189107500Y-249725000D03*
X132751250Y-252265000D03*
X139101250Y-249725000D03*
X135132500Y-252265000D03*
X141482500Y-249725000D03*
X420882500Y-252265000D03*
X427232500Y-249725000D03*
X156563750Y-252265000D03*
X162913750Y-249725000D03*
X158945000Y-252265000D03*
X165295000Y-249725000D03*
X142276250Y-233215000D03*
X148626250Y-230675000D03*
X132751250Y-233215000D03*
X139101250Y-230675000D03*
X154182500Y-233215000D03*
X160532500Y-230675000D03*
X287532500Y-233215000D03*
X293882500Y-230675000D03*
X268482500Y-233215000D03*
X274832500Y-230675000D03*
X311345000Y-195115000D03*
X317695000Y-192575000D03*
X330395000Y-195115000D03*
X336745000Y-192575000D03*
X458982500Y-152252500D03*
X465332500Y-149712500D03*
X458982500Y-195115000D03*
X465332500Y-192575000D03*
X458982500Y-176065000D03*
X465332500Y-173525000D03*
X420882500Y-152252500D03*
X427232500Y-149712500D03*
X158945000Y-195115000D03*
X165295000Y-192575000D03*
X216095000Y-195115000D03*
X222445000Y-192575000D03*
X323251250Y-252265000D03*
X329601250Y-249725000D03*
X344682500Y-252265000D03*
X351032500Y-249725000D03*
X394688750Y-252265000D03*
X401038750Y-249725000D03*
X392307500Y-252265000D03*
X398657500Y-249725000D03*
X385163750Y-214165000D03*
X391513750Y-211625000D03*
X347063750Y-252265000D03*
X353413750Y-249725000D03*
X368495000Y-252265000D03*
X374845000Y-249725000D03*
X370876250Y-252265000D03*
X377226250Y-249725000D03*
X380401250Y-233215000D03*
X386751250Y-230675000D03*
X370876250Y-233215000D03*
X377226250Y-230675000D03*
X397070000Y-233215000D03*
X403420000Y-230675000D03*
X458982500Y-252265000D03*
X465332500Y-249725000D03*
X182757500Y-214165000D03*
X189107500Y-211625000D03*
X251813750Y-252265000D03*
X258163750Y-249725000D03*
X263720000Y-252265000D03*
X270070000Y-249725000D03*
X235145000Y-195115000D03*
X241495000Y-192575000D03*
X273245000Y-195115000D03*
X279595000Y-192575000D03*
X439932500Y-233215000D03*
X446282500Y-230675000D03*
X230382500Y-233215000D03*
X236732500Y-230675000D03*
X177995000Y-195115000D03*
X184345000Y-192575000D03*
X192282500Y-233215000D03*
X198632500Y-230675000D03*
X254195000Y-195115000D03*
X260545000Y-192575000D03*
X173232500Y-233215000D03*
X179582500Y-230675000D03*
X401038750Y-203370000D03*
X403578750Y-209720000D03*
X282770000Y-176065000D03*
X289120000Y-173525000D03*
X135132500Y-195115000D03*
X141482500Y-192575000D03*
X439932500Y-152252500D03*
X446282500Y-149712500D03*
D14*
X442472500Y-159872500D03*
D15*
X445012500Y-159872500D03*
D13*
X439940000Y-195130000D03*
X446290000Y-192590000D03*
D16*
X413968000Y-154836250D03*
D17*
X413968000Y-156536250D03*
X411668000Y-156536250D03*
X411668000Y-154636250D03*
D18*
X409561250Y-150487125D03*
X410336250Y-150487125D03*
D19*
X411036250Y-150487125D03*
X411536250Y-150487125D03*
X412036250Y-150487125D03*
X412536250Y-150487125D03*
X413036250Y-150487125D03*
X413536250Y-150487125D03*
X414036250Y-150487125D03*
X414536250Y-150487125D03*
D18*
X415236250Y-150487125D03*
X416011250Y-150487125D03*
D20*
X408466250Y-145392125D03*
D21*
X417106250Y-149572125D03*
X408466250Y-149572125D03*
D20*
X417106250Y-145392125D03*
D22*
X465650000Y-219721250D03*
X463110000Y-219721250D03*
X465650000Y-222261250D03*
X463110000Y-222261250D03*
X465650000Y-224801250D03*
D23*
X463110000Y-224801250D03*
D24*
X449958125Y-225361250D03*
X446258125Y-219161250D03*
X446258125Y-225361250D03*
X449958125Y-219161250D03*
D25*
X427638000Y-214546000D03*
X425938000Y-214546000D03*
X438892000Y-220769000D03*
X440592000Y-220769000D03*
D26*
X423359000Y-214585000D03*
X423359000Y-216285000D03*
X421073000Y-224745000D03*
X421073000Y-226445000D03*
D25*
X434369000Y-217340000D03*
X432669000Y-217340000D03*
D27*
X142117500Y-155798750D03*
X142117500Y-152198750D03*
X180217500Y-155798750D03*
X180217500Y-152198750D03*
X183392500Y-155798750D03*
X183392500Y-152198750D03*
X218317500Y-155798750D03*
X218317500Y-152198750D03*
X265942500Y-155798750D03*
X265942500Y-152198750D03*
X269117500Y-155798750D03*
X269117500Y-152198750D03*
X304042500Y-155798750D03*
X304042500Y-152198750D03*
X323092500Y-155798750D03*
X323092500Y-152198750D03*
X351667500Y-155798750D03*
X351667500Y-152198750D03*
X354842500Y-155798750D03*
X354842500Y-152198750D03*
X389767500Y-155798750D03*
X389767500Y-152198750D03*
X392942500Y-155798750D03*
X392942500Y-152198750D03*
X165930000Y-236761250D03*
X165930000Y-233161250D03*
X142117500Y-179611250D03*
X142117500Y-176011250D03*
X161167500Y-179611250D03*
X161167500Y-176011250D03*
X180217500Y-179611250D03*
X180217500Y-176011250D03*
X199267500Y-179611250D03*
X199267500Y-176011250D03*
X218317500Y-179611250D03*
X218317500Y-176011250D03*
X237367500Y-179611250D03*
X237367500Y-176011250D03*
X256417500Y-179611250D03*
X256417500Y-176011250D03*
X275467500Y-179611250D03*
X275467500Y-176011250D03*
X294517500Y-179611250D03*
X294517500Y-176011250D03*
X313567500Y-179611250D03*
X313567500Y-176011250D03*
X332617500Y-179611250D03*
X332617500Y-176011250D03*
X351667500Y-179611250D03*
X351667500Y-176011250D03*
X354842500Y-179611250D03*
X354842500Y-176011250D03*
X373892500Y-179611250D03*
X373892500Y-176011250D03*
X370717500Y-179611250D03*
X370717500Y-176011250D03*
X146880000Y-197867500D03*
X146880000Y-194267500D03*
X170692500Y-198661250D03*
X170692500Y-195061250D03*
X189742500Y-198661250D03*
X189742500Y-195061250D03*
X208792500Y-198661250D03*
X208792500Y-195061250D03*
X227842500Y-198661250D03*
X227842500Y-195061250D03*
X246892500Y-198661250D03*
X246892500Y-195061250D03*
X265942500Y-198661250D03*
X265942500Y-195061250D03*
X284992500Y-198661250D03*
X284992500Y-195061250D03*
X304042500Y-198661250D03*
X304042500Y-195061250D03*
X323092500Y-198661250D03*
X323092500Y-195061250D03*
X342142500Y-198661250D03*
X342142500Y-195061250D03*
X361192500Y-198661250D03*
X361192500Y-195061250D03*
X380242500Y-198661250D03*
X380242500Y-195061250D03*
X383417500Y-198661250D03*
X383417500Y-195061250D03*
X149261250Y-217711250D03*
X149261250Y-214111250D03*
X175455000Y-217711250D03*
X175455000Y-214111250D03*
X194505000Y-217711250D03*
X194505000Y-214111250D03*
X213555000Y-217711250D03*
X213555000Y-214111250D03*
X232605000Y-217711250D03*
X232605000Y-214111250D03*
X251655000Y-217711250D03*
X251655000Y-214111250D03*
X270705000Y-217711250D03*
X270705000Y-214111250D03*
X289755000Y-217711250D03*
X289755000Y-214111250D03*
X308805000Y-217711250D03*
X308805000Y-214111250D03*
X327855000Y-217711250D03*
X327855000Y-214111250D03*
X346905000Y-217711250D03*
X346905000Y-214111250D03*
X365955000Y-217711250D03*
X365955000Y-214111250D03*
X369130000Y-217711250D03*
X369130000Y-214111250D03*
X408817500Y-236761250D03*
X408817500Y-233161250D03*
X169105000Y-236761250D03*
X169105000Y-233161250D03*
X184980000Y-236761250D03*
X184980000Y-233161250D03*
X204030000Y-236761250D03*
X204030000Y-233161250D03*
X223080000Y-236761250D03*
X223080000Y-233161250D03*
X242130000Y-236761250D03*
X242130000Y-233161250D03*
X261180000Y-236761250D03*
X261180000Y-233161250D03*
X280230000Y-236761250D03*
X280230000Y-233161250D03*
X299280000Y-236761250D03*
X299280000Y-233161250D03*
X318330000Y-236761250D03*
X318330000Y-233161250D03*
X337380000Y-236761250D03*
X337380000Y-233161250D03*
X356430000Y-236761250D03*
X356430000Y-233161250D03*
X392148750Y-236761250D03*
X392148750Y-233161250D03*
X382623750Y-255811250D03*
X382623750Y-252211250D03*
X388180000Y-255811250D03*
X388180000Y-252211250D03*
X173073750Y-255811250D03*
X173073750Y-252211250D03*
X169898750Y-255811250D03*
X169898750Y-252211250D03*
X176248750Y-255811250D03*
X176248750Y-252211250D03*
X247686250Y-255811250D03*
X247686250Y-252211250D03*
X334998750Y-255811250D03*
X334998750Y-252211250D03*
X340555000Y-255811250D03*
X340555000Y-252211250D03*
X432630000Y-155798750D03*
X432630000Y-152198750D03*
X435805000Y-155798750D03*
X435805000Y-152198750D03*
X464380000Y-168498750D03*
X464380000Y-164898750D03*
X432630000Y-179611250D03*
X432630000Y-176011250D03*
X451680000Y-179611250D03*
X451680000Y-176011250D03*
X454855000Y-179611250D03*
X454855000Y-176011250D03*
X432630000Y-198661250D03*
X432630000Y-195061250D03*
X451680000Y-198661250D03*
X451680000Y-195061250D03*
X454855000Y-198661250D03*
X454855000Y-195061250D03*
X451680000Y-236761250D03*
X451680000Y-233161250D03*
X416755000Y-255811250D03*
X416755000Y-252211250D03*
X435805000Y-255811250D03*
X435805000Y-252211250D03*
X432630000Y-255811250D03*
X432630000Y-252211250D03*
D28*
X409389000Y-162479000D03*
X409389000Y-159679000D03*
D29*
X446917500Y-166011250D03*
X446917500Y-164211250D03*
X149261250Y-223161250D03*
X149261250Y-221361250D03*
X424502000Y-212017000D03*
X424502000Y-210217000D03*
X426534000Y-210217000D03*
X426534000Y-212017000D03*
D30*
X449008125Y-215911250D03*
X447208125Y-215911250D03*
X422989000Y-228897000D03*
X421189000Y-228897000D03*
D29*
X416358125Y-156486250D03*
X416358125Y-154686250D03*
D31*
X434424000Y-223162000D03*
X434424000Y-220662000D03*
X436424000Y-220662000D03*
X436424000Y-223162000D03*
D25*
X438892000Y-223055000D03*
X440592000Y-223055000D03*
D32*
X424272125Y-218812625D03*
X424772125Y-218812625D03*
X425272125Y-218812625D03*
X425772125Y-218812625D03*
X426272125Y-218812625D03*
X426772125Y-218812625D03*
X427272125Y-218812625D03*
X427772125Y-218812625D03*
X428272125Y-218812625D03*
X428772125Y-218812625D03*
X429272125Y-218812625D03*
D33*
X430109625Y-219650125D03*
X430109625Y-220150125D03*
X430109625Y-220650125D03*
X430109625Y-221150125D03*
X430109625Y-221650125D03*
X430109625Y-222150125D03*
X430109625Y-222650125D03*
X430109625Y-223150125D03*
X430109625Y-223650125D03*
X430109625Y-224150125D03*
X430109625Y-224650125D03*
D32*
X429272125Y-225487625D03*
X428772125Y-225487625D03*
X428272125Y-225487625D03*
X427772125Y-225487625D03*
X427272125Y-225487625D03*
X426772125Y-225487625D03*
X426272125Y-225487625D03*
X425772125Y-225487625D03*
X425272125Y-225487625D03*
X424772125Y-225487625D03*
X424272125Y-225487625D03*
D33*
X423434625Y-224650125D03*
X423434625Y-224150125D03*
X423434625Y-223650125D03*
X423434625Y-223150125D03*
X423434625Y-222650125D03*
X423434625Y-222150125D03*
X423434625Y-221650125D03*
X423434625Y-221150125D03*
X423434625Y-220650125D03*
X423434625Y-220150125D03*
X423434625Y-219650125D03*
D34*
X426772125Y-222150125D03*
D27*
X237367500Y-155798750D03*
X237367500Y-152198750D03*
D25*
X431067000Y-227881000D03*
X429367000Y-227881000D03*
D29*
X408817500Y-156486250D03*
X408817500Y-154686250D03*
D35*
X429328000Y-229024000D03*
X411320000Y-158490000D03*
X422216000Y-216578000D03*
X421073000Y-219626000D03*
X427330000Y-158500000D03*
X432757000Y-216197000D03*
X419670000Y-158910000D03*
X450410000Y-216578000D03*
X427550000Y-216578000D03*
X421073000Y-227627000D03*
X146578471Y-163692890D03*
X423359000Y-213276000D03*
X426280000Y-213403000D03*
X416374000Y-152062000D03*
X405960000Y-157015000D03*
X406849000Y-170985000D03*
X419676000Y-157015000D03*
X419549000Y-199941000D03*
X405960000Y-199941000D03*
X404436000Y-158158000D03*
X405960000Y-158031000D03*
X419676000Y-158031000D03*
X406849000Y-171874000D03*
X405960000Y-181780000D03*
X419549000Y-181780000D03*
X405960000Y-180891000D03*
X419549000Y-180891000D03*
X383354000Y-193591000D03*
X419549000Y-200830000D03*
X405960000Y-200830000D03*
X411548000Y-153078000D03*
X414342000Y-153078000D03*
X386700000Y-168090000D03*
X440504000Y-212641000D03*
X460278500Y-213111500D03*
X411548000Y-152189000D03*
X408881000Y-153459000D03*
X414342000Y-152189000D03*
X416374000Y-153459000D03*
X450180000Y-213529989D03*
X450186700Y-168960000D03*
X146940000Y-164381000D03*
X151706000Y-219880000D03*
X374972000Y-188638000D03*
X369003000Y-180891000D03*
X381830000Y-218991000D03*
X375590000Y-196230000D03*
X381813108Y-219989503D03*
X380941000Y-218991000D03*
X432630000Y-257218000D03*
X433310000Y-238135200D03*
X434550000Y-238135200D03*
X435810000Y-257220000D03*
D36*
X431741000Y-218268000D02*
X431868000Y-218141000D01*
D37*
X432669000Y-217340000D02*
X432669000Y-216285000D01*
D36*
X428772125Y-227286125D02*
X429367000Y-227881000D01*
X423372125Y-224650125D02*
X423033875Y-224650125D01*
D37*
X411320000Y-160728000D02*
X411320000Y-158490000D01*
D36*
X424772125Y-218750125D02*
X424772125Y-217864125D01*
X421097125Y-219650125D02*
X421073000Y-219626000D01*
D37*
X429367000Y-228985000D02*
X429328000Y-229024000D01*
D36*
X421239000Y-226445000D02*
X421073000Y-226445000D01*
D37*
X419670000Y-158910000D02*
X419741428Y-158910000D01*
X429367000Y-227881000D02*
X429367000Y-228985000D01*
X420151428Y-158500000D02*
X441100000Y-158500000D01*
D36*
X423372125Y-219650125D02*
X421097125Y-219650125D01*
X423033875Y-224650125D02*
X421239000Y-226445000D01*
X423359000Y-216451000D02*
X423359000Y-216285000D01*
D37*
X409445000Y-162603000D02*
X409389000Y-162659000D01*
X421073000Y-226445000D02*
X421073000Y-227627000D01*
X408178000Y-163690000D02*
X409389000Y-162479000D01*
X409079000Y-162349000D02*
X409389000Y-162659000D01*
X432669000Y-217340000D02*
X431868000Y-218141000D01*
X409389000Y-162659000D02*
X411320000Y-160728000D01*
X422509000Y-216285000D02*
X422216000Y-216578000D01*
D36*
X428772125Y-225550125D02*
X428772125Y-227286125D01*
X430172125Y-220650125D02*
X431224875Y-220650125D01*
X431741000Y-220134000D02*
X431741000Y-219372000D01*
D37*
X432669000Y-216285000D02*
X432757000Y-216197000D01*
X146581361Y-163690000D02*
X408178000Y-163690000D01*
D36*
X427272125Y-216855875D02*
X427550000Y-216578000D01*
D37*
X441100000Y-158500000D02*
X442472500Y-159872500D01*
X449008125Y-215911250D02*
X449743250Y-215911250D01*
D36*
X431741000Y-219372000D02*
X431741000Y-218268000D01*
D37*
X449743250Y-215911250D02*
X450410000Y-216578000D01*
X423359000Y-216285000D02*
X422509000Y-216285000D01*
X419741428Y-158910000D02*
X420151428Y-158500000D01*
X146578471Y-163692890D02*
X146581361Y-163690000D01*
D36*
X431224875Y-220650125D02*
X431741000Y-220134000D01*
X424772125Y-217864125D02*
X423359000Y-216451000D01*
X427272125Y-218750125D02*
X427272125Y-216855875D01*
X426772125Y-216681875D02*
X426772125Y-218750125D01*
X427638000Y-214546000D02*
X427638000Y-215458125D01*
X426772125Y-216324000D02*
X426772125Y-216681875D01*
X427638000Y-215458125D02*
X426772125Y-216324000D01*
D37*
X416926250Y-149572125D02*
X416011250Y-150487125D01*
X407611000Y-155999000D02*
X408098250Y-156486250D01*
X463110000Y-224801250D02*
X462550000Y-225361250D01*
D36*
X426272125Y-221650125D02*
X426772125Y-222150125D01*
X421189000Y-228897000D02*
X421189000Y-228886000D01*
D37*
X432376000Y-220388000D02*
X432376000Y-218737000D01*
X436424000Y-223162000D02*
X437603000Y-223162000D01*
X409561250Y-150487125D02*
X409561250Y-151127750D01*
X440592000Y-223055000D02*
X447651875Y-223055000D01*
D36*
X427772125Y-221150125D02*
X426772125Y-222150125D01*
D37*
X439107000Y-218610000D02*
X433900000Y-218610000D01*
X425938000Y-213745000D02*
X426280000Y-213403000D01*
X408881000Y-151808000D02*
X407611000Y-153078000D01*
D36*
X430172125Y-221150125D02*
X431613875Y-221150125D01*
D37*
X432376000Y-218737000D02*
X432503000Y-218610000D01*
X425938000Y-214546000D02*
X425938000Y-213745000D01*
D36*
X426272125Y-218750125D02*
X426272125Y-221650125D01*
D37*
X416011250Y-152678750D02*
X413968000Y-154722000D01*
X416011250Y-152062000D02*
X416011250Y-152678750D01*
D36*
X429272125Y-224650125D02*
X426772125Y-222150125D01*
X430172125Y-221150125D02*
X427772125Y-221150125D01*
D37*
X409561250Y-151000750D02*
X409561250Y-150487125D01*
X408098250Y-156486250D02*
X408817500Y-156486250D01*
X414195250Y-154836250D02*
X415845250Y-156486250D01*
X447651875Y-223055000D02*
X449958125Y-225361250D01*
X417106250Y-145392125D02*
X417106250Y-149572125D01*
D36*
X436424000Y-222912000D02*
X436424000Y-223162000D01*
D37*
X416374000Y-152062000D02*
X416011250Y-152062000D01*
X440592000Y-220769000D02*
X440592000Y-219714000D01*
D36*
X429272125Y-225550125D02*
X429272125Y-224650125D01*
X423372125Y-224150125D02*
X424772125Y-224150125D01*
D37*
X433011000Y-218610000D02*
X433900000Y-218610000D01*
X440592000Y-220769000D02*
X440592000Y-221912000D01*
D38*
X434424000Y-220912000D02*
X436424000Y-222912000D01*
D37*
X413968000Y-154836250D02*
X414195250Y-154836250D01*
D36*
X420184000Y-225341000D02*
X420780000Y-224745000D01*
D37*
X413968000Y-154722000D02*
X413968000Y-154836250D01*
X432249000Y-220515000D02*
X432376000Y-220388000D01*
X432503000Y-218610000D02*
X433011000Y-218610000D01*
D36*
X429272125Y-225550125D02*
X429272125Y-225920125D01*
D37*
X437603000Y-223162000D02*
X437837000Y-222928000D01*
X408646250Y-149572125D02*
X409561250Y-150487125D01*
D36*
X426272125Y-218750125D02*
X426272125Y-214880125D01*
X431741000Y-221023000D02*
X432249000Y-220515000D01*
D37*
X438091000Y-221912000D02*
X437837000Y-222166000D01*
X440592000Y-219714000D02*
X439488000Y-218610000D01*
X434369000Y-218141000D02*
X433900000Y-218610000D01*
D36*
X434424000Y-220662000D02*
X434424000Y-220912000D01*
D37*
X408466250Y-149572125D02*
X408466250Y-145392125D01*
X434369000Y-217340000D02*
X434369000Y-218141000D01*
D36*
X423372125Y-220150125D02*
X424772125Y-220150125D01*
D37*
X462550000Y-225361250D02*
X449958125Y-225361250D01*
D36*
X423372125Y-224150125D02*
X422644875Y-224150125D01*
X429272125Y-225920125D02*
X431067000Y-227715000D01*
X424772125Y-220150125D02*
X426772125Y-222150125D01*
D37*
X408466250Y-149572125D02*
X408646250Y-149572125D01*
D36*
X420780000Y-224745000D02*
X421073000Y-224745000D01*
D37*
X437837000Y-222166000D02*
X437837000Y-222928000D01*
D36*
X424772125Y-224150125D02*
X426772125Y-222150125D01*
D37*
X408466250Y-145392125D02*
X417106250Y-145392125D01*
D36*
X426272125Y-214880125D02*
X425938000Y-214546000D01*
D37*
X407611000Y-153078000D02*
X407611000Y-155999000D01*
X417106250Y-149572125D02*
X416926250Y-149572125D01*
D36*
X422050000Y-224745000D02*
X421073000Y-224745000D01*
X420184000Y-227881000D02*
X420184000Y-225341000D01*
X422644875Y-224150125D02*
X422050000Y-224745000D01*
D37*
X416011250Y-150487125D02*
X416011250Y-152062000D01*
X409008000Y-151681000D02*
X408881000Y-151808000D01*
X409561250Y-151127750D02*
X409008000Y-151681000D01*
X432376000Y-220388000D02*
X431741000Y-221023000D01*
X415845250Y-156486250D02*
X416358125Y-156486250D01*
X440592000Y-221912000D02*
X440592000Y-223055000D01*
X439488000Y-218610000D02*
X439107000Y-218610000D01*
D36*
X431613875Y-221150125D02*
X431741000Y-221023000D01*
D37*
X423359000Y-214585000D02*
X423359000Y-213276000D01*
X440592000Y-221912000D02*
X438091000Y-221912000D01*
D36*
X431067000Y-227715000D02*
X431067000Y-227881000D01*
X421189000Y-228886000D02*
X420184000Y-227881000D01*
X430172125Y-222150125D02*
X432757000Y-222150125D01*
X437583000Y-224579000D02*
X438892000Y-223270000D01*
X434424000Y-223833000D02*
X435170000Y-224579000D01*
X435170000Y-224579000D02*
X437583000Y-224579000D01*
X434424000Y-223162000D02*
X433768875Y-223162000D01*
X438892000Y-223270000D02*
X438892000Y-223055000D01*
X434424000Y-223162000D02*
X434424000Y-223833000D01*
X433768875Y-223162000D02*
X432757000Y-222150125D01*
X436531000Y-220769000D02*
X436424000Y-220662000D01*
X435551000Y-219245000D02*
X433328500Y-219245000D01*
X438892000Y-220769000D02*
X436531000Y-220769000D01*
X432002875Y-221650125D02*
X430172125Y-221650125D01*
X433328500Y-219245000D02*
X433011000Y-219562500D01*
X436424000Y-220662000D02*
X436424000Y-220118000D01*
X433011000Y-220642000D02*
X432002875Y-221650125D01*
X433011000Y-219562500D02*
X433011000Y-220642000D01*
X436424000Y-220118000D02*
X435551000Y-219245000D01*
X423372125Y-221150125D02*
X416247125Y-221150125D01*
X154627000Y-190797000D02*
X139450500Y-190797000D01*
X139450500Y-190797000D02*
X135132500Y-195115000D01*
X414723000Y-173271000D02*
X406341000Y-164889000D01*
X406341000Y-164889000D02*
X160596000Y-164889000D01*
X160596000Y-164889000D02*
X149420000Y-176065000D01*
X414723000Y-219626000D02*
X414723000Y-173271000D01*
X158945000Y-195115000D02*
X154627000Y-190797000D01*
X154182500Y-233215000D02*
X142276250Y-233215000D01*
X416247125Y-221150125D02*
X414723000Y-219626000D01*
X142276250Y-233215000D02*
X132751250Y-233215000D01*
X411167000Y-221404000D02*
X420184000Y-230421000D01*
X268038000Y-154602000D02*
X266841250Y-155798750D01*
X425272125Y-229151000D02*
X425272125Y-225550125D01*
X326712000Y-157269000D02*
X349318000Y-157269000D01*
X405706000Y-157269000D02*
X405960000Y-157015000D01*
X142117500Y-155798750D02*
X144095750Y-157777000D01*
X144095750Y-157777000D02*
X178239250Y-157777000D01*
X464380000Y-168498750D02*
X453150250Y-157269000D01*
X220667000Y-157269000D02*
X219196750Y-155798750D01*
X236034000Y-155618000D02*
X234383000Y-157269000D01*
X419930000Y-157269000D02*
X430344000Y-157269000D01*
X236034000Y-154983000D02*
X236034000Y-155618000D01*
X393895000Y-154602000D02*
X394276000Y-154983000D01*
X238320000Y-154602000D02*
X236415000Y-154602000D01*
X304042500Y-155798750D02*
X304921750Y-155798750D01*
X356176000Y-155491000D02*
X357954000Y-157269000D01*
X184345000Y-154602000D02*
X182313000Y-154602000D01*
X391863000Y-154602000D02*
X393895000Y-154602000D01*
X437075000Y-154856000D02*
X436821000Y-154602000D01*
X320108000Y-157269000D02*
X321759000Y-155618000D01*
X387418000Y-157269000D02*
X388888250Y-155798750D01*
X351667500Y-155798750D02*
X352566250Y-155798750D01*
X263593000Y-157269000D02*
X240987000Y-157269000D01*
X396054000Y-157269000D02*
X405706000Y-157269000D01*
X411167000Y-175049000D02*
X411167000Y-221404000D01*
X234383000Y-157269000D02*
X220667000Y-157269000D01*
X389767500Y-155798750D02*
X390666250Y-155798750D01*
X349318000Y-157269000D02*
X350788250Y-155798750D01*
X215968000Y-157269000D02*
X186504000Y-157269000D01*
X355795000Y-154602000D02*
X356176000Y-154983000D01*
X420184000Y-230421000D02*
X424002125Y-230421000D01*
X322140000Y-154602000D02*
X324045000Y-154602000D01*
X265942500Y-155798750D02*
X265063250Y-155798750D01*
X350788250Y-155798750D02*
X351667500Y-155798750D01*
X301693000Y-157269000D02*
X272102000Y-157269000D01*
X266841250Y-155798750D02*
X265942500Y-155798750D01*
X304042500Y-155798750D02*
X303163250Y-155798750D01*
X388888250Y-155798750D02*
X389767500Y-155798750D01*
X184726000Y-154983000D02*
X184345000Y-154602000D01*
X437075000Y-155618000D02*
X437075000Y-154856000D01*
X181116250Y-155798750D02*
X180217500Y-155798750D01*
X240987000Y-157269000D02*
X238320000Y-154602000D01*
X352566250Y-155798750D02*
X353763000Y-154602000D01*
X178239250Y-157777000D02*
X180217500Y-155798750D01*
X219196750Y-155798750D02*
X218317500Y-155798750D01*
X217438250Y-155798750D02*
X215968000Y-157269000D01*
X436821000Y-154602000D02*
X434715750Y-154602000D01*
X406849000Y-170985000D02*
X407103000Y-170985000D01*
X438726000Y-157269000D02*
X437075000Y-155618000D01*
X321759000Y-154983000D02*
X322140000Y-154602000D01*
X303163250Y-155798750D02*
X301693000Y-157269000D01*
X353763000Y-154602000D02*
X355795000Y-154602000D01*
X186504000Y-157269000D02*
X184726000Y-155491000D01*
X394276000Y-154983000D02*
X394276000Y-155491000D01*
X265063250Y-155798750D02*
X263593000Y-157269000D01*
X321759000Y-155618000D02*
X321759000Y-154983000D01*
X236415000Y-154602000D02*
X236034000Y-154983000D01*
X270451000Y-154983000D02*
X270070000Y-154602000D01*
X394276000Y-155491000D02*
X396054000Y-157269000D01*
X270070000Y-154602000D02*
X268038000Y-154602000D01*
X324045000Y-154602000D02*
X326712000Y-157269000D01*
X357954000Y-157269000D02*
X387418000Y-157269000D01*
X419676000Y-157015000D02*
X419930000Y-157269000D01*
X182313000Y-154602000D02*
X181116250Y-155798750D01*
X453150250Y-157269000D02*
X438726000Y-157269000D01*
X433519000Y-155798750D02*
X432630000Y-155798750D01*
X431814250Y-155798750D02*
X430344000Y-157269000D01*
X306392000Y-157269000D02*
X320108000Y-157269000D01*
X432630000Y-155798750D02*
X431814250Y-155798750D01*
X434715750Y-154602000D02*
X433519000Y-155798750D01*
X272102000Y-157269000D02*
X270451000Y-155618000D01*
X270451000Y-155618000D02*
X270451000Y-154983000D01*
X218317500Y-155798750D02*
X217438250Y-155798750D01*
X304921750Y-155798750D02*
X306392000Y-157269000D01*
X390666250Y-155798750D02*
X391863000Y-154602000D01*
X356176000Y-154983000D02*
X356176000Y-155491000D01*
X184726000Y-155491000D02*
X184726000Y-154983000D01*
X407103000Y-170985000D02*
X411167000Y-175049000D01*
X424002125Y-230421000D02*
X425272125Y-229151000D01*
X136720000Y-149712500D02*
X139631250Y-149712500D01*
X139631250Y-149712500D02*
X142117500Y-152198750D01*
X177731250Y-149712500D02*
X180217500Y-152198750D01*
X174820000Y-149712500D02*
X177731250Y-149712500D01*
X185878750Y-149712500D02*
X183392500Y-152198750D01*
X193870000Y-149712500D02*
X185878750Y-149712500D01*
X212920000Y-149712500D02*
X215831250Y-149712500D01*
X215831250Y-149712500D02*
X218317500Y-152198750D01*
X231970000Y-149712500D02*
X234881250Y-149712500D01*
X234881250Y-149712500D02*
X237367500Y-152198750D01*
X260545000Y-149712500D02*
X263456250Y-149712500D01*
X263456250Y-149712500D02*
X265942500Y-152198750D01*
X271603750Y-149712500D02*
X269117500Y-152198750D01*
X279595000Y-149712500D02*
X271603750Y-149712500D01*
X298645000Y-149712500D02*
X301556250Y-149712500D01*
X301556250Y-149712500D02*
X304042500Y-152198750D01*
X317695000Y-149712500D02*
X320606250Y-149712500D01*
X320606250Y-149712500D02*
X323092500Y-152198750D01*
X346270000Y-149712500D02*
X349181250Y-149712500D01*
X349181250Y-149712500D02*
X351667500Y-152198750D01*
X357328750Y-149712500D02*
X354842500Y-152198750D01*
X365320000Y-149712500D02*
X357328750Y-149712500D01*
X384370000Y-149712500D02*
X387281250Y-149712500D01*
X387281250Y-149712500D02*
X389767500Y-152198750D01*
X395428750Y-149712500D02*
X392942500Y-152198750D01*
X403420000Y-149712500D02*
X395428750Y-149712500D01*
X160532500Y-230675000D02*
X163443750Y-230675000D01*
X163443750Y-230675000D02*
X165930000Y-233161250D01*
X265126750Y-198661250D02*
X263656500Y-200131500D01*
X425010000Y-232453000D02*
X427272125Y-230190875D01*
X304042500Y-198661250D02*
X303226750Y-198661250D01*
X288675500Y-200131500D02*
X285945000Y-197401000D01*
X454855000Y-198661250D02*
X453956250Y-198661250D01*
X382338000Y-197401000D02*
X384243000Y-197401000D01*
X434979500Y-200131500D02*
X433509250Y-198661250D01*
X230128500Y-200131500D02*
X228658250Y-198661250D01*
X380242500Y-198661250D02*
X381077750Y-198661250D01*
X188799750Y-198661250D02*
X187329500Y-200131500D01*
X147727500Y-197867500D02*
X146880000Y-197867500D01*
X171645000Y-197401000D02*
X169740000Y-197401000D01*
X341326750Y-198661250D02*
X342142500Y-198661250D01*
X322140000Y-197401000D02*
X324045000Y-197401000D01*
X344428500Y-200131500D02*
X342958250Y-198661250D01*
X228658250Y-198661250D02*
X227842500Y-198661250D01*
X358144500Y-200131500D02*
X344428500Y-200131500D01*
X207840000Y-197401000D02*
X207459000Y-197782000D01*
X326775500Y-200131500D02*
X339856500Y-200131500D01*
X212475500Y-200131500D02*
X209745000Y-197401000D01*
X245559000Y-197782000D02*
X245559000Y-198417000D01*
X303226750Y-198661250D02*
X301756500Y-200131500D01*
X209745000Y-197401000D02*
X207840000Y-197401000D01*
X452696000Y-197401000D02*
X450791000Y-197401000D01*
X245559000Y-198417000D02*
X243844500Y-200131500D01*
X359859000Y-197782000D02*
X359859000Y-198417000D01*
X342958250Y-198661250D02*
X342142500Y-198661250D01*
X169359000Y-197782000D02*
X169359000Y-198417000D01*
X169740000Y-197401000D02*
X169359000Y-197782000D01*
X149991500Y-200131500D02*
X147727500Y-197867500D01*
X384243000Y-197401000D02*
X384370000Y-197401000D01*
X387100500Y-200131500D02*
X405769500Y-200131500D01*
X360240000Y-197401000D02*
X359859000Y-197782000D01*
X432630000Y-198661250D02*
X431750750Y-198661250D01*
X304858250Y-198661250D02*
X306328500Y-200131500D01*
X419168000Y-232453000D02*
X425010000Y-232453000D01*
X406087000Y-199941000D02*
X409135000Y-202989000D01*
X377956500Y-200131500D02*
X364875500Y-200131500D01*
X321759000Y-198417000D02*
X321759000Y-197782000D01*
X263656500Y-200131500D02*
X250575500Y-200131500D01*
X450410000Y-198290000D02*
X448568500Y-200131500D01*
X379426750Y-198661250D02*
X377956500Y-200131500D01*
X207459000Y-197782000D02*
X207459000Y-198417000D01*
X227026750Y-198661250D02*
X225556500Y-200131500D01*
X362145000Y-197401000D02*
X360240000Y-197401000D01*
X364875500Y-200131500D02*
X362145000Y-197401000D01*
X321759000Y-197782000D02*
X322140000Y-197401000D01*
X384370000Y-197401000D02*
X384624000Y-197655000D01*
X339856500Y-200131500D02*
X341326750Y-198661250D01*
X409135000Y-222420000D02*
X419168000Y-232453000D01*
X320044500Y-200131500D02*
X321759000Y-198417000D01*
X430280500Y-200131500D02*
X419739500Y-200131500D01*
X431750750Y-198661250D02*
X430280500Y-200131500D01*
X409135000Y-202989000D02*
X409135000Y-222420000D01*
X266758250Y-198661250D02*
X265942500Y-198661250D01*
X384624000Y-197655000D02*
X387100500Y-200131500D01*
X207459000Y-198417000D02*
X205744500Y-200131500D01*
X419739500Y-200131500D02*
X419549000Y-199941000D01*
X306328500Y-200131500D02*
X320044500Y-200131500D01*
X381077750Y-198661250D02*
X382338000Y-197401000D01*
X284040000Y-197401000D02*
X283659000Y-197782000D01*
X205744500Y-200131500D02*
X192028500Y-200131500D01*
X301756500Y-200131500D02*
X288675500Y-200131500D01*
X250575500Y-200131500D02*
X247845000Y-197401000D01*
X285945000Y-197401000D02*
X284040000Y-197401000D01*
X247845000Y-197401000D02*
X245940000Y-197401000D01*
X405769500Y-200131500D02*
X405960000Y-199941000D01*
X359859000Y-198417000D02*
X358144500Y-200131500D01*
X245940000Y-197401000D02*
X245559000Y-197782000D01*
X433509250Y-198661250D02*
X432630000Y-198661250D01*
X283659000Y-197782000D02*
X283659000Y-198417000D01*
X265942500Y-198661250D02*
X265126750Y-198661250D01*
X281944500Y-200131500D02*
X268228500Y-200131500D01*
X380242500Y-198661250D02*
X379426750Y-198661250D01*
X190558250Y-198661250D02*
X189742500Y-198661250D01*
X227842500Y-198661250D02*
X227026750Y-198661250D01*
X450410000Y-197782000D02*
X450410000Y-198290000D01*
X174375500Y-200131500D02*
X171645000Y-197401000D01*
X167644500Y-200131500D02*
X149991500Y-200131500D01*
X450791000Y-197401000D02*
X450410000Y-197782000D01*
X187329500Y-200131500D02*
X174375500Y-200131500D01*
X189742500Y-198661250D02*
X188799750Y-198661250D01*
X448568500Y-200131500D02*
X434979500Y-200131500D01*
X243844500Y-200131500D02*
X230128500Y-200131500D01*
X192028500Y-200131500D02*
X190558250Y-198661250D01*
X427272125Y-230190875D02*
X427272125Y-225550125D01*
X453956250Y-198661250D02*
X452696000Y-197401000D01*
X283659000Y-198417000D02*
X281944500Y-200131500D01*
X268228500Y-200131500D02*
X266758250Y-198661250D01*
X324045000Y-197401000D02*
X326775500Y-200131500D01*
X405960000Y-199941000D02*
X406087000Y-199941000D01*
X169359000Y-198417000D02*
X167644500Y-200131500D01*
X225556500Y-200131500D02*
X212475500Y-200131500D01*
X304042500Y-198661250D02*
X304858250Y-198661250D01*
X139631250Y-173525000D02*
X142117500Y-176011250D01*
X136720000Y-173525000D02*
X139631250Y-173525000D01*
X238754750Y-155798750D02*
X240733000Y-157777000D01*
X404436000Y-158158000D02*
X404436000Y-157904000D01*
X269869750Y-155798750D02*
X271848000Y-157777000D01*
X434989250Y-155798750D02*
X433011000Y-157777000D01*
X269117500Y-155798750D02*
X269869750Y-155798750D01*
X424248125Y-230929000D02*
X419930000Y-230929000D01*
X186250000Y-157777000D02*
X234637000Y-157777000D01*
X395800000Y-157777000D02*
X393821750Y-155798750D01*
X355721750Y-155798750D02*
X357700000Y-157777000D01*
X425772125Y-225550125D02*
X425772125Y-229405000D01*
X266260000Y-157777000D02*
X268238250Y-155798750D01*
X320362000Y-157777000D02*
X322340250Y-155798750D01*
X184271750Y-155798750D02*
X186250000Y-157777000D01*
X419930000Y-157777000D02*
X419676000Y-158031000D01*
X234637000Y-157777000D02*
X236615250Y-155798750D01*
X354842500Y-155798750D02*
X355721750Y-155798750D01*
X323092500Y-155798750D02*
X324479750Y-155798750D01*
X351985000Y-157777000D02*
X353963250Y-155798750D01*
X405706000Y-157777000D02*
X405960000Y-158031000D01*
X404817000Y-157777000D02*
X404563000Y-157777000D01*
X404817000Y-157777000D02*
X405706000Y-157777000D01*
X433011000Y-157777000D02*
X419930000Y-157777000D01*
X236615250Y-155798750D02*
X237367500Y-155798750D01*
X404309000Y-157777000D02*
X395800000Y-157777000D01*
X410659000Y-221658000D02*
X410659000Y-175303000D01*
X404563000Y-157777000D02*
X404436000Y-157904000D01*
X435805000Y-155798750D02*
X434989250Y-155798750D01*
X410659000Y-175303000D02*
X407230000Y-171874000D01*
X357700000Y-157777000D02*
X390085000Y-157777000D01*
X326458000Y-157777000D02*
X351985000Y-157777000D01*
X419930000Y-230929000D02*
X410659000Y-221658000D01*
X353963250Y-155798750D02*
X354842500Y-155798750D01*
X268238250Y-155798750D02*
X269117500Y-155798750D01*
X404436000Y-157904000D02*
X404309000Y-157777000D01*
X393821750Y-155798750D02*
X392942500Y-155798750D01*
X183392500Y-155798750D02*
X184271750Y-155798750D01*
X237367500Y-155798750D02*
X238754750Y-155798750D01*
X322340250Y-155798750D02*
X323092500Y-155798750D01*
X240733000Y-157777000D02*
X266260000Y-157777000D01*
X425772125Y-229405000D02*
X424248125Y-230929000D01*
X390085000Y-157777000D02*
X392063250Y-155798750D01*
X392063250Y-155798750D02*
X392942500Y-155798750D01*
X407230000Y-171874000D02*
X406849000Y-171874000D01*
X271848000Y-157777000D02*
X320362000Y-157777000D01*
X324479750Y-155798750D02*
X326458000Y-157777000D01*
X158681250Y-173525000D02*
X161167500Y-176011250D01*
X155770000Y-173525000D02*
X158681250Y-173525000D01*
X174820000Y-173525000D02*
X177731250Y-173525000D01*
X177731250Y-173525000D02*
X180217500Y-176011250D01*
X196781250Y-173525000D02*
X199267500Y-176011250D01*
X193870000Y-173525000D02*
X196781250Y-173525000D01*
X212920000Y-173525000D02*
X215831250Y-173525000D01*
X215831250Y-173525000D02*
X218317500Y-176011250D01*
X234881250Y-173525000D02*
X237367500Y-176011250D01*
X231970000Y-173525000D02*
X234881250Y-173525000D01*
X251020000Y-173525000D02*
X253931250Y-173525000D01*
X253931250Y-173525000D02*
X256417500Y-176011250D01*
X272981250Y-173525000D02*
X275467500Y-176011250D01*
X270070000Y-173525000D02*
X272981250Y-173525000D01*
X292031250Y-173525000D02*
X294517500Y-176011250D01*
X289120000Y-173525000D02*
X292031250Y-173525000D01*
X308170000Y-173525000D02*
X311081250Y-173525000D01*
X311081250Y-173525000D02*
X313567500Y-176011250D01*
X327220000Y-173525000D02*
X330131250Y-173525000D01*
X330131250Y-173525000D02*
X332617500Y-176011250D01*
X346270000Y-173525000D02*
X349181250Y-173525000D01*
X349181250Y-173525000D02*
X351667500Y-176011250D01*
X357328750Y-173525000D02*
X354842500Y-176011250D01*
X365320000Y-173525000D02*
X357328750Y-173525000D01*
X313567500Y-179611250D02*
X315018250Y-179611250D01*
X196473500Y-181589500D02*
X164596500Y-181589500D01*
X373892500Y-179611250D02*
X373076750Y-179611250D01*
X278769500Y-181589500D02*
X310773500Y-181589500D01*
X275467500Y-179611250D02*
X276791250Y-179611250D01*
X449076500Y-181589500D02*
X451054750Y-179611250D01*
X315018250Y-179611250D02*
X316996500Y-181589500D01*
X409643000Y-185209000D02*
X406214000Y-181780000D01*
X354461500Y-181589500D02*
X352483250Y-179611250D01*
X409643000Y-222166000D02*
X409643000Y-185209000D01*
X376686500Y-181589500D02*
X405769500Y-181589500D01*
X238818250Y-179611250D02*
X237367500Y-179611250D01*
X350851750Y-179611250D02*
X351667500Y-179611250D01*
X426772125Y-225550125D02*
X426772125Y-229928875D01*
X274651750Y-179611250D02*
X272673500Y-181589500D01*
X202696500Y-181589500D02*
X200718250Y-179611250D01*
X200718250Y-179611250D02*
X199267500Y-179611250D01*
X373076750Y-179611250D02*
X371098500Y-181589500D01*
X275467500Y-179611250D02*
X274651750Y-179611250D01*
X240796500Y-181589500D02*
X238818250Y-179611250D01*
X198451750Y-179611250D02*
X196473500Y-181589500D01*
X426772125Y-229928875D02*
X424756000Y-231945000D01*
X451054750Y-179611250D02*
X451680000Y-179611250D01*
X424756000Y-231945000D02*
X419422000Y-231945000D01*
X164596500Y-181589500D02*
X162618250Y-179611250D01*
X162618250Y-179611250D02*
X161167500Y-179611250D01*
X236551750Y-179611250D02*
X234573500Y-181589500D01*
X237367500Y-179611250D02*
X236551750Y-179611250D01*
X419422000Y-231945000D02*
X409643000Y-222166000D01*
X371098500Y-181589500D02*
X354461500Y-181589500D01*
X234573500Y-181589500D02*
X202696500Y-181589500D01*
X374708250Y-179611250D02*
X376686500Y-181589500D01*
X352483250Y-179611250D02*
X351667500Y-179611250D01*
X199267500Y-179611250D02*
X198451750Y-179611250D01*
X276791250Y-179611250D02*
X278769500Y-181589500D01*
X419739500Y-181589500D02*
X449076500Y-181589500D01*
X348873500Y-181589500D02*
X350851750Y-179611250D01*
X310773500Y-181589500D02*
X312751750Y-179611250D01*
X312751750Y-179611250D02*
X313567500Y-179611250D01*
X373892500Y-179611250D02*
X374708250Y-179611250D01*
X406214000Y-181780000D02*
X405960000Y-181780000D01*
X316996500Y-181589500D02*
X348873500Y-181589500D01*
X405769500Y-181589500D02*
X405960000Y-181780000D01*
X419549000Y-181780000D02*
X419739500Y-181589500D01*
X272673500Y-181589500D02*
X240796500Y-181589500D01*
X144467000Y-181145000D02*
X157929000Y-181145000D01*
X333433250Y-179611250D02*
X334903500Y-181081500D01*
X162120000Y-178351000D02*
X164850500Y-181081500D01*
X431750750Y-179611250D02*
X430280500Y-181081500D01*
X160215000Y-178351000D02*
X162120000Y-178351000D01*
X294517500Y-179611250D02*
X295333250Y-179611250D01*
X312234000Y-178732000D02*
X312615000Y-178351000D01*
X433509250Y-179611250D02*
X432630000Y-179611250D01*
X410151000Y-184955000D02*
X410151000Y-221912000D01*
X217501750Y-179611250D02*
X218317500Y-179611250D01*
X142117500Y-179611250D02*
X142933250Y-179611250D01*
X310519500Y-181081500D02*
X312234000Y-179367000D01*
X274134000Y-178732000D02*
X274134000Y-179367000D01*
X142933250Y-179611250D02*
X144467000Y-181145000D01*
X236034000Y-178732000D02*
X236415000Y-178351000D01*
X182503500Y-181081500D02*
X196219500Y-181081500D01*
X220603500Y-181081500D02*
X234319500Y-181081500D01*
X369765000Y-178351000D02*
X374845000Y-178351000D01*
X312615000Y-178351000D02*
X314520000Y-178351000D01*
X197934000Y-178732000D02*
X198315000Y-178351000D01*
X293701750Y-179611250D02*
X292231500Y-181081500D01*
X419739500Y-181081500D02*
X419549000Y-180891000D01*
X452696000Y-178351000D02*
X450791000Y-178351000D01*
X255601750Y-179611250D02*
X256417500Y-179611250D01*
X159834000Y-178732000D02*
X160215000Y-178351000D01*
X295333250Y-179611250D02*
X296803500Y-181081500D01*
X219133250Y-179611250D02*
X220603500Y-181081500D01*
X317250500Y-181081500D02*
X330331500Y-181081500D01*
X432630000Y-179611250D02*
X431750750Y-179611250D01*
X355658250Y-179611250D02*
X357128500Y-181081500D01*
X450410000Y-178732000D02*
X450410000Y-179494000D01*
X164850500Y-181081500D02*
X177931500Y-181081500D01*
X181033250Y-179611250D02*
X182503500Y-181081500D01*
X369384000Y-179367000D02*
X369384000Y-178732000D01*
X374845000Y-178351000D02*
X375226000Y-178732000D01*
X177931500Y-181081500D02*
X179401750Y-179611250D01*
X450410000Y-179494000D02*
X448822500Y-181081500D01*
X375226000Y-178732000D02*
X375226000Y-179367000D01*
X159834000Y-179240000D02*
X159834000Y-178732000D01*
X238320000Y-178351000D02*
X241050500Y-181081500D01*
X448822500Y-181081500D02*
X434979500Y-181081500D01*
X406087000Y-180891000D02*
X410151000Y-184955000D01*
X196219500Y-181081500D02*
X197934000Y-179367000D01*
X331801750Y-179611250D02*
X332617500Y-179611250D01*
X179401750Y-179611250D02*
X180217500Y-179611250D01*
X197934000Y-179367000D02*
X197934000Y-178732000D01*
X236034000Y-179367000D02*
X236034000Y-178732000D01*
X200220000Y-178351000D02*
X202950500Y-181081500D01*
X198315000Y-178351000D02*
X200220000Y-178351000D01*
X376940500Y-181081500D02*
X405769500Y-181081500D01*
X430280500Y-181081500D02*
X419739500Y-181081500D01*
X241050500Y-181081500D02*
X254131500Y-181081500D01*
X292231500Y-181081500D02*
X279023500Y-181081500D01*
X405769500Y-181081500D02*
X405960000Y-180891000D01*
X272419500Y-181081500D02*
X258703500Y-181081500D01*
X348619500Y-181081500D02*
X350334000Y-179367000D01*
X330331500Y-181081500D02*
X331801750Y-179611250D01*
X294517500Y-179611250D02*
X293701750Y-179611250D01*
X357128500Y-181081500D02*
X367669500Y-181081500D01*
X180217500Y-179611250D02*
X181033250Y-179611250D01*
X236415000Y-178351000D02*
X238320000Y-178351000D01*
X453956250Y-179611250D02*
X452696000Y-178351000D01*
X216031500Y-181081500D02*
X217501750Y-179611250D01*
X276293000Y-178351000D02*
X274515000Y-178351000D01*
X254131500Y-181081500D02*
X255601750Y-179611250D01*
X450791000Y-178351000D02*
X450410000Y-178732000D01*
X369384000Y-178732000D02*
X369765000Y-178351000D01*
X350334000Y-178732000D02*
X350715000Y-178351000D01*
X258703500Y-181081500D02*
X257233250Y-179611250D01*
X234319500Y-181081500D02*
X236034000Y-179367000D01*
X279023500Y-181081500D02*
X276293000Y-178351000D01*
X274515000Y-178351000D02*
X274134000Y-178732000D01*
X334903500Y-181081500D02*
X348619500Y-181081500D01*
X367669500Y-181081500D02*
X369384000Y-179367000D01*
X157929000Y-181145000D02*
X159834000Y-179240000D01*
X257233250Y-179611250D02*
X256417500Y-179611250D01*
X375226000Y-179367000D02*
X376940500Y-181081500D01*
X405960000Y-180891000D02*
X406087000Y-180891000D01*
X202950500Y-181081500D02*
X216031500Y-181081500D01*
X410151000Y-221912000D02*
X419676000Y-231437000D01*
X314520000Y-178351000D02*
X317250500Y-181081500D01*
X419676000Y-231437000D02*
X424502000Y-231437000D01*
X454855000Y-179611250D02*
X453956250Y-179611250D01*
X218317500Y-179611250D02*
X219133250Y-179611250D01*
X354842500Y-179611250D02*
X355658250Y-179611250D01*
X350334000Y-179367000D02*
X350334000Y-178732000D01*
X426272125Y-229666875D02*
X426272125Y-225550125D01*
X312234000Y-179367000D02*
X312234000Y-178732000D01*
X274134000Y-179367000D02*
X272419500Y-181081500D01*
X424502000Y-231437000D02*
X426272125Y-229666875D01*
X350715000Y-178351000D02*
X352620000Y-178351000D01*
X353880250Y-179611250D02*
X354842500Y-179611250D01*
X352620000Y-178351000D02*
X353880250Y-179611250D01*
X296803500Y-181081500D02*
X310519500Y-181081500D01*
X434979500Y-181081500D02*
X433509250Y-179611250D01*
X332617500Y-179611250D02*
X333433250Y-179611250D01*
X141482500Y-192575000D02*
X145187500Y-192575000D01*
X145187500Y-192575000D02*
X146880000Y-194267500D01*
X165295000Y-192575000D02*
X168206250Y-192575000D01*
X168206250Y-192575000D02*
X170692500Y-195061250D01*
X184345000Y-192575000D02*
X187256250Y-192575000D01*
X187256250Y-192575000D02*
X189742500Y-195061250D01*
X203395000Y-192575000D02*
X206306250Y-192575000D01*
X206306250Y-192575000D02*
X208792500Y-195061250D01*
X225356250Y-192575000D02*
X227842500Y-195061250D01*
X222445000Y-192575000D02*
X225356250Y-192575000D01*
X244406250Y-192575000D02*
X246892500Y-195061250D01*
X241495000Y-192575000D02*
X244406250Y-192575000D01*
X260545000Y-192575000D02*
X263456250Y-192575000D01*
X263456250Y-192575000D02*
X265942500Y-195061250D01*
X279595000Y-192575000D02*
X282506250Y-192575000D01*
X282506250Y-192575000D02*
X284992500Y-195061250D01*
X298645000Y-192575000D02*
X301556250Y-192575000D01*
X301556250Y-192575000D02*
X304042500Y-195061250D01*
X320606250Y-192575000D02*
X323092500Y-195061250D01*
X317695000Y-192575000D02*
X320606250Y-192575000D01*
X339656250Y-192575000D02*
X342142500Y-195061250D01*
X336745000Y-192575000D02*
X339656250Y-192575000D01*
X355795000Y-192575000D02*
X358706250Y-192575000D01*
X358706250Y-192575000D02*
X361192500Y-195061250D01*
X374845000Y-192575000D02*
X377756250Y-192575000D01*
X377756250Y-192575000D02*
X380242500Y-195061250D01*
X385903750Y-192575000D02*
X383417500Y-195061250D01*
X398657500Y-192575000D02*
X385903750Y-192575000D01*
X379607500Y-211625000D02*
X379544000Y-211625000D01*
X383417500Y-193654500D02*
X383417500Y-195061250D01*
X383354000Y-193591000D02*
X383417500Y-193654500D01*
X172968750Y-211625000D02*
X175455000Y-214111250D01*
X170057500Y-211625000D02*
X172968750Y-211625000D01*
X189107500Y-211625000D02*
X192018750Y-211625000D01*
X192018750Y-211625000D02*
X194505000Y-214111250D01*
X211068750Y-211625000D02*
X213555000Y-214111250D01*
X208157500Y-211625000D02*
X211068750Y-211625000D01*
X230118750Y-211625000D02*
X232605000Y-214111250D01*
X227207500Y-211625000D02*
X230118750Y-211625000D01*
X246257500Y-211625000D02*
X249168750Y-211625000D01*
X249168750Y-211625000D02*
X251655000Y-214111250D01*
X268218750Y-211625000D02*
X270705000Y-214111250D01*
X265307500Y-211625000D02*
X268218750Y-211625000D01*
X284357500Y-211625000D02*
X287268750Y-211625000D01*
X287268750Y-211625000D02*
X289755000Y-214111250D01*
X306318750Y-211625000D02*
X308805000Y-214111250D01*
X303407500Y-211625000D02*
X306318750Y-211625000D01*
X325368750Y-211625000D02*
X327855000Y-214111250D01*
X322457500Y-211625000D02*
X325368750Y-211625000D01*
X344418750Y-211625000D02*
X346905000Y-214111250D01*
X341507500Y-211625000D02*
X344418750Y-211625000D01*
X360557500Y-211625000D02*
X363468750Y-211625000D01*
X363468750Y-211625000D02*
X365955000Y-214111250D01*
X383227000Y-213657000D02*
X375226000Y-213657000D01*
X384370000Y-212514000D02*
X386021000Y-212514000D01*
X389481750Y-213657000D02*
X391513750Y-211625000D01*
X401515000Y-213657000D02*
X393545750Y-213657000D01*
X373956000Y-212387000D02*
X370854250Y-212387000D01*
X375226000Y-213657000D02*
X373956000Y-212387000D01*
X370854250Y-212387000D02*
X369130000Y-214111250D01*
X403578750Y-211593250D02*
X401515000Y-213657000D01*
X386021000Y-212514000D02*
X387164000Y-213657000D01*
X387164000Y-213657000D02*
X389481750Y-213657000D01*
X393545750Y-213657000D02*
X391513750Y-211625000D01*
X403578750Y-209720000D02*
X403578750Y-211593250D01*
X384370000Y-212514000D02*
X383227000Y-213657000D01*
X403420000Y-230675000D02*
X406331250Y-230675000D01*
X406331250Y-230675000D02*
X408817500Y-233161250D01*
X159199000Y-225595000D02*
X165549000Y-231945000D01*
X148626250Y-230675000D02*
X151706000Y-230675000D01*
X148626250Y-230675000D02*
X139101250Y-230675000D01*
X151706000Y-230675000D02*
X156786000Y-225595000D01*
X139101250Y-230675000D02*
X139514000Y-230675000D01*
X165549000Y-231945000D02*
X166946000Y-231945000D01*
X156786000Y-225595000D02*
X159199000Y-225595000D01*
X168162250Y-233161250D02*
X169105000Y-233161250D01*
X166946000Y-231945000D02*
X168162250Y-233161250D01*
X179582500Y-230675000D02*
X182493750Y-230675000D01*
X182493750Y-230675000D02*
X184980000Y-233161250D01*
X198632500Y-230675000D02*
X201543750Y-230675000D01*
X201543750Y-230675000D02*
X204030000Y-233161250D01*
X217682500Y-230675000D02*
X220593750Y-230675000D01*
X220593750Y-230675000D02*
X223080000Y-233161250D01*
X236732500Y-230675000D02*
X239643750Y-230675000D01*
X239643750Y-230675000D02*
X242130000Y-233161250D01*
X258693750Y-230675000D02*
X261180000Y-233161250D01*
X255782500Y-230675000D02*
X258693750Y-230675000D01*
X274832500Y-230675000D02*
X277743750Y-230675000D01*
X277743750Y-230675000D02*
X280230000Y-233161250D01*
X293882500Y-230675000D02*
X296793750Y-230675000D01*
X296793750Y-230675000D02*
X299280000Y-233161250D01*
X315843750Y-230675000D02*
X318330000Y-233161250D01*
X312932500Y-230675000D02*
X315843750Y-230675000D01*
X331982500Y-230675000D02*
X334893750Y-230675000D01*
X334893750Y-230675000D02*
X337380000Y-233161250D01*
X353943750Y-230675000D02*
X356430000Y-233161250D01*
X351032500Y-230675000D02*
X353943750Y-230675000D01*
X389662500Y-230675000D02*
X392148750Y-233161250D01*
X377226250Y-230675000D02*
X386751250Y-230675000D01*
X386751250Y-230675000D02*
X389662500Y-230675000D01*
X212221500Y-200639500D02*
X244098500Y-200639500D01*
X360376750Y-198661250D02*
X358398500Y-200639500D01*
X322276750Y-198661250D02*
X320298500Y-200639500D01*
X383417500Y-198661250D02*
X382601750Y-198661250D01*
X324543250Y-198661250D02*
X323092500Y-198661250D01*
X205998500Y-200639500D02*
X174121500Y-200639500D01*
X427772125Y-225550125D02*
X427772125Y-230452875D01*
X358398500Y-200639500D02*
X326521500Y-200639500D01*
X208792500Y-198661250D02*
X207976750Y-198661250D01*
X418914000Y-232961000D02*
X408627000Y-222674000D01*
X406214000Y-200830000D02*
X405960000Y-200830000D01*
X174121500Y-200639500D02*
X172143250Y-198661250D01*
X386846500Y-200639500D02*
X384868250Y-198661250D01*
X282198500Y-200639500D02*
X250321500Y-200639500D01*
X326521500Y-200639500D02*
X324543250Y-198661250D01*
X382601750Y-198661250D02*
X380623500Y-200639500D01*
X408627000Y-222674000D02*
X408627000Y-203243000D01*
X207976750Y-198661250D02*
X205998500Y-200639500D01*
X320298500Y-200639500D02*
X288421500Y-200639500D01*
X246076750Y-198661250D02*
X246892500Y-198661250D01*
X210243250Y-198661250D02*
X212221500Y-200639500D01*
X362643250Y-198661250D02*
X361192500Y-198661250D01*
X288421500Y-200639500D02*
X286443250Y-198661250D01*
X286443250Y-198661250D02*
X284992500Y-198661250D01*
X284176750Y-198661250D02*
X282198500Y-200639500D01*
X408627000Y-203243000D02*
X406214000Y-200830000D01*
X427772125Y-230452875D02*
X425264000Y-232961000D01*
X405960000Y-200830000D02*
X405769500Y-200639500D01*
X448822500Y-200639500D02*
X419739500Y-200639500D01*
X248343250Y-198661250D02*
X246892500Y-198661250D01*
X361192500Y-198661250D02*
X360376750Y-198661250D01*
X384868250Y-198661250D02*
X383417500Y-198661250D01*
X364621500Y-200639500D02*
X362643250Y-198661250D01*
X323092500Y-198661250D02*
X322276750Y-198661250D01*
X451680000Y-198661250D02*
X450800750Y-198661250D01*
X380623500Y-200639500D02*
X364621500Y-200639500D01*
X405769500Y-200639500D02*
X386846500Y-200639500D01*
X172143250Y-198661250D02*
X170692500Y-198661250D01*
X419739500Y-200639500D02*
X419549000Y-200830000D01*
X284992500Y-198661250D02*
X284176750Y-198661250D01*
X425264000Y-232961000D02*
X418914000Y-232961000D01*
X208792500Y-198661250D02*
X210243250Y-198661250D01*
X244098500Y-200639500D02*
X246076750Y-198661250D01*
X450800750Y-198661250D02*
X448822500Y-200639500D01*
X250321500Y-200639500D02*
X248343250Y-198661250D01*
X380137500Y-249725000D02*
X382623750Y-252211250D01*
X377226250Y-249725000D02*
X380137500Y-249725000D01*
X374845000Y-249725000D02*
X377226250Y-249725000D01*
X390666250Y-249725000D02*
X388180000Y-252211250D01*
X398657500Y-249725000D02*
X401038750Y-249725000D01*
X398657500Y-249725000D02*
X390666250Y-249725000D01*
X141482500Y-249725000D02*
X139101250Y-249725000D01*
X143260500Y-247947000D02*
X167835000Y-247947000D01*
X172099250Y-252211250D02*
X173073750Y-252211250D01*
X141482500Y-249725000D02*
X143260500Y-247947000D01*
X167835000Y-247947000D02*
X172099250Y-252211250D01*
X169898750Y-250772750D02*
X167581000Y-248455000D01*
X166565000Y-248455000D02*
X165295000Y-249725000D01*
X165295000Y-249725000D02*
X162913750Y-249725000D01*
X169898750Y-252211250D02*
X169898750Y-250772750D01*
X167581000Y-248455000D02*
X166565000Y-248455000D01*
X178735000Y-249725000D02*
X176248750Y-252211250D01*
X186726250Y-249725000D02*
X189107500Y-249725000D01*
X186726250Y-249725000D02*
X178735000Y-249725000D01*
X250172500Y-249725000D02*
X247686250Y-252211250D01*
X258163750Y-249725000D02*
X250172500Y-249725000D01*
X270070000Y-249725000D02*
X258163750Y-249725000D01*
X329601250Y-249725000D02*
X332512500Y-249725000D01*
X332512500Y-249725000D02*
X334998750Y-252211250D01*
X351032500Y-249725000D02*
X343041250Y-249725000D01*
X343041250Y-249725000D02*
X340555000Y-252211250D01*
X353413750Y-249725000D02*
X351032500Y-249725000D01*
X427232500Y-149712500D02*
X430143750Y-149712500D01*
X430143750Y-149712500D02*
X432630000Y-152198750D01*
X446282500Y-149712500D02*
X438291250Y-149712500D01*
X438291250Y-149712500D02*
X435805000Y-152198750D01*
X464380000Y-164898750D02*
X465650000Y-163628750D01*
X465650000Y-150030000D02*
X465332500Y-149712500D01*
X465650000Y-163628750D02*
X465650000Y-150030000D01*
X427232500Y-173525000D02*
X430143750Y-173525000D01*
X430143750Y-173525000D02*
X432630000Y-176011250D01*
X446282500Y-173525000D02*
X449193750Y-173525000D01*
X449193750Y-173525000D02*
X451680000Y-176011250D01*
X457341250Y-173525000D02*
X454855000Y-176011250D01*
X465332500Y-173525000D02*
X457341250Y-173525000D01*
X427232500Y-192575000D02*
X427232500Y-192384500D01*
X430143750Y-192575000D02*
X432630000Y-195061250D01*
X427232500Y-192575000D02*
X430143750Y-192575000D01*
X446282500Y-192575000D02*
X446297500Y-192590000D01*
X449208750Y-192590000D02*
X451680000Y-195061250D01*
X446297500Y-192590000D02*
X449208750Y-192590000D01*
X465332500Y-192575000D02*
X457341250Y-192575000D01*
X457341250Y-192575000D02*
X454855000Y-195061250D01*
X446282500Y-230675000D02*
X449193750Y-230675000D01*
X449193750Y-230675000D02*
X451680000Y-233161250D01*
X427232500Y-249725000D02*
X419241250Y-249725000D01*
X419241250Y-249725000D02*
X416755000Y-252211250D01*
X445076000Y-248455000D02*
X446282500Y-249661500D01*
X438091000Y-248455000D02*
X445076000Y-248455000D01*
X446282500Y-249661500D02*
X446282500Y-249725000D01*
X435805000Y-250741000D02*
X438091000Y-248455000D01*
X435805000Y-252211250D02*
X435805000Y-250741000D01*
X433572750Y-252211250D02*
X437837000Y-247947000D01*
X465269000Y-249725000D02*
X465332500Y-249725000D01*
X437837000Y-247947000D02*
X463491000Y-247947000D01*
X463491000Y-247947000D02*
X465269000Y-249725000D01*
X432630000Y-252211250D02*
X433572750Y-252211250D01*
D37*
X411548000Y-154516250D02*
X411668000Y-154636250D01*
X410532000Y-158356000D02*
X409389000Y-159499000D01*
X410336250Y-150487125D02*
X410336250Y-152374250D01*
X410336250Y-152374250D02*
X411548000Y-153586000D01*
X411548000Y-153586000D02*
X411548000Y-154516250D01*
X411513750Y-154636250D02*
X410532000Y-155618000D01*
X411668000Y-154636250D02*
X411513750Y-154636250D01*
X415236250Y-152437750D02*
X414596000Y-153078000D01*
X410532000Y-155618000D02*
X410532000Y-158356000D01*
X414596000Y-153078000D02*
X414342000Y-153078000D01*
X415236250Y-150487125D02*
X415236250Y-152437750D01*
X411548000Y-153078000D02*
X411548000Y-153586000D01*
D36*
X413707000Y-220134000D02*
X413707000Y-173779000D01*
X405833000Y-165905000D02*
X235780000Y-165905000D01*
X235780000Y-165905000D02*
X225620000Y-176065000D01*
X413707000Y-173779000D02*
X405833000Y-165905000D01*
X415723125Y-222150125D02*
X413707000Y-220134000D01*
X423372125Y-222150125D02*
X415723125Y-222150125D01*
X187520000Y-176065000D02*
X198188000Y-165397000D01*
X415985125Y-221650125D02*
X421454000Y-221650125D01*
X414215000Y-173525000D02*
X414215000Y-219880000D01*
X421454000Y-221650125D02*
X423372125Y-221650125D01*
X406087000Y-165397000D02*
X414215000Y-173525000D01*
X414215000Y-219880000D02*
X415985125Y-221650125D01*
X198188000Y-165397000D02*
X406087000Y-165397000D01*
X413199000Y-220388000D02*
X413199000Y-174033000D01*
X273372000Y-166413000D02*
X263720000Y-176065000D01*
X423372125Y-222650125D02*
X415461125Y-222650125D01*
X405579000Y-166413000D02*
X273372000Y-166413000D01*
X413199000Y-174033000D02*
X405579000Y-166413000D01*
X415461125Y-222650125D02*
X413199000Y-220388000D01*
X263720000Y-252265000D02*
X251813750Y-252265000D01*
X412691000Y-220642000D02*
X412691000Y-174287000D01*
X423372125Y-223150125D02*
X415199125Y-223150125D01*
X405325000Y-166921000D02*
X310964000Y-166921000D01*
X415199125Y-223150125D02*
X412691000Y-220642000D01*
X310964000Y-166921000D02*
X301820000Y-176065000D01*
X412691000Y-174287000D02*
X405325000Y-166921000D01*
X423372125Y-223650125D02*
X414937125Y-223650125D01*
X414937125Y-223650125D02*
X412183000Y-220896000D01*
X348556000Y-167429000D02*
X339920000Y-176065000D01*
X412183000Y-220896000D02*
X412183000Y-174541000D01*
X412183000Y-174541000D02*
X405071000Y-167429000D01*
X405071000Y-167429000D02*
X348556000Y-167429000D01*
X386700000Y-168090000D02*
X386853000Y-167937000D01*
X385163750Y-214165000D02*
X373257500Y-214165000D01*
X420438000Y-229913000D02*
X423756125Y-229913000D01*
X397070000Y-176065000D02*
X387545000Y-176065000D01*
X411675000Y-221150000D02*
X420438000Y-229913000D01*
X423756125Y-229913000D02*
X424772125Y-228897000D01*
X386853000Y-167937000D02*
X404817000Y-167937000D01*
X411675000Y-174795000D02*
X411675000Y-221150000D01*
X380401250Y-233215000D02*
X370876250Y-233215000D01*
X387545000Y-176065000D02*
X378020000Y-176065000D01*
X404817000Y-167937000D02*
X411675000Y-174795000D01*
X424772125Y-228897000D02*
X424772125Y-225550125D01*
X436660000Y-253450000D02*
X437845000Y-252265000D01*
X440250000Y-212895000D02*
X431106000Y-212895000D01*
X437845000Y-252265000D02*
X439932500Y-252265000D01*
X431490000Y-153510000D02*
X437050000Y-153510000D01*
X429950000Y-251770000D02*
X431630000Y-253450000D01*
X427772125Y-217498875D02*
X427772125Y-218750125D01*
X431106000Y-212895000D02*
X428693000Y-215308000D01*
X438307500Y-152252500D02*
X439932500Y-152252500D01*
X420882500Y-252265000D02*
X421377500Y-251770000D01*
X431630000Y-253450000D02*
X436660000Y-253450000D01*
X437050000Y-153510000D02*
X438307500Y-152252500D01*
X440504000Y-212641000D02*
X440250000Y-212895000D01*
X420882500Y-152252500D02*
X421495000Y-151640000D01*
X428693000Y-215308000D02*
X428693000Y-216578000D01*
X428693000Y-216578000D02*
X427772125Y-217498875D01*
X421377500Y-251770000D02*
X429950000Y-251770000D01*
X429620000Y-151640000D02*
X431490000Y-153510000D01*
X421495000Y-151640000D02*
X429620000Y-151640000D01*
X460278500Y-213111500D02*
X460570000Y-213403000D01*
X428272125Y-217760875D02*
X429201000Y-216832000D01*
X467682000Y-217848000D02*
X467682000Y-220642000D01*
X459980000Y-213410000D02*
X460278500Y-213111500D01*
X428272125Y-218750125D02*
X428272125Y-217760875D01*
X466062750Y-222261250D02*
X465650000Y-222261250D01*
X450435689Y-212925689D02*
X450920000Y-213410000D01*
X449575689Y-213284311D02*
X449575689Y-213279674D01*
X467682000Y-220642000D02*
X466062750Y-222261250D01*
X429201000Y-215562000D02*
X431360000Y-213403000D01*
X449929674Y-212925689D02*
X450435689Y-212925689D01*
X449457000Y-213403000D02*
X449575689Y-213284311D01*
X460570000Y-213403000D02*
X463237000Y-213403000D01*
X449575689Y-213279674D02*
X449929674Y-212925689D01*
X450920000Y-213410000D02*
X459980000Y-213410000D01*
X463237000Y-213403000D02*
X467682000Y-217848000D01*
X429201000Y-216832000D02*
X429201000Y-215562000D01*
X431360000Y-213403000D02*
X449457000Y-213403000D01*
X143970000Y-223161250D02*
X142593750Y-221785000D01*
X142593750Y-221785000D02*
X142562000Y-221785000D01*
X149261250Y-223161250D02*
X143970000Y-223161250D01*
X142562000Y-221785000D02*
X141038000Y-220261000D01*
X141038000Y-220261000D02*
X136815250Y-220261000D01*
X136815250Y-220261000D02*
X135291250Y-221785000D01*
X446917500Y-161777500D02*
X445012500Y-159872500D01*
X446917500Y-164211250D02*
X446917500Y-161777500D01*
X412036250Y-151534250D02*
X412564000Y-152062000D01*
X417771000Y-202227000D02*
X424502000Y-208958000D01*
X413036250Y-150487125D02*
X413036250Y-151589750D01*
X412036250Y-150487125D02*
X412036250Y-151534250D01*
X411668000Y-156536250D02*
X412564000Y-157432250D01*
X417771000Y-171747000D02*
X417771000Y-202227000D01*
X412564000Y-166540000D02*
X417771000Y-171747000D01*
X424502000Y-208958000D02*
X424502000Y-210217000D01*
X412564000Y-157432250D02*
X412564000Y-166540000D01*
X413036250Y-151589750D02*
X412564000Y-152062000D01*
X412564000Y-152062000D02*
X412564000Y-155745000D01*
X411772750Y-156536250D02*
X411668000Y-156536250D01*
X412564000Y-155745000D02*
X411772750Y-156536250D01*
X424502000Y-212017000D02*
X424375000Y-212144000D01*
X425272125Y-216578000D02*
X425272125Y-218750125D01*
X424375000Y-215680875D02*
X425272125Y-216578000D01*
X424375000Y-212144000D02*
X424375000Y-215680875D01*
X425772125Y-216324000D02*
X425772125Y-218750125D01*
X426534000Y-212017000D02*
X424883000Y-213668000D01*
X424883000Y-213668000D02*
X424883000Y-215434875D01*
X424883000Y-215434875D02*
X425772125Y-216324000D01*
X413536250Y-151851750D02*
X413072000Y-152316000D01*
X413536250Y-149478250D02*
X413536250Y-150487125D01*
X412536250Y-150487125D02*
X412536250Y-149549750D01*
X413863250Y-156536250D02*
X413968000Y-156536250D01*
X413072000Y-155745000D02*
X413863250Y-156536250D01*
X413072000Y-152316000D02*
X413072000Y-155745000D01*
X413536250Y-150487125D02*
X413536250Y-151851750D01*
X412818000Y-149268000D02*
X413326000Y-149268000D01*
X413072000Y-157432250D02*
X413072000Y-166286000D01*
X413968000Y-156536250D02*
X413072000Y-157432250D01*
X426523000Y-210217000D02*
X426534000Y-210217000D01*
X418279000Y-201973000D02*
X426523000Y-210217000D01*
X413072000Y-166286000D02*
X418279000Y-171493000D01*
X418279000Y-171493000D02*
X418279000Y-201973000D01*
X412536250Y-149549750D02*
X412818000Y-149268000D01*
X413326000Y-149268000D02*
X413536250Y-149478250D01*
X430172125Y-220150125D02*
X430962875Y-220150125D01*
X430962875Y-220150125D02*
X431233000Y-219880000D01*
X450791000Y-217594000D02*
X456696500Y-223499500D01*
X447208125Y-217340000D02*
X447462125Y-217594000D01*
X432960680Y-214850320D02*
X446147195Y-214850320D01*
X446147195Y-214850320D02*
X447208125Y-215911250D01*
X431233000Y-216578000D02*
X432960680Y-214850320D01*
X431233000Y-219880000D02*
X431233000Y-216578000D01*
X446258125Y-219161250D02*
X446258125Y-218798000D01*
X447462125Y-217594000D02*
X450791000Y-217594000D01*
X447208125Y-215911250D02*
X447208125Y-217086000D01*
X447208125Y-217086000D02*
X447208125Y-217340000D01*
X447462125Y-217594000D02*
X447208125Y-217848000D01*
X464570500Y-223499500D02*
X465650000Y-224579000D01*
X465650000Y-224579000D02*
X465650000Y-224801250D01*
X446258125Y-218798000D02*
X447208125Y-217848000D01*
X456696500Y-223499500D02*
X464570500Y-223499500D01*
X424272125Y-227613875D02*
X422989000Y-228897000D01*
X424272125Y-225550125D02*
X424272125Y-227613875D01*
X430573875Y-219650125D02*
X430172125Y-219650125D01*
X411536250Y-150487125D02*
X411536250Y-152177250D01*
X408817500Y-153522500D02*
X408881000Y-153459000D01*
X411536250Y-152177250D02*
X411548000Y-152189000D01*
X408817500Y-154686250D02*
X408817500Y-153522500D01*
X416374000Y-153459000D02*
X416358125Y-153474875D01*
X414536250Y-151994750D02*
X414342000Y-152189000D01*
X416358125Y-153474875D02*
X416358125Y-154686250D01*
X414536250Y-150487125D02*
X414536250Y-151994750D01*
X431868000Y-214419000D02*
X430217000Y-216070000D01*
X429272125Y-218284875D02*
X429272125Y-218750125D01*
X462679000Y-214419000D02*
X431868000Y-214419000D01*
X430217000Y-217340000D02*
X429272125Y-218284875D01*
X430217000Y-216070000D02*
X430217000Y-217340000D01*
X465650000Y-219721250D02*
X465650000Y-217390000D01*
X465650000Y-217390000D02*
X462679000Y-214419000D01*
X392625000Y-172255000D02*
X393895000Y-173525000D01*
X384370000Y-173525000D02*
X385640000Y-172255000D01*
X384370000Y-173525000D02*
X384370000Y-172001000D01*
X385640000Y-172255000D02*
X392625000Y-172255000D01*
X380814000Y-168445000D02*
X378147000Y-168445000D01*
X373892500Y-172699500D02*
X373892500Y-176011250D01*
X378147000Y-168445000D02*
X373892500Y-172699500D01*
X384370000Y-172001000D02*
X380814000Y-168445000D01*
X398975000Y-171747000D02*
X400753000Y-173525000D01*
X377893000Y-167937000D02*
X381068000Y-167937000D01*
X370717500Y-175112500D02*
X377893000Y-167937000D01*
X400753000Y-173525000D02*
X403420000Y-173525000D01*
X370717500Y-176011250D02*
X370717500Y-175112500D01*
X384878000Y-171747000D02*
X381068000Y-167937000D01*
X398975000Y-171747000D02*
X384878000Y-171747000D01*
X143863750Y-211625000D02*
X146775000Y-211625000D01*
X143863750Y-211625000D02*
X143832000Y-211625000D01*
X143832000Y-211625000D02*
X142181000Y-209974000D01*
X142181000Y-209974000D02*
X136942250Y-209974000D01*
X136942250Y-209974000D02*
X132751250Y-214165000D01*
X146775000Y-211625000D02*
X149261250Y-214111250D01*
X447087250Y-166011250D02*
X450186700Y-168960000D01*
X464373650Y-220997600D02*
X463110000Y-222261250D01*
X467174000Y-220388000D02*
X466564400Y-220997600D01*
X449798989Y-213911000D02*
X450179989Y-213530000D01*
X431614000Y-213911000D02*
X449798989Y-213911000D01*
X428772125Y-218750125D02*
X428772125Y-218022875D01*
X450180000Y-213529989D02*
X450179989Y-213530000D01*
X428772125Y-218022875D02*
X429709000Y-217086000D01*
X450179989Y-213530000D02*
X450180011Y-213530000D01*
X450561011Y-213911000D02*
X462983000Y-213911000D01*
X429709000Y-215816000D02*
X431614000Y-213911000D01*
X450180011Y-213530000D02*
X450561011Y-213911000D01*
X466564400Y-220997600D02*
X464373650Y-220997600D01*
X467174000Y-218102000D02*
X467174000Y-220388000D01*
X462983000Y-213911000D02*
X467174000Y-218102000D01*
X446917500Y-166011250D02*
X447087250Y-166011250D01*
X429709000Y-217086000D02*
X429709000Y-215816000D01*
X421086125Y-218750125D02*
X424272125Y-218750125D01*
X150224750Y-221361250D02*
X151706000Y-219880000D01*
X406595000Y-164381000D02*
X415231000Y-173017000D01*
X415231000Y-173017000D02*
X415231000Y-212895000D01*
X149261250Y-221361250D02*
X150224750Y-221361250D01*
X146940000Y-164381000D02*
X406595000Y-164381000D01*
X151837250Y-219748750D02*
X151706000Y-219880000D01*
X415231000Y-212895000D02*
X421086125Y-218750125D01*
X319717250Y-236761250D02*
X318330000Y-236761250D01*
X356430000Y-236761250D02*
X355677750Y-236761250D01*
X203277750Y-236761250D02*
X201299500Y-238739500D01*
X201299500Y-238739500D02*
X168787500Y-238739500D01*
X450800750Y-236761250D02*
X448822500Y-238739500D01*
X429264500Y-238739500D02*
X428312000Y-238739500D01*
X168787500Y-238739500D02*
X166809250Y-236761250D01*
X315599500Y-238739500D02*
X317577750Y-236761250D01*
X204030000Y-236761250D02*
X203277750Y-236761250D01*
X408817500Y-236761250D02*
X408001750Y-236761250D01*
X359795500Y-238739500D02*
X357817250Y-236761250D01*
X280230000Y-236761250D02*
X281617250Y-236761250D01*
X408817500Y-236761250D02*
X409760250Y-236761250D01*
X430852000Y-232072000D02*
X429201000Y-232072000D01*
X406023500Y-238739500D02*
X359795500Y-238739500D01*
X242130000Y-236761250D02*
X241377750Y-236761250D01*
X357817250Y-236761250D02*
X356430000Y-236761250D01*
X281617250Y-236761250D02*
X283595500Y-238739500D01*
X166809250Y-236761250D02*
X165930000Y-236761250D01*
X433138000Y-226738000D02*
X433138000Y-229786000D01*
X426661000Y-237088500D02*
X425010000Y-238739500D01*
X279477750Y-236761250D02*
X277499500Y-238739500D01*
X409760250Y-236761250D02*
X411738500Y-238739500D01*
X353699500Y-238739500D02*
X321695500Y-238739500D01*
X207395500Y-238739500D02*
X205417250Y-236761250D01*
X431066125Y-223650125D02*
X431741000Y-224325000D01*
X283595500Y-238739500D02*
X315599500Y-238739500D01*
X321695500Y-238739500D02*
X319717250Y-236761250D01*
X355677750Y-236761250D02*
X353699500Y-238739500D01*
X239399500Y-238739500D02*
X207395500Y-238739500D01*
X245495500Y-238739500D02*
X243517250Y-236761250D01*
X317577750Y-236761250D02*
X318330000Y-236761250D01*
X431741000Y-224325000D02*
X431741000Y-225341000D01*
X426661000Y-234612000D02*
X426661000Y-237088500D01*
X280230000Y-236761250D02*
X279477750Y-236761250D01*
X411738500Y-238739500D02*
X422978000Y-238739500D01*
X451680000Y-236761250D02*
X450800750Y-236761250D01*
X408001750Y-236761250D02*
X406023500Y-238739500D01*
X428312000Y-238739500D02*
X426661000Y-237088500D01*
X433138000Y-229786000D02*
X430852000Y-232072000D01*
X423549500Y-238739500D02*
X422978000Y-238739500D01*
X425010000Y-238739500D02*
X423549500Y-238739500D01*
X277499500Y-238739500D02*
X245495500Y-238739500D01*
X431741000Y-225341000D02*
X433138000Y-226738000D01*
X243517250Y-236761250D02*
X242130000Y-236761250D01*
X430172125Y-223650125D02*
X431066125Y-223650125D01*
X205417250Y-236761250D02*
X204030000Y-236761250D01*
X429201000Y-232072000D02*
X426661000Y-234612000D01*
X241377750Y-236761250D02*
X239399500Y-238739500D01*
X448822500Y-238739500D02*
X429264500Y-238739500D01*
X348292250Y-217711250D02*
X350270500Y-219689500D01*
X267847500Y-219689500D02*
X269825750Y-217711250D01*
X193625750Y-217711250D02*
X191647500Y-219689500D01*
X233992250Y-217711250D02*
X235970500Y-219689500D01*
X150191750Y-217711250D02*
X149261250Y-217711250D01*
X269825750Y-217711250D02*
X270705000Y-217711250D01*
X195892250Y-217711250D02*
X197870500Y-219689500D01*
X375590000Y-196230000D02*
X373194000Y-193834000D01*
X428272125Y-225550125D02*
X428272125Y-230714875D01*
X344174500Y-219689500D02*
X346152750Y-217711250D01*
X191647500Y-219689500D02*
X162183500Y-219689500D01*
X373194000Y-190416000D02*
X374972000Y-188638000D01*
X270705000Y-217711250D02*
X272092250Y-217711250D01*
X235970500Y-219689500D02*
X267847500Y-219689500D01*
X310192250Y-217711250D02*
X312170500Y-219689500D01*
X404182000Y-223055000D02*
X402658000Y-221531000D01*
X384370000Y-221531000D02*
X381830000Y-218991000D01*
X194505000Y-217711250D02*
X193625750Y-217711250D01*
X272092250Y-217711250D02*
X274070500Y-219689500D01*
X197870500Y-219689500D02*
X229747500Y-219689500D01*
X162183500Y-219689500D02*
X158437000Y-215943000D01*
X312170500Y-219689500D02*
X344174500Y-219689500D01*
X229747500Y-219689500D02*
X231725750Y-217711250D01*
X381830000Y-219118000D02*
X381830000Y-218991000D01*
X370717500Y-179611250D02*
X370282750Y-179611250D01*
X274070500Y-219689500D02*
X306074500Y-219689500D01*
X158437000Y-215943000D02*
X158437000Y-214038000D01*
X346905000Y-217711250D02*
X348292250Y-217711250D01*
X308805000Y-217711250D02*
X310192250Y-217711250D01*
X151960000Y-215943000D02*
X150191750Y-217711250D01*
X370282750Y-179611250D02*
X369003000Y-180891000D01*
X308052750Y-217711250D02*
X308805000Y-217711250D01*
X379120500Y-219689500D02*
X381258500Y-219689500D01*
X231725750Y-217711250D02*
X232605000Y-217711250D01*
X425518000Y-233469000D02*
X418660000Y-233469000D01*
X194505000Y-217711250D02*
X195892250Y-217711250D01*
X157040000Y-212641000D02*
X153357000Y-212641000D01*
X381258500Y-219689500D02*
X381830000Y-219118000D01*
X418660000Y-233469000D02*
X408246000Y-223055000D01*
X346152750Y-217711250D02*
X346905000Y-217711250D01*
X306074500Y-219689500D02*
X308052750Y-217711250D01*
X158437000Y-214038000D02*
X157040000Y-212641000D01*
X379119500Y-219689500D02*
X379120000Y-219690000D01*
X151960000Y-214038000D02*
X151960000Y-215943000D01*
X232605000Y-217711250D02*
X233992250Y-217711250D01*
X428272125Y-230714875D02*
X425518000Y-233469000D01*
X402658000Y-221531000D02*
X384370000Y-221531000D01*
X379120000Y-219690000D02*
X379120500Y-219689500D01*
X408246000Y-223055000D02*
X404182000Y-223055000D01*
X350270500Y-219689500D02*
X379119500Y-219689500D01*
X373194000Y-193834000D02*
X373194000Y-190416000D01*
X153357000Y-212641000D02*
X151960000Y-214038000D01*
X252534250Y-217711250D02*
X254004500Y-219181500D01*
X229493500Y-219181500D02*
X231335000Y-217340000D01*
X254004500Y-219181500D02*
X267593500Y-219181500D01*
X211205500Y-219181500D02*
X212675750Y-217711250D01*
X231335000Y-217340000D02*
X231335000Y-216832000D01*
X195394000Y-216451000D02*
X198124500Y-219181500D01*
X345635000Y-217467000D02*
X343920500Y-219181500D01*
X312424500Y-219181500D02*
X325505500Y-219181500D01*
X290634250Y-217711250D02*
X292104500Y-219181500D01*
X307916000Y-216451000D02*
X309694000Y-216451000D01*
X305820500Y-219181500D02*
X307535000Y-217467000D01*
X365075750Y-217711250D02*
X363605500Y-219181500D01*
X269435000Y-216832000D02*
X269816000Y-216451000D01*
X365955000Y-217711250D02*
X365075750Y-217711250D01*
X269435000Y-217340000D02*
X269435000Y-216832000D01*
X292104500Y-219181500D02*
X305820500Y-219181500D01*
X383862605Y-222039000D02*
X402404000Y-222039000D01*
X236224500Y-219181500D02*
X249305500Y-219181500D01*
X289755000Y-217711250D02*
X290634250Y-217711250D01*
X407992000Y-223563000D02*
X418406000Y-233977000D01*
X267593500Y-219181500D02*
X269435000Y-217340000D01*
X269816000Y-216451000D02*
X271594000Y-216451000D01*
X347794000Y-216451000D02*
X346016000Y-216451000D01*
X326975750Y-217711250D02*
X327855000Y-217711250D01*
X428693000Y-231056000D02*
X430344000Y-231056000D01*
X430542125Y-224650125D02*
X430172125Y-224650125D01*
X343920500Y-219181500D02*
X330204500Y-219181500D01*
X231716000Y-216451000D02*
X233494000Y-216451000D01*
X191393500Y-219181500D02*
X193235000Y-217340000D01*
X432122000Y-229278000D02*
X432122000Y-227246000D01*
X365955000Y-217711250D02*
X369130000Y-217711250D01*
X430725000Y-225849000D02*
X430725000Y-224833000D01*
X198124500Y-219181500D02*
X211205500Y-219181500D01*
X193235000Y-217340000D02*
X193235000Y-216705000D01*
X381813108Y-219989503D02*
X383862605Y-222039000D01*
X176334250Y-217711250D02*
X177804500Y-219181500D01*
X175455000Y-217711250D02*
X176334250Y-217711250D01*
X288875750Y-217711250D02*
X289755000Y-217711250D01*
X309694000Y-216451000D02*
X312424500Y-219181500D01*
X346016000Y-216451000D02*
X345635000Y-216832000D01*
X214434250Y-217711250D02*
X215904500Y-219181500D01*
X231335000Y-216832000D02*
X231716000Y-216451000D01*
X418406000Y-233977000D02*
X425772000Y-233977000D01*
X212675750Y-217711250D02*
X213555000Y-217711250D01*
X430344000Y-231056000D02*
X432122000Y-229278000D01*
X307535000Y-217467000D02*
X307535000Y-216832000D01*
X328734250Y-217711250D02*
X327855000Y-217711250D01*
X193235000Y-216705000D02*
X193489000Y-216451000D01*
X363605500Y-219181500D02*
X350524500Y-219181500D01*
X369130000Y-217711250D02*
X370009250Y-217711250D01*
X370009250Y-217711250D02*
X371479500Y-219181500D01*
X215904500Y-219181500D02*
X229493500Y-219181500D01*
X425772000Y-233977000D02*
X428693000Y-231056000D01*
X251655000Y-217711250D02*
X252534250Y-217711250D01*
X271594000Y-216451000D02*
X274324500Y-219181500D01*
X287405500Y-219181500D02*
X288875750Y-217711250D01*
X380750500Y-219181500D02*
X380941000Y-218991000D01*
X249305500Y-219181500D02*
X250775750Y-217711250D01*
X403928000Y-223563000D02*
X407992000Y-223563000D01*
X330204500Y-219181500D02*
X328734250Y-217711250D01*
X274324500Y-219181500D02*
X287405500Y-219181500D01*
X430725000Y-224833000D02*
X430542125Y-224650125D01*
X350524500Y-219181500D02*
X347794000Y-216451000D01*
X345635000Y-216832000D02*
X345635000Y-217467000D01*
X250775750Y-217711250D02*
X251655000Y-217711250D01*
X233494000Y-216451000D02*
X236224500Y-219181500D01*
X371479500Y-219181500D02*
X380750500Y-219181500D01*
X213555000Y-217711250D02*
X214434250Y-217711250D01*
X307535000Y-216832000D02*
X307916000Y-216451000D01*
X177804500Y-219181500D02*
X191393500Y-219181500D01*
X432122000Y-227246000D02*
X430725000Y-225849000D01*
X402404000Y-222039000D02*
X403928000Y-223563000D01*
X325505500Y-219181500D02*
X326975750Y-217711250D01*
X193489000Y-216451000D02*
X195394000Y-216451000D01*
X283849500Y-238231500D02*
X296930500Y-238231500D01*
X432630000Y-229532000D02*
X432630000Y-226992000D01*
X430804125Y-224150125D02*
X430172125Y-224150125D01*
X392996250Y-236761250D02*
X394466500Y-238231500D01*
X171454500Y-238231500D02*
X182694000Y-238231500D01*
X357319000Y-235501000D02*
X360049500Y-238231500D01*
X410151000Y-235882000D02*
X410151000Y-236390000D01*
X391237750Y-236761250D02*
X392148750Y-236761250D01*
X394466500Y-238231500D02*
X405769500Y-238231500D01*
X424756000Y-238231500D02*
X426153000Y-236834500D01*
X220730500Y-238231500D02*
X222200750Y-236761250D01*
X260300750Y-236761250D02*
X261180000Y-236761250D01*
X426153000Y-234358000D02*
X428947000Y-231564000D01*
X202760000Y-236517000D02*
X202760000Y-235882000D01*
X298400750Y-236761250D02*
X299280000Y-236761250D01*
X201045500Y-238231500D02*
X202760000Y-236517000D01*
X263529500Y-238231500D02*
X277245500Y-238231500D01*
X185859250Y-236761250D02*
X187329500Y-238231500D01*
X339729500Y-238231500D02*
X353445500Y-238231500D01*
X431233000Y-225595000D02*
X431233000Y-224579000D01*
X225429500Y-238231500D02*
X239145500Y-238231500D01*
X407865000Y-235501000D02*
X409770000Y-235501000D01*
X355160000Y-236517000D02*
X355160000Y-235882000D01*
X355541000Y-235501000D02*
X357319000Y-235501000D01*
X281119000Y-235501000D02*
X283849500Y-238231500D01*
X296930500Y-238231500D02*
X298400750Y-236761250D01*
X222200750Y-236761250D02*
X223080000Y-236761250D01*
X261180000Y-236761250D02*
X262059250Y-236761250D01*
X353445500Y-238231500D02*
X355160000Y-236517000D01*
X430598000Y-231564000D02*
X432630000Y-229532000D01*
X392148750Y-236761250D02*
X392996250Y-236761250D01*
X241241000Y-235501000D02*
X243019000Y-235501000D01*
X243019000Y-235501000D02*
X245749500Y-238231500D01*
X278960000Y-236517000D02*
X278960000Y-235882000D01*
X389767500Y-238231500D02*
X391237750Y-236761250D01*
X337380000Y-236761250D02*
X338259250Y-236761250D01*
X319219000Y-235501000D02*
X317441000Y-235501000D01*
X184980000Y-236761250D02*
X184164250Y-236761250D01*
X258830500Y-238231500D02*
X260300750Y-236761250D01*
X202760000Y-235882000D02*
X203141000Y-235501000D01*
X317441000Y-235501000D02*
X317060000Y-235882000D01*
X426153000Y-236834500D02*
X426153000Y-234358000D01*
X317060000Y-236517000D02*
X315345500Y-238231500D01*
X317060000Y-235882000D02*
X317060000Y-236517000D01*
X431233000Y-224579000D02*
X430804125Y-224150125D01*
X301629500Y-238231500D02*
X300159250Y-236761250D01*
X407484000Y-236517000D02*
X407484000Y-235882000D01*
X315345500Y-238231500D02*
X301629500Y-238231500D01*
X360049500Y-238231500D02*
X389767500Y-238231500D01*
X203141000Y-235501000D02*
X204919000Y-235501000D01*
X405769500Y-238231500D02*
X407484000Y-236517000D01*
X432630000Y-226992000D02*
X431233000Y-225595000D01*
X169984250Y-236761250D02*
X171454500Y-238231500D01*
X300159250Y-236761250D02*
X299280000Y-236761250D01*
X184980000Y-236761250D02*
X185859250Y-236761250D01*
X240860000Y-236517000D02*
X240860000Y-235882000D01*
X223959250Y-236761250D02*
X225429500Y-238231500D01*
X277245500Y-238231500D02*
X278960000Y-236517000D01*
X321949500Y-238231500D02*
X319219000Y-235501000D01*
X245749500Y-238231500D02*
X258830500Y-238231500D01*
X410151000Y-236390000D02*
X411992500Y-238231500D01*
X407484000Y-235882000D02*
X407865000Y-235501000D01*
X428947000Y-231564000D02*
X430598000Y-231564000D01*
X337380000Y-236761250D02*
X336500750Y-236761250D01*
X338259250Y-236761250D02*
X339729500Y-238231500D01*
X184164250Y-236761250D02*
X182694000Y-238231500D01*
X335030500Y-238231500D02*
X321949500Y-238231500D01*
X278960000Y-235882000D02*
X279341000Y-235501000D01*
X409770000Y-235501000D02*
X410151000Y-235882000D01*
X240860000Y-235882000D02*
X241241000Y-235501000D01*
X207649500Y-238231500D02*
X220730500Y-238231500D01*
X187329500Y-238231500D02*
X201045500Y-238231500D01*
X262059250Y-236761250D02*
X263529500Y-238231500D01*
X223080000Y-236761250D02*
X223959250Y-236761250D01*
X411992500Y-238231500D02*
X424756000Y-238231500D01*
X279341000Y-235501000D02*
X281119000Y-235501000D01*
X355160000Y-235882000D02*
X355541000Y-235501000D01*
X336500750Y-236761250D02*
X335030500Y-238231500D01*
X204919000Y-235501000D02*
X207649500Y-238231500D01*
X169105000Y-236761250D02*
X169984250Y-236761250D01*
X239145500Y-238231500D02*
X240860000Y-236517000D01*
X246203750Y-255811250D02*
X247686250Y-255811250D01*
X431328125Y-223150125D02*
X430172125Y-223150125D01*
X342650500Y-257789500D02*
X341825000Y-256964000D01*
X432630000Y-257218000D02*
X432630000Y-255811250D01*
X381839750Y-255811250D02*
X380814000Y-256837000D01*
X173073750Y-255811250D02*
X176248750Y-255811250D01*
X250448500Y-257789500D02*
X332363500Y-257789500D01*
X179074500Y-257789500D02*
X244225500Y-257789500D01*
X385132000Y-256964000D02*
X383979250Y-255811250D01*
X337634000Y-256964000D02*
X336481250Y-255811250D01*
X413453000Y-257789500D02*
X390212000Y-257789500D01*
X433646000Y-226484000D02*
X432249000Y-225087000D01*
X334341750Y-255811250D02*
X334998750Y-255811250D01*
X415431250Y-255811250D02*
X413453000Y-257789500D01*
X379861500Y-257789500D02*
X342650500Y-257789500D01*
X248470250Y-255811250D02*
X250448500Y-257789500D01*
X429772500Y-257789500D02*
X419358500Y-257789500D01*
X380814000Y-256837000D02*
X379861500Y-257789500D01*
X389386500Y-256964000D02*
X385132000Y-256964000D01*
X432630000Y-255811250D02*
X431750750Y-255811250D01*
X431233000Y-256329000D02*
X429772500Y-257789500D01*
X417380250Y-255811250D02*
X418025000Y-256456000D01*
X244225500Y-257789500D02*
X246203750Y-255811250D01*
X247686250Y-255811250D02*
X248470250Y-255811250D01*
X433646000Y-237799200D02*
X433646000Y-226484000D01*
X177096250Y-255811250D02*
X179074500Y-257789500D01*
X336481250Y-255811250D02*
X334998750Y-255811250D01*
X416755000Y-255811250D02*
X415431250Y-255811250D01*
X382623750Y-255811250D02*
X381839750Y-255811250D01*
X383979250Y-255811250D02*
X382623750Y-255811250D01*
X341825000Y-256964000D02*
X337634000Y-256964000D01*
X432249000Y-225087000D02*
X432249000Y-224071000D01*
X332363500Y-257789500D02*
X334341750Y-255811250D01*
X432249000Y-224071000D02*
X431328125Y-223150125D01*
X176248750Y-255811250D02*
X177096250Y-255811250D01*
X419358500Y-257789500D02*
X418025000Y-256456000D01*
X416755000Y-255811250D02*
X417380250Y-255811250D01*
X390212000Y-257789500D02*
X389386500Y-256964000D01*
X431750750Y-255811250D02*
X431233000Y-256329000D01*
X433310000Y-238135200D02*
X433646000Y-237799200D01*
X413135500Y-257281500D02*
X390529500Y-257281500D01*
X339021250Y-256456000D02*
X339666000Y-255811250D01*
X418025000Y-255694000D02*
X418025000Y-254932000D01*
X415866000Y-254551000D02*
X413135500Y-257281500D01*
X335983000Y-254551000D02*
X337888000Y-256456000D01*
X434154000Y-226230000D02*
X432757000Y-224833000D01*
X434550000Y-238135200D02*
X434154000Y-237739200D01*
X431360000Y-255186000D02*
X431360000Y-255440000D01*
X433519000Y-254551000D02*
X434779250Y-255811250D01*
X332109500Y-257281500D02*
X333697000Y-255694000D01*
X341434250Y-255811250D02*
X342904500Y-257281500D01*
X243971500Y-257281500D02*
X246702000Y-254551000D01*
X381322000Y-254932000D02*
X381703000Y-254551000D01*
X379607500Y-257281500D02*
X381322000Y-255567000D01*
X390529500Y-257281500D02*
X389059250Y-255811250D01*
X431360000Y-255186000D02*
X431360000Y-254932000D01*
X340555000Y-255811250D02*
X341434250Y-255811250D01*
X431360000Y-254932000D02*
X431741000Y-254551000D01*
X383481000Y-254551000D02*
X385386000Y-256456000D01*
X339666000Y-255811250D02*
X340555000Y-255811250D01*
X177614000Y-255059000D02*
X177614000Y-255567000D01*
X429518500Y-257281500D02*
X419612500Y-257281500D01*
X333697000Y-254932000D02*
X334078000Y-254551000D01*
X333697000Y-255694000D02*
X333697000Y-254932000D01*
X385386000Y-256456000D02*
X386529000Y-256456000D01*
X177614000Y-255567000D02*
X179328500Y-257281500D01*
X431360000Y-255440000D02*
X429518500Y-257281500D01*
X389059250Y-255811250D02*
X388180000Y-255811250D01*
X387173750Y-255811250D02*
X387037000Y-255948000D01*
X417644000Y-254551000D02*
X415866000Y-254551000D01*
X179328500Y-257281500D02*
X243971500Y-257281500D01*
X342904500Y-257281500D02*
X379607500Y-257281500D01*
X418025000Y-254932000D02*
X417644000Y-254551000D01*
X337888000Y-256456000D02*
X339021250Y-256456000D01*
X334078000Y-254551000D02*
X335983000Y-254551000D01*
X431741000Y-254551000D02*
X433519000Y-254551000D01*
X250702500Y-257281500D02*
X332109500Y-257281500D01*
X177106000Y-254551000D02*
X177614000Y-255059000D01*
X381703000Y-254551000D02*
X383481000Y-254551000D01*
X170765750Y-255811250D02*
X172026000Y-254551000D01*
X434779250Y-255811250D02*
X435805000Y-255811250D01*
X248988000Y-254932000D02*
X248988000Y-255567000D01*
X432757000Y-223817000D02*
X431590125Y-222650125D01*
X169898750Y-255811250D02*
X170765750Y-255811250D01*
X388180000Y-255811250D02*
X387173750Y-255811250D01*
X419612500Y-257281500D02*
X418025000Y-255694000D01*
X435810000Y-257220000D02*
X435805000Y-257215000D01*
X431590125Y-222650125D02*
X430172125Y-222650125D01*
X381322000Y-255567000D02*
X381322000Y-254932000D01*
X386529000Y-256456000D02*
X387037000Y-255948000D01*
X248607000Y-254551000D02*
X248988000Y-254932000D01*
X435805000Y-257215000D02*
X435805000Y-255811250D01*
X432757000Y-224833000D02*
X432757000Y-223817000D01*
X172026000Y-254551000D02*
X177106000Y-254551000D01*
X248988000Y-255567000D02*
X250702500Y-257281500D01*
X246702000Y-254551000D02*
X248607000Y-254551000D01*
X434154000Y-237739200D02*
X434154000Y-226230000D01*
G04 #@! TA.AperFunction,Conductor*
G36*
X443684621Y-216725002D02*
G01*
X443731114Y-216778658D01*
X443742500Y-216831000D01*
X443742500Y-226897750D01*
X443722498Y-226965871D01*
X443668842Y-227012364D01*
X443616500Y-227023750D01*
X434788500Y-227023750D01*
X434720379Y-227003748D01*
X434673886Y-226950092D01*
X434662500Y-226897750D01*
X434662500Y-226301073D01*
X434663855Y-226288944D01*
X434663373Y-226288905D01*
X434664093Y-226279954D01*
X434666074Y-226271200D01*
X434662742Y-226217491D01*
X434662500Y-226209689D01*
X434662500Y-226193487D01*
X434661016Y-226183122D01*
X434659987Y-226173072D01*
X434657611Y-226134781D01*
X434657611Y-226134780D01*
X434657055Y-226125822D01*
X434654007Y-226117381D01*
X434653404Y-226114467D01*
X434649185Y-226097548D01*
X434648353Y-226094702D01*
X434647080Y-226085813D01*
X434627474Y-226042691D01*
X434623666Y-226033335D01*
X434610643Y-225997263D01*
X434607595Y-225988819D01*
X434602300Y-225981571D01*
X434600914Y-225978964D01*
X434592099Y-225963877D01*
X434590506Y-225961386D01*
X434586792Y-225953218D01*
X434555882Y-225917345D01*
X434549604Y-225909438D01*
X434544447Y-225902378D01*
X434544446Y-225902376D01*
X434541575Y-225898447D01*
X434530600Y-225887472D01*
X434524242Y-225880624D01*
X434497576Y-225849676D01*
X434497571Y-225849672D01*
X434491713Y-225842873D01*
X434484181Y-225837991D01*
X434477930Y-225832538D01*
X434466074Y-225822946D01*
X433302405Y-224659278D01*
X433268380Y-224596966D01*
X433265500Y-224570183D01*
X433265500Y-224438250D01*
X433285502Y-224370129D01*
X433339158Y-224323636D01*
X433409432Y-224313532D01*
X433448308Y-224329112D01*
X433449399Y-224326880D01*
X433563503Y-224382655D01*
X433596284Y-224387437D01*
X433633316Y-224392840D01*
X433633320Y-224392840D01*
X433637842Y-224393500D01*
X434213183Y-224393500D01*
X434281304Y-224413502D01*
X434302278Y-224430405D01*
X434760177Y-224888304D01*
X434767800Y-224897844D01*
X434768168Y-224897530D01*
X434773986Y-224904366D01*
X434778776Y-224911958D01*
X434785504Y-224917900D01*
X434819125Y-224947593D01*
X434824812Y-224952939D01*
X434836255Y-224964382D01*
X434843020Y-224969452D01*
X434844630Y-224970659D01*
X434852459Y-224977033D01*
X434887951Y-225008378D01*
X434896074Y-225012192D01*
X434898562Y-225013826D01*
X434913523Y-225022814D01*
X434916109Y-225024230D01*
X434923295Y-225029616D01*
X434967650Y-225046244D01*
X434976948Y-225050162D01*
X435019800Y-225070281D01*
X435028666Y-225071662D01*
X435031467Y-225072518D01*
X435048404Y-225076962D01*
X435051284Y-225077595D01*
X435059684Y-225080744D01*
X435068629Y-225081409D01*
X435068630Y-225081409D01*
X435106889Y-225084252D01*
X435116937Y-225085406D01*
X435120856Y-225086016D01*
X435130386Y-225087500D01*
X435145923Y-225087500D01*
X435155261Y-225087847D01*
X435195990Y-225090874D01*
X435195991Y-225090874D01*
X435204941Y-225091539D01*
X435213716Y-225089666D01*
X435221973Y-225089103D01*
X435237162Y-225087500D01*
X437511928Y-225087500D01*
X437524058Y-225088855D01*
X437524097Y-225088373D01*
X437533044Y-225089093D01*
X437541800Y-225091074D01*
X437595508Y-225087742D01*
X437603310Y-225087500D01*
X437619513Y-225087500D01*
X437628429Y-225086223D01*
X437629878Y-225086016D01*
X437639928Y-225084987D01*
X437678216Y-225082611D01*
X437687177Y-225082055D01*
X437695623Y-225079006D01*
X437698514Y-225078407D01*
X437715480Y-225074178D01*
X437718305Y-225073352D01*
X437727187Y-225072080D01*
X437770298Y-225052478D01*
X437779649Y-225048672D01*
X437781475Y-225048013D01*
X437824181Y-225032596D01*
X437831429Y-225027301D01*
X437834027Y-225025920D01*
X437849145Y-225017085D01*
X437851614Y-225015506D01*
X437859782Y-225011792D01*
X437895653Y-224980884D01*
X437903569Y-224974599D01*
X437910615Y-224969452D01*
X437910620Y-224969447D01*
X437914552Y-224966575D01*
X437925527Y-224955600D01*
X437932375Y-224949242D01*
X437963323Y-224922576D01*
X437963324Y-224922575D01*
X437970127Y-224916713D01*
X437975011Y-224909178D01*
X437980458Y-224902934D01*
X437990058Y-224891069D01*
X439032723Y-223848405D01*
X439095035Y-223814379D01*
X439121818Y-223811500D01*
X439428158Y-223811500D01*
X439432706Y-223810830D01*
X439432713Y-223810830D01*
X439493459Y-223801888D01*
X439493461Y-223801887D01*
X439503144Y-223800462D01*
X439533162Y-223785724D01*
X439580067Y-223762695D01*
X439650031Y-223750627D01*
X439715412Y-223778301D01*
X439724691Y-223786700D01*
X439736279Y-223798287D01*
X439838351Y-223874786D01*
X439853946Y-223883324D01*
X439974394Y-223928478D01*
X439989649Y-223932105D01*
X440040514Y-223937631D01*
X440047328Y-223938000D01*
X440319885Y-223938000D01*
X440335124Y-223933525D01*
X440336329Y-223932135D01*
X440338000Y-223924452D01*
X440338000Y-223919884D01*
X440846000Y-223919884D01*
X440850475Y-223935123D01*
X440851865Y-223936328D01*
X440859548Y-223937999D01*
X441136669Y-223937999D01*
X441143490Y-223937629D01*
X441194352Y-223932105D01*
X441209604Y-223928479D01*
X441330054Y-223883324D01*
X441345649Y-223874786D01*
X441447724Y-223798285D01*
X441460285Y-223785724D01*
X441536786Y-223683649D01*
X441545324Y-223668054D01*
X441590478Y-223547606D01*
X441594105Y-223532351D01*
X441599631Y-223481486D01*
X441600000Y-223474672D01*
X441600000Y-223327115D01*
X441595525Y-223311876D01*
X441594135Y-223310671D01*
X441586452Y-223309000D01*
X440864115Y-223309000D01*
X440848876Y-223313475D01*
X440847671Y-223314865D01*
X440846000Y-223322548D01*
X440846000Y-223919884D01*
X440338000Y-223919884D01*
X440338000Y-222782885D01*
X440846000Y-222782885D01*
X440850475Y-222798124D01*
X440851865Y-222799329D01*
X440859548Y-222801000D01*
X441581884Y-222801000D01*
X441597123Y-222796525D01*
X441598328Y-222795135D01*
X441599999Y-222787452D01*
X441599999Y-222635331D01*
X441599629Y-222628510D01*
X441594105Y-222577648D01*
X441590479Y-222562396D01*
X441545324Y-222441946D01*
X441536786Y-222426351D01*
X441460285Y-222324276D01*
X441447724Y-222311715D01*
X441345649Y-222235214D01*
X441330054Y-222226676D01*
X441209606Y-222181522D01*
X441194351Y-222177895D01*
X441143486Y-222172369D01*
X441136672Y-222172000D01*
X440864115Y-222172000D01*
X440848876Y-222176475D01*
X440847671Y-222177865D01*
X440846000Y-222185548D01*
X440846000Y-222782885D01*
X440338000Y-222782885D01*
X440338000Y-222190116D01*
X440333525Y-222174877D01*
X440332135Y-222173672D01*
X440324452Y-222172001D01*
X440047331Y-222172001D01*
X440040510Y-222172371D01*
X439989648Y-222177895D01*
X439974396Y-222181521D01*
X439853946Y-222226676D01*
X439838351Y-222235214D01*
X439736276Y-222311715D01*
X439724723Y-222323268D01*
X439662411Y-222357294D01*
X439591596Y-222352229D01*
X439580295Y-222347373D01*
X439547387Y-222331288D01*
X439502497Y-222309345D01*
X439469716Y-222304563D01*
X439432684Y-222299160D01*
X439432680Y-222299160D01*
X439428158Y-222298500D01*
X438355842Y-222298500D01*
X438351294Y-222299170D01*
X438351287Y-222299170D01*
X438290541Y-222308112D01*
X438290539Y-222308113D01*
X438280856Y-222309538D01*
X438272068Y-222313853D01*
X438272067Y-222313853D01*
X438176197Y-222360923D01*
X438176196Y-222360924D01*
X438166849Y-222365513D01*
X438159492Y-222372883D01*
X438090550Y-222441946D01*
X438077120Y-222455399D01*
X438021345Y-222569503D01*
X438019933Y-222579183D01*
X438011742Y-222635331D01*
X438010500Y-222643842D01*
X438010500Y-223380183D01*
X437990498Y-223448304D01*
X437973595Y-223469278D01*
X437897095Y-223545778D01*
X437834783Y-223579804D01*
X437763968Y-223574739D01*
X437707132Y-223532192D01*
X437682321Y-223465672D01*
X437682000Y-223456683D01*
X437682000Y-223434115D01*
X437677525Y-223418876D01*
X437676135Y-223417671D01*
X437668452Y-223416000D01*
X436296000Y-223416000D01*
X436227879Y-223395998D01*
X436181386Y-223342342D01*
X436170000Y-223290000D01*
X436170000Y-223034000D01*
X436190002Y-222965879D01*
X436243658Y-222919386D01*
X436296000Y-222908000D01*
X437663884Y-222908000D01*
X437679123Y-222903525D01*
X437680328Y-222902135D01*
X437681999Y-222894452D01*
X437681999Y-222267331D01*
X437681629Y-222260510D01*
X437676105Y-222209648D01*
X437672479Y-222194396D01*
X437627324Y-222073946D01*
X437618786Y-222058351D01*
X437542285Y-221956276D01*
X437529722Y-221943713D01*
X437503948Y-221924396D01*
X437461433Y-221867536D01*
X437456409Y-221796718D01*
X437476935Y-221750403D01*
X437481523Y-221743971D01*
X437488880Y-221736601D01*
X437544655Y-221622497D01*
X437554098Y-221557769D01*
X437554840Y-221552684D01*
X437554840Y-221552680D01*
X437555500Y-221548158D01*
X437555500Y-221403500D01*
X437575502Y-221335379D01*
X437629158Y-221288886D01*
X437681500Y-221277500D01*
X437954010Y-221277500D01*
X438022131Y-221297502D01*
X438067112Y-221347967D01*
X438077513Y-221369151D01*
X438167399Y-221458880D01*
X438281503Y-221514655D01*
X438314284Y-221519437D01*
X438351316Y-221524840D01*
X438351320Y-221524840D01*
X438355842Y-221525500D01*
X439428158Y-221525500D01*
X439432706Y-221524830D01*
X439432713Y-221524830D01*
X439493459Y-221515888D01*
X439493461Y-221515887D01*
X439503144Y-221514462D01*
X439533162Y-221499724D01*
X439580067Y-221476695D01*
X439650031Y-221464627D01*
X439715412Y-221492301D01*
X439724691Y-221500700D01*
X439736279Y-221512287D01*
X439838351Y-221588786D01*
X439853946Y-221597324D01*
X439974394Y-221642478D01*
X439989649Y-221646105D01*
X440040514Y-221651631D01*
X440047328Y-221652000D01*
X440319885Y-221652000D01*
X440335124Y-221647525D01*
X440336329Y-221646135D01*
X440338000Y-221638452D01*
X440338000Y-221633884D01*
X440846000Y-221633884D01*
X440850475Y-221649123D01*
X440851865Y-221650328D01*
X440859548Y-221651999D01*
X441136669Y-221651999D01*
X441143490Y-221651629D01*
X441194352Y-221646105D01*
X441209604Y-221642479D01*
X441330054Y-221597324D01*
X441345649Y-221588786D01*
X441447724Y-221512285D01*
X441460285Y-221499724D01*
X441536786Y-221397649D01*
X441545324Y-221382054D01*
X441590478Y-221261606D01*
X441594105Y-221246351D01*
X441599631Y-221195486D01*
X441600000Y-221188672D01*
X441600000Y-221041115D01*
X441595525Y-221025876D01*
X441594135Y-221024671D01*
X441586452Y-221023000D01*
X440864115Y-221023000D01*
X440848876Y-221027475D01*
X440847671Y-221028865D01*
X440846000Y-221036548D01*
X440846000Y-221633884D01*
X440338000Y-221633884D01*
X440338000Y-220496885D01*
X440846000Y-220496885D01*
X440850475Y-220512124D01*
X440851865Y-220513329D01*
X440859548Y-220515000D01*
X441581884Y-220515000D01*
X441597123Y-220510525D01*
X441598328Y-220509135D01*
X441599999Y-220501452D01*
X441599999Y-220349331D01*
X441599629Y-220342510D01*
X441594105Y-220291648D01*
X441590479Y-220276396D01*
X441545324Y-220155946D01*
X441536786Y-220140351D01*
X441460285Y-220038276D01*
X441447724Y-220025715D01*
X441345649Y-219949214D01*
X441330054Y-219940676D01*
X441209606Y-219895522D01*
X441194351Y-219891895D01*
X441143486Y-219886369D01*
X441136672Y-219886000D01*
X440864115Y-219886000D01*
X440848876Y-219890475D01*
X440847671Y-219891865D01*
X440846000Y-219899548D01*
X440846000Y-220496885D01*
X440338000Y-220496885D01*
X440338000Y-219904116D01*
X440333525Y-219888877D01*
X440332135Y-219887672D01*
X440324452Y-219886001D01*
X440047331Y-219886001D01*
X440040510Y-219886371D01*
X439989648Y-219891895D01*
X439974396Y-219895521D01*
X439853946Y-219940676D01*
X439838351Y-219949214D01*
X439736276Y-220025715D01*
X439724723Y-220037268D01*
X439662411Y-220071294D01*
X439591596Y-220066229D01*
X439580295Y-220061373D01*
X439547387Y-220045288D01*
X439502497Y-220023345D01*
X439469716Y-220018563D01*
X439432684Y-220013160D01*
X439432680Y-220013160D01*
X439428158Y-220012500D01*
X438355842Y-220012500D01*
X438351294Y-220013170D01*
X438351287Y-220013170D01*
X438290541Y-220022112D01*
X438290539Y-220022113D01*
X438280856Y-220023538D01*
X438272068Y-220027853D01*
X438272067Y-220027853D01*
X438176197Y-220074923D01*
X438176196Y-220074924D01*
X438166849Y-220079513D01*
X438159492Y-220086883D01*
X438090550Y-220155946D01*
X438077120Y-220169399D01*
X438067131Y-220189834D01*
X438019248Y-220242249D01*
X437953932Y-220260500D01*
X437681500Y-220260500D01*
X437613379Y-220240498D01*
X437566886Y-220186842D01*
X437555500Y-220134500D01*
X437555500Y-219775842D01*
X437552212Y-219753500D01*
X437545888Y-219710541D01*
X437545887Y-219710539D01*
X437544462Y-219700856D01*
X437494293Y-219598674D01*
X437493077Y-219596197D01*
X437493076Y-219596196D01*
X437488487Y-219586849D01*
X437398601Y-219497120D01*
X437284497Y-219441345D01*
X437251716Y-219436563D01*
X437214684Y-219431160D01*
X437214680Y-219431160D01*
X437210158Y-219430500D01*
X436507819Y-219430500D01*
X436439698Y-219410498D01*
X436418724Y-219393596D01*
X435960821Y-218935694D01*
X435953200Y-218926156D01*
X435952832Y-218926470D01*
X435947014Y-218919634D01*
X435942224Y-218912042D01*
X435901875Y-218876407D01*
X435896188Y-218871061D01*
X435884745Y-218859618D01*
X435876370Y-218853341D01*
X435868541Y-218846967D01*
X435833049Y-218815622D01*
X435824926Y-218811808D01*
X435822438Y-218810174D01*
X435807477Y-218801186D01*
X435804892Y-218799771D01*
X435797705Y-218794384D01*
X435753357Y-218777759D01*
X435744040Y-218773832D01*
X435709326Y-218757534D01*
X435701200Y-218753719D01*
X435692331Y-218752338D01*
X435689498Y-218751472D01*
X435672611Y-218747042D01*
X435669726Y-218746408D01*
X435661316Y-218743255D01*
X435632158Y-218741088D01*
X435614094Y-218739746D01*
X435604048Y-218738592D01*
X435595425Y-218737249D01*
X435595422Y-218737249D01*
X435590614Y-218736500D01*
X435575094Y-218736500D01*
X435565757Y-218736154D01*
X435548854Y-218734898D01*
X435516059Y-218732461D01*
X435507280Y-218734335D01*
X435499022Y-218734898D01*
X435483839Y-218736500D01*
X433399572Y-218736500D01*
X433387442Y-218735145D01*
X433387403Y-218735627D01*
X433378456Y-218734907D01*
X433369700Y-218732926D01*
X433326163Y-218735627D01*
X433315992Y-218736258D01*
X433308190Y-218736500D01*
X433291987Y-218736500D01*
X433283071Y-218737777D01*
X433281622Y-218737984D01*
X433271572Y-218739013D01*
X433233715Y-218741362D01*
X433224323Y-218741945D01*
X433215877Y-218744994D01*
X433212986Y-218745593D01*
X433196020Y-218749822D01*
X433193195Y-218750648D01*
X433184313Y-218751920D01*
X433141202Y-218771522D01*
X433131853Y-218775327D01*
X433087319Y-218791404D01*
X433080071Y-218796699D01*
X433077473Y-218798080D01*
X433062355Y-218806915D01*
X433059886Y-218808494D01*
X433051718Y-218812208D01*
X433044922Y-218818064D01*
X433015848Y-218843115D01*
X433007931Y-218849401D01*
X433000885Y-218854548D01*
X433000880Y-218854553D01*
X432996948Y-218857425D01*
X432985973Y-218868400D01*
X432979126Y-218874758D01*
X432941373Y-218907287D01*
X432936489Y-218914822D01*
X432931042Y-218921066D01*
X432921442Y-218932931D01*
X432701696Y-219152677D01*
X432692156Y-219160300D01*
X432692470Y-219160668D01*
X432685634Y-219166486D01*
X432678042Y-219171276D01*
X432672100Y-219178004D01*
X432642407Y-219211625D01*
X432637061Y-219217312D01*
X432625618Y-219228755D01*
X432619978Y-219236280D01*
X432619341Y-219237130D01*
X432612967Y-219244959D01*
X432581622Y-219280451D01*
X432577808Y-219288574D01*
X432576174Y-219291062D01*
X432567186Y-219306023D01*
X432565771Y-219308608D01*
X432560384Y-219315795D01*
X432557233Y-219324201D01*
X432543759Y-219360142D01*
X432539833Y-219369458D01*
X432519719Y-219412300D01*
X432518338Y-219421169D01*
X432517472Y-219424002D01*
X432513042Y-219440889D01*
X432512408Y-219443774D01*
X432509255Y-219452184D01*
X432508590Y-219461139D01*
X432505746Y-219499406D01*
X432504592Y-219509452D01*
X432502500Y-219522886D01*
X432502500Y-219538406D01*
X432502154Y-219547743D01*
X432501154Y-219561201D01*
X432492688Y-219583708D01*
X432496396Y-219589478D01*
X432498724Y-219598674D01*
X432499724Y-219603359D01*
X432502500Y-219629661D01*
X432502500Y-220071524D01*
X432492624Y-220105160D01*
X432499694Y-220118194D01*
X432502500Y-220144636D01*
X432502500Y-220379181D01*
X432482498Y-220447302D01*
X432465596Y-220468276D01*
X432370367Y-220563505D01*
X432308057Y-220597529D01*
X432237241Y-220592465D01*
X432180405Y-220549919D01*
X432155594Y-220483398D01*
X432170201Y-220416250D01*
X432170378Y-220416049D01*
X432173645Y-220409091D01*
X432173699Y-220408977D01*
X432184814Y-220390477D01*
X432186229Y-220387892D01*
X432191616Y-220380705D01*
X432208241Y-220336357D01*
X432212168Y-220327040D01*
X432228466Y-220292326D01*
X432232281Y-220284200D01*
X432233662Y-220275331D01*
X432234528Y-220272498D01*
X432238958Y-220255611D01*
X432239592Y-220252726D01*
X432242745Y-220244316D01*
X432246254Y-220197094D01*
X432247408Y-220187048D01*
X432248751Y-220178425D01*
X432248751Y-220178422D01*
X432249500Y-220173614D01*
X432249500Y-220158094D01*
X432249846Y-220148757D01*
X432250846Y-220135299D01*
X432259312Y-220112792D01*
X432255604Y-220107022D01*
X432253276Y-220097826D01*
X432252276Y-220093141D01*
X432249500Y-220066839D01*
X432249500Y-219624976D01*
X432259376Y-219591340D01*
X432252306Y-219578306D01*
X432249500Y-219551864D01*
X432249500Y-218620620D01*
X432269502Y-218552499D01*
X432286405Y-218531525D01*
X432684525Y-218133405D01*
X432746837Y-218099379D01*
X432773620Y-218096500D01*
X433205158Y-218096500D01*
X433209706Y-218095830D01*
X433209713Y-218095830D01*
X433270459Y-218086888D01*
X433270461Y-218086887D01*
X433280144Y-218085462D01*
X433310162Y-218070724D01*
X433357067Y-218047695D01*
X433427031Y-218035627D01*
X433492412Y-218063301D01*
X433501691Y-218071700D01*
X433513279Y-218083287D01*
X433615351Y-218159786D01*
X433630946Y-218168324D01*
X433751394Y-218213478D01*
X433766649Y-218217105D01*
X433817514Y-218222631D01*
X433824328Y-218223000D01*
X434096885Y-218223000D01*
X434112124Y-218218525D01*
X434113329Y-218217135D01*
X434115000Y-218209452D01*
X434115000Y-218204884D01*
X434623000Y-218204884D01*
X434627475Y-218220123D01*
X434628865Y-218221328D01*
X434636548Y-218222999D01*
X434913669Y-218222999D01*
X434920490Y-218222629D01*
X434971352Y-218217105D01*
X434986604Y-218213479D01*
X435107054Y-218168324D01*
X435122649Y-218159786D01*
X435224724Y-218083285D01*
X435237285Y-218070724D01*
X435313786Y-217968649D01*
X435322324Y-217953054D01*
X435367478Y-217832606D01*
X435371105Y-217817351D01*
X435376631Y-217766486D01*
X435377000Y-217759672D01*
X435377000Y-217612115D01*
X435372525Y-217596876D01*
X435371135Y-217595671D01*
X435363452Y-217594000D01*
X434641115Y-217594000D01*
X434625876Y-217598475D01*
X434624671Y-217599865D01*
X434623000Y-217607548D01*
X434623000Y-218204884D01*
X434115000Y-218204884D01*
X434115000Y-217212000D01*
X434135002Y-217143879D01*
X434188658Y-217097386D01*
X434241000Y-217086000D01*
X435358884Y-217086000D01*
X435374123Y-217081525D01*
X435375328Y-217080135D01*
X435376999Y-217072452D01*
X435376999Y-216920331D01*
X435376629Y-216913510D01*
X435371106Y-216862651D01*
X435370509Y-216860142D01*
X435370614Y-216858128D01*
X435370252Y-216854793D01*
X435370792Y-216854734D01*
X435374214Y-216789242D01*
X435415662Y-216731600D01*
X435481693Y-216705517D01*
X435493093Y-216705000D01*
X443616500Y-216705000D01*
X443684621Y-216725002D01*
G37*
G04 #@! TD.AperFunction*
G04 #@! TA.AperFunction,Conductor*
G36*
X416801371Y-150253127D02*
G01*
X416847864Y-150306783D01*
X416859250Y-150359125D01*
X416859250Y-150615125D01*
X416839248Y-150683246D01*
X416785592Y-150729739D01*
X416733250Y-150741125D01*
X416018350Y-150741125D01*
X415950229Y-150721123D01*
X415903736Y-150667467D01*
X415892350Y-150615125D01*
X415892350Y-150359125D01*
X415912352Y-150291004D01*
X415966008Y-150244511D01*
X416018350Y-150233125D01*
X416733250Y-150233125D01*
X416801371Y-150253127D01*
G37*
G04 #@! TD.AperFunction*
G04 #@! TA.AperFunction,Conductor*
G36*
X409622271Y-150253127D02*
G01*
X409668764Y-150306783D01*
X409680150Y-150359125D01*
X409680150Y-150615125D01*
X409660148Y-150683246D01*
X409606492Y-150729739D01*
X409554150Y-150741125D01*
X408839250Y-150741125D01*
X408771129Y-150721123D01*
X408724636Y-150667467D01*
X408713250Y-150615125D01*
X408713250Y-150359125D01*
X408733252Y-150291004D01*
X408786908Y-150244511D01*
X408839250Y-150233125D01*
X409554150Y-150233125D01*
X409622271Y-150253127D01*
G37*
G04 #@! TD.AperFunction*
G04 #@! TA.AperFunction,Conductor*
G36*
X416048558Y-144849352D02*
G01*
X416095051Y-144903008D01*
X416105652Y-144969395D01*
X416098643Y-145031886D01*
X416098250Y-145038910D01*
X416098250Y-145120010D01*
X416102725Y-145135249D01*
X416104115Y-145136454D01*
X416111798Y-145138125D01*
X417234250Y-145138125D01*
X417302371Y-145158127D01*
X417348864Y-145211783D01*
X417360250Y-145264125D01*
X417360250Y-146650049D01*
X417364223Y-146663580D01*
X417372020Y-146664701D01*
X417387177Y-146660240D01*
X417458173Y-146660196D01*
X417517923Y-146698543D01*
X417547456Y-146763105D01*
X417548750Y-146781114D01*
X417548750Y-147932965D01*
X417528748Y-148001086D01*
X417475092Y-148047579D01*
X417404818Y-148057683D01*
X417385493Y-148053331D01*
X417377557Y-148050875D01*
X417363455Y-148050669D01*
X417360250Y-148057424D01*
X417360250Y-149700125D01*
X417340248Y-149768246D01*
X417286592Y-149814739D01*
X417234250Y-149826125D01*
X416184250Y-149826125D01*
X416116129Y-149806123D01*
X416069636Y-149752467D01*
X416058250Y-149700125D01*
X416058250Y-149672366D01*
X416078252Y-149604245D01*
X416112882Y-149568527D01*
X416129977Y-149556778D01*
X416239642Y-149433693D01*
X416243194Y-149426984D01*
X416243197Y-149426980D01*
X416265337Y-149385165D01*
X416314890Y-149334322D01*
X416376691Y-149318125D01*
X416834135Y-149318125D01*
X416849374Y-149313650D01*
X416850579Y-149312260D01*
X416852250Y-149304577D01*
X416852250Y-148064201D01*
X416848277Y-148050670D01*
X416840482Y-148049550D01*
X416732729Y-148081263D01*
X416721361Y-148085856D01*
X416557096Y-148171732D01*
X416546835Y-148178446D01*
X416402377Y-148294593D01*
X416393618Y-148303171D01*
X416274472Y-148445164D01*
X416264064Y-148460365D01*
X416262901Y-148459568D01*
X416217593Y-148504608D01*
X416148175Y-148519495D01*
X416085084Y-148496930D01*
X416006685Y-148441830D01*
X416006683Y-148441829D01*
X416000468Y-148437461D01*
X415923672Y-148407519D01*
X415853957Y-148380338D01*
X415853954Y-148380337D01*
X415846877Y-148377578D01*
X415839344Y-148376586D01*
X415839343Y-148376586D01*
X415725228Y-148361563D01*
X415725227Y-148361563D01*
X415721141Y-148361025D01*
X415634916Y-148361025D01*
X415512592Y-148375828D01*
X415358382Y-148434099D01*
X415352124Y-148438400D01*
X415234130Y-148519495D01*
X415222523Y-148527472D01*
X415112858Y-148650557D01*
X415035719Y-148796248D01*
X414995558Y-148956134D01*
X414994695Y-149120984D01*
X414996467Y-149128364D01*
X414996467Y-149128366D01*
X415004018Y-149159819D01*
X415025253Y-149248264D01*
X415025816Y-149250611D01*
X415022269Y-149321519D01*
X414980949Y-149379253D01*
X414914976Y-149405483D01*
X414911691Y-149405635D01*
X414911695Y-149405689D01*
X414907102Y-149406025D01*
X414902498Y-149406025D01*
X414897950Y-149406694D01*
X414897943Y-149406695D01*
X414832506Y-149416328D01*
X414832006Y-149412928D01*
X414789855Y-149412959D01*
X414789390Y-149416148D01*
X414724527Y-149406685D01*
X414724525Y-149406685D01*
X414720002Y-149406025D01*
X414352498Y-149406025D01*
X414327936Y-149409640D01*
X414304813Y-149413044D01*
X414268276Y-149413067D01*
X414240030Y-149408947D01*
X414220002Y-149406025D01*
X414115268Y-149406025D01*
X414047147Y-149386023D01*
X414000566Y-149332174D01*
X414000327Y-149331647D01*
X413986188Y-149300549D01*
X413982378Y-149291190D01*
X413970235Y-149257556D01*
X413967188Y-149249115D01*
X413961893Y-149241866D01*
X413959280Y-149236953D01*
X413954141Y-149228159D01*
X413951141Y-149223468D01*
X413947424Y-149215293D01*
X413918238Y-149181421D01*
X413911949Y-149173500D01*
X413907342Y-149167193D01*
X413907332Y-149167181D01*
X413904468Y-149163261D01*
X413894208Y-149153001D01*
X413887850Y-149146154D01*
X413862954Y-149117261D01*
X413862955Y-149117261D01*
X413857094Y-149110460D01*
X413849559Y-149105576D01*
X413842796Y-149099677D01*
X413842846Y-149099619D01*
X413832262Y-149091056D01*
X413715851Y-148974645D01*
X413708728Y-148965730D01*
X413708291Y-148966102D01*
X413702471Y-148959264D01*
X413697682Y-148951673D01*
X413659490Y-148917943D01*
X413653804Y-148912598D01*
X413643074Y-148901868D01*
X413639494Y-148899184D01*
X413639485Y-148899177D01*
X413635319Y-148896054D01*
X413627486Y-148889677D01*
X413600687Y-148866010D01*
X413593960Y-148860069D01*
X413585838Y-148856256D01*
X413581188Y-148853201D01*
X413572458Y-148847955D01*
X413567559Y-148845273D01*
X413560382Y-148839894D01*
X413551984Y-148836746D01*
X413551981Y-148836744D01*
X413518498Y-148824192D01*
X413509199Y-148820274D01*
X413468697Y-148801258D01*
X413459830Y-148799878D01*
X413454497Y-148798247D01*
X413444665Y-148795668D01*
X413439213Y-148794469D01*
X413430805Y-148791317D01*
X413420568Y-148790556D01*
X413386195Y-148788002D01*
X413376150Y-148786848D01*
X413372456Y-148786273D01*
X413363639Y-148784900D01*
X413349133Y-148784900D01*
X413339796Y-148784554D01*
X413325222Y-148783471D01*
X413292804Y-148781062D01*
X413284029Y-148782935D01*
X413275070Y-148783546D01*
X413275065Y-148783471D01*
X413261524Y-148784900D01*
X412886227Y-148784900D01*
X412874891Y-148783633D01*
X412874845Y-148784205D01*
X412865897Y-148783485D01*
X412857142Y-148781504D01*
X412807982Y-148784554D01*
X412806306Y-148784658D01*
X412798504Y-148784900D01*
X412783311Y-148784900D01*
X412773718Y-148786274D01*
X412763670Y-148787303D01*
X412735109Y-148789075D01*
X412719026Y-148790073D01*
X412710577Y-148793123D01*
X412705098Y-148794258D01*
X412695262Y-148796710D01*
X412689901Y-148798278D01*
X412681016Y-148799550D01*
X412640292Y-148818066D01*
X412630944Y-148821871D01*
X412588866Y-148837061D01*
X412581616Y-148842357D01*
X412576702Y-148844970D01*
X412567904Y-148850112D01*
X412563218Y-148853109D01*
X412555043Y-148856826D01*
X412544385Y-148866010D01*
X412521166Y-148886017D01*
X412513241Y-148892309D01*
X412506955Y-148896901D01*
X412506950Y-148896905D01*
X412503012Y-148899782D01*
X412492758Y-148910036D01*
X412485912Y-148916393D01*
X412450210Y-148947156D01*
X412445326Y-148954690D01*
X412439427Y-148961453D01*
X412439370Y-148961403D01*
X412430804Y-148971990D01*
X412242893Y-149159901D01*
X412233978Y-149167024D01*
X412234350Y-149167461D01*
X412227517Y-149173276D01*
X412219923Y-149178068D01*
X412187047Y-149215293D01*
X412186194Y-149216259D01*
X412180848Y-149221946D01*
X412170118Y-149232676D01*
X412167434Y-149236256D01*
X412167427Y-149236265D01*
X412164304Y-149240431D01*
X412157927Y-149248264D01*
X412149721Y-149257556D01*
X412128319Y-149281790D01*
X412124506Y-149289912D01*
X412121451Y-149294562D01*
X412116205Y-149303292D01*
X412113523Y-149308191D01*
X412108144Y-149315368D01*
X412104996Y-149323766D01*
X412104994Y-149323769D01*
X412104812Y-149324255D01*
X412104503Y-149324667D01*
X412100681Y-149331647D01*
X412099673Y-149331095D01*
X412062170Y-149381019D01*
X411995608Y-149405719D01*
X411986830Y-149406025D01*
X411852498Y-149406025D01*
X411827936Y-149409640D01*
X411804813Y-149413044D01*
X411768276Y-149413067D01*
X411740030Y-149408947D01*
X411720002Y-149406025D01*
X411352498Y-149406025D01*
X411327936Y-149409640D01*
X411304813Y-149413044D01*
X411268276Y-149413067D01*
X411240030Y-149408947D01*
X411220002Y-149406025D01*
X410852498Y-149406025D01*
X410847950Y-149406694D01*
X410847943Y-149406695D01*
X410782506Y-149416328D01*
X410782006Y-149412928D01*
X410739855Y-149412959D01*
X410739390Y-149416148D01*
X410674527Y-149406685D01*
X410674525Y-149406685D01*
X410670002Y-149406025D01*
X410665430Y-149406025D01*
X410660882Y-149405695D01*
X410661022Y-149403771D01*
X410600578Y-149386023D01*
X410554085Y-149332367D01*
X410543981Y-149262093D01*
X410546495Y-149249329D01*
X410549777Y-149236265D01*
X410576942Y-149128116D01*
X410577035Y-149110460D01*
X410577765Y-148970861D01*
X410577805Y-148963266D01*
X410573938Y-148947156D01*
X410553658Y-148862687D01*
X410539321Y-148802969D01*
X410463712Y-148656478D01*
X410355342Y-148532252D01*
X410248032Y-148456833D01*
X410226685Y-148441830D01*
X410226683Y-148441829D01*
X410220468Y-148437461D01*
X410143672Y-148407519D01*
X410073957Y-148380338D01*
X410073954Y-148380337D01*
X410066877Y-148377578D01*
X410059344Y-148376586D01*
X410059343Y-148376586D01*
X409945228Y-148361563D01*
X409945227Y-148361563D01*
X409941141Y-148361025D01*
X409854916Y-148361025D01*
X409732592Y-148375828D01*
X409578382Y-148434099D01*
X409572124Y-148438400D01*
X409486504Y-148497245D01*
X409419035Y-148519345D01*
X409350328Y-148501460D01*
X409310190Y-148463134D01*
X409306004Y-148456833D01*
X409188853Y-148313192D01*
X409180209Y-148304488D01*
X409037394Y-148186341D01*
X409027223Y-148179481D01*
X408864174Y-148091321D01*
X408852869Y-148086569D01*
X408737558Y-148050875D01*
X408723455Y-148050669D01*
X408720250Y-148057424D01*
X408720250Y-149300010D01*
X408724725Y-149315249D01*
X408726115Y-149316454D01*
X408733798Y-149318125D01*
X409195435Y-149318125D01*
X409263556Y-149338127D01*
X409307401Y-149386336D01*
X409321186Y-149413044D01*
X409328788Y-149427772D01*
X409437158Y-149551998D01*
X409443372Y-149556365D01*
X409443375Y-149556368D01*
X409460700Y-149568544D01*
X409504932Y-149624078D01*
X409514250Y-149671631D01*
X409514250Y-149700125D01*
X409494248Y-149768246D01*
X409440592Y-149814739D01*
X409388250Y-149826125D01*
X408338250Y-149826125D01*
X408270129Y-149806123D01*
X408223636Y-149752467D01*
X408212250Y-149700125D01*
X408212250Y-148064201D01*
X408208277Y-148050670D01*
X408200480Y-148049549D01*
X408185323Y-148054010D01*
X408114327Y-148054054D01*
X408054577Y-148015707D01*
X408025044Y-147951145D01*
X408023750Y-147933136D01*
X408023750Y-146781285D01*
X408043752Y-146713164D01*
X408097408Y-146666671D01*
X408167682Y-146656567D01*
X408187007Y-146660919D01*
X408194943Y-146663375D01*
X408209045Y-146663581D01*
X408212250Y-146656826D01*
X408212250Y-146650049D01*
X408720250Y-146650049D01*
X408724223Y-146663580D01*
X408732018Y-146664700D01*
X408839771Y-146632987D01*
X408851139Y-146628394D01*
X409015404Y-146542518D01*
X409025665Y-146535804D01*
X409170123Y-146419657D01*
X409178882Y-146411079D01*
X409298028Y-146269086D01*
X409304958Y-146258966D01*
X409394252Y-146096540D01*
X409399084Y-146085267D01*
X409455130Y-145908587D01*
X409457680Y-145896593D01*
X409473857Y-145752364D01*
X409474250Y-145745340D01*
X409474250Y-145738782D01*
X416098250Y-145738782D01*
X416098551Y-145744930D01*
X416112062Y-145882728D01*
X416114445Y-145894763D01*
X416168017Y-146072201D01*
X416172691Y-146083541D01*
X416259710Y-146247202D01*
X416266499Y-146257419D01*
X416383647Y-146401058D01*
X416392291Y-146409762D01*
X416535106Y-146527909D01*
X416545277Y-146534769D01*
X416708326Y-146622929D01*
X416719631Y-146627681D01*
X416834942Y-146663375D01*
X416849045Y-146663581D01*
X416852250Y-146656826D01*
X416852250Y-145664240D01*
X416847775Y-145649001D01*
X416846385Y-145647796D01*
X416838702Y-145646125D01*
X416116365Y-145646125D01*
X416101126Y-145650600D01*
X416099921Y-145651990D01*
X416098250Y-145659673D01*
X416098250Y-145738782D01*
X409474250Y-145738782D01*
X409474250Y-145664240D01*
X409469775Y-145649001D01*
X409468385Y-145647796D01*
X409460702Y-145646125D01*
X408738365Y-145646125D01*
X408723126Y-145650600D01*
X408721921Y-145651990D01*
X408720250Y-145659673D01*
X408720250Y-146650049D01*
X408212250Y-146650049D01*
X408212250Y-145264125D01*
X408232252Y-145196004D01*
X408285908Y-145149511D01*
X408338250Y-145138125D01*
X409456135Y-145138125D01*
X409471374Y-145133650D01*
X409472579Y-145132260D01*
X409474250Y-145124577D01*
X409474250Y-145045468D01*
X409473949Y-145039319D01*
X409466922Y-144967645D01*
X409480182Y-144897897D01*
X409529045Y-144846391D01*
X409592321Y-144829350D01*
X415980437Y-144829350D01*
X416048558Y-144849352D01*
G37*
G04 #@! TD.AperFunction*
M02*
