G04 #@! TF.GenerationSoftware,KiCad,Pcbnew,(6.0.1-0)*
G04 #@! TF.CreationDate,2022-01-18T02:07:07+01:00*
G04 #@! TF.ProjectId,KBD8X-MK2,4b424438-582d-44d4-9b32-2e6b69636164,rev?*
G04 #@! TF.SameCoordinates,Original*
G04 #@! TF.FileFunction,Copper,L1,Top*
G04 #@! TF.FilePolarity,Positive*
%FSLAX46Y46*%
G04 Gerber Fmt 4.6, Leading zero omitted, Abs format (unit mm)*
G04 Created by KiCad (PCBNEW (6.0.1-0)) date 2022-01-18 02:07:07*
%MOMM*%
%LPD*%
G01*
G04 APERTURE LIST*
G04 #@! TA.AperFunction,ComponentPad*
%ADD10C,2.250000*%
G04 #@! TD*
G04 #@! TA.AperFunction,ComponentPad*
%ADD11C,1.905000*%
G04 #@! TD*
G04 #@! TA.AperFunction,ComponentPad*
%ADD12R,1.905000X1.905000*%
G04 #@! TD*
G04 #@! TA.AperFunction,ComponentPad*
%ADD13O,1.000000X1.600000*%
G04 #@! TD*
G04 #@! TA.AperFunction,ComponentPad*
%ADD14O,1.000000X2.100000*%
G04 #@! TD*
G04 #@! TA.AperFunction,ComponentPad*
%ADD15C,1.700000*%
G04 #@! TD*
G04 #@! TA.AperFunction,ComponentPad*
%ADD16R,1.700000X1.700000*%
G04 #@! TD*
G04 #@! TA.AperFunction,ViaPad*
%ADD17C,0.600000*%
G04 #@! TD*
G04 #@! TA.AperFunction,Conductor*
%ADD18C,0.381000*%
G04 #@! TD*
G04 #@! TA.AperFunction,Conductor*
%ADD19C,0.254000*%
G04 #@! TD*
G04 APERTURE END LIST*
D10*
X325632500Y-233215000D03*
X331982500Y-230675000D03*
X306582500Y-233215000D03*
X312932500Y-230675000D03*
X149420000Y-176065000D03*
X155770000Y-173525000D03*
X168470000Y-176065000D03*
X174820000Y-173525000D03*
X187520000Y-176065000D03*
X193870000Y-173525000D03*
X206570000Y-176065000D03*
X212920000Y-173525000D03*
X225620000Y-176065000D03*
X231970000Y-173525000D03*
X244670000Y-176065000D03*
X251020000Y-173525000D03*
X263720000Y-176065000D03*
X270070000Y-173525000D03*
X301820000Y-176065000D03*
X308170000Y-173525000D03*
X320870000Y-176065000D03*
X327220000Y-173525000D03*
X354207500Y-214165000D03*
X360557500Y-211625000D03*
X339920000Y-176065000D03*
X346270000Y-173525000D03*
X344682500Y-233215000D03*
X351032500Y-230675000D03*
X335157500Y-214165000D03*
X341507500Y-211625000D03*
X358970000Y-176065000D03*
X365320000Y-173525000D03*
X349445000Y-195115000D03*
X355795000Y-192575000D03*
X392307500Y-195115000D03*
X398657500Y-192575000D03*
X373257500Y-214165000D03*
X379607500Y-211625000D03*
X368495000Y-195115000D03*
X374845000Y-192575000D03*
X130370000Y-176065000D03*
X136720000Y-173525000D03*
X163707500Y-214165000D03*
X170057500Y-211625000D03*
X249432500Y-233215000D03*
X255782500Y-230675000D03*
X387545000Y-176065000D03*
X393895000Y-173525000D03*
X378020000Y-176065000D03*
X384370000Y-173525000D03*
X397070000Y-176065000D03*
X403420000Y-173525000D03*
X211332500Y-233215000D03*
X217682500Y-230675000D03*
X137513750Y-214165000D03*
X143863750Y-211625000D03*
D11*
X140053750Y-221785000D03*
D12*
X142593750Y-221785000D03*
D10*
X132751250Y-214165000D03*
X139101250Y-211625000D03*
D11*
X137831250Y-221785000D03*
D12*
X135291250Y-221785000D03*
D10*
X201807500Y-214165000D03*
X208157500Y-211625000D03*
X420882500Y-195115000D03*
X427232500Y-192575000D03*
X439932500Y-252265000D03*
X446282500Y-249725000D03*
X197045000Y-195115000D03*
X203395000Y-192575000D03*
X439932500Y-195115000D03*
X446282500Y-192575000D03*
X130370000Y-152252500D03*
X136720000Y-149712500D03*
X220857500Y-214165000D03*
X227207500Y-211625000D03*
X168470000Y-152252500D03*
X174820000Y-149712500D03*
X187520000Y-152252500D03*
X193870000Y-149712500D03*
X206570000Y-152252500D03*
X212920000Y-149712500D03*
X225620000Y-152252500D03*
X231970000Y-149712500D03*
X254195000Y-152252500D03*
X260545000Y-149712500D03*
X273245000Y-152252500D03*
X279595000Y-149712500D03*
X292295000Y-152252500D03*
X298645000Y-149712500D03*
X311345000Y-152252500D03*
X317695000Y-149712500D03*
X339920000Y-152252500D03*
X346270000Y-149712500D03*
X358970000Y-152252500D03*
X365320000Y-149712500D03*
X378020000Y-152252500D03*
X384370000Y-149712500D03*
X397070000Y-152252500D03*
X403420000Y-149712500D03*
X239907500Y-214165000D03*
X246257500Y-211625000D03*
X258957500Y-214165000D03*
X265307500Y-211625000D03*
X439932500Y-176065000D03*
X446282500Y-173525000D03*
X292295000Y-195115000D03*
X298645000Y-192575000D03*
X420882500Y-176065000D03*
X427232500Y-173525000D03*
X278007500Y-214165000D03*
X284357500Y-211625000D03*
X297057500Y-214165000D03*
X303407500Y-211625000D03*
X316107500Y-214165000D03*
X322457500Y-211625000D03*
X180376250Y-252265000D03*
X186726250Y-249725000D03*
X182757500Y-252265000D03*
X189107500Y-249725000D03*
X132751250Y-252265000D03*
X139101250Y-249725000D03*
X135132500Y-252265000D03*
X141482500Y-249725000D03*
X420882500Y-252265000D03*
X427232500Y-249725000D03*
X156563750Y-252265000D03*
X162913750Y-249725000D03*
X158945000Y-252265000D03*
X165295000Y-249725000D03*
X142276250Y-233215000D03*
X148626250Y-230675000D03*
X132751250Y-233215000D03*
X139101250Y-230675000D03*
X154182500Y-233215000D03*
X160532500Y-230675000D03*
X287532500Y-233215000D03*
X293882500Y-230675000D03*
X268482500Y-233215000D03*
X274832500Y-230675000D03*
X311345000Y-195115000D03*
X317695000Y-192575000D03*
X330395000Y-195115000D03*
X336745000Y-192575000D03*
X458982500Y-152252500D03*
X465332500Y-149712500D03*
X458982500Y-195115000D03*
X465332500Y-192575000D03*
X458982500Y-176065000D03*
X465332500Y-173525000D03*
X420882500Y-152252500D03*
X427232500Y-149712500D03*
X158945000Y-195115000D03*
X165295000Y-192575000D03*
X216095000Y-195115000D03*
X222445000Y-192575000D03*
X323251250Y-252265000D03*
X329601250Y-249725000D03*
X344682500Y-252265000D03*
X351032500Y-249725000D03*
X394688750Y-252265000D03*
X401038750Y-249725000D03*
X392307500Y-252265000D03*
X398657500Y-249725000D03*
X385163750Y-214165000D03*
X391513750Y-211625000D03*
X347063750Y-252265000D03*
X353413750Y-249725000D03*
X368495000Y-252265000D03*
X374845000Y-249725000D03*
X370876250Y-252265000D03*
X377226250Y-249725000D03*
X380401250Y-233215000D03*
X386751250Y-230675000D03*
X370876250Y-233215000D03*
X377226250Y-230675000D03*
X397070000Y-233215000D03*
X403420000Y-230675000D03*
X458982500Y-252265000D03*
X465332500Y-249725000D03*
X182757500Y-214165000D03*
X189107500Y-211625000D03*
X251813750Y-252265000D03*
X258163750Y-249725000D03*
X263720000Y-252265000D03*
X270070000Y-249725000D03*
X235145000Y-195115000D03*
X241495000Y-192575000D03*
X273245000Y-195115000D03*
X279595000Y-192575000D03*
X439932500Y-233215000D03*
X446282500Y-230675000D03*
X230382500Y-233215000D03*
X236732500Y-230675000D03*
X177995000Y-195115000D03*
X184345000Y-192575000D03*
X192282500Y-233215000D03*
X198632500Y-230675000D03*
X254195000Y-195115000D03*
X260545000Y-192575000D03*
X173232500Y-233215000D03*
X179582500Y-230675000D03*
X401038750Y-203370000D03*
X403578750Y-209720000D03*
X282770000Y-176065000D03*
X289120000Y-173525000D03*
X135132500Y-195115000D03*
X141482500Y-192575000D03*
X439932500Y-152252500D03*
X446282500Y-149712500D03*
D11*
X442472500Y-159872500D03*
D12*
X445012500Y-159872500D03*
D13*
X417106250Y-145392125D03*
D14*
X408466250Y-149572125D03*
X417106250Y-149572125D03*
D13*
X408466250Y-145392125D03*
D15*
X465650000Y-219721250D03*
X463110000Y-219721250D03*
X465650000Y-222261250D03*
X463110000Y-222261250D03*
X465650000Y-224801250D03*
D16*
X463110000Y-224801250D03*
D17*
X414088000Y-251249000D03*
X240890000Y-150150000D03*
X326630000Y-158381300D03*
X234970000Y-248420000D03*
X232790000Y-248420000D03*
X369400000Y-158381300D03*
X198140000Y-158381300D03*
X199210000Y-151370000D03*
X429328000Y-229024000D03*
X454187200Y-232610700D03*
X442409000Y-207942000D03*
X451650000Y-248590000D03*
X161620000Y-151600000D03*
X326630000Y-150110000D03*
X161620000Y-158430000D03*
X422216000Y-216578000D03*
X420692000Y-169207000D03*
X414080000Y-249810000D03*
X421073000Y-219626000D03*
X409389000Y-164381000D03*
X427423000Y-169461000D03*
X283690000Y-158381300D03*
X370590000Y-151490000D03*
X432757000Y-216197000D03*
X240861333Y-158381300D03*
X450410000Y-216578000D03*
X451640000Y-245890000D03*
X148390000Y-248730000D03*
X427550000Y-216578000D03*
X284920000Y-151500000D03*
X421073000Y-227627000D03*
X139000000Y-208960000D03*
X445838000Y-152824000D03*
X148450000Y-247250000D03*
X144467000Y-205656000D03*
X423359000Y-213276000D03*
X254449000Y-148506000D03*
X340301000Y-148379000D03*
X375226000Y-148379000D03*
X150817000Y-252900000D03*
X293057000Y-148760000D03*
X454855000Y-247185000D03*
X207459000Y-148633000D03*
X451420000Y-206670000D03*
X454855000Y-253408000D03*
X160723000Y-153205000D03*
X426280000Y-213403000D03*
X150817000Y-247947000D03*
X416374000Y-152062000D03*
X453585000Y-154983000D03*
X408500000Y-151554000D03*
X405960000Y-157015000D03*
X406849000Y-170985000D03*
X419676000Y-157015000D03*
X419549000Y-199941000D03*
X405960000Y-199941000D03*
X404436000Y-158158000D03*
X405960000Y-158031000D03*
X419676000Y-158031000D03*
X406849000Y-171874000D03*
X405960000Y-181780000D03*
X419549000Y-181780000D03*
X405960000Y-180891000D03*
X419549000Y-180891000D03*
X383354000Y-193591000D03*
X419549000Y-200830000D03*
X405960000Y-200830000D03*
X411548000Y-153078000D03*
X414342000Y-153078000D03*
X385386000Y-168191000D03*
X440504000Y-212641000D03*
X436694000Y-248074000D03*
X459935000Y-211752000D03*
X411548000Y-152189000D03*
X408881000Y-153459000D03*
X414342000Y-152189000D03*
X416374000Y-153459000D03*
X449648000Y-213403000D03*
X450186700Y-168960000D03*
X146753000Y-164381000D03*
X151706000Y-219880000D03*
X450283000Y-155745000D03*
X451045000Y-213403000D03*
X453077000Y-158666000D03*
X454855000Y-151427000D03*
X370273000Y-163619000D03*
X416374000Y-165143000D03*
X409389000Y-165270000D03*
X372051000Y-154983000D03*
X154246000Y-149776000D03*
X148023000Y-208831000D03*
X147896000Y-255059000D03*
X139387000Y-205529000D03*
X450283000Y-246550000D03*
X450283000Y-255440000D03*
X455871000Y-210101000D03*
X456125000Y-249852000D03*
X374972000Y-188638000D03*
X393895000Y-221277000D03*
X369003000Y-180891000D03*
X381830000Y-218991000D03*
X379163000Y-219499000D03*
X375988000Y-196131000D03*
X393895000Y-222293000D03*
X380941000Y-218991000D03*
X432630000Y-257218000D03*
X433310000Y-238135200D03*
X434550000Y-238135200D03*
X435170000Y-257218000D03*
D18*
X422470000Y-229024000D02*
X421073000Y-227627000D01*
X144099180Y-229718961D02*
X149235180Y-234854962D01*
X450410000Y-216578000D02*
X452981750Y-216578000D01*
X446473000Y-153459000D02*
X446473000Y-156126000D01*
X467314180Y-218941962D02*
X467314180Y-225517038D01*
X442472500Y-183685000D02*
X442472500Y-183621500D01*
X414080000Y-249810000D02*
X414080000Y-251241000D01*
X283690000Y-158381300D02*
X283690000Y-152730000D01*
X451640000Y-245890000D02*
X451640000Y-248580000D01*
X427550000Y-190416000D02*
X427550000Y-175811000D01*
X441139000Y-201338000D02*
X441139000Y-196512000D01*
X427550000Y-169588000D02*
X427423000Y-169461000D01*
X140053750Y-221785000D02*
X137831250Y-221785000D01*
X149235180Y-247884820D02*
X148390000Y-248730000D01*
X144099180Y-225830430D02*
X144099180Y-229718961D01*
X441647000Y-175176000D02*
X441139000Y-174668000D01*
X149235180Y-234854962D02*
X149235180Y-247255180D01*
X149235180Y-247255180D02*
X149235180Y-247884820D01*
X141051180Y-211011180D02*
X141051180Y-212464961D01*
X463110000Y-219721250D02*
X464541250Y-218290000D01*
X441647000Y-196004000D02*
X441647000Y-194226000D01*
X428947000Y-191813000D02*
X427550000Y-190416000D01*
X421073000Y-219626000D02*
X421073000Y-227627000D01*
X442472500Y-202671500D02*
X441139000Y-201338000D01*
X441139000Y-161206000D02*
X442472500Y-159872500D01*
X441647000Y-194226000D02*
X441139000Y-193718000D01*
X428947000Y-193464000D02*
X428947000Y-191813000D01*
X432630000Y-216578000D02*
X432757000Y-216451000D01*
X441139000Y-185018500D02*
X442472500Y-183685000D01*
X433011000Y-216578000D02*
X432884000Y-216578000D01*
X441139000Y-196512000D02*
X441647000Y-196004000D01*
X326630000Y-158381300D02*
X326630000Y-150110000D01*
X432757000Y-216197000D02*
X432757000Y-216324000D01*
X442472500Y-183621500D02*
X441139000Y-182288000D01*
X433011000Y-216578000D02*
X449521000Y-216578000D01*
X418406000Y-164381000D02*
X420819000Y-166794000D01*
X161620000Y-158430000D02*
X161620000Y-151600000D01*
X240861333Y-150178667D02*
X240890000Y-150150000D01*
X421073000Y-217721000D02*
X422216000Y-216578000D01*
X420819000Y-169080000D02*
X420692000Y-169207000D01*
X427550000Y-175811000D02*
X428947000Y-174414000D01*
X283690000Y-152730000D02*
X284920000Y-151500000D01*
X441647000Y-176954000D02*
X441647000Y-175176000D01*
X427550000Y-171239000D02*
X427550000Y-169588000D01*
X144099180Y-217739570D02*
X140053750Y-221785000D01*
X198140000Y-158381300D02*
X198140000Y-152440000D01*
X464541250Y-218290000D02*
X466662218Y-218290000D01*
X463110000Y-219721250D02*
X456125000Y-219721250D01*
X141051180Y-212464961D02*
X144099180Y-215512962D01*
X432757000Y-216451000D02*
X432757000Y-216197000D01*
X452981750Y-216578000D02*
X456125000Y-219721250D01*
X451640000Y-248580000D02*
X451650000Y-248590000D01*
X139000000Y-208960000D02*
X141051180Y-211011180D01*
X450410000Y-216578000D02*
X449521000Y-216578000D01*
X144099180Y-215512962D02*
X144099180Y-217739570D01*
X198140000Y-152440000D02*
X199210000Y-151370000D01*
X427550000Y-216578000D02*
X422216000Y-216578000D01*
X427550000Y-194861000D02*
X428947000Y-193464000D01*
X443552000Y-158158000D02*
X442472500Y-159237500D01*
X140053750Y-221785000D02*
X144099180Y-225830430D01*
X240861333Y-158381300D02*
X240861333Y-150178667D01*
X432884000Y-216578000D02*
X432757000Y-216451000D01*
X427550000Y-216578000D02*
X432630000Y-216578000D01*
X427550000Y-204386000D02*
X427550000Y-194861000D01*
X441139000Y-174668000D02*
X441139000Y-161206000D01*
X369400000Y-152680000D02*
X370590000Y-151490000D01*
X421073000Y-219626000D02*
X421073000Y-217721000D01*
X441139000Y-182288000D02*
X441139000Y-177462000D01*
X422216000Y-209720000D02*
X427550000Y-204386000D01*
X442472500Y-207878500D02*
X442472500Y-202735000D01*
X444441000Y-158158000D02*
X443552000Y-158158000D01*
X428947000Y-172636000D02*
X427550000Y-171239000D01*
X409389000Y-164381000D02*
X418406000Y-164381000D01*
X442472500Y-202735000D02*
X442472500Y-202671500D01*
X467314180Y-225517038D02*
X460111038Y-232720180D01*
X442472500Y-159237500D02*
X442472500Y-159872500D01*
X441139000Y-177462000D02*
X441647000Y-176954000D01*
X422216000Y-216578000D02*
X422216000Y-209720000D01*
X466662218Y-218290000D02*
X467314180Y-218941962D01*
X414080000Y-251241000D02*
X414088000Y-251249000D01*
X232790000Y-248420000D02*
X234970000Y-248420000D01*
X460111038Y-232720180D02*
X454260000Y-232720180D01*
X446473000Y-156126000D02*
X444441000Y-158158000D01*
X441139000Y-193718000D02*
X441139000Y-185018500D01*
X442409000Y-207942000D02*
X442472500Y-207878500D01*
X445838000Y-152824000D02*
X446473000Y-153459000D01*
X429328000Y-229024000D02*
X422470000Y-229024000D01*
X148450000Y-247250000D02*
X149230000Y-247250000D01*
X369400000Y-158381300D02*
X369400000Y-152680000D01*
X140053750Y-221118250D02*
X140053750Y-221785000D01*
X149230000Y-247250000D02*
X149235180Y-247255180D01*
X428947000Y-174414000D02*
X428947000Y-172636000D01*
X420819000Y-166794000D02*
X420819000Y-169080000D01*
X451426000Y-153078000D02*
X451426000Y-153586000D01*
X423486000Y-213403000D02*
X423359000Y-213276000D01*
X422851000Y-212768000D02*
X422851000Y-210101000D01*
X340174000Y-147998000D02*
X293311000Y-147998000D01*
X340301000Y-148125000D02*
X340174000Y-147998000D01*
X254449000Y-148252000D02*
X254449000Y-148506000D01*
X375226000Y-148125000D02*
X375226000Y-148379000D01*
X428185000Y-176192000D02*
X429582000Y-174795000D01*
X160723000Y-153205000D02*
X160723000Y-150665000D01*
X154881000Y-147998000D02*
X159199000Y-147998000D01*
X429582000Y-191432000D02*
X428185000Y-190035000D01*
X454855000Y-248328000D02*
X454855000Y-253408000D01*
X451426000Y-153586000D02*
X451426000Y-153713000D01*
X451426000Y-153713000D02*
X452696000Y-154983000D01*
X451426000Y-206664000D02*
X451426000Y-156253000D01*
X163390000Y-147998000D02*
X207205000Y-147998000D01*
X150817000Y-252900000D02*
X150817000Y-247947000D01*
X429582000Y-193845000D02*
X429582000Y-191432000D01*
X404309000Y-147998000D02*
X407865000Y-151554000D01*
X418533000Y-152062000D02*
X416882000Y-152062000D01*
X375226000Y-148379000D02*
X375226000Y-148252000D01*
X429582000Y-172255000D02*
X428185000Y-170858000D01*
X420057000Y-150538000D02*
X418533000Y-152062000D01*
X451426000Y-152316000D02*
X451426000Y-153078000D01*
X463110000Y-224801250D02*
X463078250Y-224801250D01*
X428185000Y-153332000D02*
X425391000Y-150538000D01*
X254703000Y-147998000D02*
X292803000Y-147998000D01*
X453585000Y-154983000D02*
X452950000Y-154983000D01*
X207713000Y-147998000D02*
X254195000Y-147998000D01*
X438853000Y-147998000D02*
X433519000Y-147998000D01*
X416882000Y-152062000D02*
X416374000Y-152062000D01*
X340301000Y-148252000D02*
X340555000Y-147998000D01*
X340301000Y-148379000D02*
X340301000Y-148125000D01*
X207459000Y-148252000D02*
X207459000Y-148633000D01*
X446473000Y-147998000D02*
X438853000Y-147998000D01*
X292803000Y-147998000D02*
X293057000Y-148252000D01*
X454855000Y-247185000D02*
X454855000Y-248328000D01*
X433519000Y-147998000D02*
X428185000Y-153332000D01*
X423359000Y-213276000D02*
X422851000Y-212768000D01*
X407865000Y-151554000D02*
X408500000Y-151554000D01*
X160723000Y-149522000D02*
X160723000Y-150665000D01*
X428185000Y-170858000D02*
X428185000Y-153332000D01*
X422851000Y-210101000D02*
X428185000Y-204767000D01*
X144467000Y-205656000D02*
X145419500Y-204703500D01*
X425391000Y-150538000D02*
X420057000Y-150538000D01*
X163390000Y-147998000D02*
X162247000Y-147998000D01*
X446473000Y-147998000D02*
X447108000Y-147998000D01*
X340301000Y-148379000D02*
X340301000Y-148252000D01*
X451426000Y-156253000D02*
X452696000Y-154983000D01*
X145419500Y-204703500D02*
X145419500Y-157459500D01*
X375226000Y-148252000D02*
X375480000Y-147998000D01*
X375480000Y-147998000D02*
X404309000Y-147998000D01*
X293057000Y-148252000D02*
X293057000Y-148760000D01*
X428185000Y-190035000D02*
X428185000Y-176192000D01*
X159199000Y-147998000D02*
X160723000Y-149522000D01*
X428185000Y-204767000D02*
X428185000Y-195242000D01*
X254195000Y-147998000D02*
X254449000Y-148252000D01*
X447108000Y-147998000D02*
X451426000Y-152316000D01*
X426280000Y-213403000D02*
X423486000Y-213403000D01*
X452696000Y-154983000D02*
X452950000Y-154983000D01*
X375099000Y-147998000D02*
X375226000Y-148125000D01*
X451420000Y-206670000D02*
X451426000Y-206664000D01*
X340555000Y-147998000D02*
X375099000Y-147998000D01*
X254449000Y-148252000D02*
X254703000Y-147998000D01*
X162247000Y-147998000D02*
X160723000Y-149522000D01*
X145419500Y-157459500D02*
X154881000Y-147998000D01*
X207459000Y-148252000D02*
X207713000Y-147998000D01*
X207205000Y-147998000D02*
X207459000Y-148252000D01*
X428185000Y-195242000D02*
X429582000Y-193845000D01*
X429582000Y-174795000D02*
X429582000Y-172255000D01*
X293311000Y-147998000D02*
X293057000Y-148252000D01*
D19*
X139101250Y-209942250D02*
X135704000Y-206545000D01*
X150055000Y-185844000D02*
X150817000Y-186606000D01*
X135132500Y-195115000D02*
X135132500Y-193527500D01*
X132751250Y-233215000D02*
X133291000Y-233754750D01*
X131005000Y-175430000D02*
X131005000Y-152887500D01*
X154500000Y-233532500D02*
X154500000Y-250201250D01*
X131513000Y-242740000D02*
X131513000Y-245280000D01*
X150817000Y-186606000D02*
X150817000Y-189908000D01*
X131005000Y-176700000D02*
X130370000Y-176065000D01*
X150055000Y-176700000D02*
X150055000Y-185844000D01*
X131513000Y-245280000D02*
X133291000Y-247058000D01*
X130370000Y-176065000D02*
X131005000Y-175430000D01*
X163707500Y-212450500D02*
X159580000Y-208323000D01*
X131259000Y-227500000D02*
X131259000Y-230040000D01*
X139101250Y-211625000D02*
X139101250Y-212577500D01*
X133291000Y-251725250D02*
X132751250Y-252265000D01*
X133291000Y-233754750D02*
X133291000Y-240962000D01*
X135132500Y-193527500D02*
X131005000Y-189400000D01*
X133672000Y-215816000D02*
X133672000Y-225087000D01*
X135323000Y-214165000D02*
X133672000Y-215816000D01*
X135704000Y-195686500D02*
X135704000Y-206545000D01*
X154500000Y-250201250D02*
X154754000Y-250455250D01*
X131005000Y-189400000D02*
X131005000Y-176700000D01*
X150817000Y-189908000D02*
X152214000Y-191305000D01*
X132751250Y-252265000D02*
X135132500Y-252265000D01*
X154754000Y-250455250D02*
X156563750Y-252265000D01*
X156563750Y-252265000D02*
X158945000Y-252265000D01*
X139101250Y-211625000D02*
X139101250Y-209942250D01*
X159580000Y-195750000D02*
X158945000Y-195115000D01*
X155135000Y-191305000D02*
X158945000Y-195115000D01*
X135132500Y-195115000D02*
X135704000Y-195686500D01*
X131259000Y-230040000D02*
X132751250Y-231532250D01*
X163707500Y-214165000D02*
X163707500Y-212450500D01*
X131005000Y-152887500D02*
X130370000Y-152252500D01*
X132751250Y-231532250D02*
X132751250Y-233215000D01*
X152214000Y-191305000D02*
X155135000Y-191305000D01*
X154182500Y-233215000D02*
X154500000Y-233532500D01*
X159580000Y-208323000D02*
X159580000Y-195750000D01*
X139101250Y-212577500D02*
X137513750Y-214165000D01*
X149420000Y-176065000D02*
X150055000Y-176700000D01*
X133291000Y-240962000D02*
X131513000Y-242740000D01*
X137513750Y-214165000D02*
X135323000Y-214165000D01*
X133672000Y-225087000D02*
X131259000Y-227500000D01*
X133291000Y-247058000D02*
X133291000Y-251725250D01*
X406595000Y-170731000D02*
X406849000Y-170985000D01*
X405198000Y-160190000D02*
X405198000Y-157523000D01*
X405706000Y-157015000D02*
X405960000Y-157015000D01*
X405960000Y-157015000D02*
X406214000Y-157269000D01*
X419422000Y-157269000D02*
X419676000Y-157015000D01*
X406595000Y-161587000D02*
X405198000Y-160190000D01*
X406214000Y-157269000D02*
X407357000Y-157269000D01*
X406595000Y-161587000D02*
X406595000Y-170731000D01*
X407357000Y-157269000D02*
X419422000Y-157269000D01*
X405198000Y-157523000D02*
X405706000Y-157015000D01*
X406150500Y-200131500D02*
X419358500Y-200131500D01*
X405960000Y-199941000D02*
X406150500Y-200131500D01*
X419358500Y-200131500D02*
X419549000Y-199941000D01*
X406849000Y-171874000D02*
X406722000Y-171874000D01*
X419422000Y-157777000D02*
X406214000Y-157777000D01*
X404690000Y-158412000D02*
X404436000Y-158158000D01*
X406087000Y-161841000D02*
X404690000Y-160444000D01*
X404690000Y-160444000D02*
X404690000Y-158412000D01*
X406214000Y-157777000D02*
X405960000Y-158031000D01*
X406722000Y-171874000D02*
X406087000Y-171239000D01*
X419676000Y-158031000D02*
X419422000Y-157777000D01*
X406087000Y-171239000D02*
X406087000Y-161841000D01*
X405960000Y-181780000D02*
X406087000Y-181780000D01*
X406277500Y-181589500D02*
X419358500Y-181589500D01*
X406087000Y-181780000D02*
X406277500Y-181589500D01*
X419358500Y-181589500D02*
X419549000Y-181780000D01*
X406087000Y-180891000D02*
X406277500Y-181081500D01*
X405960000Y-180891000D02*
X406087000Y-180891000D01*
X419358500Y-181081500D02*
X419549000Y-180891000D01*
X406277500Y-181081500D02*
X419358500Y-181081500D01*
X379671000Y-211625000D02*
X381322000Y-209974000D01*
X381322000Y-209974000D02*
X381322000Y-195623000D01*
X381576000Y-195369000D02*
X383354000Y-193591000D01*
X381322000Y-195623000D02*
X381576000Y-195369000D01*
X379607500Y-211625000D02*
X379671000Y-211625000D01*
X419549000Y-200830000D02*
X419358500Y-200639500D01*
X419358500Y-200639500D02*
X406150500Y-200639500D01*
X406150500Y-200639500D02*
X405960000Y-200830000D01*
D18*
X413580000Y-153078000D02*
X411548000Y-153078000D01*
X414342000Y-153078000D02*
X413580000Y-153078000D01*
D19*
X216730000Y-195750000D02*
X216095000Y-195115000D01*
X205173000Y-185971000D02*
X207205000Y-183939000D01*
X207205000Y-152887500D02*
X207205000Y-175430000D01*
X152722000Y-185971000D02*
X151833000Y-186860000D01*
X151833000Y-189400000D02*
X152722000Y-190289000D01*
X220857500Y-212577500D02*
X216730000Y-208450000D01*
X230382500Y-233151500D02*
X225620000Y-228389000D01*
X211332500Y-233215000D02*
X206506500Y-228389000D01*
X226255000Y-175430000D02*
X225620000Y-176065000D01*
X209237000Y-185971000D02*
X222699000Y-185971000D01*
X167073000Y-224071000D02*
X217746000Y-224071000D01*
X239907500Y-214165000D02*
X239907500Y-212577500D01*
X206570000Y-152252500D02*
X207205000Y-152887500D01*
X235145000Y-195115000D02*
X230319000Y-190289000D01*
X221429000Y-220388000D02*
X221429000Y-214736500D01*
X239907500Y-212577500D02*
X235780000Y-208450000D01*
X166057000Y-227500000D02*
X166057000Y-225087000D01*
X230382500Y-233215000D02*
X230382500Y-233151500D01*
X151833000Y-186860000D02*
X151833000Y-189400000D01*
X152722000Y-190289000D02*
X211269000Y-190289000D01*
X216730000Y-208450000D02*
X216730000Y-195750000D01*
X222699000Y-185971000D02*
X226255000Y-182415000D01*
X166946000Y-228389000D02*
X166057000Y-227500000D01*
X207205000Y-175430000D02*
X206570000Y-176065000D01*
X203649000Y-185971000D02*
X205173000Y-185971000D01*
X206570000Y-176065000D02*
X207205000Y-176700000D01*
X225620000Y-228389000D02*
X216158500Y-228389000D01*
X226255000Y-182415000D02*
X226255000Y-176700000D01*
X166057000Y-225087000D02*
X167073000Y-224071000D01*
X220857500Y-214165000D02*
X220857500Y-212577500D01*
X207205000Y-183939000D02*
X209237000Y-185971000D01*
X206506500Y-228389000D02*
X166946000Y-228389000D01*
X220921000Y-190289000D02*
X216095000Y-195115000D01*
X207205000Y-183939000D02*
X207205000Y-182415000D01*
X226255000Y-176700000D02*
X225620000Y-176065000D01*
X225620000Y-152252500D02*
X226255000Y-152887500D01*
X216158500Y-228389000D02*
X211332500Y-233215000D01*
X235780000Y-195750000D02*
X235145000Y-195115000D01*
X211269000Y-190289000D02*
X216095000Y-195115000D01*
X207205000Y-176700000D02*
X207205000Y-182415000D01*
X230319000Y-190289000D02*
X220921000Y-190289000D01*
X203649000Y-185971000D02*
X152722000Y-185971000D01*
X221429000Y-214736500D02*
X220857500Y-214165000D01*
X217746000Y-224071000D02*
X221429000Y-220388000D01*
X235780000Y-208450000D02*
X235780000Y-195750000D01*
X226255000Y-152887500D02*
X226255000Y-175430000D01*
X197680000Y-208450000D02*
X197680000Y-195750000D01*
X182757500Y-212450500D02*
X178630000Y-208323000D01*
X182313000Y-190797000D02*
X177995000Y-195115000D01*
X170629000Y-185463000D02*
X185107000Y-185463000D01*
X188155000Y-152887500D02*
X188155000Y-175430000D01*
X182757500Y-214165000D02*
X182757500Y-212450500D01*
X197680000Y-195750000D02*
X197045000Y-195115000D01*
X182757500Y-252265000D02*
X180376250Y-252265000D01*
X169105000Y-176700000D02*
X169105000Y-182415000D01*
X165549000Y-227754000D02*
X165549000Y-224833000D01*
X188155000Y-175430000D02*
X187520000Y-176065000D01*
X173677000Y-190797000D02*
X177995000Y-195115000D01*
X192282500Y-233151500D02*
X188028000Y-228897000D01*
X151325000Y-189654000D02*
X152468000Y-190797000D01*
X169105000Y-175430000D02*
X168470000Y-176065000D01*
X166692000Y-228897000D02*
X165549000Y-227754000D01*
X169105000Y-183939000D02*
X169105000Y-182415000D01*
X192727000Y-190797000D02*
X182313000Y-190797000D01*
X152468000Y-190797000D02*
X173677000Y-190797000D01*
X173772250Y-245661000D02*
X173772250Y-233754750D01*
X167581000Y-185463000D02*
X169105000Y-183939000D01*
X169105000Y-183939000D02*
X170629000Y-185463000D01*
X165549000Y-224833000D02*
X166819000Y-223563000D01*
X201807500Y-214165000D02*
X201807500Y-212577500D01*
X183329000Y-214736500D02*
X182757500Y-214165000D01*
X188155000Y-182415000D02*
X188155000Y-176700000D01*
X168914500Y-228897000D02*
X166692000Y-228897000D01*
X166819000Y-223563000D02*
X180281000Y-223563000D01*
X201807500Y-212577500D02*
X197680000Y-208450000D01*
X187520000Y-152252500D02*
X188155000Y-152887500D01*
X168470000Y-176065000D02*
X169105000Y-176700000D01*
X197045000Y-195115000D02*
X192727000Y-190797000D01*
X178630000Y-208323000D02*
X178630000Y-195750000D01*
X173772250Y-233754750D02*
X173232500Y-233215000D01*
X173772250Y-245661000D02*
X180376250Y-252265000D01*
X169105000Y-152887500D02*
X169105000Y-175430000D01*
X168470000Y-152252500D02*
X169105000Y-152887500D01*
X188155000Y-176700000D02*
X187520000Y-176065000D01*
X152468000Y-185463000D02*
X151325000Y-186606000D01*
X185107000Y-185463000D02*
X188155000Y-182415000D01*
X173232500Y-233215000D02*
X168914500Y-228897000D01*
X192282500Y-233215000D02*
X192282500Y-233151500D01*
X166057000Y-185463000D02*
X167581000Y-185463000D01*
X177550500Y-228897000D02*
X173232500Y-233215000D01*
X166057000Y-185463000D02*
X152468000Y-185463000D01*
X180281000Y-223563000D02*
X183329000Y-220515000D01*
X188028000Y-228897000D02*
X177550500Y-228897000D01*
X183329000Y-220515000D02*
X183329000Y-214736500D01*
X151325000Y-186606000D02*
X151325000Y-189654000D01*
X178630000Y-195750000D02*
X177995000Y-195115000D01*
X260291000Y-186479000D02*
X264355000Y-182415000D01*
X258957500Y-214165000D02*
X258957500Y-214863500D01*
X249432500Y-233151500D02*
X254703000Y-227881000D01*
X254830000Y-195750000D02*
X254195000Y-195115000D01*
X259529000Y-189781000D02*
X254195000Y-195115000D01*
X273880000Y-165905000D02*
X273880000Y-152887500D01*
X242765000Y-186479000D02*
X245305000Y-183939000D01*
X264355000Y-176700000D02*
X263720000Y-176065000D01*
X263720000Y-176065000D02*
X273880000Y-165905000D01*
X273245000Y-195115000D02*
X267911000Y-189781000D01*
X152341000Y-189146000D02*
X152976000Y-189781000D01*
X264355000Y-182415000D02*
X264355000Y-176700000D01*
X258957500Y-214863500D02*
X259529000Y-215435000D01*
X278007500Y-214165000D02*
X278007500Y-212577500D01*
X244670000Y-176065000D02*
X254830000Y-165905000D01*
X254830000Y-152887500D02*
X254195000Y-152252500D01*
X258957500Y-214165000D02*
X258957500Y-212577500D01*
X251813750Y-250518750D02*
X250004000Y-248709000D01*
X251813750Y-252265000D02*
X251813750Y-250518750D01*
X258957500Y-212577500D02*
X254830000Y-208450000D01*
X152976000Y-189781000D02*
X248861000Y-189781000D01*
X244670000Y-176319000D02*
X245305000Y-176954000D01*
X250004000Y-248709000D02*
X250004000Y-233786500D01*
X249432500Y-233215000D02*
X249432500Y-233151500D01*
X244098500Y-227881000D02*
X249432500Y-233215000D01*
X267911000Y-189781000D02*
X259529000Y-189781000D01*
X250004000Y-233786500D02*
X249432500Y-233215000D01*
X167200000Y-227881000D02*
X244098500Y-227881000D01*
X278007500Y-212577500D02*
X273880000Y-208450000D01*
X166565000Y-227246000D02*
X167200000Y-227881000D01*
X167327000Y-224579000D02*
X166565000Y-225341000D01*
X273880000Y-195750000D02*
X273245000Y-195115000D01*
X248861000Y-189781000D02*
X254195000Y-195115000D01*
X152976000Y-186479000D02*
X152341000Y-187114000D01*
X245305000Y-183939000D02*
X245305000Y-182415000D01*
X263148500Y-227881000D02*
X268482500Y-233215000D01*
X259529000Y-220388000D02*
X255338000Y-224579000D01*
X241241000Y-186479000D02*
X152976000Y-186479000D01*
X245305000Y-176954000D02*
X245305000Y-182415000D01*
X273880000Y-208450000D02*
X273880000Y-195750000D01*
X245305000Y-183939000D02*
X247845000Y-186479000D01*
X254703000Y-227881000D02*
X263148500Y-227881000D01*
X247845000Y-186479000D02*
X260291000Y-186479000D01*
X166565000Y-225341000D02*
X166565000Y-227246000D01*
X241241000Y-186479000D02*
X242765000Y-186479000D01*
X152341000Y-187114000D02*
X152341000Y-189146000D01*
X254830000Y-165905000D02*
X254830000Y-152887500D01*
X259529000Y-215435000D02*
X259529000Y-220388000D01*
X244670000Y-176065000D02*
X244670000Y-176319000D01*
X273880000Y-152887500D02*
X273245000Y-152252500D01*
X254830000Y-208450000D02*
X254830000Y-195750000D01*
X255338000Y-224579000D02*
X167327000Y-224579000D01*
X302455000Y-184066000D02*
X300042000Y-186479000D01*
X285945000Y-186479000D02*
X283405000Y-183939000D01*
X292930000Y-165905000D02*
X292930000Y-152887500D01*
X316107500Y-214165000D02*
X316107500Y-216006500D01*
X316107500Y-214165000D02*
X316107500Y-212577500D01*
X372559000Y-189781000D02*
X373194000Y-189146000D01*
X302455000Y-184066000D02*
X302455000Y-176700000D01*
X292295000Y-195115000D02*
X297629000Y-189781000D01*
X306582500Y-233215000D02*
X306519000Y-233215000D01*
X358970000Y-225341000D02*
X358970000Y-227246000D01*
X311980000Y-208450000D02*
X311980000Y-195750000D01*
X297629000Y-189781000D02*
X306011000Y-189781000D01*
X292866500Y-227881000D02*
X287532500Y-233215000D01*
X319219000Y-224579000D02*
X358208000Y-224579000D01*
X316679000Y-216578000D02*
X316679000Y-222039000D01*
X358970000Y-227246000D02*
X358335000Y-227881000D01*
X302455000Y-176700000D02*
X301820000Y-176065000D01*
X316679000Y-222039000D02*
X319219000Y-224579000D01*
X311980000Y-152887500D02*
X311345000Y-152252500D01*
X311980000Y-165905000D02*
X311980000Y-152887500D01*
X292930000Y-152887500D02*
X292295000Y-152252500D01*
X306011000Y-189781000D02*
X311345000Y-195115000D01*
X373194000Y-187114000D02*
X372559000Y-186479000D01*
X297057500Y-212577500D02*
X292930000Y-208450000D01*
X358208000Y-224579000D02*
X358970000Y-225341000D01*
X292930000Y-208450000D02*
X292930000Y-195750000D01*
X316107500Y-212577500D02*
X311980000Y-208450000D01*
X301820000Y-176065000D02*
X311980000Y-165905000D01*
X300042000Y-186479000D02*
X285945000Y-186479000D01*
X311980000Y-195750000D02*
X311345000Y-195115000D01*
X358335000Y-227881000D02*
X311916500Y-227881000D01*
X311345000Y-195115000D02*
X316679000Y-189781000D01*
X316679000Y-189781000D02*
X372559000Y-189781000D01*
X372559000Y-186479000D02*
X304868000Y-186479000D01*
X306519000Y-233215000D02*
X301185000Y-227881000D01*
X301185000Y-227881000D02*
X292866500Y-227881000D01*
X297057500Y-214165000D02*
X297057500Y-212577500D01*
X292295000Y-195115000D02*
X292422000Y-195115000D01*
X316107500Y-216006500D02*
X316679000Y-216578000D01*
X311916500Y-227881000D02*
X306582500Y-233215000D01*
X292930000Y-195750000D02*
X292295000Y-195115000D01*
X282770000Y-176065000D02*
X292930000Y-165905000D01*
X283405000Y-176700000D02*
X282770000Y-176065000D01*
X304868000Y-186479000D02*
X302455000Y-184066000D01*
X373194000Y-189146000D02*
X373194000Y-187114000D01*
X283405000Y-183939000D02*
X283405000Y-176700000D01*
X327347000Y-247693000D02*
X327347000Y-245534000D01*
X354207500Y-214165000D02*
X354207500Y-215879500D01*
X354207500Y-215879500D02*
X354779000Y-216451000D01*
X349508500Y-228389000D02*
X344682500Y-233215000D01*
X345254000Y-233786500D02*
X345254000Y-251693500D01*
X338523000Y-185971000D02*
X323537000Y-185971000D01*
X350080000Y-195750000D02*
X349445000Y-195115000D01*
X325632500Y-233215000D02*
X325696000Y-233215000D01*
X372813000Y-190289000D02*
X373702000Y-189400000D01*
X354207500Y-212577500D02*
X350080000Y-208450000D01*
X327347000Y-245534000D02*
X326204000Y-244391000D01*
X340555000Y-183939000D02*
X338523000Y-185971000D01*
X331030000Y-208450000D02*
X331030000Y-195750000D01*
X339920000Y-176065000D02*
X359605000Y-156380000D01*
X335157500Y-212577500D02*
X331030000Y-208450000D01*
X354207500Y-214165000D02*
X354207500Y-212577500D01*
X350080000Y-208450000D02*
X350080000Y-195750000D01*
X372813000Y-185971000D02*
X342587000Y-185971000D01*
X325696000Y-233215000D02*
X330522000Y-228389000D01*
X331030000Y-195750000D02*
X330395000Y-195115000D01*
X344682500Y-252265000D02*
X347063750Y-252265000D01*
X320870000Y-176065000D02*
X340555000Y-156380000D01*
X335221000Y-190289000D02*
X344619000Y-190289000D01*
X340555000Y-183939000D02*
X340555000Y-176700000D01*
X340555000Y-176700000D02*
X339920000Y-176065000D01*
X326204000Y-244391000D02*
X326204000Y-233786500D01*
X323537000Y-185971000D02*
X321505000Y-183939000D01*
X359478000Y-227500000D02*
X358589000Y-228389000D01*
X358462000Y-224071000D02*
X359478000Y-225087000D01*
X330395000Y-195115000D02*
X335221000Y-190289000D01*
X344682500Y-233215000D02*
X345254000Y-233786500D01*
X373702000Y-186860000D02*
X372813000Y-185971000D01*
X345254000Y-251693500D02*
X344682500Y-252265000D01*
X349445000Y-195115000D02*
X354271000Y-190289000D01*
X354779000Y-222039000D02*
X356811000Y-224071000D01*
X359605000Y-152887500D02*
X358970000Y-152252500D01*
X344619000Y-190289000D02*
X349445000Y-195115000D01*
X340555000Y-156380000D02*
X340555000Y-152887500D01*
X321505000Y-183939000D02*
X321505000Y-176700000D01*
X321505000Y-176700000D02*
X320870000Y-176065000D01*
X358589000Y-228389000D02*
X349508500Y-228389000D01*
X330522000Y-228389000D02*
X339856500Y-228389000D01*
X339856500Y-228389000D02*
X344682500Y-233215000D01*
X354271000Y-190289000D02*
X372813000Y-190289000D01*
X326204000Y-233786500D02*
X325632500Y-233215000D01*
X354779000Y-216451000D02*
X354779000Y-222039000D01*
X373702000Y-189400000D02*
X373702000Y-186860000D01*
X359605000Y-156380000D02*
X359605000Y-152887500D01*
X323251250Y-251788750D02*
X327347000Y-247693000D01*
X340555000Y-152887500D02*
X339920000Y-152252500D01*
X356811000Y-224071000D02*
X358462000Y-224071000D01*
X335157500Y-214165000D02*
X335157500Y-212577500D01*
X359478000Y-225087000D02*
X359478000Y-227500000D01*
X342587000Y-185971000D02*
X340555000Y-183939000D01*
X323251250Y-252265000D02*
X323251250Y-251788750D01*
X394688750Y-246581750D02*
X394688750Y-247312000D01*
X370876250Y-233215000D02*
X370876250Y-231532250D01*
X393387000Y-242740000D02*
X393387000Y-245280000D01*
X369511000Y-245280000D02*
X369511000Y-242867000D01*
X374210000Y-186606000D02*
X374210000Y-186860000D01*
X368749000Y-195115000D02*
X374210000Y-189654000D01*
X369511000Y-242867000D02*
X371416000Y-240962000D01*
X378655000Y-181526000D02*
X378655000Y-176700000D01*
X397223699Y-195115000D02*
X398721000Y-196612301D01*
X368495000Y-195115000D02*
X368749000Y-195115000D01*
X371416000Y-247185000D02*
X369511000Y-245280000D01*
X398721000Y-196612301D02*
X398721000Y-200195000D01*
X374210000Y-189654000D02*
X374210000Y-186860000D01*
X397578000Y-233723000D02*
X397578000Y-238549000D01*
X373257500Y-214165000D02*
X373257500Y-212577500D01*
X370876250Y-231532250D02*
X369384000Y-230040000D01*
X397578000Y-238549000D02*
X393387000Y-242740000D01*
X378020000Y-176065000D02*
X385640000Y-168445000D01*
X401038750Y-202512750D02*
X401038750Y-203370000D01*
X370876250Y-252265000D02*
X371416000Y-251725250D01*
X397705000Y-156380000D02*
X397705000Y-152887500D01*
X378655000Y-156380000D02*
X378655000Y-152887500D01*
X392542451Y-195115000D02*
X397223699Y-195115000D01*
X371416000Y-233754750D02*
X370876250Y-233215000D01*
X358970000Y-176065000D02*
X378655000Y-156380000D01*
X376750000Y-185717000D02*
X376750000Y-188003000D01*
X392307500Y-252265000D02*
X394688750Y-252265000D01*
X398721000Y-200195000D02*
X401038750Y-202512750D01*
X373829000Y-223055000D02*
X373829000Y-214736500D01*
X361129000Y-185463000D02*
X359605000Y-183939000D01*
X394688750Y-247312000D02*
X394688750Y-252265000D01*
X378655000Y-176700000D02*
X378020000Y-176065000D01*
X369130000Y-208450000D02*
X369130000Y-195750000D01*
X378655000Y-152887500D02*
X378020000Y-152252500D01*
X385386000Y-168191000D02*
X385640000Y-168445000D01*
X376750000Y-188003000D02*
X378401000Y-189654000D01*
X369384000Y-227500000D02*
X373829000Y-223055000D01*
X369384000Y-230040000D02*
X369384000Y-227500000D01*
X369130000Y-195750000D02*
X368495000Y-195115000D01*
X378655000Y-181526000D02*
X378655000Y-182161000D01*
X374210000Y-189654000D02*
X374845000Y-189654000D01*
X385640000Y-168445000D02*
X397705000Y-156380000D01*
X373829000Y-214736500D02*
X373257500Y-214165000D01*
X371416000Y-240962000D02*
X371416000Y-233754750D01*
X392542451Y-193635451D02*
X392542451Y-195115000D01*
X374210000Y-186606000D02*
X373067000Y-185463000D01*
X374845000Y-189654000D02*
X375099000Y-189654000D01*
X397070000Y-233215000D02*
X397578000Y-233723000D01*
X373067000Y-185463000D02*
X361129000Y-185463000D01*
X378655000Y-183812000D02*
X376750000Y-185717000D01*
X378655000Y-182161000D02*
X378655000Y-183812000D01*
X397705000Y-152887500D02*
X397070000Y-152252500D01*
X371416000Y-251725250D02*
X371416000Y-247185000D01*
X388561000Y-189654000D02*
X392542451Y-193635451D01*
X359605000Y-183939000D02*
X359605000Y-176700000D01*
X378401000Y-189654000D02*
X388561000Y-189654000D01*
X375099000Y-189654000D02*
X376750000Y-188003000D01*
X373257500Y-212577500D02*
X369130000Y-208450000D01*
X397070000Y-233215000D02*
X380401250Y-233215000D01*
X370876250Y-252265000D02*
X368495000Y-252265000D01*
X393387000Y-245280000D02*
X394688750Y-246581750D01*
X359605000Y-176700000D02*
X358970000Y-176065000D01*
X440504000Y-212641000D02*
X442028000Y-214165000D01*
X442028000Y-214165000D02*
X463237000Y-214165000D01*
X440504000Y-233786500D02*
X440504000Y-247185000D01*
X440504000Y-251693500D02*
X439932500Y-252265000D01*
X439932500Y-195115000D02*
X440504000Y-194543500D01*
X440504000Y-212641000D02*
X440504000Y-195686500D01*
X439932500Y-176065000D02*
X440504000Y-175493500D01*
X467809000Y-225722000D02*
X460316000Y-233215000D01*
X463237000Y-214165000D02*
X467809000Y-218737000D01*
X420882500Y-176065000D02*
X421454000Y-175493500D01*
X436694000Y-248074000D02*
X436694000Y-249026500D01*
X420882500Y-176065000D02*
X421454000Y-176636500D01*
X421454000Y-194543500D02*
X420882500Y-195115000D01*
X440504000Y-175493500D02*
X440504000Y-152824000D01*
X467809000Y-218737000D02*
X467809000Y-225722000D01*
X421454000Y-152824000D02*
X420882500Y-152252500D01*
X440504000Y-176636500D02*
X439932500Y-176065000D01*
X440504000Y-152824000D02*
X439932500Y-152252500D01*
X439932500Y-233215000D02*
X440504000Y-233786500D01*
X440504000Y-194543500D02*
X440504000Y-176636500D01*
X440504000Y-247185000D02*
X440504000Y-251693500D01*
X440504000Y-195686500D02*
X439932500Y-195115000D01*
X421454000Y-175493500D02*
X421454000Y-152824000D01*
X460316000Y-233215000D02*
X439932500Y-233215000D01*
X421454000Y-176636500D02*
X421454000Y-194543500D01*
X436694000Y-249026500D02*
X439932500Y-252265000D01*
X457776000Y-237279000D02*
X468825000Y-226230000D01*
X459554000Y-209974000D02*
X459554000Y-211752000D01*
X459554000Y-211752000D02*
X459935000Y-211752000D01*
X459554000Y-176636500D02*
X458982500Y-176065000D01*
X458982500Y-176065000D02*
X459554000Y-175493500D01*
X459554000Y-175493500D02*
X459554000Y-152824000D01*
X458982500Y-195115000D02*
X459554000Y-194543500D01*
X457776000Y-250995000D02*
X457776000Y-237279000D01*
X459554000Y-209974000D02*
X459554000Y-195686500D01*
X468825000Y-218229000D02*
X463745000Y-213149000D01*
X458982500Y-252265000D02*
X458982500Y-252201500D01*
X459554000Y-194543500D02*
X459554000Y-176636500D01*
X460824000Y-213149000D02*
X461332000Y-213149000D01*
X459554000Y-211879000D02*
X460824000Y-213149000D01*
X459554000Y-195686500D02*
X458982500Y-195115000D01*
X459554000Y-152824000D02*
X458982500Y-152252500D01*
X461332000Y-213149000D02*
X463745000Y-213149000D01*
X468825000Y-226230000D02*
X468825000Y-218229000D01*
X458982500Y-252201500D02*
X457776000Y-250995000D01*
X459554000Y-211752000D02*
X459554000Y-211879000D01*
X411548000Y-152189000D02*
X410151000Y-152189000D01*
X410151000Y-152189000D02*
X408881000Y-153459000D01*
X414342000Y-152189000D02*
X414850000Y-152189000D01*
X414850000Y-152189000D02*
X415104000Y-152189000D01*
X415104000Y-152189000D02*
X416374000Y-153459000D01*
X450186700Y-168960000D02*
X450283000Y-212768000D01*
X450283000Y-212768000D02*
X449648000Y-213403000D01*
X146753000Y-164381000D02*
X146499000Y-164635000D01*
X146499000Y-205402000D02*
X151706000Y-210609000D01*
X146499000Y-164635000D02*
X146499000Y-205402000D01*
X151706000Y-210609000D02*
X151706000Y-219880000D01*
X450791000Y-156253000D02*
X450283000Y-155745000D01*
X450791000Y-209212000D02*
X450791000Y-210482000D01*
X450791000Y-209212000D02*
X450791000Y-156253000D01*
X451045000Y-213403000D02*
X450791000Y-213149000D01*
X450791000Y-213149000D02*
X450791000Y-210482000D01*
X454855000Y-156888000D02*
X454855000Y-151427000D01*
X453077000Y-158666000D02*
X454855000Y-156888000D01*
X416247000Y-165016000D02*
X409643000Y-165016000D01*
X370527000Y-163619000D02*
X370654000Y-163619000D01*
X370273000Y-163619000D02*
X370527000Y-163619000D01*
X370654000Y-163619000D02*
X372051000Y-162222000D01*
X416374000Y-165143000D02*
X416247000Y-165016000D01*
X372051000Y-162222000D02*
X372051000Y-154983000D01*
X409643000Y-165016000D02*
X409389000Y-165270000D01*
X153992000Y-149776000D02*
X154246000Y-149776000D01*
X145991000Y-205656000D02*
X145991000Y-157777000D01*
X145991000Y-157777000D02*
X153992000Y-149776000D01*
X148023000Y-208831000D02*
X148023000Y-207688000D01*
X148023000Y-207688000D02*
X145991000Y-205656000D01*
X139387000Y-205529000D02*
X139387000Y-208450000D01*
X149730000Y-253225000D02*
X147896000Y-255059000D01*
X139387000Y-208450000D02*
X141546000Y-210609000D01*
X144594000Y-215308000D02*
X144594000Y-229514000D01*
X141546000Y-212260000D02*
X144594000Y-215308000D01*
X144594000Y-229514000D02*
X149730000Y-234650000D01*
X141546000Y-210609000D02*
X141546000Y-212260000D01*
X149730000Y-234650000D02*
X149730000Y-253225000D01*
X450283000Y-254678000D02*
X450283000Y-247185000D01*
X450283000Y-246550000D02*
X450283000Y-247185000D01*
X450283000Y-255440000D02*
X450283000Y-254678000D01*
X457014000Y-210101000D02*
X460570000Y-213657000D01*
X457268000Y-237025000D02*
X457268000Y-248709000D01*
X468317000Y-218483000D02*
X468317000Y-225976000D01*
X463491000Y-213657000D02*
X468317000Y-218483000D01*
X460570000Y-213657000D02*
X463491000Y-213657000D01*
X468317000Y-225976000D02*
X457268000Y-237025000D01*
X457268000Y-248709000D02*
X456125000Y-249852000D01*
X455871000Y-210101000D02*
X457014000Y-210101000D01*
X393641000Y-221277000D02*
X391609000Y-223309000D01*
X374845000Y-210609000D02*
X379671000Y-215435000D01*
X381830000Y-218991000D02*
X381830000Y-219245000D01*
X381830000Y-219245000D02*
X385894000Y-223309000D01*
X379671000Y-215435000D02*
X379671000Y-219245000D01*
X374718000Y-188384000D02*
X374972000Y-188638000D01*
X374845000Y-208831000D02*
X374845000Y-210609000D01*
X393895000Y-221277000D02*
X393641000Y-221277000D01*
X379671000Y-219245000D02*
X379417000Y-219499000D01*
X375988000Y-207688000D02*
X374845000Y-208831000D01*
X379417000Y-219499000D02*
X379163000Y-219499000D01*
X369257000Y-180891000D02*
X374718000Y-186352000D01*
X375988000Y-196893000D02*
X375988000Y-207688000D01*
X374718000Y-186352000D02*
X374718000Y-188384000D01*
X369003000Y-180891000D02*
X369257000Y-180891000D01*
X385894000Y-223309000D02*
X391609000Y-223309000D01*
X375988000Y-196131000D02*
X375988000Y-196893000D01*
X385640000Y-223817000D02*
X380941000Y-219118000D01*
X393387000Y-222293000D02*
X391863000Y-223817000D01*
X380941000Y-219118000D02*
X380941000Y-218991000D01*
X391863000Y-223817000D02*
X385640000Y-223817000D01*
X393895000Y-222293000D02*
X393387000Y-222293000D01*
X433310000Y-238135200D02*
X433646000Y-238471200D01*
X433646000Y-256202000D02*
X432630000Y-257218000D01*
X433646000Y-238471200D02*
X433646000Y-256202000D01*
X434154000Y-256202000D02*
X435170000Y-257218000D01*
X434550000Y-238135200D02*
X434154000Y-238531200D01*
X434154000Y-238531200D02*
X434154000Y-256202000D01*
M02*
