M48
; DRILL file {KiCad (6.0.1-0)} date 2022 January 18, Tuesday 02:05:57
; FORMAT={-:-/ absolute / metric / decimal}
; #@! TF.CreationDate,2022-01-18T02:05:57+01:00
; #@! TF.GenerationSoftware,Kicad,Pcbnew,(6.0.1-0)
; #@! TF.FileFunction,NonPlated,1,2,NPTH
FMAT,2
METRIC
; #@! TA.AperFunction,NonPlated,NPTH,ComponentDrill
T1C0.650
; #@! TA.AperFunction,NonPlated,NPTH,ComponentDrill
T2C1.750
; #@! TA.AperFunction,NonPlated,NPTH,ComponentDrill
T3C3.048
; #@! TA.AperFunction,NonPlated,NPTH,ComponentDrill
T4C3.988
%
G90
G05
T1
X409.896Y-149.042
X415.676Y-149.042
T2
X129.1Y-154.792
X129.1Y-178.605
X131.481Y-216.705
X131.481Y-235.755
X131.481Y-254.805
X133.862Y-197.655
X133.862Y-254.805
X136.244Y-216.705
X139.26Y-154.792
X139.26Y-178.605
X141.006Y-235.755
X141.641Y-216.705
X141.641Y-235.755
X141.641Y-254.805
X144.022Y-197.655
X144.022Y-254.805
X146.404Y-216.705
X148.15Y-178.605
X151.166Y-235.755
X152.912Y-235.755
X155.294Y-254.805
X157.675Y-197.655
X157.675Y-254.805
X158.31Y-178.605
X162.438Y-216.705
X163.072Y-235.755
X165.454Y-254.805
X167.2Y-154.792
X167.2Y-178.605
X167.835Y-197.655
X167.835Y-254.805
X171.963Y-235.755
X172.597Y-216.705
X176.725Y-197.655
X177.36Y-154.792
X177.36Y-178.605
X179.106Y-254.805
X181.487Y-216.705
X181.487Y-254.805
X182.123Y-235.755
X186.25Y-154.792
X186.25Y-178.605
X186.885Y-197.655
X189.266Y-254.805
X191.012Y-235.755
X191.647Y-216.705
X191.647Y-254.805
X195.775Y-197.655
X196.41Y-154.792
X196.41Y-178.605
X200.537Y-216.705
X201.172Y-235.755
X205.3Y-154.792
X205.3Y-178.605
X205.935Y-197.655
X210.062Y-235.755
X210.697Y-216.705
X214.825Y-197.655
X215.46Y-154.792
X215.46Y-178.605
X219.587Y-216.705
X220.222Y-235.755
X224.35Y-154.792
X224.35Y-178.605
X224.985Y-197.655
X229.112Y-235.755
X229.748Y-216.705
X233.875Y-197.655
X234.51Y-154.792
X234.51Y-178.605
X238.637Y-216.705
X239.272Y-235.755
X243.4Y-178.605
X244.035Y-197.655
X248.162Y-235.755
X248.797Y-216.705
X250.544Y-254.805
X252.925Y-154.792
X252.925Y-197.655
X253.56Y-178.605
X257.688Y-216.705
X258.322Y-235.755
X260.704Y-254.805
X262.45Y-178.605
X262.45Y-254.805
X263.085Y-154.792
X263.085Y-197.655
X267.212Y-235.755
X267.847Y-216.705
X271.975Y-154.792
X271.975Y-197.655
X272.61Y-178.605
X272.61Y-254.805
X276.738Y-216.705
X277.373Y-235.755
X281.5Y-178.605
X282.135Y-154.792
X282.135Y-197.655
X286.262Y-235.755
X286.897Y-216.705
X291.025Y-154.792
X291.025Y-197.655
X291.66Y-178.605
X295.787Y-216.705
X296.423Y-235.755
X300.55Y-178.605
X301.185Y-154.792
X301.185Y-197.655
X305.312Y-235.755
X305.947Y-216.705
X310.075Y-154.792
X310.075Y-197.655
X310.71Y-178.605
X314.837Y-216.705
X315.472Y-235.755
X319.6Y-178.605
X320.235Y-154.792
X320.235Y-197.655
X321.981Y-254.805
X324.363Y-235.755
X324.998Y-216.705
X329.125Y-197.655
X329.76Y-178.605
X332.141Y-254.805
X333.887Y-216.705
X334.522Y-235.755
X338.65Y-154.792
X338.65Y-178.605
X339.285Y-197.655
X343.412Y-235.755
X343.412Y-254.805
X344.047Y-216.705
X345.794Y-254.805
X348.175Y-197.655
X348.81Y-154.792
X348.81Y-178.605
X352.938Y-216.705
X353.572Y-235.755
X353.572Y-254.805
X355.954Y-254.805
X357.7Y-154.792
X357.7Y-178.605
X358.335Y-197.655
X363.097Y-216.705
X367.225Y-197.655
X367.225Y-254.805
X367.86Y-154.792
X367.86Y-178.605
X369.606Y-235.755
X369.606Y-254.805
X371.988Y-216.705
X376.75Y-154.792
X376.75Y-178.605
X377.385Y-197.655
X377.385Y-254.805
X379.131Y-235.755
X379.766Y-235.755
X379.766Y-254.805
X382.147Y-216.705
X383.894Y-216.705
X386.275Y-178.605
X386.91Y-154.792
X386.91Y-178.605
X389.291Y-235.755
X391.037Y-197.655
X391.037Y-254.805
X393.419Y-254.805
X394.054Y-216.705
X395.8Y-154.792
X395.8Y-178.605
X395.8Y-235.755
X396.435Y-178.605
X398.499Y-202.1
X398.499Y-212.26
X401.197Y-197.655
X401.197Y-254.805
X403.579Y-254.805
X405.96Y-154.792
X405.96Y-178.605
X405.96Y-235.755
X419.612Y-154.792
X419.612Y-178.605
X419.612Y-197.655
X419.612Y-254.805
X429.772Y-154.792
X429.772Y-178.605
X429.772Y-197.655
X429.772Y-254.805
X438.662Y-154.792
X438.662Y-178.605
X438.662Y-235.755
X438.662Y-254.805
X438.67Y-197.67
X448.822Y-154.792
X448.822Y-178.605
X448.822Y-235.755
X448.822Y-254.805
X448.83Y-197.67
X457.712Y-154.792
X457.712Y-178.605
X457.712Y-197.655
X457.712Y-254.805
X467.873Y-154.792
X467.873Y-178.605
X467.873Y-197.655
X467.873Y-254.805
T3
X134.18Y-228.77
X157.993Y-228.77
X205.624Y-261.79
X210.38Y-261.79
X305.624Y-261.79
X324.68Y-261.79
X372.305Y-228.77
X377.067Y-209.72
X379.449Y-171.62
X396.118Y-228.77
X400.88Y-209.72
X403.261Y-171.62
X405.484Y-195.242
X405.484Y-219.118
T4
X134.18Y-154.792
X134.18Y-178.605
X134.18Y-244.01
X136.561Y-216.705
X136.561Y-235.755
X136.561Y-254.805
X138.942Y-197.655
X138.942Y-254.805
X141.324Y-216.705
X146.086Y-235.755
X153.23Y-178.605
X157.993Y-235.755
X157.993Y-244.01
X160.374Y-254.805
X162.755Y-197.655
X162.755Y-254.805
X167.517Y-216.705
X172.28Y-154.792
X172.28Y-178.605
X177.042Y-235.755
X181.805Y-197.655
X184.186Y-254.805
X186.567Y-216.705
X186.567Y-254.805
X191.33Y-154.792
X191.33Y-178.605
X196.093Y-235.755
X200.855Y-197.655
X205.617Y-216.705
X205.624Y-246.55
X210.38Y-154.792
X210.38Y-178.605
X210.38Y-246.55
X215.142Y-235.755
X219.905Y-197.655
X224.667Y-216.705
X229.43Y-154.792
X229.43Y-178.605
X234.192Y-235.755
X238.955Y-197.655
X243.718Y-216.705
X248.48Y-178.605
X253.242Y-235.755
X255.624Y-254.805
X258.005Y-154.792
X258.005Y-197.655
X262.767Y-216.705
X267.53Y-178.605
X267.53Y-254.805
X272.292Y-235.755
X277.055Y-154.792
X277.055Y-197.655
X281.817Y-216.705
X286.58Y-178.605
X291.342Y-235.755
X296.105Y-154.792
X296.105Y-197.655
X300.868Y-216.705
X305.624Y-246.55
X305.63Y-178.605
X310.392Y-235.755
X315.155Y-154.792
X315.155Y-197.655
X319.917Y-216.705
X324.68Y-178.605
X324.68Y-246.55
X327.061Y-254.805
X329.442Y-235.755
X334.205Y-197.655
X338.967Y-216.705
X343.73Y-154.792
X343.73Y-178.605
X348.493Y-235.755
X348.493Y-254.805
X350.874Y-254.805
X353.255Y-197.655
X358.017Y-216.705
X362.78Y-154.792
X362.78Y-178.605
X372.305Y-197.655
X372.305Y-244.01
X372.305Y-254.805
X374.686Y-235.755
X374.686Y-254.805
X377.067Y-216.705
X377.067Y-224.96
X379.449Y-186.86
X381.83Y-154.792
X381.83Y-178.605
X384.211Y-235.755
X388.974Y-216.705
X390.244Y-195.242
X390.244Y-219.118
X391.355Y-178.605
X396.118Y-197.655
X396.118Y-244.01
X396.118Y-254.805
X398.499Y-207.18
X398.499Y-254.805
X400.88Y-154.792
X400.88Y-178.605
X400.88Y-224.96
X400.88Y-235.755
X403.261Y-186.86
X424.692Y-154.792
X424.692Y-178.605
X424.692Y-197.655
X424.692Y-254.805
X443.743Y-154.792
X443.743Y-178.605
X443.743Y-235.755
X443.743Y-254.805
X443.75Y-197.67
X462.792Y-154.792
X462.792Y-178.605
X462.792Y-197.655
X462.792Y-254.805
T0
M30
